<svg width="393" height="426" viewBox="0 0 393 426" fill="none" xmlns="http://www.w3.org/2000/svg">
<path fill-rule="evenodd" clip-rule="evenodd" d="M443.325 171.923C459.919 258.315 370.408 316.492 292.141 356.657C214.912 396.29 122.12 427.565 56.983 370.187C-18.3481 303.829 -47.5691 189.007 4.12944 102.952C48.782 28.6257 151.48 56.8575 237.138 70.3092C320.824 83.4512 427.346 88.7329 443.325 171.923Z" fill="#FFCEC7"/>
<path fill-rule="evenodd" clip-rule="evenodd" d="M110.85 101.433C111.14 103.172 111.188 104.911 110.995 106.601L115 109.306L112.105 116.697L107.376 116.021C106.362 117.421 105.156 118.677 103.805 119.788L104.722 124.522L97.4353 127.758L94.5883 123.894C92.8511 124.136 91.114 124.184 89.3768 123.991L86.7228 128L79.2916 125.15L79.9672 120.368C78.5678 119.354 77.3131 118.146 76.2033 116.793L71.5226 117.711L68.2895 110.466L72.1499 107.567C71.8604 105.828 71.8121 104.089 72.0051 102.399L68 99.6937L70.8953 92.2549L75.6242 92.9794C76.6376 91.5786 77.8439 90.3227 79.1951 89.2117L78.2782 84.4779L85.5647 81.2415L88.4117 85.1059C90.1489 84.816 91.886 84.816 93.6232 84.9609L96.2772 81L103.708 83.8499L103.033 88.6321C104.384 89.5981 105.687 90.8058 106.748 92.2066L111.477 91.2405L114.71 98.5344L110.85 101.433ZM99.462 101.384C97.5318 97.0853 92.4651 95.1048 88.1704 97.037C83.8758 98.9692 81.9456 103.993 83.8275 108.292C85.7577 112.639 90.7762 114.571 95.1191 112.639C99.4138 110.755 101.344 105.683 99.462 101.384Z" fill="#E0E0E0"/>
<path fill-rule="evenodd" clip-rule="evenodd" d="M74.3447 255.451C74.5311 256.608 74.5311 257.765 74.4379 258.874L77 260.658L75.1366 265.575L72.1087 265.093C71.4565 266.009 70.7112 266.877 69.8261 267.6L70.4317 270.686L65.7733 272.855L63.9565 270.3C62.8385 270.493 61.7205 270.493 60.6491 270.397L58.9255 273L54.2205 271.12L54.6397 267.986C53.7391 267.311 52.9472 266.524 52.264 265.624L49.236 266.25L47.1863 261.429L49.6553 259.549C49.469 258.392 49.4224 257.235 49.5621 256.126L47 254.342L48.8168 249.425L51.8913 249.907C52.5124 248.975 53.2733 248.139 54.1739 247.4L53.5683 244.314L58.1801 242.193L60.0435 244.7C61.1615 244.555 62.2329 244.507 63.3509 244.652L65.0745 242L69.7795 243.88L69.3603 247.014C70.2298 247.689 71.0217 248.476 71.736 249.376L74.764 248.75L76.8137 253.571L74.3447 255.451ZM67.0776 255.403C65.8199 252.558 62.6056 251.305 59.8571 252.558C57.1087 253.812 55.8975 257.138 57.1087 259.983C58.3199 262.827 61.5342 264.129 64.2826 262.876C67.0311 261.574 68.2888 258.247 67.0776 255.403Z" fill="#F5F5F5"/>
<path fill-rule="evenodd" clip-rule="evenodd" d="M309.542 186.145C309.703 187.205 309.719 188.233 309.59 189.229L312 190.867L310.265 195.253L307.47 194.867C306.859 195.703 306.137 196.442 305.301 197.084L305.88 199.928L301.542 201.855L299.807 199.542C298.779 199.703 297.751 199.735 296.723 199.639L295.133 202L290.699 200.313L291.133 197.47C290.297 196.859 289.542 196.137 288.867 195.301L286.072 195.88L284.145 191.542L286.458 189.807C286.297 188.779 286.265 187.751 286.361 186.723L284 185.133L285.687 180.699L288.53 181.133C289.141 180.297 289.847 179.542 290.651 178.867L290.12 176.072L294.458 174.145L296.145 176.458C297.205 176.297 298.233 176.265 299.229 176.361L300.867 174L305.253 175.687L304.867 178.53C305.703 179.141 306.442 179.847 307.084 180.651L309.928 180.12L311.855 184.458L309.542 186.145ZM302.699 186.096C301.59 183.542 298.554 182.386 296 183.494C293.446 184.651 292.289 187.639 293.398 190.241C294.554 192.795 297.542 193.952 300.145 192.795C302.699 191.687 303.855 188.651 302.699 186.096Z" fill="#EBEBEB"/>
<g filter="url(#filter0_d_3006_1087)">
<path d="M4.5657 172.67C5.93197 173.672 11.635 176.502 15.2973 177.974C19.2077 179.571 26.6769 181.688 28.9648 181.836C32.0461 182.035 33.3919 180.997 32.8379 178.847C32.4561 177.461 31.2844 176.08 28.2282 173.46C26.9947 172.382 25.8661 171.334 25.7637 171.155C25.6484 170.953 28.6818 171.685 32.4688 172.758C36.2908 173.841 40.8013 174.946 42.4776 175.205C50.2243 176.421 50.7509 176.417 51.0261 175.1C51.348 173.609 50.2344 172.997 43.9907 171.071C38.4016 169.364 25.5784 166.208 23.8205 166.114C21.4662 166.005 19.8758 166.974 19.9535 168.445C20.0125 169.986 21.0502 171.235 26.4067 176.285C27.8288 177.641 28.99 178.849 28.962 178.954C28.8687 179.305 22.5072 177.891 18.5257 176.632C13.7497 175.114 9.23001 173.48 6.85141 172.403C5.82752 171.949 4.54618 171.404 3.99637 171.213L3.00157 170.861L3.32181 171.42C3.479 171.747 4.06252 172.304 4.5657 172.67Z" fill="black" fill-opacity="0.6" shape-rendering="crispEdges"/>
</g>
<path d="M220.864 307.469C217.348 311.648 214.16 318.574 212.179 319.676C210.198 320.778 206.862 321.155 203.711 331.307C200.561 341.459 216.475 340.066 216.475 340.066C216.475 340.066 223.284 336.154 226.032 326.708L232.848 320.66L220.864 307.469Z" fill="#FFBE9D"/>
<path d="M208.546 338.952C208.546 338.952 213.696 337.274 218.066 332.656C222.455 328.02 223.018 319.781 223.018 319.781L225.116 323.706L229.32 319.212L231.344 319.014L232.835 320.66L226.02 326.708C223.272 336.154 216.463 340.066 216.463 340.066C216.463 340.066 212.074 340.444 208.36 339.342C208.453 339.1 208.533 338.952 208.533 338.952H208.546Z" fill="#EB996E"/>
<path d="M244.733 271.115C239.855 274.681 236.946 277.268 234.519 282.115C232.093 286.962 216.902 304.387 215.93 305.94C214.959 307.494 224.473 323.984 232.08 328.02C232.08 328.02 243.569 314.767 250.198 309.753C256.828 304.739 254.562 286.962 251.492 280.982C248.422 275.003 244.733 271.115 244.733 271.115Z" fill="#E8505B"/>
<path d="M244.553 303.198V293.3C244.553 293.3 245.84 292.787 246.849 296.123C247.252 297.46 247.221 298.865 247.041 300.072L254.438 294.508C254.742 300.735 253.745 307.073 250.198 309.754C243.569 314.767 232.08 328.02 232.08 328.02C230.118 326.98 228.026 325.105 226.026 322.876C230.706 318.215 239.582 309.227 244.553 303.198Z" fill="#E8505B"/>
<path d="M197.28 336.154C196.017 336.55 195.082 337.15 195.082 338.747C195.082 340.344 195.355 342.87 195.961 343.86C196.568 344.851 199.688 345.445 199.688 345.445C199.688 345.445 199.477 338.859 198.821 337.652C198.159 336.445 197.286 336.16 197.286 336.16L197.28 336.154Z" fill="#FFBE9D"/>
<path d="M195.961 343.86C195.794 343.582 195.652 343.173 195.528 342.709C196.203 343.378 196.432 343.378 197.261 343.47L199.632 344.207C199.669 344.95 199.682 345.445 199.682 345.445C199.682 345.445 196.562 344.851 195.955 343.86H195.961Z" fill="#EB996E"/>
<path d="M200.307 333.746C198.765 333.913 197.23 335.064 197.23 336.661C197.23 338.258 196.679 342.709 197.23 343.421C197.781 344.132 200.474 346.169 201.408 346.336C202.343 346.503 203.928 346.225 203.711 345.729C203.495 345.234 200.307 333.746 200.307 333.746Z" fill="#FFBE9D"/>
<path d="M196.989 342.226C198.159 343.545 201.143 343.427 201.143 343.427C201.143 343.427 202.455 344.826 202.616 345.278C202.715 345.55 203.253 345.909 203.321 346.182C202.826 346.367 201.984 346.441 201.403 346.336C200.486 346.175 197.887 344.219 197.268 343.47L196.995 342.232L196.989 342.226Z" fill="#EB996E"/>
<path d="M206.07 331.115C201.347 331.381 200.468 331.821 200.301 333.746C200.134 335.671 200.245 341.279 200.852 342.709C201.458 344.139 201.786 345.402 202.554 346.176C203.321 346.943 204.473 346.949 204.473 346.949C204.473 346.949 207.06 343.155 207.172 339.967C207.283 336.779 206.07 331.128 206.07 331.128V331.115Z" fill="#FFBE9D"/>
<path d="M203.352 343.786C203.594 342.48 204.126 341.087 204.188 336.717C204.213 335.076 205.736 343.65 205.055 346.002C204.714 346.584 204.473 346.943 204.473 346.943C204.473 346.943 203.321 346.943 202.554 346.169C201.786 345.401 201.452 344.132 200.852 342.709C200.815 342.616 200.777 342.505 200.74 342.375C201.05 343.179 202.028 343.705 203.352 343.786Z" fill="#EB996E"/>
<path d="M216.413 340.784C216.116 343.409 212.674 344.356 212.29 345.674C211.907 346.993 212.179 348.206 211.523 348.534C210.861 348.862 208.112 347.327 208.224 345.563C208.224 345.563 207.512 347.048 205.915 347.321C204.318 347.593 203.934 346.429 204.212 344.678C204.485 342.926 204.435 341.991 204.38 339.899C204.324 337.813 203.829 335.888 204.763 333.579C205.698 331.27 206.961 329.233 209.493 329.623C212.024 330.007 213.559 333.195 214.934 334.297C216.308 335.399 216.747 337.869 216.419 340.784H216.413Z" fill="#FFBE9D"/>
<path d="M208.218 345.569C208.372 342.226 208.546 339.496 208.546 338.958C208.546 338.419 208.372 334.872 209.629 334.656C209.821 334.625 212.594 336.383 212.643 337.565C212.699 338.747 212.643 340.877 211.783 341.483C210.923 342.09 208.211 345.569 208.211 345.569H208.218Z" fill="#EB996E"/>
<path d="M322.782 278.24C317.768 271.883 316.048 271.233 310.873 268.218C305.698 265.204 286.088 257.547 282.046 256.581C278.004 255.609 261.705 263.21 256.357 265.631C251.009 268.057 244.206 270.44 243.042 272.805C239.161 280.716 246.849 291.926 246.886 315.417C246.905 327.723 249.709 355.392 249.709 355.392C249.709 355.392 311.294 355.51 312.16 354.216C313.021 352.923 315.175 308.738 316.258 299.688C317.335 290.638 322.776 278.246 322.776 278.246L322.782 278.24Z" fill="#E8505B"/>
<path d="M243.271 285.191C242.411 282.208 241.965 279.162 241.953 276.061C242.813 279.038 243.253 282.09 243.271 285.191Z" fill="#263238"/>
<path d="M266.299 275.937C263.922 275.046 258.282 276.593 257.249 276.952C256.221 277.311 257.855 272.904 258.462 272.359C259.069 271.814 260.04 270.546 261.897 271.115C263.754 271.691 265.321 273.82 265.587 274.52C265.859 275.219 266.299 275.931 266.299 275.931V275.937Z" fill="#263238"/>
<path d="M286.125 279.614C285.277 279.571 280.325 277.299 279.143 276.73C277.96 276.16 272.588 275.9 268.979 276.909C268.979 276.909 275.918 272.217 279.96 272.261C284.002 272.304 285.537 273.759 285.859 275.046C286.181 276.34 286.119 279.614 286.119 279.614H286.125Z" fill="#263238"/>
<path d="M259.65 345.482C260.313 344.838 300.535 346.125 301.34 341.922C302.145 337.719 302.702 330.075 302.702 330.075C297.861 332.662 290.829 331.585 290.829 331.585C295.515 330.056 302.306 322.362 302.628 320.103C303.624 313.133 299.898 293.913 299.898 293.913L302.628 288.422L305.822 286.646C305.822 286.646 311.876 289.66 317.05 295.206C316.704 296.741 316.419 298.252 316.252 299.682C315.237 308.218 313.262 347.97 312.315 353.578C299.855 354.036 277.273 354.866 262.163 355.386C254.841 355.404 249.703 355.392 249.703 355.392C249.703 355.392 249.61 351.752 249.387 346.534C253.603 346.286 259.229 345.884 259.638 345.488L259.65 345.482Z" fill="#E8505B"/>
<path d="M267.821 277.107C272.16 276.581 279.137 272.824 281.885 274.117C284.633 275.411 285.277 278.723 285.847 279.292C286.416 279.862 288.836 277.027 288.836 270.075C288.836 263.124 289.047 256.005 283.934 255.04C278.815 254.074 265.562 259.082 262.894 261.106C260.226 263.124 259.093 265.173 258.369 267.141C257.639 269.11 255.701 277.027 256.592 277.107C257.484 277.188 259.985 272.013 261.848 271.852C263.705 271.691 266.651 277.25 267.827 277.107H267.821Z" fill="#E8505B"/>
<path d="M265.352 270.88C264.244 268.255 263.03 265.952 263.074 264.133C263.117 262.313 263.519 261.062 265.537 260.493C267.555 259.923 268.409 261.019 268.527 263.767C268.651 266.516 265.352 270.88 265.352 270.88Z" fill="#263238"/>
<path d="M281.198 265.984C285.426 262.152 285.902 257.868 285.506 256.977C285.11 256.086 283.365 255.442 283.365 255.442C283.365 255.442 282.677 258.227 283.08 258.914C283.482 259.602 281.198 265.977 281.198 265.977V265.984Z" fill="#263238"/>
<path d="M274.469 275.25C277.05 274.272 281.371 273.176 282.764 274.649C284.157 276.116 284.497 276.655 285.172 277.973C285.846 279.292 286.094 280.517 287.66 277.261C289.226 274.006 288.836 267.531 288.836 267.531" fill="#E8505B"/>
<path d="M274.469 275.25C276.71 274.346 280.56 272.842 282.795 274.303C284.095 275.485 285.079 276.94 285.778 278.499C285.89 278.729 286.057 279.001 286.131 279.026C286.137 279.026 286.131 279.044 286.224 278.988C288.793 275.869 288.663 271.387 288.836 267.531C289.096 271.449 289.362 276.358 286.571 279.49C285.958 279.954 285.438 279.286 285.221 278.784C284.547 277.243 283.618 275.875 282.448 274.724C282.083 274.42 281.557 274.266 281.024 274.197C278.827 273.999 276.58 274.631 274.469 275.25Z" fill="#263238"/>
<path d="M264.515 273.801C264.515 273.801 262.411 271.406 261.569 271.913C260.721 272.421 259.706 273.071 258.375 275.213C257.05 277.354 255.459 278.401 256.827 273.015" fill="#E8505B"/>
<path d="M264.516 273.801C263.711 273.164 262.826 272.13 261.767 272.086C260.053 273.003 259.13 274.705 258.016 276.246C256.289 278.326 255.757 276.673 256.283 274.816C256.438 274.203 256.611 273.603 256.828 273.015C256.704 274.179 256.345 275.466 256.611 276.605C256.63 276.661 256.661 276.686 256.673 276.692C256.747 276.692 256.859 276.624 256.976 276.525C257.651 275.918 258.047 275.107 258.579 274.34C259.366 273.225 260.375 272.142 261.668 271.635C262.888 271.61 263.816 272.959 264.516 273.801Z" fill="#263238"/>
<path d="M264.757 255.095C264.769 256.804 264.838 258.506 265.011 260.202C265.444 264.368 265.017 269.865 265.351 270.88C265.717 272.013 267.902 276.055 267.902 276.055C267.902 276.055 271.783 274.278 273.398 272.335C275.014 270.397 277.119 270.298 279.947 267.438C282.776 264.578 284.701 260.035 284.07 256.253C283.99 255.77 283.494 250.929 283.383 245.916C283.271 240.902 278.01 237.095 272.996 237.095C267.982 237.095 264.986 244.529 264.831 249.543C264.769 251.598 264.757 253.529 264.763 255.089L264.757 255.095Z" fill="#FFBE9D"/>
<path d="M283.377 245.915C283.488 250.929 283.983 255.77 284.064 256.253C284.256 257.422 284.206 258.66 283.965 259.905C282.857 260.109 268.583 260.456 264.887 258.735C264.801 257.521 264.763 256.308 264.757 255.095C264.751 253.535 264.757 251.604 264.825 249.549C264.893 247.426 265.469 244.863 266.497 242.622L278.239 238.462C281.117 239.998 283.315 242.709 283.383 245.921L283.377 245.915Z" fill="#EB996E"/>
<path d="M255.968 225.049C248.385 225.049 245.55 230.874 245.55 235.238C245.55 239.156 246.806 245.427 255.968 245.427C260.548 245.427 263.649 240.865 263.649 235.238C263.649 229.611 260.548 225.049 255.968 225.049Z" fill="#455A64"/>
<path d="M255.633 227.544C249.907 227.544 247.766 231.945 247.766 235.238C247.766 238.197 248.713 242.932 255.633 242.932C259.093 242.932 261.433 239.485 261.433 235.238C261.433 230.992 259.093 227.544 255.633 227.544Z" fill="#372D5B"/>
<path d="M246.398 228.491C246.843 231.146 248.162 232.161 248.75 235.745C249.338 239.329 247.772 244.529 250.105 249.066C252.439 253.597 256.221 259.558 258.4 259.812C260.585 260.066 278.066 257.113 283.965 245.383C285.655 242.016 289.276 228.813 286.181 220.753C283.086 212.694 278.047 205.303 266.41 205.08C254.767 204.857 244.027 214.415 246.404 228.497L246.398 228.491Z" fill="#FFBE9D"/>
<path d="M256.135 243.013C256.754 243.025 257.441 242.79 257.744 242.381C258.01 242.022 258.122 241.552 258.047 241.112C257.137 241.861 256.023 241.991 254.903 241.793C254.767 242.629 255.41 242.988 256.135 243.006V243.013Z" fill="#D65863"/>
<path d="M276.729 228.491C276.283 225.73 274.439 224.133 274.439 224.133C274.439 224.133 269.988 222.288 266.546 221.948C263.105 221.614 259.576 220.605 259.576 220.605C259.576 220.605 260.666 223.365 262.517 224.548C262.517 224.548 254.29 224.133 251.69 221.694C251.69 221.694 252.192 223.7 252.699 225.049C252.699 225.049 248.67 224.634 247.413 223.037C247.413 223.037 246.404 226.547 246.404 228.484C246.404 228.484 241.563 221.861 242.795 216.6C244.027 211.338 245.704 209.326 245.704 209.326C245.704 209.326 242.232 209.661 240.332 209.326C240.332 209.326 244.807 205.408 248.168 202.833C251.523 200.258 261.6 200.147 261.6 200.147C261.6 200.147 260.814 197.46 261.712 193.208C261.712 193.208 266.02 199.534 270.582 201.465C275.144 203.396 274.531 203.229 279.366 204.455C284.2 205.674 288.799 208.769 290.731 211.375C292.662 213.981 294.76 216.662 296.017 217.082C296.017 217.082 292.996 216.662 291.486 215.405C291.486 215.405 294.005 221.131 290.675 228.497C287.345 235.863 279.001 233.684 277.385 232.056C275.769 230.428 276.735 228.497 276.735 228.497L276.729 228.491Z" fill="#263238"/>
<path d="M277.379 232.05C275.763 230.422 276.729 228.491 276.729 228.491C276.463 226.82 275.683 225.582 275.107 224.858C276.32 217.516 275.825 209.896 273.671 202.771C274.928 203.279 275.677 203.508 277.49 203.979C279.725 207.34 281.396 211.116 282.541 214.947C284.009 219.825 284.714 225.087 283.346 229.995C282.993 231.252 282.486 232.477 281.842 233.629C279.775 233.455 278.023 232.713 277.373 232.057L277.379 232.05Z" fill="#263238"/>
<path d="M279.657 225.755C279.657 225.755 280.232 207.346 270.576 201.465C270.576 201.465 278.047 200.623 282.331 208.095C286.614 215.566 286.323 221.973 286.212 225.563C286.107 229.153 279.657 225.748 279.657 225.748V225.755Z" fill="#455A64"/>
<path d="M282.597 225.049C290.18 225.049 293.015 230.874 293.015 235.238C293.015 239.156 291.758 245.427 282.597 245.427C278.016 245.427 274.915 240.865 274.915 235.238C274.915 229.611 278.016 225.049 282.597 225.049Z" fill="#455A64"/>
<path d="M278.512 235.244C278.512 230.248 281.811 226.2 285.878 226.2C289.945 226.2 293.021 230.248 293.021 235.244C293.021 240.239 289.945 244.287 285.878 244.287C281.811 244.287 278.512 240.239 278.512 235.244Z" fill="#263238"/>
<path d="M286.85 241.403C289.619 241.403 291.864 238.646 291.864 235.244C291.864 231.842 289.619 229.085 286.85 229.085C284.081 229.085 281.836 231.842 281.836 235.244C281.836 238.646 284.081 241.403 286.85 241.403Z" fill="#455A64"/>
<path d="M263.377 245.433C261.328 246.56 254.637 246.937 254.179 246.875C253.72 246.813 254.655 251.895 256.295 252.081C257.936 252.267 261.21 251.827 262.578 250.515C263.946 249.197 263.371 245.433 263.371 245.433H263.377Z" fill="#D65863"/>
<path d="M262.95 246.912C262.826 246.46 262.727 246.101 262.628 245.749C260.375 246.516 255.937 246.844 254.569 246.875C254.68 247.556 254.878 248.243 255.15 248.918C255.194 248.887 255.138 248.986 255.181 248.955C258.134 249.419 261.142 248.46 262.944 246.912H262.95Z" fill="white"/>
<path d="M262.473 233.281C262.473 232.353 262.931 231.604 263.494 231.604C264.058 231.604 264.516 232.353 264.516 233.281C264.516 234.21 264.058 234.959 263.494 234.959C262.931 234.959 262.473 234.21 262.473 233.281Z" fill="#3F1751"/>
<path d="M250.787 234.068C250.787 233.14 251.183 232.391 251.666 232.391C252.148 232.391 252.545 233.14 252.545 234.068C252.545 234.997 252.148 235.746 251.666 235.746C251.183 235.746 250.787 234.997 250.787 234.068Z" fill="#3F1751"/>
<path d="M268.193 226.739C267.493 226.355 266.744 226.089 265.971 225.866C265.197 225.655 264.392 225.538 263.575 225.507C262.764 225.463 261.91 225.445 261.124 225.748C260.338 226.021 259.626 226.516 259.1 227.166L259.161 227.265C260.003 227.172 260.703 226.968 261.439 226.869C262.157 226.763 262.857 226.497 263.606 226.435C265.092 226.311 266.651 226.429 268.149 226.844L268.199 226.739H268.193Z" fill="#3F1751"/>
<path d="M247.834 228.905C248.199 228.763 248.583 228.676 248.96 228.633C249.338 228.583 249.722 228.565 250.099 228.559C250.477 228.559 250.855 228.689 251.226 228.596C251.412 228.552 251.604 228.515 251.795 228.435C251.993 228.367 252.192 228.28 252.408 228.132L252.421 228.014C252.055 227.655 251.641 227.506 251.22 227.426C250.793 227.345 250.378 227.519 249.969 227.63C249.561 227.735 249.158 227.878 248.781 228.076C248.409 228.28 248.05 228.497 247.76 228.812L247.834 228.905Z" fill="#3F1751"/>
<path d="M259.651 349.468C259.651 349.728 259.292 350.106 258.4 350.106H230.366C227.134 350.106 226.379 348.825 227.351 347.209C228.323 345.593 232.415 342.034 242.548 339.558C252.675 337.082 258.004 342.876 259.651 345.488C260.858 347.401 259.651 349.468 259.651 349.468Z" fill="#455A64"/>
<path d="M227.116 347.692C227.673 349.549 249.066 348.577 249.066 348.577C249.066 348.577 246.899 345.649 244.497 345.562C242.102 345.476 240.932 346.311 237.719 346.862C234.507 347.413 236.89 345.556 236.89 345.556C236.89 345.556 234.618 345.055 233.696 344.337C233.696 344.337 238.994 342.771 241.217 342.406C243.439 342.04 249.096 342.282 249.827 342.406C250.341 342.492 252.953 340.976 256.11 341.737C257.868 343.025 259.038 344.479 259.663 345.476C260.87 347.388 259.663 349.456 259.663 349.456C259.663 349.716 259.304 350.094 258.412 350.094H230.378C227.475 350.094 226.577 349.066 227.122 347.686L227.116 347.692Z" fill="#263238"/>
<path d="M318.605 331.938C318.605 331.938 298.666 335.021 287.865 336.952C277.627 338.784 268.793 339.576 266.286 339.094C263.779 338.611 255.212 335.454 252.464 334.327C249.716 333.201 244.219 332.551 241.39 333.436C238.561 334.327 236.246 335.293 235.113 335.293C233.981 335.293 234.197 337.125 235.708 337.503C237.218 337.88 238.561 337.825 238.561 337.825C238.561 337.825 233.442 340.629 232.526 340.895C231.61 341.161 232.693 342.832 233.937 342.727C233.937 342.727 232.854 343.371 233.232 344.021C233.609 344.665 236.302 344.665 236.302 344.665C236.302 344.665 233.015 346.28 235.763 346.93C238.512 347.574 241.799 344.504 243.148 344.238C244.498 343.965 247.617 344.132 249.128 345.259C250.638 346.385 257.1 351.616 265.94 348.49C265.94 348.49 325.921 350.923 331.901 350.923C337.88 350.923 341.495 345.636 339.576 335.454C337.657 325.271 333.943 317.67 333.943 317.67L313.25 319.125L318.611 331.932L318.605 331.938Z" fill="#FFBE9D"/>
<path d="M243.284 336.215C243.81 336.092 244.231 336.017 244.497 336.005C244.497 336.005 243.984 336.092 243.284 336.215Z" fill="#D65863"/>
<path d="M238.561 337.831C238.561 337.831 237.212 337.887 235.708 337.509C235.28 337.404 234.965 337.181 234.748 336.915C236.426 337.658 238.493 337.181 239.62 336.915C240.331 336.748 242.083 336.426 243.284 336.209C242.083 336.494 240.325 337.045 238.561 337.831Z" fill="#D65863"/>
<path d="M238.827 340.258C238.957 340.202 239.069 340.152 239.137 340.134C239.137 340.134 239.019 340.183 238.827 340.258Z" fill="#D65863"/>
<path d="M232.539 342.102C232.539 342.102 233.151 342.641 234.396 342.102C235.436 341.651 237.949 340.617 238.828 340.258C237.726 340.759 234.736 342.449 233.938 342.734C233.387 342.783 232.867 342.48 232.539 342.102Z" fill="#D65863"/>
<path d="M235.633 344.083C236.549 343.811 238.462 342.653 239.632 342.102C240.802 341.551 242.3 341.483 242.3 341.483C242.3 341.483 241.854 341.527 240.684 342.102C239.515 342.678 236.302 344.677 236.302 344.677C236.302 344.677 234.575 344.677 233.69 344.343C233.696 344.343 234.723 344.349 235.633 344.083Z" fill="#D65863"/>
<path d="M252.687 345.401C254.383 346.453 259.397 347.828 262.387 347.258C265.376 346.689 266.026 344.188 266.026 344.188L266.862 346.881C266.862 346.881 308.459 348.069 316.921 347.685C325.284 347.308 338.326 347.122 340.028 342.096C339.564 347.927 336.401 350.929 331.901 350.929C325.921 350.929 265.94 348.496 265.94 348.496C257.1 351.622 250.638 346.398 249.128 345.265C247.871 344.324 245.506 344.058 243.965 344.145C246.262 343.34 250.991 344.349 252.687 345.401Z" fill="#EB996E"/>
<path d="M318.604 331.938C318.604 331.938 326.398 330.88 327.958 330.719L326.775 325.872L316.915 327.865L318.604 331.944V331.938Z" fill="#D65863"/>
<path d="M339.434 318.364C339.725 319.125 339.539 319.979 338.957 320.543C335.336 324.077 330.582 328.899 325.692 329.636C320.356 330.447 311.467 330.769 310.985 329.636C310.502 328.503 308.719 314.117 305.488 306.844C302.257 299.571 300.152 295.851 299.347 291.648C298.543 287.445 305.816 277.584 309.047 276.773C312.278 275.962 319.719 275.479 322.789 278.228C325.859 280.976 328.125 291.48 331.678 299.404C334.55 305.798 338.153 315.027 339.44 318.358L339.434 318.364Z" fill="#E8505B"/>
<path d="M319.422 276.643C319.422 276.643 314.042 275.541 309.035 276.785C304.033 278.023 300.511 286.646 300.511 286.646" fill="#E8505B"/>
<path d="M319.421 276.643C316.481 276.315 313.479 276.272 310.557 276.779C309.61 276.946 308.651 277.132 307.809 277.609C305.228 279.026 303.488 281.583 301.959 284.04C301.433 284.882 300.969 285.755 300.511 286.646C301.934 282.976 303.996 279.082 307.518 277.064C309.332 276.148 311.467 276.024 313.466 275.975C315.472 275.975 317.478 276.167 319.415 276.643H319.421Z" fill="#263238"/>
<path d="M335.398 321.341C335.373 318.76 329.92 295.083 325.098 281.879C327.147 286.386 329.059 293.591 331.671 299.41C334.544 305.804 338.146 315.033 339.434 318.363C339.725 319.125 339.539 319.979 338.957 320.542C337.571 321.898 336.017 323.439 334.352 324.869C334.476 324.745 335.423 323.755 335.398 321.341Z" fill="#E8505B"/>
<path d="M75.3798 294.668C75.2807 295.467 75.4479 296.265 75.8317 296.971C77.243 299.54 77.9548 302.486 77.862 305.408C77.8001 307.339 77.4039 309.308 77.9301 311.165C78.8338 314.371 82.2198 316.346 83.303 319.496C84.2687 322.288 83.3711 325.792 85.3767 327.958C85.8719 328.497 86.6456 328.905 87.3265 328.633C87.667 328.497 87.9208 328.212 88.1684 327.933C90.4649 325.321 92.9285 322.152 92.2167 318.747C91.5481 315.547 88.255 313.387 87.6298 310.18C87.1223 307.562 88.4593 304.535 86.9551 302.331C86.5404 301.725 85.9462 301.254 85.4943 300.672C83.7116 298.382 84.3677 294.724 82.3126 292.675C81.6441 292.006 80.8022 291.629 79.8861 291.431C77.732 290.973 75.6398 292.471 75.3736 294.662L75.3798 294.668Z" fill="#BA5E5B"/>
<path d="M88.453 335.312C88.5892 333.604 88.6511 331.902 88.713 330.187C88.6325 328.478 88.5459 326.776 88.3973 325.068C88.2487 323.365 88.0568 321.657 87.7597 319.961C87.4502 318.277 87.0479 316.556 86.3422 314.972C85.1042 311.84 84.1014 308.571 83.0924 305.328L81.6254 300.438C81.025 298.841 80.4369 297.237 79.8674 295.628C80.115 297.324 80.505 298.989 80.8455 300.667L82.3125 305.569C83.3277 308.825 84.3181 312.081 85.587 315.287C86.2741 316.823 86.6517 318.444 86.955 320.103C87.2521 321.762 87.4378 323.446 87.5864 325.136C87.7288 326.826 87.8278 328.522 87.8897 330.218L88.4468 335.306L88.453 335.312Z" fill="#FFA6A4"/>
<path d="M79.4464 300.728C79.7249 301.155 80.0901 301.471 80.4801 301.756C80.6782 301.892 80.9134 301.979 81.1301 302.09C81.3529 302.195 81.5448 302.338 81.7243 302.498L81.8048 302.567L81.8729 302.461C82.0338 302.214 82.2319 301.979 82.3866 301.731C82.5352 301.477 82.6961 301.223 82.8261 300.963C83.0861 300.431 83.278 299.868 83.377 299.261L83.3275 299.236C82.9004 299.682 82.5723 300.177 82.3062 300.703C82.1762 300.97 82.071 301.248 81.9595 301.52C81.8543 301.799 81.7862 302.096 81.6872 302.375L81.8357 302.338C81.6253 302.214 81.4334 302.071 81.2663 301.892C81.0991 301.719 80.9444 301.52 80.7587 301.366C80.3749 301.075 79.9601 300.827 79.4711 300.685L79.4402 300.728H79.4464Z" fill="#FFA6A4"/>
<path d="M79.8612 306.559C80.1521 306.801 80.4554 307.061 80.7711 307.277C81.0868 307.5 81.4087 307.717 81.7553 307.89C82.1081 308.057 82.4796 308.194 82.8138 308.386C83.1543 308.571 83.4638 308.806 83.7671 309.054L83.8723 309.141L83.9775 308.998C84.448 308.386 84.8441 307.736 85.2217 307.073C85.5746 306.399 85.8964 305.699 86.1193 304.95L86.0698 304.925C85.5436 305.507 85.1103 306.139 84.7141 306.788C84.3427 307.457 83.9899 308.132 83.7052 308.85L83.9218 308.794C83.569 308.627 83.2162 308.454 82.9005 308.237C82.5786 308.02 82.2938 307.748 81.9843 307.507C81.6687 307.277 81.3282 307.086 80.9816 306.912C80.6287 306.745 80.2759 306.578 79.8674 306.498L79.855 306.553L79.8612 306.559Z" fill="#FFA6A4"/>
<path d="M81.9351 314.26C82.2569 314.581 82.616 314.823 82.9812 315.04C83.3464 315.262 83.7487 315.411 84.1758 315.516C84.603 315.621 84.9867 315.807 85.3272 316.067C85.6676 316.327 86.0019 316.612 86.3485 316.841L86.6085 317.008L86.8004 316.717C87.0852 316.29 87.339 315.85 87.5432 315.38C87.7413 314.91 87.9208 314.427 88.0198 313.901L87.958 313.87C87.568 314.235 87.2523 314.643 86.9675 315.064C86.6766 315.485 86.4414 315.937 86.2371 316.408L86.689 316.29C86.299 316.073 85.8843 315.949 85.4696 315.807C85.061 315.665 84.6834 315.46 84.343 315.182C84.0087 314.897 83.6373 314.668 83.235 314.52C82.8326 314.365 82.4179 314.235 81.966 314.198L81.9351 314.26Z" fill="#FFA6A4"/>
<path d="M91.1642 335.646C92.4951 335.43 97.4966 333.826 97.15 332.52C95.652 326.918 94.154 320.561 99.3412 317.819C101.836 316.501 104.974 315.832 106.398 313.387C107.865 310.874 106.782 307.68 105.469 305.086C104.157 302.493 102.572 299.713 103.136 296.86C103.724 293.87 106.553 291.666 107.004 288.652C107.623 284.541 103.625 281.224 99.7931 279.62C98.487 279.076 97.0509 278.605 95.6767 278.939C94.6925 279.175 93.8445 279.806 93.1698 280.561C90.4771 283.576 90.5823 288.119 91.2013 292.118C91.8203 296.117 92.755 300.332 91.2509 304.09C90.18 306.757 87.8959 309.264 88.5087 312.068C88.7563 313.189 89.4558 314.173 89.7219 315.294C90.44 318.308 87.9392 321.025 86.7879 323.91C85.3084 327.624 86.3236 332.168 89.1339 334.99C89.6662 335.529 90.4276 335.783 91.1704 335.659L91.1642 335.646Z" fill="#E8505B"/>
<path d="M90.6938 335.708C91.0033 333.492 91.3128 331.282 91.709 329.085C91.8018 328.534 91.9194 327.989 92.0061 327.445C92.0866 326.894 92.1361 326.343 92.2289 325.792C92.3961 324.696 92.5818 323.601 92.786 322.511C93.207 320.338 93.7146 318.172 94.4574 316.117C94.8288 315.095 95.2744 314.086 95.8563 313.226C96.1472 312.793 96.4877 312.415 96.8653 312.155C97.3667 311.827 97.8433 311.406 98.2147 310.899C98.9823 309.877 99.2175 308.584 99.1865 307.42C99.1618 306.238 98.9389 305.111 98.6851 304.009C98.1714 301.805 97.5214 299.682 97.1624 297.516C96.7972 295.362 96.7291 293.158 97.2924 291.091C97.4657 290.589 97.6019 290.075 97.769 289.562C97.9361 289.048 98.159 288.553 98.4066 288.07C98.9018 287.098 99.5517 286.188 100.276 285.328C99.3908 286.021 98.5737 286.819 97.8928 287.742C97.5524 288.2 97.2305 288.689 96.9581 289.203C96.6734 289.71 96.4382 290.255 96.3144 290.824C95.6954 293.084 95.782 295.455 96.1596 297.689C96.531 299.936 97.1933 302.09 97.6947 304.238C97.9361 305.309 98.1466 306.386 98.1714 307.438C98.1961 308.485 97.9919 309.512 97.3976 310.298C97.1067 310.694 96.7353 311.022 96.302 311.307C95.7573 311.679 95.3487 312.155 95.0145 312.65C94.3459 313.641 93.8879 314.699 93.4979 315.77C92.7241 317.918 92.2104 320.116 91.7833 322.319C91.5728 323.421 91.3809 324.529 91.2138 325.643C91.1395 326.2 91.0343 326.751 90.9662 327.308C90.9105 327.865 90.8857 328.429 90.8486 328.986C90.7248 331.227 90.6443 333.467 90.6876 335.708H90.6938Z" fill="#FFA6A4"/>
<path d="M99.5517 291.969C99.1679 292.105 98.846 292.328 98.5489 292.563C98.2518 292.805 97.9732 293.065 97.7628 293.386C97.5523 293.708 97.3666 294.049 97.0942 294.315C96.8342 294.587 96.5186 294.816 96.2214 295.058L96.6176 295.082C96.4814 294.798 96.3205 294.525 96.1719 294.253C96.0172 293.981 95.8624 293.708 95.6767 293.455C95.5034 293.195 95.3053 292.953 95.1196 292.699C94.9277 292.452 94.7173 292.217 94.5439 291.957L94.4758 291.969C94.4635 292.316 94.5687 292.644 94.6739 292.947C94.7915 293.25 94.9215 293.547 95.0825 293.826C95.231 294.111 95.4167 294.371 95.6086 294.624C95.8005 294.878 95.9862 295.132 96.2152 295.367L96.4628 295.627L96.6114 295.392C96.8157 295.07 97.0076 294.736 97.2614 294.457C97.5028 294.166 97.8308 293.962 98.1403 293.739C98.456 293.516 98.6974 293.238 98.9389 292.953C99.1803 292.662 99.4031 292.365 99.6012 292.018L99.5579 291.963L99.5517 291.969Z" fill="#FFA6A4"/>
<path d="M94.705 300.455C94.8659 300.839 95.0702 301.186 95.2992 301.514C95.5345 301.836 95.7821 302.151 96.0606 302.43C96.3515 302.702 96.6796 302.938 96.9891 303.191C97.2924 303.451 97.5586 303.742 97.8 304.058L97.8743 304.157L97.9857 304.07C98.3881 303.748 98.71 303.457 99.0256 303.111C99.329 302.764 99.6508 302.442 99.9294 302.083C100.214 301.724 100.474 301.359 100.728 300.975C100.982 300.598 101.211 300.202 101.471 299.83L101.434 299.774C100.994 299.985 100.647 300.307 100.307 300.616C99.9727 300.932 99.657 301.272 99.3661 301.625C99.0752 301.978 98.8276 302.362 98.5552 302.727C98.289 303.086 98.0662 303.526 97.8124 303.841L97.9981 303.854C97.6886 303.6 97.4162 303.321 97.1748 302.999C96.9458 302.678 96.7353 302.331 96.4939 302.021C96.2463 301.718 95.9616 301.446 95.6768 301.167C95.3859 300.895 95.0826 300.641 94.7483 300.406L94.6926 300.449L94.705 300.455Z" fill="#FFA6A4"/>
<path d="M103.619 307.005C103.198 307.5 102.764 307.952 102.313 308.392C101.867 308.825 101.384 309.209 100.914 309.63C100.437 310.032 99.8985 310.397 99.2857 310.577C98.6791 310.769 98.0353 310.793 97.4101 310.787L97.6887 310.985C97.5772 310.459 97.4163 309.97 97.243 309.469C97.0758 308.967 96.8592 308.484 96.5992 308.026C96.3392 307.562 96.0359 307.123 95.6769 306.72C95.3117 306.33 94.8846 305.965 94.377 305.786L94.3398 305.841C94.7236 306.188 95.0207 306.59 95.2745 307.017C95.5345 307.445 95.7574 307.89 95.974 308.342L96.5992 309.716C96.8035 310.181 96.983 310.657 97.1625 311.128L97.2492 311.35L97.441 311.32C98.1034 311.214 98.7286 310.991 99.3414 310.775C99.948 310.54 100.573 310.329 101.167 310.026C101.768 309.729 102.275 309.277 102.703 308.763C103.13 308.255 103.476 307.674 103.662 307.036L103.6 307.005H103.619Z" fill="#FFA6A4"/>
<path d="M91.5605 312.019C91.3562 312.508 91.2881 313.046 91.3005 313.573C91.3252 314.099 91.4057 314.637 91.5914 315.132C91.7833 315.628 92.0742 316.08 92.3899 316.494L93.3246 317.732L93.3927 317.819L93.4979 317.745C94.0055 317.386 94.575 317.113 95.1259 316.829C95.6706 316.538 96.2401 316.284 96.8034 316.042C97.3667 315.801 97.9362 315.553 98.5181 315.331C99.0937 315.095 99.688 314.903 100.288 314.681L100.276 314.613C98.9885 314.582 97.6948 314.86 96.5125 315.38C95.9182 315.64 95.3611 315.968 94.8226 316.321C94.2841 316.68 93.8074 317.113 93.337 317.559L93.5103 317.571C93.1637 317.206 92.848 316.804 92.6499 316.34C92.4271 315.888 92.3156 315.399 92.1609 314.934C91.8638 314.006 91.6719 313.053 91.6285 312.025L91.5605 312.013V312.019Z" fill="#FFA6A4"/>
<path d="M82.102 350.1H96.3762C97.7009 350.1 98.8275 348.955 99.0256 347.407L101.285 329.852C101.533 327.933 100.276 326.2 98.6356 326.2H79.8427C78.2023 326.2 76.9457 327.933 77.1933 329.852L79.4527 347.407C79.6508 348.955 80.7774 350.1 82.102 350.1Z" fill="#455A64"/>
<path d="M79.8427 326.2H89.4496C87.8092 326.2 86.5527 327.933 86.8003 329.852L89.0596 347.407C89.2577 348.955 90.3843 350.1 91.7089 350.1H82.102C80.7774 350.1 79.6508 348.955 79.4527 347.407L77.1933 329.852C76.9457 327.933 78.2023 326.2 79.8427 326.2Z" fill="#263238"/>
<path d="M209.945 345.285H150.254C149.654 345.285 149.165 345.774 149.165 346.374V349.017C149.165 349.618 149.654 350.107 150.254 350.107H209.945V345.285Z" fill="#263238"/>
<path d="M225.308 348.608V349.685C225.308 349.92 225.123 350.106 224.888 350.106H209.852C209.381 350.106 209.004 349.729 209.004 349.258V346.126C209.004 345.618 209.443 345.228 209.945 345.284L224.931 348.193C225.141 348.218 225.302 348.398 225.302 348.614L225.308 348.608Z" fill="#263238"/>
<path d="M105.631 243.83H217.193C219.453 243.83 221.465 245.247 222.232 247.37L246.633 315.126C247.655 318.624 245.098 321.242 240.988 321.682C240.357 321.75 237.361 320.4 232.656 318.19H132.922C130.663 318.19 128.651 316.773 127.884 314.65L105.841 253.443C102.115 251.499 99.9914 250.385 99.9914 250.385C99.9914 250.385 98.6111 243.83 105.637 243.83H105.631Z" fill="#263238"/>
<path d="M213.696 247.321H102.139C100.555 247.321 99.4528 248.893 99.9851 250.385L124.386 318.141C125.154 320.264 127.166 321.682 129.425 321.682H240.988C242.572 321.682 243.674 320.109 243.142 318.618L218.741 250.861C217.973 248.738 215.961 247.321 213.702 247.321H213.696Z" fill="#263238"/>
<path d="M188.515 321.682L183.563 303.31L164.795 321.682H188.515Z" fill="#263238"/>
<path d="M161.353 271.115C161.842 274.142 163.804 275.368 166.15 275.368C168.496 275.368 170.26 273.43 169.852 271.115C169.443 268.806 167.401 266.863 165.055 266.863C162.709 266.863 160.975 268.794 161.353 271.115Z" fill="#455A64"/>
<path d="M213.783 310.404L212.346 306.423H214.148L215.584 310.404H213.783Z" fill="#282142"/>
<path d="M209.982 310.404L208.546 306.423H210.354L211.79 310.404H209.982Z" fill="#282142"/>
<path d="M206.187 310.404L204.751 306.423H206.553L207.989 310.404H206.187Z" fill="#282142"/>
<path d="M202.387 310.404L200.957 306.423H202.758L204.194 310.404H202.387Z" fill="#282142"/>
<path d="M148.453 310.404L147.017 306.423H148.818L150.254 310.404H148.453Z" fill="#282142"/>
<path d="M144.652 310.404L143.222 306.423H145.024L146.46 310.404H144.652Z" fill="#282142"/>
<path d="M140.858 310.404L139.422 306.423H141.223L142.659 310.404H140.858Z" fill="#282142"/>
<path d="M137.057 310.404L135.627 306.423H137.429L138.865 310.404H137.057Z" fill="#282142"/>
<path d="M150.843 343.557C151.944 340.394 165.296 297.317 165.296 297.317H182.43L183.563 303.316C183.563 303.316 172.074 340.394 170.973 343.557C170.886 343.798 170.812 344.04 170.731 344.281C169.722 347.376 172.378 347.364 175.374 347.364H205.593V350.106H155.244C149.19 350.106 149.741 346.726 150.843 343.557Z" fill="#455A64"/>
<path d="M182.43 297.312C182.43 297.312 169.078 340.388 167.976 343.551C166.875 346.714 166.324 350.1 172.378 350.1H152.248C146.194 350.1 146.745 346.72 147.846 343.551C148.948 340.382 162.3 297.312 162.3 297.312H182.43Z" fill="#263238"/>
<path d="M178.233 297.311C176.909 297.25 175.578 297.219 174.253 297.175C172.928 297.132 171.598 297.12 170.273 297.089C168.948 297.07 167.617 297.027 166.293 297.027L162.313 297.002H162.09L162.022 297.219C161.464 298.952 160.92 300.691 160.4 302.437L158.809 307.667C157.788 311.165 156.766 314.662 155.832 318.184C157.057 314.749 158.196 311.289 159.335 307.828L160.988 302.623C161.545 300.889 162.077 299.15 162.603 297.404L162.313 297.621L166.293 297.596C167.617 297.596 168.948 297.559 170.273 297.534C171.598 297.503 172.928 297.497 174.253 297.448C175.578 297.404 176.909 297.373 178.233 297.311Z" fill="#455A64"/>
<path d="M61.4894 360.679H356.964C359.886 360.679 362.25 358.314 362.25 355.392C362.25 352.471 359.886 350.106 356.964 350.106H61.4894C58.5677 350.106 56.2031 352.471 56.2031 355.392C56.2031 358.314 58.5677 360.679 61.4894 360.679Z" fill="#8E5058"/>
<path d="M61.4892 360.679H356.964C359.886 360.679 362.25 358.314 362.25 355.393H56.1968C56.1968 358.314 58.5614 360.679 61.4831 360.679H61.4892Z" fill="#64364A"/>
<path d="M122.744 192.863C128.341 168.946 113.489 145.021 89.5722 139.424C65.6552 133.828 41.7298 148.679 36.1333 172.596C30.5368 196.513 45.3886 220.439 69.3056 226.035C93.2226 231.632 117.148 216.78 122.744 192.863Z" fill="#E8505B"/>
<mask id="mask0_3006_1087" style="mask-type:luminance" maskUnits="userSpaceOnUse" x="34" y="129" width="90" height="99">
<path d="M123.922 182.74C123.922 207.302 104.009 227.216 79.4465 227.216C54.8845 227.216 34.9712 207.302 34.9712 182.74C34.9712 158.178 54.8845 129.63 79.4465 129.63C104.009 129.63 123.922 158.178 123.922 182.74Z" fill="white"/>
</mask>
<g mask="url(#mask0_3006_1087)">
<path d="M141.984 218.234C142.826 222.48 138.902 226.25 137.67 226.955C136.438 227.661 128.187 230.96 123.222 231.078C118.264 231.195 111.721 220.703 114.395 219.527C117.076 218.351 135.324 217.051 137.323 217.051C139.323 217.051 141.978 218.227 141.978 218.227L141.984 218.234Z" fill="#FFC5C7"/>
<path d="M128.979 215.993C126.813 228.726 121.675 238.624 120.072 238.804C118.469 238.983 103.055 233.678 98.8091 231.728C94.5627 229.785 100.115 199.906 102.758 200.432C105.401 200.958 111.202 206.696 115.986 209.451C120.771 212.205 128.985 215.993 128.985 215.993H128.979Z" fill="white"/>
<path d="M103.594 221.286C105.079 223.836 117.323 230.292 124.07 232.644C122.405 236.402 120.833 238.717 120.065 238.803C118.691 238.952 107.196 235.089 101.254 232.75C101.749 228.02 103.588 221.286 103.588 221.286H103.594Z" fill="#DCEDFF"/>
<path d="M142.003 217.646C142.127 222.697 137.577 223.421 132.13 222.128C126.683 220.834 117.794 208.571 113.832 203.031C109.877 197.491 102.486 187.618 100.963 186.733C99.4341 185.848 95.9368 185.377 92.9346 180.401C89.9386 175.418 93.8817 164.987 95.293 163.749C96.7105 162.511 108.843 166.646 110.254 168.732C111.666 170.818 109.258 182.047 109.685 183.465C110.112 184.876 120.443 196.433 124.949 199.262C129.456 202.09 141.91 213.994 141.997 217.652L142.003 217.646Z" fill="#FFBE9D"/>
<path d="M101.514 172.081C100.084 171.375 99.7436 168.163 100.641 168.726C101.539 169.289 103.111 169.277 105.234 169.252C107.357 169.221 108.23 169.042 108.23 169.042C108.23 169.042 108.447 170.435 108.434 171.573C108.434 171.573 102.938 172.793 101.514 172.081Z" fill="#FE8A8B"/>
<path d="M92.0617 172.811C92.9283 171.202 93.5968 169.982 93.5968 169.982L101.947 178.017C104.231 176.036 107.023 174.229 107.023 174.229L107.76 175.541C106.41 177.825 105.234 182.66 105.203 183.836C105.203 183.836 103.922 185.253 103.204 185.371C103.204 185.371 112.136 199.515 117.874 206.473C123.581 213.387 127.493 219.366 130.18 221.285C124.751 218.153 117.348 207.952 113.832 203.025C109.877 197.485 102.486 187.612 100.963 186.726C99.434 185.841 95.9366 185.371 92.9345 180.394C91.746 178.419 91.6593 175.584 92.0617 172.811Z" fill="#EB996E"/>
<path d="M109.437 173.616C109.338 174.439 101.043 181.632 100.171 182.455C100.109 182.517 99.4587 182.61 99.2792 182.455C97.0756 180.518 87.4377 163.025 87.2706 162.394C87.1096 161.806 93.5039 155.789 95.46 154.179C95.7261 153.963 96.8218 154.093 97.0013 154.359C98.9697 157.274 109.573 172.551 109.443 173.616H109.437Z" fill="#0C0835"/>
<path d="M108.546 173.616C108.447 174.439 100.152 181.632 99.2795 182.455C98.4129 183.279 86.5652 163.074 86.3733 162.393C86.2124 161.805 93.3309 155.888 95.2869 154.272C95.5531 154.055 95.9245 154.086 96.104 154.353C98.0724 157.268 108.676 172.545 108.546 173.61V173.616Z" fill="#252384"/>
<path d="M107.147 172.434C107.054 173.207 99.2916 179.93 98.4807 180.704C97.6698 181.477 86.5835 162.573 86.4102 161.935C86.2616 161.384 92.9221 155.844 94.7481 154.34C94.9957 154.136 95.3424 154.167 95.5095 154.414C97.3541 157.144 107.271 171.437 107.147 172.434Z" fill="#57AFF7"/>
<path d="M102.176 162.573C100.895 161.799 99.3166 159.175 99.1742 158.29C99.0318 157.404 99.1185 156.612 99.8118 156.433C100.505 156.253 102.628 159.026 103.687 159.85C104.745 160.673 106.039 162.381 105.513 163.533C104.987 164.684 102.634 164.238 102.381 164.065C102.127 163.885 102.183 162.573 102.183 162.573H102.176Z" fill="#FFC5C7"/>
<path d="M99.4091 156.668C99.0006 157.671 101.656 161.707 103.984 162.87L103.117 163.861C103.117 163.861 102.727 163.774 102.219 163.657C102.151 163.211 102.176 162.579 102.176 162.579C100.895 161.806 99.3162 159.181 99.1739 158.296C99.0686 157.627 99.0934 157.008 99.4153 156.674L99.4091 156.668Z" fill="#FE8A8B"/>
<path d="M105.16 166.652C102.95 165.47 101.217 165.606 100.016 165.117C98.815 164.628 98.5922 162.777 99.4154 162.468C100.233 162.158 105.216 162.957 106.497 163.526C107.778 164.102 108.397 166.745 108.397 166.745L105.166 166.646L105.16 166.652Z" fill="#FFC5C7"/>
<path d="M104.194 165.272C105.445 165.507 105.872 165.272 105.872 165.272C105.835 165.761 106.299 166.002 106.819 166.696L105.16 166.646C102.95 165.464 101.217 165.6 100.016 165.111C99.465 164.888 99.1369 164.38 99.0007 163.867C99.5331 164.882 102.95 165.03 104.194 165.266V165.272Z" fill="#FE8A8B"/>
<path d="M110.261 168.732C109.078 170.366 103.297 169.655 102.133 169.481C100.969 169.302 100.233 168.571 100.357 167.829C100.598 166.331 108.236 166.597 108.868 166.832C109.499 167.067 110.261 168.739 110.261 168.739V168.732Z" fill="#FFC5C7"/>
<path d="M100.393 168.181C101.186 168.967 103.08 169.413 105.154 169.58C106.949 169.722 107.982 169.654 108.218 169.636C106.039 169.982 102.944 169.599 102.127 169.475C101.155 169.326 100.517 168.788 100.387 168.181H100.393Z" fill="#FE8A8B"/>
<path d="M83.1915 191.592C95.4663 197.838 97.4843 197.596 102.752 200.431C108.026 203.266 106.454 233.084 106.119 237.683C105.785 242.282 104.516 260.549 105.216 265.501C105.915 270.453 108.645 288.837 109.852 291.666C111.059 294.495 113.368 299.267 109.802 302.096C106.237 304.925 98.6913 306.869 82.3187 305.81C65.9399 304.752 48.2859 294.668 47.506 293.257C46.7261 291.839 55.3364 265.854 55.6954 260.902C56.0544 255.95 57.0325 252.235 57.5524 249.939C58.0724 247.642 52.8604 236.853 52.0309 229.958C51.2014 223.062 43.7053 204.04 45.129 200.555C46.5465 197.07 59.5951 193.189 68.484 188.757C77.3667 184.325 83.1977 191.592 83.1977 191.592H83.1915Z" fill="white"/>
<path d="M95.3613 199.323C93.3371 205.965 89.227 211.951 83.7488 216.222C77.1007 214.594 70.3412 211.66 64.9001 207.513C70.9849 211.994 77.6207 215.764 84.7206 218.339C90.7188 213.424 94.278 207.005 95.3613 199.323Z" fill="#DCEDFF"/>
<path d="M92.854 196.166C90.4956 195.163 87.4687 193.771 83.1914 191.598C83.1914 191.598 77.3666 184.337 68.4777 188.763C65.3951 190.298 61.811 191.771 58.3879 193.183C63.6804 202.189 72.2598 209.233 82.1577 212.582C87.3758 208.472 91.1332 202.579 92.854 196.166Z" fill="#FFBE9D"/>
<path d="M47.506 293.257C46.726 291.839 55.3364 265.854 55.6954 260.902C56.0544 255.95 57.0324 252.236 57.5524 249.939C58.0724 247.643 52.8604 236.853 52.0309 229.958C51.8885 228.757 51.5357 227.191 51.0714 225.402L56.6053 221.279C59.8489 230.335 61.873 246.244 64.9495 250.137C68.0259 254.025 75.6892 255.615 75.6892 255.615C75.6892 255.615 68.1188 257.386 64.8195 256.674C64.8195 256.674 61.2974 270.645 61.254 277.534C61.2169 284.43 61.8545 294.86 61.9349 296.278C61.9659 296.804 61.8483 298.648 61.6935 300.747C53.7641 297.609 47.9393 294.049 47.4998 293.251L47.506 293.257Z" fill="#DCEDFF"/>
<path d="M69.8766 176.197C69.7528 183.576 69.2638 188.645 67.6296 190.057C67.6296 190.057 70.4399 202.301 81.6686 201.254C85.4693 200.902 85.1041 194.538 83.1976 191.592L84.3303 182.542L69.8828 176.197H69.8766Z" fill="#FFBE9D"/>
<path d="M68.4839 188.763C69.4433 186.497 69.7776 182.09 69.8766 176.203L84.3242 182.548L83.5999 188.354C81.0373 189.505 68.4839 188.769 68.4839 188.769V188.763Z" fill="#EB996E"/>
<path d="M53.665 230.719C57.0448 224.071 58.4004 213.281 55.3487 207.599C52.297 201.916 46.5403 199.874 45.129 200.555C43.7176 201.236 39.8922 210.1 36.2958 214.185C32.7056 218.277 22.8944 229.747 22.5973 230.712C22.3001 231.678 29.6848 239.471 43.5814 245.197C45.2342 245.878 53.665 230.712 53.665 230.712V230.719Z" fill="white"/>
<path d="M43.3587 235.869L41.1427 240.413C41.1427 240.413 52.0619 229.469 56.593 221.298C56.0421 224.702 55.0208 228.045 53.6651 230.713C53.6651 230.713 45.2343 245.878 43.5816 245.198C41.2046 244.22 39.0319 243.18 37.0449 242.121L43.3649 235.869H43.3587Z" fill="#DCEDFF"/>
<path d="M85.16 176.86C84.411 173.82 84.4234 170.707 84.2439 167.599C84.1077 165.272 83.9901 163.142 81.8793 161.756C80.3379 160.741 78.4005 160.543 76.5868 160.772C71.709 161.391 70.6629 166.145 71.0343 170.645C71.3191 174.093 72.6685 177.398 73.9994 180.567C72.2042 180.487 69.753 179.546 68.6821 178.054C69.1649 180.016 70.0749 181.824 71.4986 183.21C66.299 183.124 61.4769 179.719 58.7224 175.151C55.9678 170.583 55.095 165.006 55.3921 159.626C55.7388 153.245 57.732 146.85 61.675 141.935C69.6106 132.056 84.9062 130.905 94.2222 139.391C97.4224 142.313 99.7437 146.225 100.907 150.465C102.436 156.042 102.405 162.028 101.211 167.674C100.716 170.007 100.493 172.031 100.257 174.371C100.183 175.095 99.3042 183.52 99.8118 183.489C96.5249 183.687 92.7551 183.025 90.5329 180.518C91.5295 182.239 92.3899 183.904 93.3865 185.625C89.2392 184.937 86.1937 181.069 85.1538 176.86H85.16Z" fill="#263238"/>
<path d="M68.1188 165.383C66.6518 164.516 64.8876 164.046 63.5258 165.426C61.5203 167.457 64.3677 176.921 68.6883 174.618C68.6883 174.618 74.9464 183.371 79.5394 185.847C84.1324 188.323 87.407 187.085 89.1278 185.315C90.8486 183.545 96.7168 176.296 97.7691 168.608C98.1466 165.866 97.7443 160.474 97.8248 159.323C98.0848 155.788 99.4218 152.885 96.6301 150.106C93.8136 147.302 89.9077 145.606 85.9399 145.463C80.9384 145.29 75.9368 147.537 72.619 151.288C68.9607 155.436 68.3231 160.121 68.1126 165.377L68.1188 165.383Z" fill="#FFBE9D"/>
<path d="M64.2375 168.014C64.609 166.281 66.0884 165.941 67.1902 167.148C68.3168 168.386 68.5087 172.304 68.2177 172.886C67.9268 173.462 65.9893 173.424 65.6241 172.224C65.2589 171.029 66.3855 170.274 67.4749 170.633C67.4749 170.633 67.7782 168.887 66.8869 167.761C65.9955 166.634 65.0732 167.067 64.8442 167.358C64.6151 167.649 64.2375 168.021 64.2375 168.021V168.014Z" fill="#FE8A8B"/>
<path d="M76.2029 160.345C76.6238 159.955 77.0633 159.596 77.5337 159.249C78.0042 158.909 78.4994 158.605 79.0317 158.358C79.5579 158.11 80.1088 157.844 80.6907 157.801C81.2663 157.751 81.8482 157.801 82.3805 158.024V158.104C82.0896 158.215 81.8234 158.29 81.5573 158.364L80.7773 158.581C80.2697 158.729 79.7436 158.773 79.2298 158.946C78.7222 159.113 78.2146 159.336 77.7194 159.583C77.218 159.825 76.7352 160.116 76.2462 160.407L76.2029 160.345Z" fill="#3F1751"/>
<path d="M95.7574 158.358C95.2807 158.104 94.7794 157.924 94.2594 157.813C93.7394 157.695 93.2133 157.64 92.6809 157.627C92.1486 157.615 91.6163 157.726 91.0839 157.72C90.5516 157.72 90.013 157.739 89.4312 157.677L89.4126 157.603C89.914 157.237 90.4835 157.045 91.0591 156.934C91.641 156.816 92.2167 156.915 92.78 156.996C93.3433 157.076 93.8942 157.225 94.408 157.435C94.9155 157.658 95.4045 157.931 95.8069 158.29L95.7574 158.358Z" fill="#3F1751"/>
<path d="M81.4522 163.452C81.4336 162.703 81.056 162.133 80.6104 162.177C80.1647 162.22 79.818 162.864 79.8428 163.613C79.8614 164.362 80.239 164.931 80.6846 164.888C81.1303 164.845 81.477 164.201 81.4522 163.452Z" fill="#3F1751"/>
<path d="M93.2564 162.511C93.2378 161.762 92.9283 161.186 92.5631 161.223C92.1979 161.261 91.9193 161.892 91.9379 162.641C91.9565 163.39 92.266 163.966 92.6312 163.928C92.9964 163.891 93.2749 163.26 93.2564 162.511Z" fill="#3F1751"/>
<path d="M85.1475 170.719C86.1689 171.431 87.6793 171.412 88.7935 170.682C88.6635 171.257 88.4097 171.821 87.8464 172.025C87.2831 172.229 86.6641 172.167 86.1503 171.932C85.6366 171.697 85.4694 171.177 85.1414 170.719H85.1475Z" fill="#FE8A8B"/>
<path d="M81.0498 175.108C83.5134 175.145 89.4435 174.693 91.381 174.415C90.6196 176.915 88.6202 179.379 85.8285 179.385C83.3154 179.385 81.6564 177.324 81.0498 175.108Z" fill="#C31F2A"/>
<path d="M83.3154 178.568C84.2935 178.264 85.2962 178.419 85.6924 178.543C85.6924 178.543 86.9985 177.633 88.8926 178.227C88.0322 178.921 87.0047 179.379 85.8286 179.379C84.8567 179.379 84.0211 179.069 83.3154 178.562V178.568Z" fill="#FB8384"/>
<path d="M89.7035 176.507C87.2089 177.287 84.4791 177.058 82.1331 176.216C82.1145 175.845 82.0898 175.473 82.0588 175.102C84.4977 175.052 88.4408 174.755 90.5516 174.52C90.372 175.213 90.0935 175.888 89.7035 176.507Z" fill="white"/>
<path d="M70.5825 157.244C74.606 157.07 78.5986 156.185 82.3126 154.638C83.0183 153.003 83.043 151.549 83.1483 149.772C84.1572 151.629 84.7577 153.703 84.8629 155.814C87.2027 155.659 89.5611 155.535 91.901 155.387C92.5571 153.53 92.6376 151.617 92.5323 149.655C93.3247 151.499 93.7208 153.827 93.9932 155.82C95.4045 155.319 97.1996 156.049 98.679 156.315C100.511 152.236 100.387 144.851 96.5187 141.756C92.749 138.742 86.1938 137.925 81.5884 138.593C71.7834 140.011 64.0768 148.151 64.6834 158.296C65.0301 164.084 67.9332 169.556 72.0929 173.585C69.6169 168.646 69.1278 162.579 70.5825 157.25V157.244Z" fill="#263238"/>
</g>
<path d="M193.085 192.203C196.678 178.379 188.385 164.26 174.561 160.667C160.737 157.073 146.618 165.367 143.025 179.191C139.432 193.015 147.725 207.134 161.549 210.727C175.373 214.32 189.492 206.027 193.085 192.203Z" fill="#E8505B"/>
<path d="M155.293 195.819H180.808C181.981 195.819 182.931 194.869 182.931 193.696V177.695C182.931 176.522 181.981 175.572 180.808 175.572H155.293C154.12 175.572 153.17 176.522 153.17 177.695V193.696C153.17 194.869 154.12 195.819 155.293 195.819Z" fill="#DBE9FF"/>
<path d="M155.293 195.819H180.815C181.984 195.819 182.938 194.872 182.938 193.696L168.057 184.337L153.176 193.696C153.176 194.866 154.123 195.819 155.299 195.819H155.293Z" fill="#CDDCF4"/>
<path d="M155.293 175.572H180.815C181.984 175.572 182.938 176.519 182.938 177.695L168.057 187.054L153.176 177.695C153.176 176.525 154.123 175.572 155.299 175.572H155.293Z" fill="#898989"/>
<path d="M357.253 248.141C371.168 244.918 379.836 231.025 376.613 217.11C373.39 203.196 359.498 194.528 345.583 197.751C331.668 200.973 323 214.866 326.223 228.781C329.446 242.696 343.338 251.363 357.253 248.141Z" fill="#E8505B"/>
<path d="M358.673 217.856H356.073C355.838 216.829 355.435 215.869 354.891 215.009L356.729 213.17C356.983 212.917 356.983 212.514 356.729 212.261L354.687 210.218C354.433 209.964 354.03 209.964 353.777 210.218L351.938 212.056C351.072 211.512 350.112 211.109 349.091 210.874V208.274C349.091 207.921 348.806 207.63 348.447 207.63H345.556C345.203 207.63 344.912 207.915 344.912 208.274V210.874C343.885 211.109 342.925 211.512 342.065 212.056L340.227 210.218C339.973 209.964 339.57 209.964 339.317 210.218L337.274 212.261C337.02 212.514 337.02 212.917 337.274 213.17L339.112 215.009C338.568 215.875 338.165 216.835 337.93 217.856H335.33C334.977 217.856 334.687 218.141 334.687 218.5V221.391C334.687 221.744 334.971 222.035 335.33 222.035H337.93C338.165 223.062 338.568 224.022 339.112 224.882L337.274 226.72C337.02 226.974 337.02 227.377 337.274 227.63L339.317 229.673C339.57 229.927 339.973 229.927 340.227 229.673L342.065 227.835C342.932 228.379 343.891 228.782 344.912 229.017V231.617C344.912 231.97 345.197 232.26 345.556 232.26H348.447C348.8 232.26 349.091 231.976 349.091 231.617V229.017C350.118 228.782 351.078 228.379 351.938 227.835L353.777 229.673C354.03 229.927 354.433 229.927 354.687 229.673L356.729 227.63C356.983 227.377 356.983 226.974 356.729 226.72L354.891 224.882C355.435 224.015 355.838 223.056 356.073 222.035H358.673C359.026 222.035 359.317 221.75 359.317 221.391V218.5C359.317 218.147 359.032 217.856 358.673 217.856ZM346.998 223.935C344.795 223.935 343.006 222.146 343.006 219.942C343.006 217.739 344.795 215.95 346.998 215.95C349.202 215.95 350.991 217.739 350.991 219.942C350.991 222.146 349.202 223.935 346.998 223.935Z" fill="#DBE9FF"/>
<path d="M346.998 214.39C343.928 214.39 341.446 216.878 341.446 219.942C341.446 223.006 343.934 225.495 346.998 225.495C350.062 225.495 352.551 223.006 352.551 219.942C352.551 216.878 350.062 214.39 346.998 214.39ZM346.998 223.334C345.123 223.334 343.606 221.818 343.606 219.942C343.606 218.067 345.123 216.55 346.998 216.55C348.874 216.55 350.39 218.067 350.39 219.942C350.39 221.818 348.874 223.334 346.998 223.334Z" fill="#898989"/>
<path d="M369.778 229.246H368.447C368.329 228.72 368.119 228.231 367.84 227.791L368.781 226.85C368.911 226.72 368.911 226.516 368.781 226.386L367.735 225.34C367.605 225.21 367.401 225.21 367.271 225.34L366.33 226.281C365.89 226.002 365.395 225.798 364.875 225.674V224.343C364.875 224.164 364.727 224.015 364.547 224.015H363.068C362.888 224.015 362.74 224.164 362.74 224.343V225.674C362.213 225.792 361.724 226.002 361.285 226.281L360.344 225.34C360.214 225.21 360.01 225.21 359.88 225.34L358.834 226.386C358.704 226.516 358.704 226.72 358.834 226.85L359.775 227.791C359.496 228.231 359.292 228.726 359.168 229.246H357.837C357.658 229.246 357.509 229.394 357.509 229.574V231.053C357.509 231.233 357.658 231.381 357.837 231.381H359.168C359.286 231.907 359.496 232.396 359.775 232.836L358.834 233.777C358.704 233.907 358.704 234.111 358.834 234.241L359.88 235.287C360.01 235.417 360.214 235.417 360.344 235.287L361.285 234.346C361.724 234.625 362.22 234.829 362.74 234.953V236.284C362.74 236.463 362.888 236.612 363.068 236.612H364.547C364.727 236.612 364.875 236.463 364.875 236.284V234.953C365.401 234.835 365.89 234.625 366.33 234.346L367.271 235.287C367.401 235.417 367.605 235.417 367.735 235.287L368.781 234.241C368.911 234.111 368.911 233.907 368.781 233.777L367.84 232.836C368.119 232.396 368.323 231.901 368.447 231.381H369.778C369.957 231.381 370.106 231.233 370.106 231.053V229.574C370.106 229.394 369.957 229.246 369.778 229.246ZM363.81 232.353C362.684 232.353 361.774 231.443 361.774 230.317C361.774 229.19 362.684 228.28 363.81 228.28C364.937 228.28 365.847 229.19 365.847 230.317C365.847 231.443 364.937 232.353 363.81 232.353Z" fill="#DBE9FF"/>
<path d="M363.817 227.475C362.251 227.475 360.982 228.744 360.982 230.31C360.982 231.876 362.251 233.145 363.817 233.145C365.383 233.145 366.652 231.876 366.652 230.31C366.652 228.744 365.383 227.475 363.817 227.475ZM363.817 232.043C362.857 232.043 362.083 231.27 362.083 230.31C362.083 229.351 362.857 228.577 363.817 228.577C364.776 228.577 365.55 229.351 365.55 230.31C365.55 231.27 364.776 232.043 363.817 232.043Z" fill="#898989"/>
<path d="M244.387 173.638C257.638 168.309 264.06 153.245 258.731 139.994C253.401 126.742 238.338 120.321 225.086 125.65C211.835 130.98 205.413 146.043 210.743 159.295C216.072 172.546 231.135 178.968 244.387 173.638Z" fill="#E8505B"/>
<path d="M247.574 162.95H221.904C220.778 162.95 219.861 162.034 219.861 160.907V139.552C219.861 138.425 220.778 137.509 221.904 137.509H247.574C248.701 137.509 249.617 138.425 249.617 139.552V160.907C249.617 162.034 248.701 162.95 247.574 162.95Z" fill="white"/>
<path d="M219.855 142.826H249.617V139.546C249.617 138.419 248.701 137.503 247.574 137.503H221.904C220.778 137.503 219.861 138.419 219.861 139.546V142.826H219.855Z" fill="#898989"/>
<path d="M242.511 138.636C242.845 138.636 243.111 138.363 243.111 138.029V136.964C243.111 136.63 242.839 136.364 242.511 136.364C242.176 136.364 241.91 136.636 241.91 136.964V138.029C241.91 138.363 242.183 138.636 242.511 138.636Z" fill="white"/>
<path d="M244.237 138.636C244.572 138.636 244.838 138.363 244.838 138.029V136.964C244.838 136.63 244.565 136.364 244.237 136.364C243.903 136.364 243.637 136.636 243.637 136.964V138.029C243.637 138.363 243.909 138.636 244.237 138.636Z" fill="white"/>
<path d="M225.241 138.636C225.575 138.636 225.841 138.363 225.841 138.029V136.964C225.841 136.63 225.569 136.364 225.241 136.364C224.906 136.364 224.64 136.636 224.64 136.964V138.029C224.64 138.363 224.912 138.636 225.241 138.636Z" fill="white"/>
<path d="M226.967 138.636C227.302 138.636 227.568 138.363 227.568 138.029V136.964C227.568 136.63 227.295 136.364 226.967 136.364C226.633 136.364 226.367 136.636 226.367 136.964V138.029C226.367 138.363 226.639 138.636 226.967 138.636Z" fill="white"/>
<path d="M238.221 145.989H236.618C236.348 145.989 236.129 146.208 236.129 146.478V148.081C236.129 148.352 236.348 148.57 236.618 148.57H238.221C238.491 148.57 238.71 148.352 238.71 148.081V146.478C238.71 146.208 238.491 145.989 238.221 145.989Z" fill="#DBE9FF"/>
<path d="M232.08 145.989H230.477C230.207 145.989 229.988 146.208 229.988 146.478V148.081C229.988 148.352 230.207 148.57 230.477 148.57H232.08C232.351 148.57 232.57 148.352 232.57 148.081V146.478C232.57 146.208 232.351 145.989 232.08 145.989Z" fill="#DBE9FF"/>
<path d="M225.946 145.989H224.343C224.073 145.989 223.854 146.208 223.854 146.478V148.081C223.854 148.352 224.073 148.57 224.343 148.57H225.946C226.216 148.57 226.435 148.352 226.435 148.081V146.478C226.435 146.208 226.216 145.989 225.946 145.989Z" fill="#DBE9FF"/>
<path d="M244.349 151.275H242.752C242.482 151.275 242.263 151.494 242.263 151.764V153.368C242.263 153.638 242.482 153.857 242.752 153.857H244.349C244.619 153.857 244.838 153.638 244.838 153.368V151.764C244.838 151.494 244.619 151.275 244.349 151.275Z" fill="#DBE9FF"/>
<path d="M238.221 151.275H236.618C236.348 151.275 236.129 151.494 236.129 151.764V153.368C236.129 153.638 236.348 153.857 236.618 153.857H238.221C238.491 153.857 238.71 153.638 238.71 153.368V151.764C238.71 151.494 238.491 151.275 238.221 151.275Z" fill="#DBE9FF"/>
<path d="M232.08 151.275H230.477C230.207 151.275 229.988 151.494 229.988 151.764V153.368C229.988 153.638 230.207 153.857 230.477 153.857H232.08C232.351 153.857 232.57 153.638 232.57 153.368V151.764C232.57 151.494 232.351 151.275 232.08 151.275Z" fill="#DBE9FF"/>
<path d="M225.946 151.275H224.343C224.073 151.275 223.854 151.494 223.854 151.764V153.368C223.854 153.638 224.073 153.857 224.343 153.857H225.946C226.216 153.857 226.435 153.638 226.435 153.368V151.764C226.435 151.494 226.216 151.275 225.946 151.275Z" fill="#DBE9FF"/>
<path d="M244.349 156.556H242.752C242.482 156.556 242.263 156.775 242.263 157.045V158.648C242.263 158.918 242.482 159.137 242.752 159.137H244.349C244.619 159.137 244.838 158.918 244.838 158.648V157.045C244.838 156.775 244.619 156.556 244.349 156.556Z" fill="#DBE9FF"/>
<path d="M238.221 156.556H236.618C236.348 156.556 236.129 156.775 236.129 157.045V158.648C236.129 158.918 236.348 159.137 236.618 159.137H238.221C238.491 159.137 238.71 158.918 238.71 158.648V157.045C238.71 156.775 238.491 156.556 238.221 156.556Z" fill="#DBE9FF"/>
<path d="M232.08 156.556H230.477C230.207 156.556 229.988 156.775 229.988 157.045V158.648C229.988 158.918 230.207 159.137 230.477 159.137H232.08C232.351 159.137 232.57 158.918 232.57 158.648V157.045C232.57 156.775 232.351 156.556 232.08 156.556Z" fill="#DBE9FF"/>
<path d="M327.059 181.235C337.158 171.135 337.158 154.76 327.059 144.661C316.959 134.561 300.584 134.561 290.484 144.661C280.385 154.76 280.385 171.135 290.484 181.235C300.584 191.335 316.959 191.335 327.059 181.235Z" fill="#E8505B"/>
<path d="M321.299 175.475C328.217 168.556 328.217 157.339 321.299 150.421C314.38 143.502 303.163 143.502 296.245 150.421C289.326 157.339 289.326 168.556 296.245 175.475C303.163 182.393 314.38 182.393 321.299 175.475Z" fill="white"/>
<path d="M308.775 145.235C298.988 145.235 291.059 153.164 291.059 162.951C291.059 172.737 298.988 180.667 308.775 180.667C318.561 180.667 326.491 172.737 326.491 162.951C326.491 153.164 318.561 145.235 308.775 145.235ZM310.26 178.042V175.622C310.26 175.17 309.895 174.805 309.443 174.805H308.1C307.648 174.805 307.283 175.17 307.283 175.622V178.042C300.096 177.343 294.377 171.623 293.677 164.436H296.098C296.549 164.436 296.915 164.071 296.915 163.619V162.276C296.915 161.824 296.549 161.459 296.098 161.459H293.677C294.377 154.272 300.096 148.553 307.283 147.853V150.274C307.283 150.725 307.648 151.091 308.1 151.091H309.443C309.895 151.091 310.26 150.725 310.26 150.274V147.853C317.447 148.553 323.167 154.272 323.866 161.459H321.446C320.994 161.459 320.629 161.824 320.629 162.276V163.619C320.629 164.071 320.994 164.436 321.446 164.436H323.866C323.167 171.623 317.447 177.343 310.26 178.042Z" fill="#898989"/>
<path d="M299.137 171.738V170.971L302.017 167.817C302.355 167.448 302.634 167.127 302.852 166.854C303.071 166.579 303.233 166.32 303.338 166.079C303.446 165.834 303.5 165.579 303.5 165.312C303.5 165.005 303.426 164.739 303.279 164.515C303.134 164.29 302.935 164.117 302.682 163.995C302.429 163.873 302.145 163.812 301.83 163.812C301.495 163.812 301.202 163.881 300.952 164.02C300.705 164.157 300.513 164.349 300.377 164.596C300.243 164.843 300.176 165.133 300.176 165.465H299.171C299.171 164.954 299.289 164.505 299.524 164.118C299.76 163.732 300.081 163.431 300.487 163.215C300.897 162.999 301.355 162.891 301.864 162.891C302.375 162.891 302.828 162.999 303.223 163.215C303.618 163.431 303.928 163.722 304.152 164.089C304.377 164.455 304.489 164.863 304.489 165.312C304.489 165.633 304.431 165.947 304.314 166.253C304.2 166.557 304.002 166.897 303.718 167.272C303.436 167.644 303.046 168.099 302.546 168.636L300.585 170.732V170.8H304.642V171.738H299.137ZM306.01 169.948V169.079L309.845 163.011H310.476V164.357H310.05L307.152 168.942V169.011H312.317V169.948H306.01ZM310.118 171.738V169.684V169.279V163.011H311.124V171.738H310.118ZM302.239 177.601L299.426 188.05H298.506L301.318 177.601H302.239ZM303.687 186.738L307.59 179.016V178.948H303.09V178.011H308.681V178.999L304.795 186.738H303.687Z" fill="#D1C8D9"/>
<g filter="url(#filter1_d_3006_1087)">
<path d="M321.179 112.33C321.514 112.299 322.695 112.008 323.786 111.673C326.213 110.926 333.842 106.658 334.425 105.715C335.387 104.202 333.067 104.407 329.104 106.225C325.214 108.002 321.064 110.279 320.478 110.935C319.95 111.526 320.357 112.351 321.179 112.33Z" fill="#263238"/>
<path d="M328.425 123.708C330.418 123.883 333.745 120.729 337.53 115.068C339.234 112.553 339.638 111.745 339.417 111.359C339.085 110.779 339.013 110.82 336.469 113.494C335.375 114.665 333.328 116.637 331.927 117.888C328.414 121.052 327.789 121.698 327.53 122.424C327.251 123.225 327.524 123.646 328.425 123.708Z" fill="#263238"/>
<path d="M318.567 93.2994C320.681 94.3032 330.796 98.1381 331.203 98.0654C332.502 97.868 331.821 96.6219 329.983 95.8769C326.613 94.4697 320.587 92.4007 319.544 92.2596C318.439 92.122 317.493 92.3745 317.714 92.7611C317.769 92.8578 318.17 93.1097 318.567 93.2994Z" fill="#263238"/>
<path d="M345.693 133.15C346.249 132.833 347.224 127.977 347.453 124.286C347.762 119.556 347.716 118.299 347.164 117.332C346.32 115.858 345.793 116.898 345.601 120.375C345.556 121.363 345.302 124.394 345.079 127.088C344.766 130.409 344.767 132.205 345.016 132.64C345.237 133.026 345.548 133.233 345.693 133.15Z" fill="#263238"/>
<path d="M334.721 89.1899C336.552 91.8305 336.763 92.0307 337.198 91.7819C337.633 91.5331 337.571 91.3121 336.745 89.7C335.753 87.798 332.325 83.152 331.241 82.2651C330.757 81.8683 330.633 81.8752 330.616 82.2378C330.588 82.8628 332.143 85.469 334.721 89.1899Z" fill="#263238"/>
<path d="M359.465 125.258C359.89 125.272 360.225 124.567 360.155 123.773C360.089 123.265 359.07 121.091 357.29 117.811C354.605 112.837 354.494 112.644 353.679 112.34C352.56 111.954 352.523 112.392 353.497 114.657C354.375 116.752 359.141 125.251 359.465 125.258Z" fill="#263238"/>
<path d="M344.662 88.7952C345.387 88.8294 345.776 87.0994 345.616 84.4649C345.432 81.3954 344.644 79.1204 343.725 78.9723C343.107 78.8449 343.076 78.9588 343.425 80.5228C343.56 81.1511 343.751 82.9983 343.817 84.628C343.999 88.0843 344.151 88.7989 344.662 88.7952Z" fill="#263238"/>
<path d="M365.746 110.912C369.173 113.089 373.59 115.597 374.671 115.973C375.752 116.349 376.052 115.921 375.433 114.896C374.556 113.473 365.407 108.412 363.736 108.406C362.427 108.417 363.056 109.18 365.746 110.912Z" fill="#263238"/>
<path d="M358.723 100.314C360.533 100.338 363.032 99.9982 367.659 99.1157C371.36 98.4096 372.416 97.9015 371.829 97.2112C371.428 96.7349 365.189 97.0969 361.737 97.789C357.373 98.6818 355.467 100.285 358.723 100.314Z" fill="#263238"/>
<path d="M355.476 97.8675C356.314 97.2594 357.667 96.0365 358.478 95.1557C360.439 92.976 363.689 88.2303 363.582 87.6503C363.402 86.4384 362.708 86.9636 358.732 91.4507C353.638 97.1225 353.2 97.7581 353.587 98.4347C353.878 98.9421 353.964 98.9248 355.476 97.8675Z" fill="#263238"/>
</g>
<g filter="url(#filter2_d_3006_1087)">
<path d="M180.53 365.805C180.129 366.093 178.262 367.272 176.417 368.393C172.651 370.699 172.328 370.952 172.405 371.714C172.49 372.558 173.293 372.532 175.317 371.585L177.265 370.673L176.182 371.91C175.581 372.603 173.392 375.107 171.325 377.489C169.258 379.871 167.085 382.538 166.474 383.398C165.377 385.021 164.932 385.396 164.86 384.688C164.838 384.471 164.151 383.247 163.346 381.926C161.681 379.262 160.959 378.758 159.947 379.63C159.128 380.29 154.92 386.711 152.527 390.914C151.499 392.695 150.577 394.191 150.471 394.202C150.394 394.237 149.63 393.324 148.818 392.196C146.415 388.864 145.563 388.4 143.802 389.569C141.893 390.862 130.886 401.711 130.944 402.282C131.007 402.909 131.933 402.237 134.618 399.601C136.205 398.038 139.198 395.26 141.294 393.425C144.381 390.775 145.205 390.169 145.599 390.349C146.102 390.546 147.946 392.862 149.592 395.336C150.386 396.548 150.926 396.851 151.443 396.386C151.591 396.261 152.41 394.803 153.287 393.119C154.976 389.923 156.758 387.103 159.442 383.394C160.711 381.615 161.08 381.276 161.325 381.581C161.48 381.785 162.237 383.166 163.002 384.629C163.741 386.094 164.546 387.415 164.748 387.56C165.411 388.015 166.032 387.513 167.764 385.275C171.508 380.358 178.877 372.022 178.935 372.594C178.949 372.73 178.829 373.402 178.68 374.05C178.022 376.839 178.986 378.144 180.325 376.249C181.076 375.183 182.652 370.87 183.315 368.136C183.679 366.696 183.688 366.255 183.394 365.735C182.94 364.956 181.709 364.998 180.53 365.805Z" fill="black" fill-opacity="0.9" shape-rendering="crispEdges"/>
</g>
<defs>
<filter id="filter0_d_3006_1087" x="-8.69853" y="158.405" width="71.4745" height="39.1544" filterUnits="userSpaceOnUse" color-interpolation-filters="sRGB">
<feFlood flood-opacity="0" result="BackgroundImageFix"/>
<feColorMatrix in="SourceAlpha" type="matrix" values="0 0 0 0 0 0 0 0 0 0 0 0 0 0 0 0 0 0 127 0" result="hardAlpha"/>
<feOffset dy="4"/>
<feGaussianBlur stdDeviation="5.85"/>
<feComposite in2="hardAlpha" operator="out"/>
<feColorMatrix type="matrix" values="0 0 0 0 0 0 0 0 0 0 0 0 0 0 0 0 0 0 0.1 0"/>
<feBlend mode="normal" in2="BackgroundImageFix" result="effect1_dropShadow_3006_1087"/>
<feBlend mode="normal" in="SourceGraphic" in2="effect1_dropShadow_3006_1087" result="shape"/>
</filter>
<filter id="filter1_d_3006_1087" x="305.982" y="71.2341" width="81.4696" height="77.6344" filterUnits="userSpaceOnUse" color-interpolation-filters="sRGB">
<feFlood flood-opacity="0" result="BackgroundImageFix"/>
<feColorMatrix in="SourceAlpha" type="matrix" values="0 0 0 0 0 0 0 0 0 0 0 0 0 0 0 0 0 0 127 0" result="hardAlpha"/>
<feOffset dy="4"/>
<feGaussianBlur stdDeviation="5.85"/>
<feComposite in2="hardAlpha" operator="out"/>
<feColorMatrix type="matrix" values="0 0 0 0 0 0 0 0 0 0 0 0 0 0 0 0 0 0 0.1 0"/>
<feBlend mode="normal" in2="BackgroundImageFix" result="effect1_dropShadow_3006_1087"/>
<feBlend mode="normal" in="SourceGraphic" in2="effect1_dropShadow_3006_1087" result="shape"/>
</filter>
<filter id="filter2_d_3006_1087" x="119.244" y="357.474" width="76.0589" height="60.7262" filterUnits="userSpaceOnUse" color-interpolation-filters="sRGB">
<feFlood flood-opacity="0" result="BackgroundImageFix"/>
<feColorMatrix in="SourceAlpha" type="matrix" values="0 0 0 0 0 0 0 0 0 0 0 0 0 0 0 0 0 0 127 0" result="hardAlpha"/>
<feOffset dy="4"/>
<feGaussianBlur stdDeviation="5.85"/>
<feComposite in2="hardAlpha" operator="out"/>
<feColorMatrix type="matrix" values="0 0 0 0 0 0 0 0 0 0 0 0 0 0 0 0 0 0 0.1 0"/>
<feBlend mode="normal" in2="BackgroundImageFix" result="effect1_dropShadow_3006_1087"/>
<feBlend mode="normal" in="SourceGraphic" in2="effect1_dropShadow_3006_1087" result="shape"/>
</filter>
</defs>
</svg>
