<svg width="393" height="425" viewBox="0 0 393 425" fill="none" xmlns="http://www.w3.org/2000/svg">
<path fill-rule="evenodd" clip-rule="evenodd" d="M-26.4841 253.218C-42.905 166.793 46.7234 108.795 125.071 68.7875C202.379 29.3101 295.234 -1.77873 360.255 55.73C435.453 122.239 464.443 237.119 412.572 323.07C367.77 397.307 265.129 368.869 179.498 355.246C95.8392 341.936 -10.6717 336.44 -26.4841 253.218Z" fill="#FFCEC7"/>
<path d="M123.382 115.502C122.224 115.783 121.138 116.306 120.196 117.036C119.873 117.293 119.513 117.502 119.13 117.656L115.001 100.737C114.849 100.147 114.472 99.6409 113.949 99.3276C113.427 99.0143 112.803 98.9192 112.211 99.0631L94.578 103.354L95.0691 105.352C95.1828 105.813 95.3836 106.249 95.6605 106.635C96.2395 107.43 96.6566 108.33 96.8881 109.286C97.1627 110.404 97.1827 111.57 96.9465 112.698C96.7103 113.825 96.2241 114.885 95.5236 115.8C94.823 116.714 93.9262 117.459 92.8991 117.981C91.8721 118.503 90.7411 118.787 89.5895 118.813C88.4379 118.839 87.2952 118.606 86.2455 118.132C85.1959 117.657 84.2662 116.953 83.525 116.071C82.7838 115.19 82.25 114.153 81.963 113.037C81.676 111.922 81.6431 110.756 81.8668 109.626C81.9912 109.075 81.9912 108.503 81.8668 107.952L81.5208 106.574L63.6648 110.893C63.3009 110.982 62.9582 111.141 62.656 111.363C62.3539 111.584 62.0984 111.863 61.9041 112.183C61.7098 112.504 61.5804 112.859 61.5235 113.229C61.4666 113.6 61.4832 113.977 61.5723 114.341L65.4169 130.01L64.2005 130.311L63.7764 130.4C62.2157 129.761 60.5114 129.555 58.8432 129.803C57.1749 130.05 55.6043 130.743 54.2968 131.809C52.9892 132.874 51.9931 134.272 51.4133 135.856C50.8335 137.44 50.6914 139.151 51.002 140.808C51.3127 142.466 52.0645 144.009 53.1784 145.276C54.2923 146.542 55.7271 147.485 57.3316 148.004C58.9362 148.524 60.6511 148.601 62.2959 148.228C63.9408 147.855 65.4546 147.046 66.678 145.885C66.9063 145.773 67.1457 145.685 67.3923 145.623L68.9547 145.243L73.2513 162.753C73.4321 163.487 73.8969 164.119 74.5435 164.51C75.1902 164.902 75.9657 165.02 76.6997 164.84L125.408 152.888C126.002 152.741 126.514 152.366 126.833 151.843C127.151 151.321 127.251 150.693 127.109 150.098L122.735 132.242C123.056 132.241 123.376 132.277 123.689 132.348C125.445 132.715 127.273 132.52 128.912 131.79C130.838 130.885 132.363 129.302 133.197 127.344C134.03 125.386 134.112 123.189 133.428 121.174C132.744 119.159 131.341 117.466 129.488 116.42C127.635 115.374 125.461 115.047 123.382 115.502Z" fill="#EBEBEB"/>
<path d="M340.254 209.034C340.936 209.353 341.678 209.524 342.43 209.536C342.683 209.539 342.935 209.577 343.178 209.647L338.558 219.602C338.394 219.954 338.377 220.357 338.51 220.722C338.642 221.087 338.915 221.385 339.266 221.549L349.629 226.359L350.187 225.182C350.315 224.913 350.387 224.621 350.399 224.323C350.441 223.514 350.685 222.728 351.109 222.038C351.533 221.348 352.124 220.775 352.826 220.371C353.529 219.968 354.321 219.747 355.131 219.728C355.941 219.71 356.743 219.895 357.463 220.266C358.518 220.818 359.335 221.736 359.762 222.847C360.188 223.959 360.194 225.188 359.779 226.304C359.487 227.075 359.001 227.757 358.367 228.285C358.093 228.509 357.872 228.791 357.72 229.11L357.34 229.936L367.819 234.841C368.033 234.941 368.265 234.997 368.501 235.008C368.736 235.018 368.972 234.982 369.194 234.901C369.416 234.82 369.619 234.696 369.793 234.537C369.967 234.377 370.108 234.185 370.208 233.971L374.504 224.741L375.218 225.076C375.303 225.111 375.385 225.152 375.464 225.199C375.98 226.127 376.737 226.899 377.655 227.434C378.573 227.968 379.618 228.245 380.681 228.236C381.743 228.226 382.783 227.931 383.691 227.38C384.6 226.829 385.343 226.044 385.843 225.107C386.342 224.169 386.58 223.115 386.531 222.053C386.482 220.992 386.148 219.964 385.564 219.077C384.979 218.19 384.167 217.476 383.211 217.012C382.256 216.548 381.193 216.349 380.134 216.438C379.977 216.404 379.824 216.354 379.677 216.288L378.762 215.858L383.549 205.552C383.747 205.118 383.766 204.625 383.602 204.177C383.438 203.73 383.104 203.366 382.673 203.163L353.992 189.85C353.64 189.686 353.237 189.669 352.872 189.801C352.507 189.934 352.209 190.206 352.045 190.558L347.173 201.054C347.015 200.927 346.871 200.783 346.744 200.624C346.027 199.746 345.05 199.117 343.954 198.828C342.637 198.475 341.236 198.629 340.027 199.259C338.818 199.888 337.888 200.948 337.422 202.229C336.955 203.51 336.986 204.919 337.507 206.178C338.028 207.438 339.002 208.457 340.237 209.034H340.254Z" fill="#EBEBEB"/>
<path d="M291.329 127.577C290.421 127.325 289.471 127.267 288.539 127.404C288.224 127.448 287.905 127.448 287.59 127.404L291.262 114.174C291.385 113.708 291.32 113.213 291.081 112.795C290.842 112.378 290.448 112.071 289.984 111.942L276.218 108.119L275.783 109.682C275.682 110.045 275.654 110.424 275.699 110.798C275.811 111.797 275.673 112.809 275.296 113.742C274.92 114.674 274.317 115.499 273.543 116.141C272.769 116.783 271.847 117.222 270.86 117.419C269.874 117.617 268.854 117.565 267.893 117.27C266.931 116.975 266.058 116.446 265.352 115.73C264.646 115.013 264.129 114.133 263.848 113.167C263.567 112.201 263.53 111.181 263.741 110.197C263.953 109.214 264.405 108.298 265.058 107.533C265.351 107.202 265.567 106.809 265.689 106.384L265.99 105.268L252.04 101.362C251.754 101.277 251.455 101.251 251.158 101.284C250.862 101.317 250.576 101.409 250.316 101.555C250.056 101.7 249.827 101.896 249.644 102.132C249.461 102.367 249.327 102.636 249.25 102.924L245.83 115.2L244.881 114.938L244.557 114.832C243.731 113.788 242.638 112.987 241.395 112.512C240.151 112.038 238.802 111.907 237.49 112.135C236.179 112.363 234.953 112.94 233.942 113.807C232.931 114.673 232.173 115.796 231.746 117.057C231.32 118.319 231.243 119.671 231.521 120.973C231.8 122.275 232.424 123.478 233.329 124.454C234.234 125.431 235.386 126.145 236.663 126.522C237.94 126.898 239.294 126.924 240.585 126.595C240.784 126.607 240.982 126.639 241.176 126.69L242.398 127.03L238.598 140.729C238.513 141.015 238.487 141.314 238.52 141.611C238.553 141.907 238.645 142.193 238.791 142.453C238.936 142.714 239.133 142.942 239.368 143.125C239.603 143.308 239.873 143.442 240.16 143.519L278.255 154.093C278.72 154.217 279.214 154.152 279.632 153.914C280.049 153.676 280.357 153.283 280.487 152.821L284.36 138.871C284.578 138.995 284.784 139.141 284.973 139.306C286.028 140.254 287.357 140.84 288.768 140.98C290.464 141.143 292.16 140.666 293.521 139.641C294.883 138.617 295.811 137.12 296.124 135.445C296.437 133.77 296.111 132.038 295.211 130.591C294.312 129.145 292.903 128.087 291.262 127.627L291.329 127.577Z" fill="#F5F5F5"/>
<path d="M188.205 243.038C191.307 242.826 193.997 243.663 196.575 244.874C197.763 245.45 199.06 245.768 200.38 245.806L203.779 245.734L203.823 207.951C203.821 207.1 203.651 206.258 203.323 205.472C202.995 204.687 202.516 203.973 201.912 203.373C201.308 202.773 200.592 202.298 199.805 201.975C199.017 201.652 198.174 201.487 197.323 201.49L161.404 201.624V200.876C161.421 199.359 161.782 197.865 162.459 196.507C164.291 192.744 164.888 188.498 164.166 184.376C163.276 179.419 160.567 174.974 156.569 171.912C152.571 168.85 147.573 167.392 142.556 167.825C137.538 168.257 132.864 170.549 129.449 174.25C126.034 177.951 124.125 182.794 124.096 187.83C124.105 190.596 124.694 193.33 125.826 195.854C126.406 197.125 126.712 198.503 126.724 199.899L126.936 201.601H83.6523C82.8016 201.598 81.9586 201.763 81.1715 202.086C80.3844 202.409 79.6685 202.884 79.0649 203.483C78.4613 204.083 77.9816 204.795 77.6533 205.58C77.325 206.365 77.1546 207.207 77.1516 208.057V245.003H74.0659C72.6314 244.988 71.2191 244.647 69.9367 244.004C66.2913 242.268 62.1975 241.704 58.2187 242.391C53.5345 243.24 49.3358 245.807 46.4445 249.589C43.5531 253.371 42.1773 258.095 42.5863 262.838C42.9954 267.581 45.1598 272.001 48.6559 275.232C52.1521 278.463 56.7282 280.273 61.4886 280.307C64.1206 280.308 66.7233 279.754 69.1276 278.683C70.3306 278.137 71.6344 277.848 72.9555 277.835H76.9173L76.9954 323.033C76.9976 323.727 77.1363 324.412 77.4036 325.052C77.6709 325.692 78.0616 326.272 78.5533 326.761C79.0451 327.25 79.6282 327.637 80.2695 327.9C80.9108 328.163 81.5976 328.297 82.2908 328.295H198.16C201.083 328.295 203.377 324.624 203.377 321.716V280.67H198.69C197.605 280.671 196.531 280.881 195.526 281.289C192.815 282.38 189.876 282.776 186.974 282.441C184.071 282.107 181.299 281.053 178.907 279.375C176.516 277.697 174.581 275.448 173.28 272.833C171.978 270.217 171.35 267.318 171.454 264.399C171.805 255.61 179.394 243.652 188.205 243.038Z" fill="#E0E0E0"/>
<path d="M188.205 243.038L187.898 243.077C187.593 243.108 187.289 243.154 186.988 243.217C185.803 243.452 184.659 243.858 183.59 244.422C180.761 245.867 177.056 249.16 174.26 254.662C172.664 257.707 171.728 261.056 171.515 264.488C171.464 266.455 171.733 268.417 172.313 270.297C172.949 272.334 173.958 274.235 175.287 275.905C176.77 277.764 178.617 279.3 180.716 280.418C182.815 281.536 185.12 282.213 187.491 282.405C190.093 282.645 192.716 282.284 195.158 281.351C196.423 280.798 197.796 280.539 199.175 280.592H203.466V280.67C203.466 287.165 203.466 294.062 203.466 301.355C203.466 304.997 203.466 308.735 203.466 312.571V321.343C203.48 321.847 203.446 322.351 203.366 322.849C203.275 323.347 203.137 323.834 202.953 324.305C202.594 325.266 202.045 326.144 201.34 326.889C200.636 327.673 199.692 328.2 198.656 328.39C198.098 328.446 197.618 328.424 197.099 328.429H152.638H93.529H85.717C84.4057 328.429 83.1112 328.457 81.7664 328.401C80.3974 328.261 79.1322 327.607 78.2254 326.572C77.3186 325.537 76.8373 324.197 76.8783 322.821C76.8783 321.493 76.8783 320.16 76.8783 318.826C76.8783 316.155 76.8783 313.469 76.8783 310.768C76.8783 299.98 76.8579 288.997 76.8169 277.819L76.962 277.964H74.4901C73.6675 277.94 72.8444 277.959 72.0237 278.019C71.2062 278.116 70.405 278.321 69.6411 278.628C68.8721 278.971 68.0862 279.274 67.2863 279.537C63.9734 280.591 60.4346 280.714 57.0563 279.894C53.6781 279.073 50.5903 277.34 48.1302 274.883C46.8755 273.647 45.7959 272.244 44.9217 270.715C44.4938 269.944 44.1209 269.145 43.8057 268.321C43.6494 267.908 43.4653 267.507 43.3425 267.083L42.991 265.799C41.9417 261.59 42.3464 257.149 44.1394 253.198C45.9323 249.248 49.0083 246.019 52.8676 244.037C54.7512 243.09 56.7777 242.458 58.8661 242.168C60.9585 241.881 63.0833 241.93 65.1603 242.313C66.1901 242.507 67.2032 242.781 68.1903 243.133C68.6869 243.312 69.1723 243.507 69.6466 243.73C70.1078 243.958 70.5809 244.161 71.064 244.339C72.9891 245.097 75.0927 244.824 77.1462 244.897L77.0011 245.042C77.0011 237.051 77.0011 229.163 77.0011 221.377V209.804C76.9624 208.839 77.0016 207.872 77.1183 206.913C77.2913 205.951 77.6826 205.04 78.2622 204.252C78.8316 203.465 79.5673 202.814 80.417 202.345C81.2666 201.875 82.2094 201.598 83.1781 201.534H126.925L126.797 201.679C126.724 201.121 126.652 200.563 126.585 200.005C126.578 198.967 126.402 197.936 126.066 196.953C125.904 196.462 125.687 195.999 125.508 195.508C125.329 195.017 125.129 194.531 124.95 194.035C124.312 192.051 123.986 189.98 123.985 187.897L124.068 186.357C124.068 186.1 124.068 185.838 124.124 185.587L124.247 184.822C124.342 184.32 124.386 183.807 124.52 183.316L124.933 181.837C124.993 181.59 125.075 181.349 125.179 181.117L125.458 180.408C125.627 179.93 125.835 179.465 126.077 179.019L126.78 177.674L127.612 176.324C128.748 174.68 130.13 173.22 131.707 171.994L132.265 171.525L132.885 171.118C133.303 170.85 133.705 170.56 134.129 170.32C134.984 169.843 135.869 169.424 136.78 169.064C138.582 168.348 140.478 167.895 142.41 167.72C143.363 167.632 144.322 167.617 145.278 167.675C145.752 167.703 146.227 167.714 146.701 167.764L148.101 167.976C151.774 168.688 155.182 170.392 157.956 172.903C160.59 175.28 162.547 178.313 163.625 181.694C164.703 185.074 164.865 188.68 164.094 192.143C163.726 193.781 163.164 195.37 162.42 196.875C162.083 197.618 161.838 198.4 161.689 199.202C161.558 200 161.507 200.81 161.538 201.618L161.432 201.512L188.774 201.423H194.985H196.502C197.005 201.423 197.501 201.423 198.009 201.451C198.998 201.555 199.951 201.879 200.799 202.399C201.623 202.9 202.326 203.578 202.856 204.384C203.385 205.19 203.729 206.103 203.862 207.059C203.935 207.977 203.957 208.899 203.929 209.821C203.929 210.725 203.929 211.617 203.929 212.499C203.901 226.622 203.879 237.849 203.862 245.75V245.789H203.818C202.451 245.789 201.178 245.873 199.984 245.845C198.884 245.754 197.808 245.473 196.804 245.014C195.312 244.27 193.736 243.708 192.111 243.34C191.152 243.135 190.174 243.03 189.193 243.027C188.863 243.027 188.635 243.027 188.467 243.027H188.227C188.548 242.996 188.87 242.983 189.193 242.988C190.177 242.981 191.159 243.078 192.122 243.278C193.753 243.646 195.334 244.208 196.832 244.952C197.831 245.4 198.899 245.675 199.99 245.767C201.173 245.767 202.451 245.722 203.818 245.7L203.779 245.745V209.804C203.807 208.89 203.784 207.975 203.712 207.064C203.58 206.133 203.244 205.242 202.727 204.457C202.209 203.672 201.524 203.011 200.721 202.522C199.89 202.014 198.956 201.701 197.987 201.607C197.496 201.568 196.999 201.573 196.497 201.579H194.962H188.746L161.404 201.691H161.304V201.59C161.268 200.769 161.318 199.946 161.454 199.135C161.61 198.317 161.859 197.519 162.197 196.758C162.943 195.269 163.505 193.695 163.871 192.071C164.63 188.646 164.468 185.082 163.401 181.741C162.335 178.399 160.402 175.4 157.799 173.048C155.056 170.566 151.684 168.883 148.051 168.183L146.667 167.976C146.199 167.926 145.73 167.915 145.256 167.887C144.313 167.829 143.367 167.844 142.427 167.932C140.512 168.104 138.632 168.553 136.847 169.265C135.945 169.618 135.069 170.032 134.224 170.504C133.805 170.755 133.409 171.062 132.996 171.296L132.388 171.698L131.83 172.161C130.275 173.376 128.913 174.819 127.79 176.441L126.97 177.68L126.272 179.008C126.036 179.45 125.832 179.908 125.664 180.381L125.391 181.078C125.287 181.308 125.205 181.547 125.145 181.792L124.744 183.249C124.61 183.734 124.565 184.242 124.47 184.739L124.347 185.492C124.314 185.743 124.314 186 124.297 186.251L124.213 187.774C124.213 189.831 124.535 191.876 125.168 193.834C125.329 194.325 125.508 194.816 125.726 195.296C125.943 195.776 126.15 196.25 126.317 196.752C126.673 197.76 126.862 198.819 126.875 199.888C126.948 200.446 127.015 201.004 127.093 201.59V201.735H126.942L83.2116 201.769C82.2833 201.83 81.38 202.096 80.566 202.546C79.752 202.996 79.0473 203.621 78.5021 204.375C77.9405 205.126 77.5587 205.997 77.3861 206.919C77.2752 207.876 77.2397 208.841 77.2801 209.804C77.2801 213.639 77.2801 217.501 77.2801 221.388V245.198H74.0437C72.989 245.189 71.9436 245 70.9524 244.64C70.4613 244.472 69.9759 244.232 69.5127 244.02C69.0496 243.808 68.5697 243.613 68.0842 243.462C67.1111 243.111 66.1108 242.841 65.0934 242.653C63.0477 242.276 60.955 242.227 58.894 242.508C56.28 242.887 53.7742 243.809 51.538 245.214C49.3018 246.62 47.3848 248.478 45.9104 250.67C44.4359 252.861 43.4368 255.337 42.9772 257.938C42.5176 260.539 42.6079 263.207 43.2421 265.771L43.5825 267.032C43.7052 267.451 43.8894 267.847 44.04 268.254C44.3552 269.065 44.7281 269.852 45.156 270.609C46.4413 272.858 48.1715 274.82 50.2409 276.377C52.3104 277.935 54.6756 279.053 57.1921 279.665C60.4925 280.455 63.9458 280.329 67.1803 279.303C67.9746 279.042 68.755 278.74 69.5183 278.399C70.3064 278.085 71.1315 277.873 71.9735 277.768C72.8217 277.673 73.6475 277.724 74.4733 277.712H77.0904V277.88C77.0904 289.04 77.109 300.023 77.1462 310.83C77.1462 313.53 77.1462 316.216 77.1462 318.887C77.1462 320.219 77.1462 321.551 77.1462 322.883C77.1086 324.186 77.566 325.455 78.4263 326.434C79.2867 327.413 80.4861 328.031 81.7831 328.161C83.0721 328.211 84.4057 328.161 85.6891 328.189H93.5011H152.61H197.088C197.596 328.206 198.105 328.195 198.612 328.156C199.599 327.977 200.498 327.474 201.167 326.727C201.852 326.003 202.385 325.149 202.735 324.216C202.915 323.757 203.051 323.283 203.143 322.799C203.219 322.314 203.251 321.822 203.237 321.331C203.237 320.338 203.237 319.356 203.237 318.374V312.56C203.237 308.732 203.237 304.993 203.237 301.344C203.237 294.062 203.237 287.154 203.237 280.659L203.327 280.748H199.125C197.765 280.69 196.41 280.944 195.163 281.49C192.697 282.424 190.05 282.785 187.424 282.545C185.037 282.346 182.716 281.66 180.605 280.529C178.494 279.399 176.636 277.848 175.148 275.972C173.807 274.288 172.793 272.369 172.157 270.313C171.587 268.426 171.331 266.458 171.398 264.488C171.626 261.045 172.576 257.69 174.188 254.639C176.978 249.132 180.733 245.834 183.579 244.405C184.653 243.842 185.803 243.44 186.994 243.211C187.295 243.153 187.598 243.112 187.904 243.089L188.205 243.038Z" fill="#263238"/>
<path d="M339.964 244.584C337.246 244.581 334.557 245.151 332.074 246.258C331.234 246.635 330.346 246.896 329.435 247.034V207.321C329.436 206.626 329.299 205.938 329.034 205.296C328.768 204.653 328.378 204.07 327.887 203.579C327.396 203.087 326.812 202.698 326.17 202.432C325.528 202.166 324.84 202.03 324.145 202.031H282.819V206.718C282.823 207.801 283.033 208.873 283.439 209.876C284.284 211.953 284.718 214.174 284.717 216.416C284.719 219.044 284.131 221.639 282.996 224.01C281.862 226.38 280.209 228.465 278.16 230.112C276.112 231.758 273.72 232.923 271.161 233.521C268.601 234.119 265.941 234.134 263.375 233.566C260.809 232.998 258.403 231.861 256.336 230.239C254.268 228.617 252.591 226.551 251.429 224.194C250.266 221.837 249.648 219.249 249.619 216.622C249.591 213.994 250.153 211.393 251.265 209.011C251.82 207.859 252.114 206.597 252.124 205.318V202.031L210.274 201.897C208.55 201.897 206.896 202.582 205.677 203.801C204.458 205.02 203.773 206.674 203.773 208.398L203.734 245.226H200.877C200.554 245.226 200.224 245.226 199.901 245.192C196.792 242.929 193.131 241.545 189.302 241.187C185.474 240.83 181.62 241.511 178.146 243.159C174.672 244.808 171.707 247.363 169.563 250.555C167.419 253.747 166.175 257.458 165.963 261.298C165.751 265.137 166.578 268.962 168.357 272.371C170.137 275.78 172.802 278.646 176.073 280.667C179.345 282.689 183.1 283.79 186.945 283.857C190.79 283.923 194.581 282.951 197.92 281.044C198.488 280.919 199.068 280.855 199.65 280.854H203.316V321.962C203.316 323.686 204 325.339 205.22 326.559C206.439 327.778 208.092 328.463 209.816 328.463H324.145C324.84 328.463 325.528 328.326 326.171 328.059C326.813 327.793 327.396 327.403 327.887 326.911C328.379 326.419 328.768 325.836 329.034 325.193C329.299 324.551 329.436 323.862 329.435 323.167V281.317C330.144 281.495 330.832 281.748 331.488 282.07C335.163 283.865 339.312 284.451 343.34 283.744C348.179 282.874 352.518 280.228 355.508 276.325C358.498 272.422 359.924 267.543 359.505 262.644C359.086 257.745 356.853 253.18 353.244 249.841C349.634 246.502 344.909 244.632 339.992 244.595L339.964 244.584Z" fill="#F5F5F5"/>
<path d="M339.964 244.584L341.208 244.64C341.721 244.65 342.232 244.698 342.737 244.785L343.714 244.947C344.092 244.999 344.465 245.083 344.83 245.198L346.069 245.538C346.498 245.683 346.939 245.873 347.408 246.051C347.637 246.146 347.882 246.23 348.122 246.336L348.836 246.71C349.353 246.956 349.852 247.235 350.332 247.547C352.982 249.206 355.2 251.471 356.803 254.155C358.405 256.84 359.347 259.867 359.55 262.987C359.55 263.467 359.617 263.946 359.617 264.437C359.617 264.928 359.567 265.414 359.539 265.916C359.539 266.162 359.539 266.418 359.483 266.664C359.427 266.909 359.41 267.166 359.371 267.417L359.254 268.182C359.193 268.427 359.137 268.684 359.076 268.935C358.012 273.348 355.48 277.267 351.894 280.05C349.908 281.572 347.653 282.708 345.248 283.398C344.635 283.588 343.993 283.683 343.357 283.834C342.721 283.984 342.057 284.029 341.398 284.068C340.057 284.171 338.708 284.131 337.375 283.951C336.003 283.768 334.654 283.439 333.352 282.969C332.013 282.517 330.802 281.735 329.412 281.423L329.524 281.334C329.524 287.762 329.524 294.577 329.524 301.779C329.524 305.372 329.524 309.059 329.524 312.838C329.524 314.724 329.524 316.638 329.524 318.569V322.949C329.524 323.195 329.524 323.452 329.496 323.697C329.472 323.949 329.431 324.199 329.373 324.445C329.133 325.441 328.615 326.348 327.881 327.062C327.146 327.776 326.224 328.267 325.222 328.479C324.716 328.571 324.201 328.61 323.687 328.596H279.973H221.941H210.419C209.763 328.621 209.106 328.576 208.46 328.462C207.812 328.323 207.187 328.094 206.602 327.782C205.432 327.131 204.482 326.146 203.873 324.953C203.569 324.358 203.36 323.72 203.254 323.061C203.165 322.405 203.132 321.742 203.154 321.08V280.859L203.299 280.999H200.654C200.202 280.999 199.733 280.999 199.287 280.999C198.831 281.022 198.377 281.082 197.931 281.177H197.97C195.3 282.707 192.334 283.645 189.271 283.928C184.47 284.371 179.66 283.189 175.612 280.57C171.564 277.951 168.514 274.048 166.951 269.487C166.204 267.292 165.807 264.993 165.773 262.674C165.776 260.366 166.126 258.071 166.811 255.867C167.511 253.683 168.556 251.625 169.908 249.773C170.587 248.853 171.333 247.984 172.14 247.173L173.407 246.023C173.831 245.65 174.311 245.332 174.757 244.986C176.605 243.671 178.643 242.646 180.8 241.944C182.961 241.298 185.202 240.964 187.457 240.951C191.955 240.981 196.33 242.426 199.962 245.08L199.889 245.053C201.15 245.114 202.439 245.053 203.712 245.086L203.567 245.226C203.567 237.358 203.576 229.594 203.594 221.935C203.594 218.099 203.594 214.297 203.594 210.529V209.117C203.594 208.649 203.594 208.174 203.633 207.694C203.79 206.26 204.409 204.916 205.396 203.864C206.384 202.812 207.686 202.11 209.107 201.863C210.034 201.758 210.966 201.725 211.897 201.763H214.66H220.161L231.009 201.802L252.096 201.869H252.224V204.949C252.252 205.942 252.113 206.932 251.811 207.879C251.654 208.346 251.468 208.802 251.253 209.246C251.052 209.681 250.879 210.127 250.695 210.579C249.603 213.704 249.425 217.076 250.181 220.299C250.937 223.522 252.596 226.462 254.964 228.776C256.267 230.049 257.755 231.118 259.378 231.945C262.574 233.572 266.199 234.158 269.745 233.619C273.18 233.104 276.382 231.575 278.941 229.228C280.187 228.09 281.257 226.773 282.116 225.322C282.977 223.906 283.62 222.369 284.025 220.763C284.86 217.629 284.788 214.322 283.818 211.227C283.606 210.468 283.26 209.759 283.031 208.995C282.817 208.228 282.71 207.436 282.713 206.64V201.902H282.819H313.063H323.14C323.678 201.888 324.216 201.901 324.753 201.941C325.287 202.006 325.81 202.147 326.304 202.36C327.263 202.785 328.076 203.48 328.646 204.36C329.216 205.24 329.517 206.267 329.513 207.315C329.513 209.307 329.513 211.221 329.513 213.135C329.513 228.201 329.513 239.679 329.479 246.994L329.435 246.955C331.298 246.715 332.699 245.811 334.021 245.449C335.101 245.104 336.208 244.854 337.33 244.701C337.989 244.616 338.652 244.564 339.317 244.545C339.758 244.545 339.97 244.545 339.97 244.545H339.317C337.523 244.616 335.747 244.931 334.038 245.482C332.727 245.845 331.326 246.76 329.446 247.011H329.407V246.972C329.407 239.657 329.407 228.19 329.368 213.113C329.368 211.227 329.368 209.287 329.368 207.293C329.372 206.276 329.08 205.28 328.527 204.426C327.974 203.573 327.184 202.9 326.254 202.488C325.774 202.28 325.267 202.143 324.747 202.081C324.228 202.031 323.687 202.047 323.152 202.047H313.063H282.819L282.925 201.947V206.578C282.921 207.356 283.026 208.13 283.238 208.877C283.444 209.62 283.796 210.339 284.025 211.109C285.009 214.244 285.085 217.593 284.242 220.768C283.833 222.394 283.182 223.95 282.312 225.383C281.442 226.852 280.359 228.184 279.097 229.334C276.507 231.719 273.261 233.274 269.779 233.798C266.183 234.344 262.506 233.748 259.266 232.096C257.625 231.256 256.12 230.172 254.802 228.882C253.465 227.567 252.344 226.049 251.482 224.384C250.366 222.252 249.704 219.911 249.538 217.51C249.372 215.109 249.705 212.7 250.517 210.434C250.684 209.977 250.863 209.519 251.075 209.078C251.289 208.644 251.475 208.197 251.633 207.739C251.925 206.818 252.061 205.854 252.034 204.888V201.941L252.163 202.07L231.076 202.008L220.228 201.975H214.727H211.925C211.007 201.934 210.088 201.964 209.174 202.064C207.815 202.302 206.569 202.975 205.624 203.981C204.68 204.987 204.087 206.272 203.935 207.644C203.896 208.096 203.89 208.565 203.896 209.039V210.451C203.896 214.223 203.896 218.025 203.896 221.856C203.896 229.512 203.896 237.278 203.896 245.153V245.292H203.751C202.473 245.292 201.212 245.326 199.906 245.259H199.867L199.828 245.231C196.245 242.617 191.932 241.192 187.496 241.158C185.272 241.175 183.061 241.505 180.928 242.14C178.782 242.851 176.759 243.89 174.93 245.22C174.489 245.566 174.02 245.873 173.596 246.247L172.352 247.363C171.561 248.163 170.829 249.021 170.165 249.929C168.82 251.753 167.776 253.78 167.073 255.934C166.404 258.103 166.06 260.359 166.052 262.63C166.105 268.164 168.306 273.462 172.19 277.405C174.404 279.621 177.077 281.324 180.02 282.394C182.964 283.464 186.106 283.876 189.226 283.599C192.245 283.33 195.172 282.417 197.808 280.921C198.269 280.821 198.737 280.759 199.209 280.737C199.688 280.737 200.135 280.737 200.592 280.737H203.382V321.108C203.355 321.755 203.387 322.403 203.477 323.044C203.576 323.676 203.776 324.289 204.069 324.858C204.67 325.998 205.599 326.933 206.736 327.542C207.297 327.839 207.896 328.058 208.516 328.195C209.144 328.304 209.782 328.349 210.419 328.328H221.947H279.979H323.715C324.214 328.344 324.713 328.308 325.205 328.222C326.167 328.02 327.051 327.549 327.756 326.863C328.46 326.177 328.955 325.306 329.184 324.35C329.293 323.878 329.343 323.395 329.334 322.91V312.822C329.334 309.046 329.334 305.359 329.334 301.762C329.334 294.571 329.334 287.756 329.334 281.317V281.228H329.446C330.874 281.557 332.085 282.344 333.396 282.784C334.688 283.252 336.025 283.581 337.386 283.767C338.708 283.944 340.045 283.984 341.376 283.884C342.029 283.845 342.676 283.755 343.318 283.655C343.959 283.555 344.584 283.409 345.193 283.225C348.548 282.272 351.589 280.444 354.004 277.928C356.419 275.412 358.121 272.298 358.936 268.907C358.997 268.656 359.059 268.405 359.115 268.154L359.232 267.4L359.349 266.653C359.388 266.402 359.382 266.151 359.399 265.905C359.425 265.407 359.453 264.915 359.483 264.432C359.483 263.952 359.438 263.472 359.422 262.992C359.221 259.888 358.288 256.876 356.699 254.202C355.111 251.528 352.911 249.269 350.281 247.608C349.805 247.296 349.307 247.016 348.792 246.771L348.083 246.397C347.843 246.291 347.603 246.202 347.369 246.107C346.906 245.929 346.465 245.739 346.041 245.594L344.802 245.248C344.438 245.129 344.065 245.042 343.686 244.986L342.709 244.824C342.205 244.731 341.693 244.679 341.181 244.668L339.964 244.584Z" fill="#263238"/>
<path d="M200.598 251.911C200.598 251.911 202.479 250.945 204.136 251.308C205.793 251.671 211.808 255.594 211.808 255.594L216.657 254.69L219.537 268.394L200.598 276.24V251.911Z" fill="#AE7461"/>
<path d="M186.648 256.676C186.648 256.676 190.984 256.118 192.552 255.343C194.12 254.567 197.864 251.236 198.645 251.297C199.426 251.359 202.272 251.9 202.272 251.9L201.122 255.343C201.122 255.343 206.797 258.786 208.488 260.052C210.179 261.319 215.491 266.994 215.742 268.383C215.993 269.773 215.563 271.402 214.899 271.943C214.235 272.484 211.819 271.385 211.819 271.385C211.912 271.813 211.91 272.256 211.814 272.683C211.717 273.11 211.529 273.511 211.261 273.857C210.357 275.068 208.248 274.644 208.248 274.644C208.248 274.644 208.064 276.636 207.099 276.999C206.133 277.361 203.957 276.273 203.957 276.273C203.957 276.273 203.304 277.947 202.517 278.143C201.731 278.338 199.493 277.027 199.493 277.027C199.493 277.027 189.834 270.085 187.663 269.058C185.493 268.032 184.823 267.97 184.823 267.97L186.648 256.676Z" fill="#FFBE9D"/>
<path d="M203.946 276.301C203.907 276.301 203.879 276.134 203.779 275.877C203.639 275.543 203.475 275.221 203.288 274.912C202.981 274.489 202.731 274.027 202.545 273.539C202.969 273.865 203.311 274.286 203.544 274.767C203.74 275.094 203.885 275.45 203.974 275.821C204.024 276.117 203.979 276.307 203.946 276.301Z" fill="#EB996E"/>
<path d="M207.958 275.129C207.508 274.55 207.1 273.941 206.736 273.304C206.077 272.3 205.369 271.63 205.419 271.563C206.07 271.943 206.609 272.488 206.981 273.143C207.428 273.738 207.759 274.412 207.958 275.129Z" fill="#EB996E"/>
<path d="M211.83 271.642C211.747 271.642 211.479 270.621 210.809 269.494C210.14 268.366 209.375 267.613 209.437 267.552C210.095 268.032 210.648 268.644 211.06 269.347C211.472 270.051 211.734 270.832 211.83 271.642Z" fill="#EB996E"/>
<path d="M209.001 264.109C209.383 265.154 209.434 266.292 209.146 267.368C209.047 266.831 209.009 266.284 209.035 265.738C208.965 265.198 208.953 264.652 209.001 264.109Z" fill="#EB996E"/>
<path d="M194.951 258.674C194.951 258.674 196.458 253.847 196.999 253.239C197.54 252.631 202.579 251.308 202.579 251.308L204.147 255.354L203.031 256.537L200.615 256.38C200.615 256.38 199.114 260.364 194.951 258.674Z" fill="#AE7461"/>
<path d="M185.688 268.227C185.688 268.227 184.996 268.757 185.688 270.024C186.38 271.29 188.25 270.387 188.852 270.024C188.852 270.024 187.948 272.139 189.092 272.814C189.874 273.218 190.756 273.385 191.631 273.294C191.631 273.294 191.57 274.56 193.199 275.409C194.828 276.257 195.253 275.409 195.253 275.409C195.253 275.409 195.431 277.518 197.3 277.702C199.17 277.886 199.834 277.239 199.834 277.239L198.991 275.989C198.991 275.989 200.079 273.757 199.237 272.814C198.946 272.523 198.596 272.297 198.212 272.151C197.827 272.004 197.415 271.941 197.005 271.966C197.005 271.966 197.378 270.007 196.302 269.46C196.061 269.311 195.791 269.214 195.511 269.177C195.23 269.141 194.944 269.165 194.674 269.248C194.403 269.331 194.153 269.471 193.941 269.659C193.729 269.847 193.56 270.078 193.445 270.336C193.445 270.336 193.322 268.188 191.771 268.238C190.865 268.249 189.998 268.611 189.354 269.248L185.688 268.227Z" fill="#AE7461"/>
<path d="M193.439 270.325C193.306 270.904 193.061 271.451 192.719 271.937C192.46 272.469 192.102 272.946 191.665 273.343C191.859 272.79 192.13 272.266 192.468 271.787C192.724 271.257 193.05 270.766 193.439 270.325Z" fill="#6F4439"/>
<path d="M197.038 272.228C196.892 272.84 196.612 273.411 196.218 273.902C195.902 274.445 195.472 274.914 194.957 275.274C195.624 274.243 196.318 273.229 197.038 272.233V272.228Z" fill="#6F4439"/>
<path d="M159.646 295.005H150.49L148.146 328.307H157.331C158.893 323.235 162.799 296.808 162.799 296.808L159.646 295.005Z" fill="#263238"/>
<path d="M107.792 295.005C107.792 295.005 101.927 308.749 102.513 314.312C103.099 319.875 106.391 328.307 106.391 328.307H151.745C152.703 324.512 153.448 320.667 153.977 316.79C154.959 309.915 157.593 295.028 157.593 295.028L107.792 295.005Z" fill="#263238"/>
<path d="M167.721 162.374C166.186 160.438 164.295 158.58 163.904 156.141C163.541 153.909 164.523 151.454 163.519 149.445C162.28 146.94 158.731 146.455 157.191 144.128C156.449 143.012 156.271 141.572 155.517 140.439C154.267 138.509 151.689 137.889 149.379 138.018C147.069 138.146 144.871 138.86 142.566 138.938C139.408 139.005 136.21 137.822 133.147 138.576C129.766 139.407 127.567 142.258 125.274 145.009L122.283 148.184C121.679 148.728 121.023 149.21 120.324 149.624C119.097 150.333 117.713 150.796 116.641 151.728C114.348 153.72 114.337 157.765 116.641 159.768C115.415 160.126 114.336 160.867 113.562 161.884C112.789 162.9 112.362 164.138 112.345 165.415C112.345 166.816 112.903 168.155 113.226 169.511C113.55 170.867 113.784 172.368 113.143 173.624C112.501 174.879 110.838 175.677 109.65 174.935C109.83 175.852 110.211 176.717 110.767 177.468C111.323 178.219 112.039 178.836 112.864 179.276C112.164 179.922 111.244 180.278 110.291 180.269C112.557 186.407 119.348 189.873 125.86 190.219C132.371 190.565 138.727 188.388 144.887 186.246L162.648 182.524C164.205 182.245 164.936 180.403 164.987 178.819C165.037 177.234 164.719 175.577 165.355 174.126C166.22 172.139 168.625 171.18 169.529 169.204C170.533 166.939 169.25 164.322 167.721 162.374Z" fill="#263238"/>
<path d="M125.458 176.419C124.375 172.396 123.31 168.345 122.936 164.193C122.562 160.042 122.936 155.756 124.554 151.917C124.805 151.359 126.886 147.453 127.511 147.559C127.958 147.626 126.613 151.27 126.819 151.672C128.795 155.5 129.152 160.003 128.583 164.277C127.995 168.424 126.947 172.493 125.458 176.408" fill="#263238"/>
<path d="M125.865 160.522C126.061 150.07 132.31 141.477 142.75 141.968L143.71 142.069C148.382 142.556 152.7 144.785 155.802 148.312C158.904 151.839 160.564 156.406 160.45 161.102C160.227 170.158 159.892 180.163 159.301 184.973C158.123 194.934 147.984 195.436 147.984 195.436L147.711 211.886L123.974 195.441L125.865 160.522Z" fill="#FFBE9D"/>
<path d="M147.967 195.436C143.364 194.937 138.999 193.13 135.39 190.229C135.39 190.229 137.728 198.655 147.772 198.806L147.967 195.436Z" fill="#EB996E"/>
<path d="M156.979 168.836C156.942 169.207 156.762 169.55 156.476 169.791C156.191 170.031 155.823 170.151 155.45 170.125C155.267 170.12 155.087 170.079 154.921 170.004C154.754 169.929 154.605 169.821 154.481 169.687C154.357 169.552 154.261 169.394 154.2 169.222C154.138 169.05 154.112 168.867 154.122 168.685C154.158 168.313 154.337 167.97 154.621 167.729C154.906 167.487 155.273 167.365 155.645 167.39C155.828 167.396 156.008 167.438 156.175 167.514C156.342 167.59 156.491 167.699 156.615 167.833C156.74 167.968 156.836 168.126 156.898 168.298C156.961 168.47 156.988 168.653 156.979 168.836Z" fill="#263238"/>
<path d="M157.866 165.019C157.671 165.186 156.678 164.271 155.143 164.115C153.609 163.959 152.404 164.606 152.258 164.4C152.186 164.31 152.404 163.992 152.928 163.685C153.641 163.299 154.455 163.139 155.26 163.228C156.058 163.308 156.81 163.643 157.403 164.182C157.838 164.606 157.961 164.946 157.866 165.019Z" fill="#263238"/>
<path d="M143.124 168.836C143.089 169.207 142.909 169.549 142.625 169.79C142.34 170.031 141.973 170.151 141.601 170.125C141.418 170.12 141.237 170.079 141.071 170.004C140.904 169.929 140.754 169.821 140.629 169.687C140.505 169.553 140.409 169.395 140.347 169.223C140.284 169.051 140.257 168.868 140.267 168.685C140.303 168.313 140.482 167.97 140.766 167.729C141.05 167.487 141.418 167.365 141.79 167.39C141.973 167.396 142.153 167.438 142.32 167.514C142.486 167.59 142.636 167.699 142.76 167.833C142.884 167.968 142.981 168.126 143.043 168.298C143.105 168.47 143.133 168.653 143.124 168.836Z" fill="#263238"/>
<path d="M142.789 164.048C142.594 164.216 141.595 163.306 140.061 163.15C138.526 162.994 137.326 163.641 137.181 163.435C137.109 163.34 137.321 163.027 137.851 162.72C138.563 162.331 139.377 162.172 140.183 162.263C140.98 162.344 141.73 162.676 142.326 163.211C142.756 163.63 142.884 163.981 142.789 164.048Z" fill="#263238"/>
<path d="M147.03 176.413C147.03 176.324 148.001 176.263 149.563 176.224C149.96 176.224 150.339 176.19 150.434 175.928C150.508 175.527 150.46 175.112 150.294 174.739C150.026 173.75 149.746 172.716 149.452 171.637C148.291 167.223 147.493 163.613 147.672 163.568C147.85 163.524 148.938 167.061 150.093 171.475C150.372 172.561 150.637 173.599 150.886 174.589C151.087 175.086 151.103 175.638 150.93 176.146C150.86 176.278 150.759 176.393 150.638 176.481C150.516 176.569 150.375 176.628 150.227 176.653C150.003 176.683 149.776 176.683 149.552 176.653C148.007 176.598 147.03 176.503 147.03 176.413Z" fill="#263238"/>
<path d="M142.421 176.999C142.672 176.999 142.499 178.673 143.799 180.001C145.099 181.33 146.89 181.341 146.879 181.575C146.879 181.681 146.45 181.854 145.696 181.798C144.721 181.706 143.809 181.276 143.118 180.582C142.458 179.911 142.082 179.012 142.069 178.071C142.08 177.368 142.309 176.977 142.421 176.999Z" fill="#263238"/>
<path d="M143.358 157.827C143.163 158.228 141.657 157.871 139.832 157.899C138.007 157.927 136.484 158.262 136.305 157.86C136.222 157.67 136.512 157.302 137.142 156.967C137.977 156.555 138.895 156.339 139.826 156.334C140.757 156.329 141.677 156.536 142.516 156.939C143.124 157.274 143.448 157.637 143.358 157.827Z" fill="#263238"/>
<path d="M157.771 159.858C157.465 160.176 156.443 159.702 155.177 159.551C153.91 159.4 152.811 159.551 152.599 159.149C152.51 158.959 152.716 158.63 153.218 158.351C153.891 158.023 154.645 157.901 155.387 158C156.128 158.099 156.824 158.416 157.386 158.909C157.799 159.328 157.905 159.702 157.771 159.858Z" fill="#263238"/>
<path d="M125.898 167.994C125.737 167.904 119.258 165.243 118.756 172.084C118.254 178.925 125.229 177.998 125.268 177.825C125.307 177.652 125.898 167.994 125.898 167.994Z" fill="#FFBE9D"/>
<path d="M123.354 175.08C123.354 175.052 123.231 175.152 123.025 175.231C122.732 175.329 122.412 175.311 122.132 175.18C121.429 174.868 120.905 173.674 120.96 172.435C120.987 171.85 121.143 171.278 121.418 170.761C121.498 170.552 121.628 170.366 121.796 170.218C121.964 170.07 122.166 169.966 122.383 169.913C122.522 169.887 122.666 169.91 122.79 169.98C122.913 170.049 123.008 170.16 123.058 170.292C123.137 170.488 123.086 170.622 123.12 170.638C123.153 170.655 123.276 170.532 123.243 170.248C123.217 170.074 123.132 169.915 123.003 169.796C122.824 169.64 122.592 169.56 122.355 169.572C122.07 169.607 121.799 169.715 121.567 169.885C121.335 170.055 121.152 170.282 121.033 170.543C120.7 171.115 120.509 171.758 120.475 172.418C120.419 173.802 121.033 175.147 121.998 175.504C122.18 175.573 122.375 175.599 122.568 175.582C122.761 175.565 122.948 175.504 123.114 175.404C123.332 175.242 123.377 175.091 123.354 175.08Z" fill="#EB996E"/>
<path d="M156.734 149.479C157.883 148.921 154.786 145.137 152.147 143.726C148.152 141.594 141.941 140.043 138.08 140.874C133.426 141.873 129.487 143.904 126.92 147.911C124.353 151.917 123.187 156.71 123.014 161.464C122.958 162.915 123.014 164.433 123.706 165.711C124.565 167.284 126.339 168.356 126.122 170.437C126.07 170.813 126.092 171.194 126.188 171.561C126.284 171.928 126.451 172.272 126.68 172.574C127.846 173.986 129.47 172.831 130.245 171.626C131.919 169.037 132.293 165.85 132.623 162.787C132.857 160.611 133.091 158.384 132.623 156.247C132.36 155.087 131.892 153.971 131.696 152.799C131.562 152.217 131.555 151.613 131.676 151.028C131.797 150.443 132.044 149.892 132.399 149.412C132.578 149.207 132.776 149.021 132.991 148.854C133.999 148.082 135.195 147.593 136.455 147.436C137.715 147.279 138.994 147.46 140.161 147.961C143.928 149.573 150.378 152.034 152.186 150.84C154.781 149.116 155.45 147.927 155.45 147.927L156.734 149.479Z" fill="#263238"/>
<path d="M138.493 139.965C142.337 138.95 146.617 139.29 150.021 141.343C151.823 142.459 153.414 144.094 153.855 146.159C154.295 148.223 153.269 150.656 151.265 151.326L151.126 151.404C148.141 152.196 146.271 151.683 143.425 150.489C141.026 149.485 138.961 147.833 136.545 146.834C133.972 145.776 131.14 145.512 128.415 146.075C131.228 143.263 134.654 140.981 138.493 139.965Z" fill="#263238"/>
<path d="M140.228 138.776C140.463 138.773 140.697 138.797 140.926 138.849C141.553 138.959 142.169 139.125 142.767 139.345C143.657 139.676 144.504 140.113 145.289 140.646C146.26 141.294 147.11 142.108 147.8 143.051C148.455 144.019 148.923 145.101 149.178 146.242C149.4 147.158 149.542 148.092 149.602 149.032C149.658 149.836 149.658 150.489 149.653 150.935C149.661 151.169 149.644 151.402 149.602 151.633C149.556 151.403 149.536 151.169 149.541 150.935C149.513 150.489 149.48 149.819 149.396 149.049C149.306 148.122 149.148 147.202 148.922 146.298C148.656 145.194 148.195 144.147 147.56 143.207C146.893 142.29 146.071 141.495 145.133 140.858C144.371 140.323 143.551 139.878 142.689 139.53C141.882 139.237 141.061 138.985 140.228 138.776Z" fill="#455A64"/>
<path d="M146.528 138.38C146.731 138.411 146.929 138.466 147.119 138.542C147.35 138.612 147.576 138.698 147.794 138.799L148.648 139.229C150.243 140.209 151.485 141.671 152.197 143.402C152.403 143.891 152.571 144.395 152.699 144.909C152.809 145.39 152.884 145.879 152.923 146.371C152.962 146.814 152.971 147.26 152.95 147.705C152.922 148.092 152.87 148.478 152.794 148.86C152.733 149.175 152.647 149.484 152.537 149.786C152.466 150.015 152.374 150.237 152.264 150.45C152.182 150.649 152.075 150.836 151.946 151.008C152.228 150.31 152.444 149.587 152.593 148.848C152.652 148.479 152.691 148.106 152.71 147.732C152.718 147.298 152.701 146.864 152.66 146.432C152.612 145.955 152.534 145.482 152.426 145.015C152.292 144.519 152.126 144.033 151.929 143.559C151.238 141.88 150.058 140.447 148.542 139.446L147.722 138.983C147.512 138.872 147.296 138.773 147.075 138.687C146.879 138.612 146.694 138.508 146.528 138.38Z" fill="#455A64"/>
<path d="M150.992 210.234C150.992 211.177 155.696 231.845 157.498 236.923C159.3 242.001 165.003 292.913 164.25 296.54C163.497 300.167 161.549 300.022 161.549 300.022C161.549 300.022 115.47 297.12 110.515 297.556C105.56 297.991 103.461 297.846 102.262 292.188C101.062 286.529 102.295 257.128 101.246 250.019C100.197 242.911 100.186 239.468 99.7786 228.91C99.4271 219.754 101.508 212.416 105.861 207.115C110.213 201.814 119.85 196.463 119.85 196.463L123.27 191.474L147.454 204.269L148.012 201.356L149.48 205.887L150.992 210.234Z" fill="#455A64"/>
<g opacity="0.3">
<path d="M161.388 273.238C160.98 272.211 159.674 271.949 158.598 271.832C148.347 270.716 137.684 268.132 130.195 261.045C127.271 258.255 124.961 254.907 122.735 251.559C117.869 244.205 113.299 236.661 108.729 229.117L105.18 230.45C107.362 241.097 109.505 248.803 113.048 257.53C116.591 266.257 119.348 274.728 128.332 277.585C134.14 279.432 145.172 278.014 151.249 277.54C153.783 277.415 156.297 277.022 158.748 276.368C159.5 276.184 160.199 275.829 160.79 275.33C161.08 275.075 161.29 274.743 161.396 274.372C161.502 274.001 161.499 273.607 161.388 273.238Z" fill="black"/>
</g>
<path d="M103.914 227.66C104.176 228.135 124.682 271.938 133.839 273.74C142.996 275.542 171.454 275.972 177.006 274.906C182.558 273.84 187.993 272.881 187.993 272.881C187.993 272.881 192.016 263.328 188.345 255.192L180.7 255.432C180.7 255.432 159.446 254.283 156.444 253.462C153.442 252.642 150.864 249.83 148.146 249.98L131.964 212.354C131.964 212.354 121.457 202.595 113.952 205.597C106.447 208.599 101.709 223.754 103.914 227.66Z" fill="#455A64"/>
<path d="M181.291 274.409C181.314 274.159 181.364 273.912 181.442 273.673C181.565 273.204 181.716 272.523 181.872 271.681C182.028 270.838 182.179 269.822 182.279 268.69C182.377 267.461 182.403 266.228 182.357 264.996C182.258 262.758 181.909 260.539 181.319 258.378C181.091 257.546 180.884 256.882 180.722 256.425C180.631 256.191 180.56 255.951 180.51 255.705C180.639 255.921 180.746 256.149 180.828 256.386C181.09 257.017 181.319 257.662 181.515 258.317C182.165 260.484 182.54 262.724 182.631 264.985C182.675 266.228 182.642 267.473 182.53 268.712C182.431 269.723 182.273 270.727 182.056 271.72C181.917 272.389 181.742 273.05 181.531 273.701C181.472 273.943 181.392 274.18 181.291 274.409Z" fill="#263238"/>
<path d="M131.964 212.365C131.964 212.365 132.07 212.588 132.271 213.029L133.13 214.993L136.428 222.526C139.252 229.061 143.308 238.463 148.263 249.941L148.152 249.874C149.427 249.912 150.668 250.298 151.74 250.99C152.856 251.604 153.933 252.318 155.116 252.859C156.337 253.381 157.64 253.683 158.966 253.752C160.311 253.914 161.683 254.031 163.078 254.154C168.658 254.611 174.567 254.98 180.722 255.32L188.367 255.075H188.462L188.501 255.158C189.662 257.93 190.174 260.93 189.996 263.93C189.863 267.023 189.229 270.074 188.121 272.964V273.037H188.043L183.183 273.935L177.86 274.917C176.102 275.235 174.322 275.422 172.536 275.475C168.999 275.631 165.517 275.648 162.091 275.631C158.664 275.615 155.305 275.531 152.013 275.408C148.721 275.285 145.507 275.124 142.365 274.884C140.797 274.772 139.252 274.621 137.723 274.454C136.219 274.308 134.728 274.058 133.259 273.706C132.56 273.429 131.904 273.053 131.311 272.59C130.723 272.143 130.163 271.659 129.637 271.139C128.627 270.13 127.678 269.06 126.797 267.936C123.643 263.812 120.765 259.483 118.182 254.98C113.377 246.766 109.906 239.886 107.524 235.132C106.341 232.749 105.442 230.891 104.84 229.624C104.237 228.358 103.941 227.688 103.941 227.688C103.941 227.688 104.031 227.85 104.187 228.173C104.343 228.497 104.589 228.977 104.896 229.602L107.624 235.081C110.04 239.819 113.533 246.682 118.36 254.874C120.935 259.356 123.802 263.663 126.942 267.769C127.818 268.884 128.761 269.944 129.766 270.944C130.277 271.455 130.821 271.932 131.395 272.373C131.968 272.822 132.603 273.187 133.281 273.455C134.741 273.798 136.224 274.04 137.717 274.18C139.235 274.348 140.781 274.493 142.349 274.605C145.479 274.839 148.699 275.006 151.985 275.123C155.272 275.241 158.637 275.319 162.029 275.336C165.422 275.352 168.932 275.336 172.458 275.174C174.231 275.118 175.997 274.932 177.742 274.616L183.06 273.634L187.926 272.735L187.814 272.825C188.91 269.968 189.537 266.953 189.673 263.897C189.837 260.939 189.323 257.982 188.172 255.253L188.305 255.337L180.661 255.577C174.523 255.225 168.597 254.857 163.011 254.388C161.616 254.265 160.221 254.143 158.893 253.981C158.212 253.903 157.543 253.819 156.879 253.691C156.217 253.568 155.575 253.356 154.971 253.06C153.765 252.502 152.683 251.782 151.578 251.174C150.544 250.507 149.348 250.134 148.118 250.097H148.04L148.007 250.025C143.091 238.524 139.079 229.111 136.289 222.571L133.08 215.021L132.249 213.046C132.07 212.594 131.964 212.365 131.964 212.365Z" fill="#263238"/>
<path d="M129.838 209.408C129.838 209.408 129.554 209.146 129.04 208.671C128.318 208.007 127.533 207.415 126.697 206.902C125.457 206.141 124.116 205.561 122.712 205.178C119.256 204.21 115.562 204.581 112.367 206.216C111.065 206.865 109.864 207.7 108.802 208.694C108.08 209.369 107.427 210.115 106.854 210.92C106.658 211.223 106.445 211.516 106.218 211.796C106.25 211.707 106.293 211.623 106.346 211.545C106.441 211.389 106.558 211.143 106.759 210.853C107.308 210.025 107.946 209.26 108.662 208.571C111.032 206.257 114.119 204.817 117.415 204.487C120.711 204.158 124.021 204.958 126.803 206.757C127.643 207.289 128.42 207.914 129.118 208.621C129.314 208.809 129.5 209.006 129.676 209.213C129.738 209.271 129.792 209.336 129.838 209.408Z" fill="#263238"/>
<path d="M148.085 250.019C147.836 251.108 147.49 252.172 147.052 253.2C146.704 254.259 146.267 255.288 145.747 256.274C145.995 255.187 146.341 254.125 146.779 253.099C147.126 252.037 147.563 251.007 148.085 250.019Z" fill="#263238"/>
<path d="M185.236 257.234C185.236 257.234 185.314 257.195 185.448 257.234C185.629 257.313 185.774 257.456 185.856 257.636C185.932 257.768 185.972 257.919 185.972 258.071C185.972 258.224 185.932 258.374 185.856 258.507C185.754 258.665 185.609 258.792 185.438 258.871C185.267 258.95 185.077 258.978 184.89 258.953C184.703 258.914 184.532 258.818 184.401 258.678C184.271 258.538 184.186 258.361 184.159 258.172C184.132 258.023 184.143 257.869 184.192 257.725C184.241 257.582 184.325 257.453 184.438 257.352C184.514 257.285 184.602 257.234 184.698 257.203C184.794 257.173 184.896 257.162 184.996 257.173C185.13 257.173 185.197 257.218 185.192 257.234C185.186 257.251 184.868 257.234 184.589 257.497C184.516 257.582 184.464 257.682 184.437 257.791C184.41 257.899 184.408 258.012 184.433 258.122C184.455 258.254 184.516 258.377 184.607 258.476C184.698 258.575 184.816 258.646 184.946 258.68C185.08 258.694 185.216 258.673 185.34 258.618C185.463 258.563 185.57 258.477 185.649 258.367C185.708 258.273 185.744 258.166 185.753 258.055C185.761 257.944 185.743 257.833 185.699 257.731C185.532 257.329 185.225 257.273 185.236 257.234Z" fill="#263238"/>
<path d="M148.034 205.725C147.84 205.647 147.654 205.552 147.476 205.441L145.948 204.565L146.059 204.52C145.758 206.043 145.462 208.286 144.943 210.976L144.904 211.155L144.753 211.06C142.521 209.642 139.81 208.024 136.941 206.289C134.799 205.005 132.795 203.711 130.954 202.595C129.113 201.479 127.4 200.519 125.977 199.721L122.59 197.835L121.669 197.322C121.561 197.262 121.457 197.197 121.356 197.126C121.476 197.16 121.59 197.209 121.697 197.272L122.64 197.74C123.46 198.153 124.632 198.761 126.077 199.543C127.522 200.324 129.224 201.261 131.099 202.333L137.103 206.015C139.977 207.751 142.683 209.363 144.915 210.82L144.725 210.898C145.256 208.231 145.585 205.982 145.931 204.464V204.364L146.02 204.414L147.51 205.346C147.695 205.458 147.87 205.585 148.034 205.725Z" fill="#263238"/>
<g opacity="0.3">
<path d="M124.771 198.929L137.393 208.337C140.183 210.407 143.013 212.51 146.321 213.565L146.126 204.782L144.837 210.92L124.771 198.929Z" fill="black"/>
</g>
<path d="M254.724 154.997C253.612 155.147 252.484 154.879 251.559 154.244C250.633 153.609 249.977 152.653 249.717 151.561C249.457 150.47 249.612 149.32 250.151 148.337C250.691 147.353 251.577 146.604 252.637 146.237C251.935 145.542 251.469 144.643 251.306 143.669C251.143 142.695 251.29 141.694 251.727 140.808C252.164 139.921 252.868 139.195 253.74 138.732C254.613 138.268 255.609 138.09 256.588 138.224C256.609 137.25 256.882 136.299 257.381 135.462C257.88 134.626 258.588 133.933 259.434 133.452C260.281 132.971 261.238 132.717 262.212 132.716C263.186 132.716 264.144 132.968 264.991 133.447C266.072 132.53 267.428 132.002 268.844 131.946C270.26 131.891 271.654 132.311 272.803 133.141C273.748 132.947 274.731 133.061 275.606 133.468C276.481 133.875 277.203 134.552 277.664 135.399C278.125 136.247 278.302 137.22 278.168 138.176C278.035 139.131 277.597 140.019 276.921 140.707" fill="#263238"/>
<path d="M254.093 155.645C254.384 150.829 256.476 146.3 259.955 142.957C263.433 139.615 268.042 137.704 272.865 137.604H273.858C284.588 138.012 290.235 147.353 289.532 158.061L290.168 196.284L264.098 205.625L263.87 191.859C263.87 191.859 253.535 190.469 253.201 180.141C253.05 175.208 253.535 164.93 254.093 155.645Z" fill="#AE7461"/>
<path d="M263.786 191.848C268.562 191.749 273.21 190.283 277.178 187.624C277.178 187.624 274.154 195.101 263.859 194.381L263.786 191.848Z" fill="#6F4439"/>
<path d="M256.99 164.958C256.994 165.341 257.147 165.707 257.417 165.979C257.687 166.251 258.052 166.407 258.435 166.414C258.623 166.426 258.811 166.399 258.989 166.336C259.166 166.273 259.329 166.176 259.468 166.049C259.607 165.922 259.719 165.768 259.797 165.597C259.876 165.426 259.919 165.241 259.925 165.053C259.921 164.67 259.767 164.304 259.497 164.032C259.228 163.76 258.863 163.604 258.48 163.596C258.292 163.586 258.104 163.613 257.927 163.676C257.75 163.739 257.587 163.837 257.448 163.964C257.31 164.091 257.197 164.244 257.119 164.415C257.04 164.585 256.996 164.77 256.99 164.958Z" fill="#263238"/>
<path d="M256.398 160.639C256.582 160.828 257.682 159.98 259.261 159.952C260.84 159.924 262.023 160.689 262.19 160.51C262.268 160.421 262.079 160.081 261.565 159.723C260.87 159.262 260.05 159.026 259.216 159.048C258.393 159.064 257.596 159.34 256.939 159.835C256.476 160.203 256.32 160.555 256.398 160.639Z" fill="#263238"/>
<path d="M271.408 164.958C271.413 165.341 271.567 165.708 271.838 165.979C272.109 166.25 272.476 166.404 272.859 166.408C273.046 166.42 273.234 166.393 273.411 166.331C273.588 166.268 273.751 166.171 273.89 166.045C274.029 165.918 274.141 165.766 274.22 165.595C274.299 165.425 274.342 165.24 274.349 165.053C274.343 164.669 274.189 164.303 273.918 164.031C273.647 163.759 273.282 163.603 272.898 163.596C272.711 163.586 272.523 163.614 272.346 163.677C272.169 163.741 272.007 163.839 271.868 163.965C271.73 164.092 271.618 164.245 271.539 164.415C271.46 164.586 271.415 164.77 271.408 164.958Z" fill="#263238"/>
<path d="M271.977 160.616C272.162 160.806 273.261 159.958 274.84 159.93C276.419 159.902 277.63 160.667 277.769 160.488C277.853 160.399 277.658 160.058 277.145 159.701C276.455 159.242 275.64 159.007 274.812 159.026C273.989 159.042 273.192 159.317 272.535 159.813C272.022 160.181 271.883 160.533 271.977 160.616Z" fill="#263238"/>
<path d="M266.47 172.468C266.47 172.379 265.488 172.229 263.892 172.061C263.485 172.028 263.1 171.955 263.027 171.682C262.986 171.264 263.072 170.844 263.273 170.476C263.635 169.489 264.009 168.456 264.389 167.374C265.962 162.96 267.089 159.333 266.911 159.272C266.732 159.21 265.315 162.737 263.741 167.151C263.369 168.237 263.009 169.277 262.659 170.27C262.416 170.763 262.355 171.326 262.486 171.86C262.549 171.998 262.643 172.12 262.76 172.216C262.877 172.313 263.014 172.382 263.161 172.418C263.386 172.474 263.616 172.5 263.847 172.496C265.471 172.575 266.442 172.563 266.47 172.468Z" fill="#263238"/>
<path d="M271.386 155.237C271.603 155.634 272.948 155.171 274.617 155.087C276.285 155.003 277.697 155.243 277.842 154.825C277.903 154.624 277.602 154.267 276.994 153.96C276.209 153.588 275.343 153.425 274.477 153.485C273.619 153.531 272.789 153.805 272.072 154.278C271.525 154.657 271.291 155.048 271.386 155.237Z" fill="#263238"/>
<path d="M256.108 155.036C256.449 155.393 257.743 154.992 259.317 154.941C260.89 154.891 262.224 155.126 262.52 154.741C262.653 154.556 262.436 154.183 261.844 153.876C261.032 153.479 260.134 153.293 259.231 153.334C258.328 153.375 257.45 153.642 256.677 154.11C256.13 154.495 255.957 154.869 256.108 155.036Z" fill="#263238"/>
<path d="M254.992 150.902C254.992 150.902 257.575 144.395 260.655 142.827C264.383 140.93 266.085 145.026 269.656 143.943C273.227 142.861 276.782 141.047 280.503 143.748C284.582 146.7 282.735 148.87 283.081 153.435C284.465 171.944 287.958 177.111 288.74 168.367C288.829 167.407 291.468 166.592 291.775 162.547C292.182 157.296 292.249 150.935 291.005 147.241C289.956 144.127 288.126 141.996 284.867 139.675C279.733 136.014 272.786 136.075 268.082 136.645C263.378 137.214 254.395 142.844 254.992 150.902Z" fill="#263238"/>
<path d="M288.081 168.105C288.085 167.726 288.166 167.352 288.319 167.006C288.472 166.66 288.694 166.348 288.971 166.09C289.248 165.832 289.575 165.633 289.931 165.506C290.288 165.378 290.666 165.325 291.044 165.348C292.969 165.493 295.129 166.537 295.084 170.51C295 177.557 287.942 176.023 287.931 175.822C287.919 175.621 288.02 171.051 288.081 168.105Z" fill="#AE7461"/>
<path d="M289.499 173.188C289.499 173.188 289.621 173.272 289.828 173.373C290.121 173.491 290.449 173.491 290.743 173.373C291.491 173.11 292.132 171.933 292.177 170.666C292.204 170.062 292.093 169.459 291.853 168.903C291.791 168.682 291.675 168.479 291.517 168.313C291.358 168.147 291.162 168.022 290.944 167.949C290.803 167.91 290.653 167.922 290.519 167.982C290.386 168.042 290.278 168.147 290.213 168.278C290.118 168.473 290.163 168.618 290.124 168.63C290.085 168.641 289.973 168.507 290.034 168.217C290.077 168.043 290.177 167.89 290.319 167.781C290.415 167.708 290.525 167.655 290.642 167.625C290.759 167.595 290.88 167.59 291 167.608C291.289 167.67 291.558 167.805 291.779 168C292.001 168.196 292.169 168.445 292.266 168.724C292.558 169.339 292.696 170.015 292.668 170.694C292.607 172.111 291.865 173.434 290.843 173.719C290.654 173.769 290.456 173.778 290.263 173.743C290.07 173.708 289.887 173.631 289.727 173.518C289.51 173.356 289.471 173.2 289.499 173.188Z" fill="#6F4439"/>
<path d="M287.646 154.467C286.798 155.185 285.783 155.678 284.694 155.902C283.578 156.035 282.323 155.427 282.111 154.339C282.021 153.848 282.111 153.279 281.798 152.905C281.486 152.531 280.682 152.621 280.124 152.693C279.096 152.796 278.065 152.541 277.203 151.972C276.341 151.403 275.702 150.554 275.392 149.568C274.89 150.361 273.668 150.349 272.87 149.858C272.072 149.367 271.542 148.542 270.912 147.844C270.281 147.147 269.394 146.533 268.468 146.683C267.949 146.767 267.469 147.091 266.944 147.052C266.018 146.99 265.544 145.936 265.387 145.004C265.231 144.072 265.097 143.017 264.305 142.537C263.513 142.058 262.631 142.376 261.783 142.537C260.935 142.699 259.83 142.504 259.595 141.678C259.555 141.456 259.559 141.227 259.609 141.007C259.659 140.786 259.753 140.578 259.886 140.395C260.439 139.531 261.268 138.879 262.239 138.546C263.209 138.212 264.264 138.217 265.231 138.559C265.554 137.38 266.219 136.322 267.142 135.521C268.065 134.719 269.206 134.21 270.419 134.056C271.632 133.903 272.863 134.112 273.957 134.659C275.051 135.205 275.958 136.063 276.564 137.125C277.299 136.433 278.19 135.928 279.162 135.653C280.134 135.378 281.157 135.342 282.146 135.546C283.135 135.751 284.059 136.191 284.842 136.829C285.625 137.467 286.242 138.285 286.642 139.212C287.499 138.968 288.41 138.981 289.26 139.25C290.11 139.519 290.862 140.033 291.423 140.726C291.984 141.419 292.328 142.262 292.414 143.15C292.499 144.037 292.322 144.93 291.904 145.718C293.181 146.416 294.292 147.654 294.348 149.111C294.403 150.567 293.014 152.046 291.597 151.694C291.903 152.263 291.979 152.927 291.809 153.55C291.639 154.173 291.235 154.707 290.683 155.041C290.13 155.375 289.47 155.484 288.839 155.345C288.209 155.206 287.656 154.83 287.295 154.295" fill="#263238"/>
<path d="M264.768 140.612C264.76 140.655 264.76 140.698 264.768 140.741C264.768 140.824 264.768 140.953 264.818 141.115C264.928 141.591 265.117 142.045 265.376 142.459C265.776 143.119 266.322 143.678 266.972 144.094C267.83 144.66 268.849 144.929 269.874 144.859L269.751 144.702C269.551 145.348 269.615 146.046 269.93 146.644C270.258 147.272 270.677 147.847 271.174 148.352C271.412 148.644 271.681 148.91 271.978 149.144C272.311 149.365 272.695 149.499 273.094 149.535C273.507 149.585 273.926 149.533 274.315 149.384C274.704 149.235 275.051 148.994 275.325 148.681L275.063 148.608C275.176 149.339 275.44 150.037 275.839 150.659C276.238 151.281 276.762 151.812 277.379 152.219C278.057 152.701 278.874 152.949 279.706 152.927C280.487 152.872 281.254 152.684 281.971 152.369L281.782 152.291C282.165 153.136 282.754 153.871 283.495 154.428C283.833 154.713 284.232 154.919 284.661 155.029C285.09 155.139 285.538 155.151 285.972 155.065C286.709 154.891 287.378 154.505 287.898 153.954C288.418 153.404 288.765 152.713 288.896 151.968L288.74 152.046C289.489 152.427 290.347 152.535 291.167 152.353C291.78 152.228 292.354 151.958 292.841 151.566C293.146 151.32 293.407 151.024 293.611 150.69C293.683 150.574 293.741 150.451 293.784 150.322C293.518 150.763 293.174 151.152 292.769 151.471C292.29 151.835 291.731 152.079 291.139 152.185C290.36 152.341 289.55 152.225 288.846 151.856L288.712 151.783V151.934C288.575 152.631 288.239 153.274 287.743 153.783C287.248 154.292 286.615 154.647 285.922 154.802C285.53 154.877 285.126 154.863 284.74 154.761C284.354 154.66 283.995 154.474 283.69 154.216C282.993 153.685 282.44 152.986 282.083 152.185L282.027 152.057L281.893 152.107C281.204 152.403 280.47 152.578 279.723 152.626C278.954 152.647 278.199 152.415 277.574 151.968C276.994 151.584 276.5 151.083 276.124 150.498C275.747 149.913 275.496 149.256 275.387 148.569L275.337 148.235L275.119 148.497C274.874 148.774 274.565 148.988 274.219 149.12C273.873 149.253 273.5 149.299 273.133 149.256C272.779 149.225 272.438 149.108 272.139 148.915C271.861 148.695 271.606 148.447 271.38 148.173C270.899 147.69 270.491 147.14 270.17 146.538C270.023 146.274 269.93 145.982 269.897 145.681C269.865 145.38 269.893 145.076 269.98 144.786L270.036 144.613H269.857C268.877 144.691 267.899 144.451 267.067 143.927C266.431 143.535 265.89 143.007 265.482 142.381C265.143 141.838 264.901 141.239 264.768 140.612Z" fill="#455A64"/>
<path d="M271.927 173.015C271.676 173.043 271.967 174.689 270.756 176.135C269.545 177.58 267.742 177.697 267.77 177.931C267.77 178.037 268.222 178.182 268.97 178.071C269.946 177.911 270.835 177.414 271.481 176.665C272.091 175.951 272.405 175.03 272.357 174.092C272.296 173.367 272.022 172.976 271.927 173.015Z" fill="#263238"/>
<path d="M214.386 253.15C215.279 252.793 244.769 249.244 244.769 249.244L256.733 239.11L255.617 268.439L217.963 272.066L214.386 253.15Z" fill="#E8505B"/>
<path opacity="0.3" d="M251.443 243.597C251.086 243.775 248.128 246.387 248.128 246.387L249.032 268.969L251.443 243.597Z" fill="black"/>
<path d="M301.685 296.702H251.878C251.878 296.702 254.512 310.758 255.489 317.23C256.037 320.973 256.84 324.674 257.894 328.307H303.008C303.008 328.307 306.356 320.143 306.964 314.915C307.572 309.686 301.685 296.702 301.685 296.702Z" fill="#263238"/>
<path d="M248.167 298.398C248.167 298.398 246.772 314.418 248.167 328.307H265.421V315.512L248.167 298.398Z" fill="#263238"/>
<path d="M257.754 219.848L263.122 208.13L263.786 200.876C263.786 200.876 274.081 194.404 278.963 191.948C282.694 190.174 286.525 188.618 290.436 187.289V194.141L257.754 219.848Z" fill="#EBEBEB"/>
<path d="M302.617 279.906C302.617 279.906 305.536 240.723 305.731 237.81C305.731 237.81 307.455 216.874 303.739 208.906C300.023 200.937 291.703 193.923 291.703 193.923L290.933 189.738L274.69 199.983L267.179 206.512C264.599 209.269 262.23 212.216 260.092 215.328C257.961 218.28 255.589 222.074 254.512 226.845C254.127 228.592 249.658 249.45 249.524 263.986C249.524 263.986 248.837 276.675 248.101 283.856C247.197 292.751 245.813 313.023 246.114 325.031L298.806 323.424C311.819 321.437 309.531 320.143 309.531 320.143L302.617 279.906Z" fill="#E8505B"/>
<path d="M290.436 194.141L290.073 194.309L288.996 194.755C288.539 194.978 287.981 195.268 287.322 195.609C286.664 195.949 285.944 196.401 285.169 196.953C280.859 199.993 276.97 203.587 273.601 207.645L273.573 207.684H273.529L268.473 208.616L268.585 208.487C268.507 210.836 268.423 213.297 268.334 215.847V215.903L268.289 215.948C265.602 218.463 263.119 221.187 260.862 224.095C259.923 225.314 259.073 226.599 258.318 227.939L258.039 228.436L257.832 228.955C257.684 229.297 257.555 229.647 257.447 230.004C257.224 230.718 257.001 231.427 256.817 232.141C256.041 234.987 255.394 237.766 254.791 240.41C253.597 245.706 252.598 250.494 251.767 254.511C250.093 262.557 249.183 267.552 249.183 267.552C249.207 267.245 249.246 266.939 249.3 266.636C249.39 266.039 249.54 265.158 249.741 264.025C250.154 261.765 250.768 258.501 251.566 254.472C252.364 250.443 253.346 245.656 254.534 240.355C255.126 237.704 255.768 234.925 256.543 232.068C256.727 231.349 256.95 230.634 257.179 229.915C257.287 229.55 257.415 229.193 257.564 228.843L257.782 228.285L258.061 227.777C258.821 226.414 259.681 225.108 260.633 223.871C262.909 220.968 265.411 218.25 268.116 215.741L268.071 215.842C268.161 213.292 268.25 210.82 268.334 208.482V208.376H268.44L273.495 207.461L273.423 207.505C276.814 203.441 280.743 199.857 285.102 196.853C285.883 196.295 286.647 195.91 287.283 195.531C287.919 195.151 288.511 194.917 288.957 194.705L290.045 194.286L290.436 194.141Z" fill="#263238"/>
<path d="M272.747 225.105L273.384 277.384L265.421 328.307H286.407C286.407 328.307 295.949 289.643 298.17 281.518C300.324 273.628 303.56 233.915 303.845 231.968C303.956 231.204 306.233 217.46 299.531 211.015" fill="#E8505B"/>
<path d="M299.531 211.015C299.531 211.015 299.688 211.16 299.972 211.45C300.389 211.892 300.774 212.364 301.122 212.862C302.413 214.809 303.303 216.995 303.739 219.29C304.441 222.925 304.576 226.646 304.14 230.322C303.822 232.459 303.666 234.752 303.437 237.191C303.209 239.629 302.98 242.213 302.734 244.908C302.232 250.321 301.668 256.252 300.988 262.613C300.636 265.788 300.274 269.081 299.822 272.462C299.432 275.953 298.815 279.414 297.975 282.824C294.465 296.774 290.609 312.164 286.552 328.323V328.435H265.253V328.273C268.2 309.491 270.923 292.154 273.244 277.356C273.077 261.525 272.937 248.457 272.837 239.339C272.798 234.786 272.764 231.226 272.742 228.787C272.742 227.582 272.742 226.656 272.742 225.997C272.742 225.339 272.742 225.054 272.742 225.054C272.742 225.054 272.742 225.372 272.775 225.997C272.809 226.622 272.803 227.56 272.825 228.787C272.859 231.22 272.915 234.786 272.987 239.339C273.104 248.457 273.283 261.525 273.495 277.356C271.185 292.16 268.473 309.497 265.555 328.284L265.415 328.117H286.402L286.262 328.223L297.712 282.729C298.553 279.33 299.172 275.88 299.565 272.401C300.017 269.025 300.385 265.733 300.742 262.558C301.434 256.202 302.009 250.282 302.528 244.863C302.781 242.155 303.021 239.583 303.248 237.146C303.488 234.719 303.655 232.398 303.973 230.272C304.419 226.613 304.302 222.908 303.627 219.285C303.205 216.992 302.335 214.806 301.066 212.851C300.729 212.35 300.356 211.875 299.95 211.428C299.671 211.177 299.531 211.015 299.531 211.015Z" fill="#263238"/>
<path d="M283.852 282.528C283.296 282.427 282.752 282.27 282.228 282.06C281.24 281.725 279.895 281.212 278.439 280.564C276.983 279.917 275.699 279.264 274.79 278.756C274.281 278.51 273.799 278.213 273.35 277.869C273.879 278.066 274.392 278.303 274.885 278.578C275.816 279.035 277.117 279.655 278.556 280.302C279.996 280.949 281.346 281.485 282.3 281.87C282.832 282.052 283.351 282.272 283.852 282.528Z" fill="#263238"/>
<path d="M247.916 285.993C247.91 285.949 247.91 285.904 247.916 285.859C247.916 285.748 247.916 285.619 247.916 285.458C247.916 285.084 247.961 284.57 248 283.918C248.084 282.562 248.206 280.636 248.357 278.265C248.681 273.494 249.138 266.904 249.786 259.639C250.433 252.374 251.169 245.795 251.778 241.052C252.079 238.68 252.336 236.761 252.531 235.438C252.626 234.797 252.704 234.289 252.76 233.915C252.788 233.759 252.81 233.631 252.827 233.525C252.831 233.478 252.842 233.433 252.86 233.391C252.86 233.391 252.86 233.435 252.86 233.525C252.86 233.614 252.86 233.764 252.821 233.926C252.782 234.3 252.721 234.808 252.648 235.455C252.486 236.806 252.263 238.725 251.984 241.08C251.426 245.828 250.723 252.396 250.076 259.661C249.428 266.926 248.96 273.516 248.569 278.282C248.379 280.648 248.223 282.567 248.117 283.929C248.061 284.576 248.011 285.089 247.978 285.463C247.978 285.625 247.95 285.753 247.939 285.859C247.939 285.905 247.932 285.95 247.916 285.993Z" fill="#263238"/>
<path d="M290.436 204.42C289.9 202.977 289.239 201.585 288.461 200.257C287.598 198.982 286.629 197.782 285.565 196.669C285.961 196.901 286.32 197.191 286.631 197.528C287.421 198.301 288.118 199.165 288.706 200.101C289.297 201.036 289.772 202.038 290.124 203.086C290.292 203.513 290.398 203.962 290.436 204.42Z" fill="#263238"/>
<path d="M253.39 269.376C253.446 269.495 253.463 269.627 253.441 269.756C253.404 270.116 253.242 270.452 252.983 270.704C252.789 270.899 252.545 271.035 252.277 271.096C252.009 271.158 251.73 271.142 251.471 271.05C251.161 270.945 250.89 270.751 250.69 270.492C250.477 270.21 250.367 269.864 250.377 269.51C250.377 269.072 250.518 268.646 250.779 268.294C250.908 268.126 251.077 267.994 251.27 267.909C251.471 267.836 251.616 267.797 251.783 267.747H251.822C252.181 267.735 252.534 267.837 252.832 268.037C253.056 268.202 253.22 268.435 253.301 268.701C253.387 268.917 253.418 269.151 253.39 269.382C253.351 269.382 253.323 269.136 253.162 268.757C253.073 268.53 252.917 268.336 252.715 268.199C252.445 268.042 252.134 267.968 251.822 267.987H251.861C251.711 268.043 251.515 268.099 251.376 268.154C251.228 268.227 251.1 268.334 251.002 268.467C250.786 268.772 250.67 269.136 250.667 269.51C250.662 269.791 250.746 270.066 250.906 270.296C251.066 270.527 251.295 270.701 251.56 270.794C251.775 270.876 252.009 270.898 252.236 270.856C252.462 270.813 252.673 270.709 252.843 270.554C253.088 270.34 253.258 270.055 253.329 269.739C253.379 269.51 253.362 269.382 253.39 269.376Z" fill="#263238"/>
<path d="M252.609 287.863C252.664 287.981 252.682 288.113 252.659 288.242C252.625 288.603 252.463 288.94 252.202 289.191C252.009 289.386 251.764 289.522 251.496 289.584C251.228 289.645 250.948 289.629 250.69 289.537C250.382 289.428 250.111 289.235 249.908 288.979C249.696 288.696 249.586 288.35 249.596 287.997C249.597 287.559 249.737 287.132 249.998 286.78C250.126 286.613 250.295 286.48 250.489 286.395C250.69 286.323 250.835 286.284 251.002 286.233H251.041C251.4 286.222 251.753 286.323 252.051 286.523C252.275 286.688 252.439 286.921 252.52 287.187C252.606 287.403 252.637 287.637 252.609 287.868C252.576 287.868 252.542 287.623 252.38 287.243C252.293 287.015 252.137 286.82 251.934 286.685C251.664 286.528 251.353 286.454 251.041 286.473H251.08C250.929 286.529 250.734 286.585 250.6 286.641C250.45 286.712 250.32 286.819 250.221 286.953C250.005 287.259 249.888 287.623 249.886 287.997C249.881 288.277 249.964 288.552 250.125 288.783C250.285 289.013 250.514 289.187 250.779 289.28C250.994 289.363 251.228 289.384 251.454 289.342C251.681 289.299 251.891 289.195 252.062 289.04C252.306 288.827 252.476 288.542 252.548 288.225C252.598 288.002 252.581 287.868 252.609 287.863Z" fill="#263238"/>
<path d="M297.171 207.924C297.143 207.974 296.451 207.528 295.224 207.059C294.499 206.785 293.753 206.574 292.992 206.428C292.072 206.257 291.137 206.175 290.202 206.183C289.264 206.202 288.329 206.31 287.412 206.506C286.664 206.675 285.933 206.906 285.224 207.198C284.014 207.701 283.333 208.164 283.299 208.113C283.438 207.979 283.594 207.862 283.762 207.768C283.94 207.637 284.126 207.519 284.32 207.416C284.579 207.267 284.846 207.131 285.118 207.009C285.836 206.684 286.584 206.428 287.35 206.244C289.22 205.794 291.166 205.768 293.048 206.166C293.812 206.331 294.559 206.567 295.28 206.869C295.556 206.982 295.826 207.111 296.089 207.254C296.295 207.35 296.492 207.462 296.68 207.589C296.858 207.678 297.023 207.791 297.171 207.924Z" fill="#263238"/>
<g opacity="0.3">
<path d="M251.197 256.827C253.468 253.518 254.305 250.399 255.522 246.571C257.324 240.885 257.826 234.462 260.661 229.211C262.335 226.12 264.288 222.951 267.19 220.964C270.091 218.978 270.437 216.573 270.381 209.927C272.407 209.927 274.544 208.387 274.795 208.113C275.978 206.782 276.829 205.189 277.278 203.465C275.861 205.011 273.495 207.567 273.495 207.567C273.495 207.567 268.367 208.521 268.439 208.487C268.317 211.043 268.311 213.292 268.183 215.847C268.183 215.847 258.345 226.288 257.581 228.386C256.816 230.484 251.197 256.827 251.197 256.827Z" fill="black"/>
</g>
<g opacity="0.3">
<path d="M287.724 321.996C300.195 298.398 304.068 267.367 303.348 237.81C303.348 237.81 299.771 273.74 298.56 279.906C297.35 286.071 287.724 321.996 287.724 321.996Z" fill="black"/>
</g>
<path d="M289.627 190.341C289.544 190.426 289.45 190.499 289.348 190.559L288.516 191.117L285.414 193.148L275.197 199.76L270.783 202.55L269.377 203.666C268.931 203.994 268.51 204.354 268.116 204.743C267.34 205.491 266.654 206.216 266.035 206.875L265.923 206.992L265.862 206.847L264.255 203.108C264.082 202.69 263.942 202.349 263.83 202.087C263.773 201.972 263.73 201.85 263.702 201.725C263.777 201.83 263.839 201.945 263.886 202.065C264.009 202.316 264.165 202.623 264.361 203.058L266.035 206.741L265.862 206.713C266.47 206.043 267.151 205.307 267.926 204.548C268.322 204.145 268.747 203.772 269.198 203.432L270.599 202.316L275.007 199.487L285.291 192.964L288.427 191.011L289.286 190.498C289.394 190.434 289.508 190.382 289.627 190.341Z" fill="#263238"/>
<path d="M27.2442 166.085C27.1772 166.124 24.8057 162.006 21.9432 156.894C19.0806 151.783 16.8207 147.609 16.8877 147.57C16.9546 147.531 19.3261 151.644 22.1887 156.76C25.0512 161.877 27.3111 166.045 27.2442 166.085Z" fill="#263238"/>
<path d="M35.2571 148.34C35.3352 148.34 35.2236 151.493 35.006 155.377C34.7883 159.26 34.554 162.402 34.4814 162.396C34.4089 162.391 34.5149 159.244 34.7325 155.36C34.9502 151.476 35.1789 148.335 35.2571 148.34Z" fill="#263238"/>
<path d="M21.5135 170.448C21.4856 170.521 18.8128 169.684 15.5373 168.573C12.2618 167.463 9.62808 166.514 9.65598 166.442C9.68388 166.369 12.3511 167.206 15.6266 168.311C18.902 169.416 21.5358 170.376 21.5135 170.448Z" fill="#263238"/>
<path d="M61.6114 178.36C60.0122 174.711 57.4624 171.557 54.2281 169.229C50.9939 166.902 47.194 165.485 43.2253 165.128C39.2566 164.77 35.2647 165.485 31.6666 167.197C28.0685 168.91 24.9962 171.557 22.7706 174.862C20.545 178.167 19.2477 182.01 19.0143 185.988C18.7809 189.966 19.6199 193.933 21.4436 197.476C23.2674 201.019 26.0091 204.007 29.3822 206.129C32.7553 208.25 36.6362 209.427 40.6195 209.536L42.8515 214.681L60.7075 206.869C60.7075 206.869 59.5524 203.939 58.4755 201.344C61.0611 198.172 62.7219 194.348 63.2752 190.293C63.8284 186.238 63.2528 182.109 61.6114 178.36Z" fill="#E8505B"/>
<path d="M58.0624 208.024C58.0624 208.024 58.0066 207.94 57.9173 207.784C57.828 207.627 57.6829 207.388 57.5099 207.081C57.1528 206.456 56.6339 205.535 55.981 204.341C54.692 201.947 52.8674 198.448 50.8753 194.012C50.3731 192.896 49.8598 191.736 49.3464 190.508C49.0897 189.894 48.833 189.269 48.5652 188.633C48.2628 187.99 48.0596 187.306 47.9626 186.602C47.926 186.222 47.9815 185.84 48.1244 185.486C48.1915 185.305 48.2942 185.14 48.4265 185C48.5588 184.86 48.7179 184.748 48.8944 184.671C49.0789 184.612 49.2738 184.593 49.4663 184.615C49.6587 184.637 49.8442 184.7 50.0104 184.8C50.351 184.996 50.6295 185.284 50.8139 185.631C50.9854 185.991 51.071 186.386 51.0643 186.785C51.0575 187.184 50.9584 187.576 50.7749 187.93C50.4217 188.664 49.8481 189.268 49.1344 189.66C48.4062 190.068 47.5724 190.249 46.7405 190.179C45.8899 190.102 45.0797 189.78 44.4081 189.253C43.7176 188.729 43.1675 188.043 42.8066 187.255C42.6113 186.859 42.4866 186.432 42.4384 185.994C42.3689 185.539 42.4724 185.075 42.7285 184.694C42.8704 184.507 43.0647 184.367 43.2865 184.292C43.5078 184.22 43.7434 184.202 43.9729 184.242C44.4319 184.316 44.8537 184.539 45.1726 184.878C45.4898 185.208 45.755 185.584 45.9593 185.994C46.1678 186.394 46.354 186.806 46.5173 187.227C46.8743 188.075 47.1019 188.973 47.1925 189.889C47.2963 190.825 47.1359 191.773 46.7294 192.623C46.5198 193.041 46.2383 193.418 45.898 193.739C45.5532 194.064 45.1391 194.306 44.6871 194.448C44.2333 194.578 43.7542 194.596 43.2921 194.498C42.8368 194.393 42.4052 194.204 42.0199 193.94C41.2678 193.43 40.6043 192.8 40.0557 192.076C39.7767 191.73 39.4977 191.367 39.2633 191.005C38.9999 190.653 38.7665 190.28 38.5658 189.889C38.3607 189.482 38.2847 189.023 38.3482 188.572C38.3867 188.345 38.4785 188.131 38.6161 187.947C38.7544 187.766 38.9519 187.64 39.1741 187.59C39.4011 187.55 39.635 187.581 39.8437 187.679C40.0471 187.766 40.2355 187.884 40.4017 188.031C40.7272 188.311 41.0093 188.638 41.2387 189.001C42.2471 190.371 42.757 192.045 42.6839 193.744C42.6097 194.545 42.3332 195.313 41.8804 195.976C41.4395 196.639 40.7922 197.137 40.039 197.394C39.2975 197.612 38.5009 197.545 37.807 197.204C37.1262 196.897 36.5612 196.381 36.1943 195.731C36.0148 195.415 35.8956 195.069 35.8428 194.71C35.7844 194.347 35.8513 193.975 36.0325 193.655C36.1313 193.496 36.2818 193.376 36.4586 193.315C36.6354 193.255 36.8278 193.256 37.0034 193.32C37.3289 193.447 37.6142 193.659 37.8293 193.934C38.2221 194.452 38.5536 195.014 38.8169 195.608L39.6539 197.282C41.8246 201.64 43.5153 205.195 44.6425 207.672C45.2005 208.911 45.6245 209.904 45.9035 210.54C46.0375 210.869 46.1435 211.098 46.216 211.294L46.3165 211.55L46.1993 211.299C46.1267 211.126 46.0151 210.881 45.8756 210.551C45.5855 209.899 45.1558 208.933 44.5811 207.7C43.4651 205.228 41.7353 201.685 39.5591 197.338C39.2857 196.78 39.0011 196.222 38.7165 195.664C38.4604 195.068 38.1324 194.506 37.74 193.99C37.5381 193.738 37.2721 193.545 36.97 193.432C36.8205 193.378 36.6571 193.377 36.507 193.429C36.3568 193.481 36.2288 193.582 36.1441 193.717C35.9756 194.029 35.9204 194.389 35.9879 194.738C36.0414 195.081 36.1567 195.412 36.3283 195.714C36.6822 196.34 37.2281 196.835 37.8851 197.126C38.5497 197.452 39.3127 197.516 40.0222 197.304C40.7467 197.059 41.3677 196.578 41.7855 195.937C42.2264 195.288 42.4952 194.537 42.5667 193.756C42.6366 192.112 42.1511 190.492 41.1884 189.158C40.9664 188.805 40.6938 188.488 40.3793 188.215C40.2341 188.07 40.059 187.958 39.8663 187.888C39.6735 187.818 39.4678 187.79 39.2633 187.807C39.0682 187.858 38.8935 187.967 38.7636 188.121C38.6336 188.275 38.5547 188.466 38.5379 188.667C38.4785 189.086 38.5507 189.513 38.7444 189.889C38.938 190.28 39.1658 190.653 39.4252 191.005C39.6763 191.367 39.9385 191.724 40.2175 192.065C40.7545 192.761 41.3986 193.367 42.1259 193.862C42.4995 194.104 42.9133 194.278 43.3479 194.375C43.7841 194.465 44.2357 194.45 44.6648 194.33C45.092 194.182 45.4848 193.949 45.8195 193.645C46.1542 193.341 46.4239 192.973 46.6122 192.561C47.0047 191.737 47.1575 190.818 47.053 189.911C46.9669 189.012 46.7448 188.132 46.3946 187.3C46.0994 186.462 45.651 185.686 45.0721 185.012C44.7756 184.697 44.3832 184.489 43.9561 184.42C43.7522 184.374 43.5395 184.387 43.3421 184.456C43.1448 184.525 42.9709 184.648 42.8401 184.811C42.6067 185.16 42.5131 185.584 42.5779 185.999C42.6272 186.42 42.746 186.829 42.9294 187.21C43.2921 187.981 43.8404 188.651 44.5253 189.158C45.1684 189.664 45.9428 189.976 46.7573 190.056C47.5596 190.124 48.3641 189.951 49.0674 189.559C49.7576 189.181 50.3118 188.595 50.6521 187.885C50.8255 187.551 50.9197 187.182 50.9274 186.805C50.9351 186.429 50.8562 186.056 50.6968 185.715C50.5227 185.391 50.2618 185.123 49.9435 184.939C49.7938 184.845 49.6251 184.785 49.4495 184.764C49.2739 184.742 49.0957 184.76 48.9279 184.816C48.6071 184.96 48.3563 185.225 48.2304 185.553C48.1004 185.881 48.0488 186.234 48.0797 186.585C48.1743 187.276 48.3738 187.947 48.6712 188.577L49.4413 190.458C49.9546 191.678 50.4605 192.844 50.959 193.956C52.9399 198.42 54.7478 201.902 56.0201 204.307C56.6618 205.507 57.1696 206.428 57.5211 207.058L57.9117 207.773C58.0177 207.934 58.0624 208.024 58.0624 208.024Z" fill="white"/>
<path d="M42.3826 207.974C42.2925 207.991 42.201 208 42.1092 208.001C41.9306 208.001 41.6628 208.035 41.3224 208.035C40.3578 208.049 39.3935 207.991 38.4375 207.862C37.017 207.679 35.6198 207.346 34.2693 206.869C29.5547 205.221 25.5925 201.928 23.1093 197.595C22.6283 196.76 22.2087 195.89 21.8538 194.994C21.7254 194.676 21.6473 194.436 21.5859 194.258C21.5539 194.172 21.5278 194.085 21.5078 193.996C21.5505 194.077 21.5878 194.161 21.6194 194.247C21.6864 194.409 21.7757 194.66 21.9152 194.972C22.2902 195.855 22.7227 196.712 23.2097 197.539C23.9316 198.766 24.7746 199.917 25.7263 200.976C27.7 203.157 30.1047 204.904 32.7882 206.107C35.4718 207.311 38.3759 207.944 41.3168 207.968C41.6572 207.968 41.925 207.968 42.1036 207.968L42.3826 207.974Z" fill="#263238"/>
<path d="M20.6765 189.716C20.8189 190.073 20.9109 190.449 20.9499 190.832C21.0409 191.208 21.0804 191.595 21.0671 191.981C20.9247 191.624 20.8326 191.248 20.7937 190.865C20.6995 190.49 20.66 190.103 20.6765 189.716Z" fill="#263238"/>
<path d="M61.4272 184.086C61.4025 184.011 61.382 183.934 61.3658 183.857C61.3324 183.69 61.2821 183.472 61.2208 183.199C61.1929 183.053 61.1594 182.892 61.1203 182.719C61.0813 182.546 61.0199 182.362 60.9641 182.161C60.8472 181.696 60.7057 181.238 60.54 180.788L60.261 180.012C60.1606 179.744 60.0266 179.454 59.9039 179.192C59.6695 178.634 59.3459 178.048 59.0222 177.434C57.5345 174.809 55.5095 172.527 53.0795 170.738C52.5215 170.348 51.9635 169.952 51.439 169.656C51.1768 169.5 50.9257 169.332 50.6746 169.204L49.938 168.83C49.4749 168.579 49.0285 168.417 48.649 168.272C48.4537 168.194 48.2752 168.11 48.091 168.049L47.6279 167.893L46.9862 167.669C46.91 167.65 46.8368 167.619 46.7686 167.58C46.8463 167.594 46.9228 167.615 46.9973 167.641L47.6446 167.831L48.1133 167.976C48.2863 168.038 48.4649 168.11 48.6713 168.188C49.0564 168.35 49.5083 168.506 49.9771 168.746L50.7192 169.109C50.9759 169.237 51.227 169.405 51.5004 169.555C52.077 169.887 52.6358 170.248 53.1744 170.638C55.6336 172.424 57.6748 174.724 59.1562 177.379C59.4784 177.957 59.7709 178.551 60.0322 179.159C60.1494 179.443 60.2833 179.717 60.3838 179.984L60.6572 180.766C60.8149 181.212 60.949 181.667 61.0589 182.127C61.1091 182.334 61.165 182.518 61.204 182.685C61.2431 182.853 61.2654 183.02 61.2877 183.165C61.3361 183.444 61.3751 183.667 61.4049 183.835C61.4197 183.918 61.4272 184.002 61.4272 184.086Z" fill="#263238"/>
<g opacity="0.2">
<path d="M34.0183 172.976C33.2874 172.273 32.0709 172.066 30.7987 172.223C28.98 172.47 27.3322 173.425 26.2119 174.879C22.8639 179.097 21.5973 182.964 22.2334 188.572C22.4454 190.469 23.3996 193.348 24.9397 194.626C25.3195 194.956 25.7637 195.203 26.2439 195.351C26.7242 195.5 27.2301 195.548 27.7297 195.491C30.3244 195.151 31.1725 192.11 30.9493 189.66C30.7373 187.378 29.9952 185.029 30.7261 182.858C31.3344 181.067 32.8354 179.756 33.8788 178.182C34.9223 176.608 35.3799 174.309 34.0183 172.976Z" fill="white"/>
</g>
<g opacity="0.2">
<path d="M41.8414 168.624C40.5189 167.647 38.3985 167.932 37.5113 168.914C37.1558 169.331 36.8993 169.823 36.7611 170.354C36.6229 170.884 36.6066 171.439 36.7134 171.977C36.8656 172.621 37.2049 173.204 37.6885 173.655C38.1721 174.106 38.7784 174.404 39.4308 174.51C40.0875 174.587 40.7516 174.455 41.3287 174.132C41.9058 173.81 42.3664 173.313 42.6449 172.714C43.1694 171.503 42.9016 169.405 41.8414 168.624Z" fill="white"/>
</g>
<path d="M52.3933 222.861C52.9546 222.957 53.4994 223.131 54.0115 223.38C54.1873 223.474 54.3824 223.527 54.5817 223.534C54.781 223.54 54.9792 223.501 55.161 223.419L58.7545 221.84C58.9527 221.754 59.1266 221.62 59.2609 221.451C59.3952 221.281 59.4857 221.082 59.5245 220.869C59.6103 220.291 59.8968 219.762 60.3337 219.374L52.3933 222.861Z" fill="#263238"/>
<path d="M44.1069 214.558C44.1404 214.631 47.4549 219.882 48.6993 221.885C48.9495 222.296 49.2986 222.638 49.7147 222.88C50.1309 223.121 50.6009 223.255 51.0819 223.269C51.4656 223.275 51.8463 223.199 52.1979 223.045L60.0602 219.591C60.0602 219.591 62.1136 218.693 61.8681 216.857C61.6002 214.927 59.5691 207.773 59.5691 207.773L44.1069 214.558Z" fill="#E0E0E0"/>
<path d="M61.6714 215.073L47.9942 221.134C47.78 221.229 47.6834 221.48 47.7783 221.694L47.7986 221.74C47.8935 221.954 48.144 222.051 48.3581 221.956L62.0353 215.895C62.2495 215.8 62.3461 215.549 62.2513 215.335L62.2309 215.289C62.136 215.075 61.8855 214.979 61.6714 215.073Z" fill="#E0E0E0"/>
<path d="M62.0354 215.886C62.1306 215.832 62.2052 215.747 62.2474 215.646C62.2697 215.585 62.2773 215.519 62.2695 215.454C62.2618 215.389 62.2389 215.327 62.2028 215.272C62.164 215.195 62.1008 215.133 62.0231 215.096C61.9454 215.058 61.8575 215.048 61.7731 215.066C61.0254 215.378 59.9317 215.892 58.5814 216.489L48.0296 221.193C47.9759 221.215 47.9287 221.251 47.8926 221.297C47.8565 221.343 47.8326 221.397 47.8231 221.455C47.8094 221.512 47.8094 221.571 47.8231 221.628C47.843 221.684 47.8712 221.736 47.9068 221.784C47.9455 221.828 47.9939 221.862 48.0483 221.883C48.1026 221.904 48.1612 221.913 48.2193 221.907C48.3442 221.869 48.4656 221.821 48.582 221.762L50.0663 221.103L52.8563 219.864L57.6105 217.778L60.8245 216.377L61.7006 216.003L61.9294 215.914C61.9796 215.914 62.0075 215.88 62.0075 215.914L61.935 215.953L61.7118 216.059L60.8469 216.461L57.6551 217.9L52.9121 220.015L50.1221 221.265L48.6378 221.924L48.4481 222.007C48.3805 222.04 48.3094 222.064 48.2361 222.08C48.1541 222.088 48.0712 222.077 47.9945 222.047C47.9178 222.017 47.8494 221.969 47.7952 221.907C47.7452 221.846 47.7073 221.776 47.6836 221.7C47.6614 221.622 47.6614 221.539 47.6836 221.46C47.6961 221.378 47.7293 221.301 47.7801 221.236C47.8309 221.17 47.8975 221.119 47.9738 221.087L58.5423 216.422C59.8983 215.836 60.9808 215.345 61.762 215.038C61.8579 215.02 61.957 215.034 62.0438 215.079C62.1306 215.123 62.2003 215.195 62.2419 215.283C62.2781 215.343 62.3001 215.411 62.3059 215.48C62.3117 215.55 62.3012 215.62 62.2753 215.685C62.2516 215.733 62.218 215.776 62.1767 215.811C62.1354 215.846 62.0872 215.871 62.0354 215.886Z" fill="#263238"/>
<path d="M61.1788 213.175L46.9251 219.492C46.7109 219.587 46.6143 219.837 46.7092 220.051L46.7295 220.097C46.8244 220.311 47.0749 220.408 47.289 220.313L61.5427 213.997C61.7569 213.902 61.8535 213.651 61.7586 213.437L61.7383 213.391C61.6434 213.177 61.3929 213.081 61.1788 213.175Z" fill="#E0E0E0"/>
<path d="M61.55 213.989C61.6487 213.933 61.724 213.844 61.7621 213.738C61.782 213.673 61.7874 213.605 61.7777 213.539C61.7681 213.472 61.7436 213.409 61.7063 213.353C61.6591 213.275 61.5872 213.216 61.5021 213.184C61.417 213.153 61.3237 213.151 61.2375 213.18L57.9286 214.67L46.9639 219.552C46.908 219.576 46.8594 219.615 46.8232 219.664C46.7869 219.713 46.7642 219.77 46.7575 219.831C46.7412 219.888 46.7412 219.948 46.7575 220.004C46.7762 220.065 46.8087 220.12 46.8523 220.166C46.8962 220.208 46.9497 220.238 47.008 220.255C47.0663 220.271 47.1278 220.273 47.1871 220.261C47.2987 220.222 47.4438 220.149 47.5666 220.099L49.1066 219.413L52.025 218.129L56.9633 215.953L60.3113 214.502L61.2208 214.117L61.4607 214.017L61.5445 213.989L61.4663 214.033L61.2375 214.139L60.3336 214.552L57.0191 216.048L52.0975 218.252L49.1848 219.546L47.6447 220.227C47.5052 220.283 47.3992 220.344 47.2373 220.4C47.1547 220.419 47.0686 220.417 46.9868 220.395C46.905 220.373 46.8301 220.33 46.7686 220.272C46.7105 220.212 46.6666 220.139 46.6403 220.06C46.6065 219.981 46.595 219.894 46.6068 219.809C46.6181 219.724 46.6513 219.643 46.7031 219.574C46.755 219.506 46.8237 219.452 46.9025 219.418L57.8784 214.575C59.2901 213.961 60.4229 213.459 61.2264 213.124C61.3244 213.096 61.4288 213.101 61.5237 213.138C61.6185 213.175 61.6984 213.243 61.7509 213.33C61.7901 213.392 61.8144 213.462 61.8222 213.534C61.8299 213.607 61.8208 213.68 61.7955 213.749C61.776 213.805 61.7436 213.856 61.701 213.898C61.6584 213.939 61.6067 213.971 61.55 213.989Z" fill="#263238"/>
<path d="M60.5946 211.325L45.9685 217.807C45.7544 217.902 45.6577 218.152 45.7526 218.366L45.773 218.412C45.8679 218.626 46.1184 218.723 46.3325 218.628L60.9586 212.147C61.1727 212.052 61.2694 211.801 61.1745 211.587L61.1542 211.541C61.0593 211.327 60.8088 211.23 60.5946 211.325Z" fill="#E0E0E0"/>
<path d="M60.9584 212.136C61.0164 212.108 61.067 212.066 61.1066 212.015C61.1462 211.964 61.1738 211.904 61.1872 211.841C61.2006 211.778 61.1995 211.712 61.1841 211.649C61.1686 211.586 61.1392 211.528 61.0979 211.478C61.0478 211.401 60.9725 211.344 60.885 211.317C60.7975 211.289 60.7031 211.293 60.6181 211.327L57.2198 212.856L45.9985 217.878C45.941 217.902 45.8913 217.941 45.8549 217.991C45.8184 218.042 45.7966 218.101 45.792 218.163C45.7732 218.223 45.7732 218.287 45.792 218.347C45.8142 218.406 45.8484 218.459 45.8924 218.503C45.9389 218.544 45.9952 218.573 46.0558 218.585C46.1165 218.598 46.1794 218.595 46.2384 218.576C46.3612 218.531 46.5007 218.464 46.6346 218.403L48.2137 217.705L51.1934 216.388L56.2489 214.156L59.6639 212.667L60.5957 212.27L60.8413 212.17L60.925 212.136C60.925 212.136 60.8971 212.136 60.8468 212.181L60.6069 212.298L59.6862 212.717L56.327 214.268L51.305 216.5L48.3253 217.828L46.7462 218.526L46.3388 218.704C46.2559 218.732 46.167 218.737 46.0815 218.718C45.9961 218.699 45.9172 218.658 45.8534 218.598C45.7919 218.541 45.7442 218.47 45.7139 218.392C45.6783 218.311 45.6649 218.222 45.6748 218.135C45.6832 218.048 45.7145 217.965 45.7655 217.895C45.8165 217.824 45.8853 217.768 45.965 217.733L57.1919 212.773L60.6069 211.288C60.706 211.247 60.8165 211.242 60.9187 211.275C61.021 211.308 61.1082 211.376 61.1649 211.467C61.2058 211.529 61.2325 211.599 61.2431 211.672C61.2537 211.745 61.248 211.82 61.2263 211.891C61.2067 211.952 61.1717 212.006 61.1247 212.049C61.0778 212.092 61.0205 212.122 60.9584 212.136Z" fill="#263238"/>
<path d="M60.112 209.422L44.8941 216.166C44.6799 216.261 44.5833 216.511 44.6782 216.726L44.6985 216.772C44.7934 216.986 45.0439 217.082 45.258 216.987L60.4759 210.244C60.6901 210.149 60.7867 209.898 60.6918 209.684L60.6715 209.638C60.5766 209.424 60.3261 209.328 60.112 209.422Z" fill="#E0E0E0"/>
<path d="M60.4786 210.239C60.5322 210.212 60.5798 210.175 60.6182 210.129C60.6566 210.082 60.6851 210.029 60.7018 209.971C60.717 209.901 60.7168 209.828 60.7014 209.758C60.686 209.688 60.6557 209.622 60.6125 209.564C60.5522 209.488 60.4671 209.436 60.3723 209.417C60.2774 209.397 60.1788 209.412 60.0936 209.458L56.5726 211.043L44.916 216.226C44.8566 216.253 44.8055 216.295 44.7681 216.348C44.7307 216.401 44.7086 216.463 44.7039 216.528C44.703 216.593 44.7164 216.658 44.7434 216.718C44.7705 216.778 44.8103 216.831 44.8602 216.874C44.9113 216.913 44.9721 216.937 45.0361 216.944C45.1 216.951 45.1646 216.94 45.2229 216.913L45.6414 216.729L47.2763 216.009L50.3732 214.642L55.6128 212.332L59.1561 210.786L60.1215 210.373L60.3726 210.273L60.4619 210.239L60.3782 210.284L60.1326 210.401L59.1785 210.842L55.6575 212.427L50.4234 214.759L47.3321 216.137L45.6972 216.863L45.2787 217.047C45.1967 217.083 45.1065 217.097 45.0173 217.087C44.9281 217.078 44.8431 217.044 44.7709 216.991C44.7016 216.935 44.6478 216.862 44.6147 216.779C44.5829 216.719 44.564 216.653 44.559 216.586C44.5539 216.518 44.563 216.45 44.5855 216.386C44.6081 216.322 44.6436 216.263 44.6899 216.214C44.7362 216.164 44.7923 216.125 44.8546 216.098L56.5168 210.953L60.0545 209.408C60.1486 209.362 60.2557 209.35 60.3575 209.375C60.4593 209.399 60.5494 209.458 60.6125 209.542C60.6577 209.604 60.6887 209.675 60.7032 209.75C60.7176 209.825 60.7153 209.903 60.6962 209.977C60.668 210.068 60.6088 210.147 60.5288 210.2C60.5139 210.215 60.497 210.228 60.4786 210.239Z" fill="#263238"/>
<path d="M40 210.585C40.067 210.73 41.8972 214.023 42.8402 215.719C43.0133 216.026 43.2539 216.291 43.5438 216.492C43.8338 216.693 44.1656 216.825 44.5142 216.879L45.5465 217.047L60.7409 210.351L61.2989 209.492C61.4945 209.195 61.6193 208.858 61.6638 208.506C61.7084 208.154 61.6713 207.796 61.5555 207.46L59.6639 201.931L40 210.585Z" fill="#E8505B"/>
<g opacity="0.3">
<path d="M48.8555 221.684C50.4762 221.323 52.0493 220.775 53.5427 220.049C54.8372 219.491 56.1262 218.933 57.5212 218.302C58.5423 217.828 59.4686 217.359 60.4786 216.863C60.892 216.684 61.2614 216.418 61.5611 216.082L48.8555 221.684Z" fill="black"/>
</g>
<g opacity="0.3">
<path d="M47.533 220.149C49.2655 219.731 50.9489 219.131 52.555 218.358C53.9555 217.739 55.345 217.169 56.846 216.477C57.962 215.964 58.9496 215.462 60.0377 214.932C60.4831 214.741 60.884 214.46 61.2151 214.106L47.533 220.149Z" fill="black"/>
</g>
<g opacity="0.3">
<path d="M46.7629 218.392C48.4967 217.978 50.1805 217.377 51.7849 216.6C53.1799 215.981 54.5749 215.417 56.076 214.72C57.192 214.212 58.1796 213.71 59.2677 213.18C59.7107 212.985 60.1108 212.704 60.4451 212.354L46.7629 218.392Z" fill="black"/>
</g>
<g opacity="0.3">
<path d="M45.9929 216.639C47.7252 216.22 49.4085 215.62 51.0149 214.848C52.4099 214.229 53.8049 213.66 55.3059 212.968C56.4219 212.454 57.4096 211.952 58.4977 211.422C58.943 211.231 59.3439 210.95 59.6751 210.596L45.9929 216.639Z" fill="black"/>
</g>
<path opacity="0.3" d="M40 210.585C40.067 210.73 41.8972 214.023 42.8402 215.719C43.0133 216.026 43.2539 216.291 43.5438 216.492C43.8338 216.693 44.1656 216.825 44.5142 216.879L45.5465 217.047L60.7409 210.351L61.2989 209.492C61.4945 209.195 61.6193 208.858 61.6638 208.506C61.7084 208.154 61.6713 207.796 61.5555 207.46L59.6639 201.931L40 210.585Z" fill="black"/>
<path d="M61.4997 208.381C61.4997 208.414 57.4653 210.228 52.4489 212.432C47.4325 214.636 43.3591 216.388 43.3423 216.338C43.3256 216.288 47.3767 214.491 52.3931 212.287C57.4095 210.083 61.4829 208.342 61.4997 208.381Z" fill="#263238"/>
<path d="M59.5078 201.897C59.5078 201.942 55.1387 203.928 49.6982 206.361C44.2577 208.794 39.8383 210.697 39.8216 210.658C39.8048 210.619 44.1907 208.632 49.6312 206.194C55.0717 203.755 59.4911 201.858 59.5078 201.897Z" fill="#263238"/>
<path d="M238.163 164.606L231.193 163.791C227.267 167.781 221.99 170.157 216.401 170.454C210.811 170.751 205.313 168.945 200.986 165.393C196.66 161.842 193.819 156.8 193.021 151.259C192.224 145.719 193.528 140.081 196.676 135.453C199.825 130.825 204.591 127.542 210.038 126.25C215.484 124.958 221.217 125.75 226.109 128.47C231.001 131.191 234.699 135.642 236.475 140.951C238.251 146.259 237.977 152.04 235.707 157.156L238.163 164.606Z" fill="white"/>
<path d="M238.163 164.606C238.163 164.606 238.101 164.438 237.99 164.115L237.504 162.686L235.652 157.168H235.774C235.768 157.174 235.761 157.179 235.753 157.182C235.745 157.186 235.736 157.187 235.727 157.187C235.718 157.187 235.709 157.186 235.701 157.182C235.693 157.179 235.686 157.174 235.68 157.168C235.671 157.156 235.666 157.141 235.666 157.126C235.666 157.111 235.671 157.096 235.68 157.084C237.18 153.666 237.803 149.928 237.493 146.209C237.396 145.061 237.209 143.923 236.935 142.805C236.625 141.613 236.228 140.445 235.747 139.312C233.83 134.836 230.496 131.114 226.259 128.717C222.021 126.32 217.113 125.38 212.29 126.043C207.466 126.706 202.994 128.935 199.56 132.386C196.126 135.838 193.921 140.322 193.283 145.148C192.844 148.575 193.195 152.056 194.309 155.326C195.367 158.399 197.096 161.197 199.371 163.518C203.4 167.666 208.885 170.085 214.665 170.264H215.619C215.932 170.28 216.246 170.271 216.557 170.236L218.382 170.074C219.525 169.89 220.658 169.642 221.774 169.332C225.329 168.264 228.561 166.325 231.177 163.691C231.185 163.686 231.195 163.683 231.204 163.683C231.214 163.683 231.224 163.686 231.232 163.691L236.394 164.332L237.733 164.505L238.196 164.567L237.761 164.528L236.433 164.388L231.216 163.83H231.271C228.648 166.506 225.39 168.475 221.802 169.555C220.678 169.876 219.535 170.131 218.382 170.32L216.54 170.493C216.225 170.529 215.908 170.54 215.592 170.526H214.626C210.064 170.402 205.647 168.895 201.96 166.205C198.273 163.514 195.49 159.767 193.98 155.46C192.846 152.149 192.487 148.621 192.931 145.148C193.403 141.506 194.764 138.036 196.893 135.043C197.141 134.662 197.417 134.301 197.719 133.961L198.584 132.911L199.538 131.952C199.847 131.627 200.177 131.323 200.526 131.042L201.558 130.188C201.893 129.898 202.289 129.681 202.646 129.424C203.003 129.167 203.377 128.916 203.762 128.699L204.923 128.074C207.968 126.481 211.341 125.616 214.777 125.546C217.889 125.488 220.979 126.074 223.854 127.266C226.729 128.459 229.326 130.233 231.483 132.476C233.371 134.44 234.883 136.732 235.947 139.239C236.433 140.385 236.831 141.565 237.136 142.771C237.413 143.902 237.599 145.054 237.694 146.214C237.977 149.967 237.309 153.73 235.752 157.157L235.635 157.084C235.649 157.072 235.667 157.066 235.685 157.066C235.704 157.066 235.721 157.072 235.735 157.084C235.737 157.095 235.737 157.106 235.735 157.118C236.511 159.556 237.114 161.431 237.521 162.698C237.716 163.317 237.867 163.814 237.967 164.12C238.068 164.427 238.163 164.606 238.163 164.606Z" fill="#263238"/>
<path d="M204.956 148.569L207.634 145.606L213.315 150.17L221.752 140.478L224.514 143.168L213.187 155.628L204.956 148.569Z" fill="#263238"/>
<path d="M176.76 166.514L181.185 165.956C181.199 165.951 181.215 165.951 181.23 165.956C183.473 168.214 186.245 169.877 189.293 170.794C190.25 171.059 191.22 171.271 192.2 171.43L193.768 171.57C194.035 171.592 194.304 171.592 194.571 171.57H195.392C197.725 171.499 200.025 171 202.177 170.097C202.735 169.851 203.338 169.578 203.901 169.271L203.382 169.064C200.63 167.917 198.137 166.228 196.05 164.098C193.792 161.795 192.077 159.018 191.028 155.968C189.922 152.731 189.569 149.285 189.996 145.891C190.465 142.319 191.807 138.917 193.902 135.986C194.15 135.615 194.422 135.261 194.717 134.926L195.565 133.899L195.927 133.531H195.302C192.668 133.48 190.051 133.972 187.616 134.977C185.18 135.982 182.978 137.479 181.146 139.373C179.533 141.025 178.236 142.958 177.318 145.076C176.903 146.048 176.562 147.049 176.297 148.072C175.294 152.16 175.672 156.465 177.374 160.315C177.38 160.326 177.384 160.339 177.384 160.351C177.384 160.364 177.38 160.376 177.374 160.388L175.795 165.08C175.616 165.638 175.477 166.023 175.376 166.308C175.276 166.592 175.231 166.726 175.231 166.726L175.627 166.671L176.76 166.514Z" fill="#F5F5F5"/>
<path d="M176.76 166.514C176.76 166.514 176.632 166.542 176.375 166.581L175.22 166.749H175.164V166.693C175.6 165.387 176.314 163.222 177.268 160.337V160.304L177.229 160.214L177.151 160.03L177 159.656C176.894 159.405 176.805 159.143 176.704 158.875C176.52 158.317 176.353 157.759 176.202 157.201C175.882 155.939 175.695 154.647 175.644 153.345C175.58 151.887 175.685 150.427 175.957 148.993C176.107 148.223 176.305 147.463 176.548 146.716C176.79 145.934 177.09 145.171 177.447 144.434C178.968 141.161 181.386 138.386 184.422 136.432C187.823 134.243 191.827 133.179 195.866 133.391H196.184L195.961 133.615L195.598 133.983C192.928 136.97 191.101 140.614 190.303 144.54C189.312 149.597 190.137 154.841 192.633 159.35C195.129 163.858 199.135 167.342 203.946 169.187L204.219 169.287L203.963 169.41C202.989 169.919 201.98 170.357 200.944 170.722C199.954 171.052 198.939 171.304 197.908 171.475C196.017 171.77 194.093 171.796 192.194 171.553C191.547 171.419 190.917 171.313 190.303 171.179C189.706 171.04 189.117 170.866 188.54 170.66C187.482 170.29 186.459 169.829 185.482 169.282C183.917 168.409 182.486 167.317 181.23 166.04C181.23 165.99 181.101 166.04 181.018 166.04L180.755 166.068L180.259 166.129L179.355 166.235L177.938 166.397L177.073 166.492C176.872 166.492 176.771 166.492 176.771 166.492L177.067 166.442L177.932 166.319L179.344 166.129L180.248 166.012L180.744 165.945L181.007 165.912H181.14C181.168 165.905 181.197 165.905 181.224 165.912C181.242 165.905 181.262 165.905 181.28 165.912H181.308C182.57 167.165 184.001 168.236 185.56 169.092C187.636 170.24 189.906 170.997 192.256 171.324C193.169 171.426 194.088 171.476 195.007 171.475C195.983 171.467 196.957 171.383 197.92 171.224C198.937 171.052 199.939 170.801 200.916 170.47C201.936 170.105 202.93 169.668 203.89 169.165V169.388C199.025 167.535 194.97 164.024 192.438 159.475C189.907 154.926 189.062 149.629 190.052 144.518C190.856 140.542 192.707 136.853 195.414 133.832L195.782 133.464L195.877 133.709C192.115 133.501 188.375 134.417 185.135 136.342C181.895 138.267 179.302 141.113 177.686 144.518C177.334 145.239 177.035 145.985 176.794 146.75C176.548 147.481 176.349 148.226 176.197 148.982C175.673 151.673 175.742 154.445 176.397 157.106C176.543 157.664 176.704 158.256 176.883 158.78C176.978 159.043 177.067 159.305 177.168 159.556L177.318 159.93L177.396 160.108L177.43 160.198C177.447 160.226 177.454 160.259 177.449 160.292C177.444 160.325 177.427 160.355 177.402 160.376V160.343C176.414 163.228 175.683 165.398 175.22 166.67L175.187 166.631L176.347 166.492L176.76 166.514Z" fill="#263238"/>
<path d="M364.276 126.963H357.335C355.963 126.963 354.852 128.075 354.852 129.446V167.396C354.852 168.767 355.963 169.879 357.335 169.879H364.276C365.648 169.879 366.759 168.767 366.759 167.396V129.446C366.759 128.075 365.648 126.963 364.276 126.963Z" fill="#455A64"/>
<path d="M326.884 152.224H320.11C318.693 152.224 317.543 153.373 317.543 154.791V169.143C317.543 170.56 318.693 171.709 320.11 171.709H326.884C328.302 171.709 329.451 170.56 329.451 169.143V154.791C329.451 153.373 328.302 152.224 326.884 152.224Z" fill="#455A64"/>
<path d="M345.103 141.627H338.686C337.17 141.627 335.941 142.857 335.941 144.373V168.958C335.941 170.475 337.17 171.704 338.686 171.704H345.103C346.619 171.704 347.849 170.475 347.849 168.958V144.373C347.849 142.857 346.619 141.627 345.103 141.627Z" fill="#455A64"/>
<path d="M362.357 112.785C362.277 112.922 362.181 113.049 362.072 113.164L361.185 114.208L357.837 118.058L346.147 131.221L346.018 131.372L345.851 131.26L338.541 126.489L338.854 126.445L338.575 126.774C332.554 133.832 327.108 140.227 323.124 144.903L323.018 145.02L322.895 144.925L317.086 140.612L315.546 139.418C315.356 139.29 315.18 139.142 315.021 138.977C315.217 139.085 315.404 139.208 315.579 139.345L317.198 140.461L323.096 144.658H322.873L338.218 126.439L338.497 126.11L338.636 125.948L338.809 126.065L346.108 130.853L345.812 130.892L357.614 117.84L361.073 114.074L362.016 113.08C362.118 112.969 362.232 112.869 362.357 112.785Z" fill="#263238"/>
<path d="M362.731 121.846C362.599 120.939 362.545 120.023 362.569 119.107C362.524 117.433 362.496 115.067 362.496 112.466L362.77 112.701L362.535 112.74C359.913 113.17 357.513 113.538 355.811 113.778C354.892 113.955 353.958 114.052 353.021 114.068C353.92 113.786 354.84 113.577 355.772 113.443C357.486 113.119 359.851 112.701 362.468 112.271L362.708 112.232L362.982 112.188V112.466C362.982 115.067 362.982 117.41 362.909 119.107C362.933 120.023 362.873 120.941 362.731 121.846Z" fill="#263238"/>
</svg>
