<svg width="44" height="44" viewBox="0 0 44 44" fill="none" xmlns="http://www.w3.org/2000/svg">
<g clip-path="url(#clip0_11_1752)">
<rect x="44" width="44" height="44" rx="22" transform="rotate(90 44 0)" fill="#2C2A2A"/>
<path d="M30.7015 22.5197C30.8926 22.3285 31 22.0692 31 21.7989C31 21.5286 30.8926 21.2694 30.7015 21.0782L24.9346 15.3112C24.8405 15.2139 24.728 15.1362 24.6037 15.0828C24.4793 15.0293 24.3455 15.0012 24.2101 15C24.0748 14.9989 23.9406 15.0247 23.8153 15.0759C23.69 15.1272 23.5762 15.2029 23.4804 15.2986C23.3847 15.3943 23.309 15.5081 23.2578 15.6334C23.2065 15.7587 23.1807 15.8929 23.1819 16.0283C23.1831 16.1637 23.2112 16.2974 23.2646 16.4218C23.318 16.5462 23.3957 16.6587 23.4931 16.7527L27.5199 20.7795L14.0194 20.7795C13.7491 20.7795 13.4898 20.8869 13.2986 21.0781C13.1074 21.2693 13 21.5286 13 21.7989C13 22.0693 13.1074 22.3286 13.2986 22.5198C13.4898 22.711 13.7491 22.8184 14.0194 22.8184L27.5199 22.8184L23.4931 26.8451C23.3074 27.0374 23.2046 27.2949 23.2069 27.5622C23.2093 27.8295 23.3165 28.0852 23.5055 28.2742C23.6945 28.4632 23.9502 28.5704 24.2175 28.5728C24.4848 28.5751 24.7423 28.4723 24.9346 28.2866L30.7015 22.5197Z" fill="#F8F8F8"/>
</g>
<defs>
<clipPath id="clip0_11_1752">
<rect x="44" width="44" height="44" rx="22" transform="rotate(90 44 0)" fill="white"/>
</clipPath>
</defs>
</svg>
