<svg width="17" height="18" viewBox="0 0 17 18" fill="none" xmlns="http://www.w3.org/2000/svg">
<path d="M16.8114 13.1492C16.3311 12.3219 15.6171 9.98091 15.6171 6.92338C15.6171 5.08718 14.8877 3.3262 13.5893 2.02781C12.2909 0.729425 10.53 0 8.69377 0C6.85757 0 5.09659 0.729425 3.7982 2.02781C2.49982 3.3262 1.77039 5.08718 1.77039 6.92338C1.77039 9.98178 1.05555 12.3219 0.575243 13.1492C0.452587 13.3596 0.387563 13.5985 0.386727 13.842C0.385891 14.0855 0.449273 14.3249 0.570482 14.5361C0.691691 14.7472 0.86644 14.9227 1.07711 15.0448C1.28777 15.1669 1.52691 15.2313 1.77039 15.2314H5.30218C5.46191 16.013 5.88671 16.7155 6.50471 17.22C7.12272 17.7245 7.896 18 8.69377 18C9.49154 18 10.2648 17.7245 10.8828 17.22C11.5008 16.7155 11.9256 16.013 12.0854 15.2314H15.6171C15.8606 15.2311 16.0996 15.1666 16.3101 15.0445C16.5207 14.9223 16.6953 14.7468 16.8164 14.5357C16.9375 14.3245 17.0008 14.0852 16.9999 13.8418C16.9991 13.5984 16.934 13.3595 16.8114 13.1492ZM8.69377 16.6161C8.26436 16.616 7.84555 16.4827 7.49498 16.2348C7.14441 15.9868 6.87932 15.6363 6.73618 15.2314H10.6514C10.5082 15.6363 10.2431 15.9868 9.89255 16.2348C9.54198 16.4827 9.12317 16.616 8.69377 16.6161ZM1.77039 13.8468C2.43677 12.7009 3.15507 10.0458 3.15507 6.92338C3.15507 5.45442 3.73861 4.04563 4.77731 3.00692C5.81602 1.96822 7.22481 1.38468 8.69377 1.38468C10.1627 1.38468 11.5715 1.96822 12.6102 3.00692C13.6489 4.04563 14.2325 5.45442 14.2325 6.92338C14.2325 10.0432 14.949 12.6983 15.6171 13.8468H1.77039Z" fill="#2C2C2C"/>
</svg>
