<svg width="22" height="22" viewBox="0 0 22 22" fill="none" xmlns="http://www.w3.org/2000/svg">
<path d="M8.39375 0.28418L7.47969 7.5784H9.48594L11.7875 0.70793L8.39375 0.28418ZM12.6922 0.65918L10.3766 7.5784L17.3937 7.58309L19.0016 2.77324L12.6922 0.65918ZM7.4375 1.15793L4.06719 1.52543L4.72812 7.5784H6.63594L7.4375 1.15793ZM2 6.17215C1.46094 6.17215 1.10094 6.58465 1.00297 6.9784C0.954219 7.17527 0.981875 7.33465 1.03719 7.42371C1.09203 7.50809 1.16797 7.5784 1.4375 7.5784H3.87969L3.725 6.17215H2ZM18.7531 6.17215L18.2844 7.5784H20.5109C20.3891 7.34402 20.3375 7.09559 20.3703 6.84715C20.4031 6.6034 20.4969 6.38309 20.6188 6.17215H18.7531ZM0.921875 8.42215V19.9956C0.921875 20.2346 1.05266 20.5159 1.26734 20.7315C1.4825 20.9472 1.76562 21.0784 2 21.0784L20 21.0831C20.2344 21.0831 20.5156 20.9518 20.7313 20.7362C20.9469 20.5206 21.0781 20.2393 21.0781 20.0003V16.6721H17C14.9375 16.6721 14.9375 12.8284 17 12.8284H21.0781V8.42684L0.921875 8.42215ZM17 13.6721C16.0625 13.6721 16.0625 15.8284 17 15.8284H18.0453C17.6234 15.6503 17.3281 15.2331 17.3281 14.7503C17.3281 14.2675 17.6234 13.8503 18.0453 13.6721H17ZM18.9547 13.6721C19.3766 13.8503 19.6719 14.2675 19.6719 14.7503C19.6719 15.2331 19.3766 15.6503 18.9547 15.8284H21.8281V13.6721H18.9547ZM18.5 14.4221C18.3125 14.4221 18.1719 14.5628 18.1719 14.7503C18.1719 14.9378 18.3125 15.0784 18.5 15.0784C18.6875 15.0784 18.8281 14.9378 18.8281 14.7503C18.8281 14.5628 18.6875 14.4221 18.5 14.4221Z" fill="black"/>
</svg>
