<svg width="24" height="24" viewBox="0 0 24 24" fill="none" xmlns="http://www.w3.org/2000/svg">
<path d="M10.3568 9.93766C11.4388 9.81766 12.5588 9.81766 13.6408 9.93766C13.7439 9.94904 13.8402 9.99462 13.9143 10.0671C13.9884 10.1396 14.0361 10.2349 14.0498 10.3377C14.1788 11.4417 14.1788 12.5577 14.0498 13.6617C14.0361 13.7646 13.9882 13.86 13.9139 13.9325C13.8396 14.005 13.7431 14.0505 13.6398 14.0617C12.5488 14.1824 11.4478 14.1824 10.3568 14.0617C10.2538 14.0503 10.1575 14.0047 10.0833 13.9322C10.0092 13.8597 9.9615 13.7644 9.94782 13.6617C9.81883 12.5574 9.81883 11.4419 9.94782 10.3377C9.96154 10.2347 10.0094 10.1394 10.0837 10.0668C10.1581 9.99432 10.2546 9.94883 10.3578 9.93766H10.3568Z" fill="black"/>
<path fill-rule="evenodd" clip-rule="evenodd" d="M14.999 2.25C15.1979 2.25 15.3887 2.32902 15.5294 2.46967C15.67 2.61032 15.749 2.80109 15.749 3V5.926C16.3215 6.03938 16.847 6.32117 17.2582 6.73524C17.6694 7.14931 17.9476 7.67678 18.057 8.25H20.999C21.1979 8.25 21.3887 8.32902 21.5294 8.46967C21.67 8.61032 21.749 8.80109 21.749 9C21.749 9.19891 21.67 9.38968 21.5294 9.53033C21.3887 9.67098 21.1979 9.75 20.999 9.75H18.211C18.248 10.25 18.272 10.75 18.284 11.25H19.999C20.1979 11.25 20.3887 11.329 20.5294 11.4697C20.67 11.6103 20.749 11.8011 20.749 12C20.749 12.1989 20.67 12.3897 20.5294 12.5303C20.3887 12.671 20.1979 12.75 19.999 12.75H18.284C18.272 13.25 18.248 13.75 18.211 14.25H20.999C21.1979 14.25 21.3887 14.329 21.5294 14.4697C21.67 14.6103 21.749 14.8011 21.749 15C21.749 15.1989 21.67 15.3897 21.5294 15.5303C21.3887 15.671 21.1979 15.75 20.999 15.75H18.057C17.9474 16.323 17.6692 16.8503 17.258 17.2642C16.8468 17.678 16.3213 17.9597 15.749 18.073V21C15.749 21.1989 15.67 21.3897 15.5294 21.5303C15.3887 21.671 15.1979 21.75 14.999 21.75C14.8001 21.75 14.6093 21.671 14.4687 21.5303C14.328 21.3897 14.249 21.1989 14.249 21V18.226C13.751 18.261 13.25 18.285 12.749 18.296V20C12.749 20.1989 12.67 20.3897 12.5294 20.5303C12.3887 20.671 12.1979 20.75 11.999 20.75C11.8001 20.75 11.6093 20.671 11.4687 20.5303C11.328 20.3897 11.249 20.1989 11.249 20V18.296C10.7485 18.2844 10.2484 18.2611 9.74902 18.226V21C9.74902 21.1989 9.67001 21.3897 9.52935 21.5303C9.3887 21.671 9.19794 21.75 8.99902 21.75C8.80011 21.75 8.60935 21.671 8.46869 21.5303C8.32804 21.3897 8.24902 21.1989 8.24902 21V18.073C7.67671 17.9597 7.15127 17.678 6.74006 17.2642C6.32886 16.8503 6.05062 16.323 5.94102 15.75H2.99902C2.80011 15.75 2.60935 15.671 2.46869 15.5303C2.32804 15.3897 2.24902 15.1989 2.24902 15C2.24902 14.8011 2.32804 14.6103 2.46869 14.4697C2.60935 14.329 2.80011 14.25 2.99902 14.25H5.78702C5.75002 13.75 5.72602 13.25 5.71302 12.75H3.99902C3.80011 12.75 3.60935 12.671 3.46869 12.5303C3.32804 12.3897 3.24902 12.1989 3.24902 12C3.24902 11.8011 3.32804 11.6103 3.46869 11.4697C3.60935 11.329 3.80011 11.25 3.99902 11.25H5.71302C5.72602 10.75 5.75002 10.25 5.78702 9.75H2.99902C2.80011 9.75 2.60935 9.67098 2.46869 9.53033C2.32804 9.38968 2.24902 9.19891 2.24902 9C2.24902 8.80109 2.32804 8.61032 2.46869 8.46967C2.60935 8.32902 2.80011 8.25 2.99902 8.25H5.94102C6.05062 7.67696 6.32886 7.14971 6.74006 6.73583C7.15127 6.32195 7.67671 6.04031 8.24902 5.927V3C8.24902 2.80109 8.32804 2.61032 8.46869 2.46967C8.60935 2.32902 8.80011 2.25 8.99902 2.25C9.19794 2.25 9.3887 2.32902 9.52935 2.46967C9.67001 2.61032 9.74902 2.80109 9.74902 3V5.774C10.247 5.739 10.748 5.715 11.249 5.704V4C11.249 3.80109 11.328 3.61032 11.4687 3.46967C11.6093 3.32902 11.8001 3.25 11.999 3.25C12.1979 3.25 12.3887 3.32902 12.5294 3.46967C12.67 3.61032 12.749 3.80109 12.749 4V5.704C13.25 5.715 13.751 5.739 14.249 5.774V3C14.249 2.80109 14.328 2.61032 14.4687 2.46967C14.6093 2.32902 14.8001 2.25 14.999 2.25ZM13.807 8.447C12.6054 8.31377 11.3927 8.31377 10.191 8.447C9.29302 8.547 8.56502 9.255 8.45902 10.164C8.31638 11.3838 8.31638 12.6162 8.45902 13.836C8.56502 14.746 9.29302 15.452 10.191 15.553C11.383 15.686 12.615 15.686 13.807 15.553C14.247 15.5041 14.6576 15.3078 14.972 14.9961C15.2864 14.6844 15.4863 14.2756 15.539 13.836C15.682 12.616 15.682 11.384 15.539 10.164C15.4863 9.72442 15.2864 9.31559 14.972 9.00389C14.6576 8.6922 14.247 8.49594 13.807 8.447Z" fill="black"/>
</svg>
