<svg width="34" height="34" viewBox="0 0 34 34" fill="none" xmlns="http://www.w3.org/2000/svg">
<path d="M4.25 14.1668C4.25 8.82458 4.25 6.15275 5.91033 4.49383C7.56925 2.8335 10.2411 2.8335 15.5833 2.8335H18.4167C23.7589 2.8335 26.4307 2.8335 28.0897 4.49383C29.75 6.15275 29.75 8.82458 29.75 14.1668V19.8335C29.75 25.1757 29.75 27.8476 28.0897 29.5065C26.4307 31.1668 23.7589 31.1668 18.4167 31.1668H15.5833C10.2411 31.1668 7.56925 31.1668 5.91033 29.5065C4.25 27.8476 4.25 25.1757 4.25 19.8335V14.1668Z" fill="#E8505B" stroke="white" stroke-width="1.5"/>
<path d="M11.3333 14.167H22.6666H11.3333ZM11.3333 19.8337H18.4166H11.3333Z" fill="#3465D9"/>
<path d="M11.3333 14.167H22.6666M11.3333 19.8337H18.4166" stroke="white" stroke-width="1.5" stroke-linecap="round"/>
</svg>
