<svg width="28" height="24" viewBox="0 0 28 24" fill="none" xmlns="http://www.w3.org/2000/svg">
<path d="M14.0002 24C13.8165 23.9994 13.6381 23.938 13.493 23.8254C8.8698 20.2333 5.68514 17.1401 3.4567 14.0885C0.612951 10.1887 -0.0356236 6.58827 1.52761 3.38697C2.64183 1.10033 5.84312 -0.770558 9.5849 0.318714C11.3689 0.834031 12.9255 1.93914 14.0002 3.45349C15.0749 1.93914 16.6315 0.834031 18.4155 0.318714C22.149 -0.753928 25.3586 1.10033 26.4728 3.38697C28.036 6.58827 27.3874 10.1887 24.5437 14.0885C22.3153 17.1401 19.1306 20.2333 14.5074 23.8254C14.3623 23.938 14.1839 23.9994 14.0002 24ZM7.45624 1.67407C6.56591 1.63942 5.68295 1.84789 4.90214 2.27712C4.12134 2.70634 3.47217 3.34011 3.02432 4.11038C1.73548 6.75457 2.31754 9.6981 4.80374 13.099C7.44591 16.507 10.5398 19.5393 14.0002 22.1125C17.46 19.5419 20.5539 16.5123 23.1966 13.1073C25.6912 9.6981 26.2649 6.75457 24.9761 4.1187C24.1446 2.45568 21.65 1.13359 18.8728 1.91521C17.9823 2.17838 17.1568 2.62508 16.4493 3.22655C15.7419 3.82803 15.1682 4.57096 14.7652 5.40753C14.7025 5.56004 14.596 5.69048 14.459 5.78228C14.3221 5.87408 14.1609 5.92309 13.996 5.92309C13.8312 5.92309 13.67 5.87408 13.5331 5.78228C13.3961 5.69048 13.2895 5.56004 13.2269 5.40753C12.8269 4.56887 12.2542 3.8242 11.5463 3.22235C10.8384 2.6205 10.0113 2.17505 9.11926 1.91521C8.57876 1.75822 8.01907 1.67706 7.45624 1.67407Z" fill="black"/>
</svg>
