<svg width="45" height="45" viewBox="0 0 45 45" fill="none" xmlns="http://www.w3.org/2000/svg">
<rect width="45" height="45" rx="22.5" fill="#FFCEC7"/>
<path d="M22.868 31C22.7455 30.9996 22.6266 30.9587 22.5298 30.8836C19.4477 28.4889 17.3246 26.4267 15.839 24.3923C13.9431 21.7925 13.5108 19.3922 14.5529 17.258C15.2957 15.7336 17.4299 14.4863 19.9244 15.2125C21.1138 15.556 22.1515 16.2928 22.868 17.3023C23.5845 16.2928 24.6221 15.556 25.8115 15.2125C28.3005 14.4974 30.4402 15.7336 31.183 17.258C32.2252 19.3922 31.7928 21.7925 29.897 24.3923C28.4113 26.4267 26.2882 28.4889 23.2061 30.8836C23.1094 30.9587 22.9905 30.9996 22.868 31ZM18.5053 16.116C17.9118 16.0929 17.3231 16.2319 16.8026 16.5181C16.2821 16.8042 15.8493 17.2267 15.5507 17.7403C14.6915 19.503 15.0795 21.4654 16.737 23.7326C18.4984 26.0046 20.561 28.0262 22.868 29.7417C25.1745 28.0279 27.2371 26.0082 28.9989 23.7382C30.662 21.4654 31.0444 19.503 30.1852 17.7458C29.6309 16.6371 27.9679 15.7557 26.1164 16.2768C25.5227 16.4523 24.9724 16.7501 24.5007 17.151C24.0291 17.552 23.6466 18.0473 23.378 18.605C23.3362 18.7067 23.2652 18.7937 23.1738 18.8549C23.0825 18.9161 22.9751 18.9487 22.8652 18.9487C22.7553 18.9487 22.6478 18.9161 22.5565 18.8549C22.4652 18.7937 22.3942 18.7067 22.3524 18.605C22.0858 18.0459 21.704 17.5495 21.2321 17.1482C20.7601 16.747 20.2087 16.45 19.614 16.2768C19.2537 16.1721 18.8806 16.118 18.5053 16.116Z" fill="#E8505B" stroke="#E8505B"/>
</svg>
