<svg width="24" height="24" viewBox="0 0 24 24" fill="none" xmlns="http://www.w3.org/2000/svg">
<path d="M4.5 4.5H7.5V7.6275C7.09934 7.48546 6.66663 7.45982 6.252 7.55356C5.83737 7.64731 5.45777 7.85659 5.15718 8.15718C4.85659 8.45777 4.64731 8.83737 4.55356 9.252C4.45982 9.66663 4.48546 10.0993 4.6275 10.5H1.5V7.5C1.5 6.70435 1.81607 5.94129 2.37868 5.37868C2.94129 4.81607 3.70435 4.5 4.5 4.5ZM9 13.0605L10.719 14.781C10.8598 14.9218 11.0508 15.0009 11.25 15.0009C11.4492 15.0009 11.6402 14.9218 11.781 14.781C11.9218 14.6402 12.0009 14.4492 12.0009 14.25C12.0009 14.0508 11.9218 13.8598 11.781 13.719L10.0605 12H22.5V16.5C22.5 17.2956 22.1839 18.0587 21.6213 18.6213C21.0587 19.1839 20.2956 19.5 19.5 19.5H9V13.0605ZM6.4395 12L4.719 13.719C4.57817 13.8598 4.49905 14.0508 4.49905 14.25C4.49905 14.4492 4.57817 14.6402 4.719 14.781C4.85983 14.9218 5.05084 15.0009 5.25 15.0009C5.44916 15.0009 5.64017 14.9218 5.781 14.781L7.5 13.0605V19.5H4.5C3.70435 19.5 2.94129 19.1839 2.37868 18.6213C1.81607 18.0587 1.5 17.2956 1.5 16.5V12H6.4395ZM11.8725 10.5C12.0145 10.0993 12.0402 9.66663 11.9464 9.252C11.8527 8.83737 11.6434 8.45777 11.3428 8.15718C11.0422 7.85659 10.6626 7.64731 10.248 7.55356C9.83337 7.45982 9.40066 7.48546 9 7.6275V4.5H19.5C20.2956 4.5 21.0587 4.81607 21.6213 5.37868C22.1839 5.94129 22.5 6.70435 22.5 7.5V10.5H11.8725ZM9 9.75V10.5H9.75C9.89834 10.5 10.0433 10.456 10.1667 10.3736C10.29 10.2912 10.3861 10.1741 10.4429 10.037C10.4997 9.89997 10.5145 9.74917 10.4856 9.60368C10.4566 9.4582 10.3852 9.32456 10.2803 9.21967C10.1754 9.11478 10.0418 9.04335 9.89632 9.01441C9.75083 8.98547 9.60003 9.00032 9.46299 9.05709C9.32594 9.11386 9.20881 9.20999 9.1264 9.33332C9.04399 9.45666 9 9.60166 9 9.75ZM7.5 9.75V10.5H6.75C6.60166 10.5 6.45666 10.456 6.33332 10.3736C6.20999 10.2912 6.11386 10.1741 6.05709 10.037C6.00032 9.89997 5.98547 9.74917 6.01441 9.60368C6.04335 9.4582 6.11478 9.32456 6.21967 9.21967C6.32456 9.11478 6.4582 9.04335 6.60368 9.01441C6.74917 8.98547 6.89997 9.00032 7.03701 9.05709C7.17406 9.11386 7.29119 9.20999 7.3736 9.33332C7.45601 9.45666 7.5 9.60166 7.5 9.75Z" fill="black"/>
</svg>
