<svg width="24" height="24" viewBox="0 0 24 24" fill="none" xmlns="http://www.w3.org/2000/svg">
<path d="M19.499 7C20.1621 7 20.7979 6.73661 21.2668 6.26777C21.7356 5.79893 21.999 5.16304 21.999 4.5C21.999 3.83696 21.7356 3.20107 21.2668 2.73223C20.7979 2.26339 20.1621 2 19.499 2C18.836 2 18.2001 2.26339 17.7313 2.73223C17.2624 3.20107 16.999 3.83696 16.999 4.5C16.999 5.16304 17.2624 5.79893 17.7313 6.26777C18.2001 6.73661 18.836 7 19.499 7ZM4.49902 22C5.16206 22 5.79795 21.7366 6.26679 21.2678C6.73563 20.7989 6.99902 20.163 6.99902 19.5C6.99902 18.837 6.73563 18.2011 6.26679 17.7322C5.79795 17.2634 5.16206 17 4.49902 17C3.83598 17 3.2001 17.2634 2.73126 17.7322C2.26242 18.2011 1.99902 18.837 1.99902 19.5C1.99902 20.163 2.26242 20.7989 2.73126 21.2678C3.2001 21.7366 3.83598 22 4.49902 22ZM6.99902 2H1.99902V7H6.99902V2ZM21.999 17H16.999V22H21.999V17Z" fill="black" stroke="black" stroke-width="1.5" stroke-linecap="round" stroke-linejoin="round"/>
<path d="M16.999 4.5H6.99902M16.999 19.5H6.99902M4.49902 17V7M19.499 17V7" stroke="black" stroke-width="1.5" stroke-linecap="round" stroke-linejoin="round"/>
</svg>
