<svg width="24" height="24" viewBox="0 0 24 24" fill="none" xmlns="http://www.w3.org/2000/svg">
<g clip-path="url(#clip0_446_1031)">
<path fill-rule="evenodd" clip-rule="evenodd" d="M21 3.42611C21 2.48911 19.995 1.86311 19.149 2.32811C18.012 2.95211 14.646 4.77011 12.631 5.57111C10.286 6.50211 8.267 6.85211 5.953 6.96011C4.35 7.03411 3 8.32911 3 10.0001V14.0001C3 15.6711 4.35 16.9661 5.953 17.0401C6.227 17.0531 6.496 17.0691 6.763 17.0891L6.019 20.8041C5.96702 21.0643 6.02052 21.3345 6.16774 21.5552C6.31495 21.7759 6.54382 21.9291 6.804 21.9811C7.06418 22.0331 7.33435 21.9796 7.55508 21.8324C7.77581 21.6852 7.92902 21.4563 7.981 21.1961L8.754 17.3281C10.017 17.5431 11.269 17.8881 12.631 18.4291C14.646 19.2301 18.011 21.0491 19.149 21.6721C19.995 22.1371 21 21.5111 21 20.5741V3.42611ZM9 15.3421C10.418 15.5771 11.833 15.9601 13.37 16.5711C15.022 17.2271 17.456 18.4901 19 19.3171V4.68311C17.456 5.51011 15.022 6.77311 13.37 7.42911C11.833 8.03911 10.418 8.42311 9 8.65911V15.3421ZM7 8.89911C6.685 8.92311 6.368 8.94311 6.046 8.95811C5.443 8.98611 5 9.46211 5 10.0001V14.0001C5 14.5381 5.443 15.0141 6.046 15.0421C6.368 15.0571 6.686 15.0771 7 15.1021V8.89911Z" fill="black"/>
</g>
<defs>
<clipPath id="clip0_446_1031">
<rect width="24" height="24" fill="white"/>
</clipPath>
</defs>
</svg>
