<svg width="34" height="34" viewBox="0 0 34 34" fill="none" xmlns="http://www.w3.org/2000/svg">
<path d="M28.3335 16.9997V14.5814C28.3335 8.28862 23.4049 3.02004 17.3472 2.83729C14.2249 2.76504 11.325 3.87995 9.10791 6.03329C8.01487 7.08632 7.14645 8.34986 6.55504 9.74767C5.96363 11.1455 5.66148 12.6486 5.66683 14.1664V16.9997C4.10425 16.9997 2.8335 18.2704 2.8335 19.833V25.4997C2.8335 27.0623 4.10425 28.333 5.66683 28.333H8.50016V14.1664C8.49599 13.0281 8.72242 11.9007 9.16579 10.8523C9.60916 9.80387 10.2603 8.85612 11.0799 8.0662C11.8961 7.2717 12.8642 6.65004 13.9262 6.23842C14.9882 5.82679 16.1224 5.63367 17.2608 5.67062C21.8055 5.80662 25.5002 9.80445 25.5002 14.5814V28.333H28.3335C29.8961 28.333 31.1668 27.0623 31.1668 25.4997V19.833C31.1668 18.2704 29.8961 16.9997 28.3335 16.9997Z" fill="black"/>
<path d="M9.9165 17H12.7498V28.3333H9.9165V17ZM21.2498 17H24.0832V28.3333H21.2498V17Z" fill="black"/>
</svg>
