<svg width="24" height="24" viewBox="0 0 24 24" fill="none" xmlns="http://www.w3.org/2000/svg">
<path d="M12.6334 19.9561L10.7436 19.9504V18.055H12.6447L12.6334 19.9561ZM10.7436 16.5961V14.3473C10.7436 13.2607 11.2331 12.3536 11.818 11.6346C12.3981 10.9203 13.1361 10.3146 13.7597 9.82325C14.1674 9.50189 14.4948 9.09014 14.716 8.62052C14.9373 8.1509 15.0463 7.63627 15.0345 7.11727C15.0227 6.59828 14.8904 6.08913 14.648 5.63005C14.4057 5.17096 14.0599 4.77452 13.638 4.47201C13.2161 4.16951 12.7297 3.96924 12.2171 3.88702C11.7045 3.8048 11.1799 3.84288 10.6845 3.99825C10.1892 4.15362 9.73677 4.42203 9.36298 4.78227C8.9892 5.14252 8.70428 5.58474 8.53075 6.07401L8.21516 6.96502L6.43408 6.33573L6.74872 5.44472C7.16164 4.28045 7.9726 3.29949 9.03844 2.67499C10.1043 2.0505 11.3565 1.82262 12.574 2.03158C13.7915 2.24055 14.8961 2.87292 15.6927 3.81708C16.4893 4.76124 16.9268 5.95647 16.9278 7.19179C16.9284 7.98465 16.7486 8.76725 16.4023 9.48045C16.0559 10.1937 15.5519 10.8188 14.9285 11.3086C14.3096 11.7961 13.72 12.2913 13.2844 12.8279C12.8516 13.359 12.6334 13.855 12.6334 14.3482V16.5961H10.7436Z" fill="black"/>
</svg>
