<svg width="28" height="24" viewBox="0 0 28 24" fill="none" xmlns="http://www.w3.org/2000/svg">
<path d="M14.4114 0.197054C14.2476 0.0693519 14.0458 0 13.8381 0C13.6304 0 13.4287 0.0693519 13.2649 0.197054L0 10.5403L1.14741 11.9914L2.76929 10.7268V22.1538C2.77026 22.6431 2.96509 23.1122 3.3111 23.4582C3.65712 23.8042 4.12614 23.999 4.61548 24H23.0774C23.5667 23.999 24.0358 23.8042 24.3818 23.4582C24.7278 23.1122 24.9226 22.6431 24.9236 22.1538V10.7351L26.5455 11.9998L27.6929 10.5486L14.4114 0.197054ZM15.6926 22.1538H12.0002V14.769H15.6926V22.1538ZM17.5388 22.1538V14.769C17.5383 14.2796 17.3437 13.8103 16.9975 13.4641C16.6514 13.118 16.1821 12.9233 15.6926 12.9229H12.0002C11.5108 12.9233 11.0415 13.118 10.6953 13.4641C10.3492 13.8103 10.1545 14.2796 10.1541 14.769V22.1538H4.61548V9.2877L13.8464 2.09678L23.0774 9.29693V22.1538H17.5388Z" fill="#202020"/>
</svg>
