<svg width="28" height="24" viewBox="0 0 28 24" fill="none" xmlns="http://www.w3.org/2000/svg">
<path d="M14.5647 0.197054C14.4009 0.0693519 14.1991 0 13.9914 0C13.7838 0 13.582 0.0693519 13.4182 0.197054L0.15332 10.5403L1.30073 11.9914L2.92261 10.7268V22.1538C2.92358 22.6431 3.11841 23.1122 3.46442 23.4582C3.81044 23.8042 4.27946 23.999 4.7688 24H23.2307C23.7201 23.999 24.1891 23.8042 24.5351 23.4582C24.8811 23.1122 25.0759 22.6431 25.0769 22.1538V10.7351L26.6988 11.9998L27.8462 10.5486L14.5647 0.197054ZM15.8459 22.1538H12.1536V14.769H15.8459V22.1538ZM17.6921 22.1538V14.769C17.6917 14.2796 17.497 13.8103 17.1509 13.4641C16.8047 13.118 16.3354 12.9233 15.8459 12.9229H12.1536C11.6641 12.9233 11.1948 13.118 10.8487 13.4641C10.5025 13.8103 10.3079 14.2796 10.3074 14.769V22.1538H4.7688V9.2877L13.9998 2.09678L23.2307 9.29693V22.1538H17.6921Z" fill="#E8505B"/>
</svg>
