<svg width="24" height="24" viewBox="0 0 24 24" fill="none" xmlns="http://www.w3.org/2000/svg">
<path d="M12.2927 4.6206C10.7884 4.6206 9.34564 5.21819 8.28192 6.28192C7.21819 7.34564 6.6206 8.78836 6.6206 10.2927C6.6206 12.6118 8.06455 14.849 9.6495 16.5822C10.4604 17.4647 11.3446 18.2769 12.2927 19.0099C13.2408 18.2774 14.125 17.4658 14.9359 16.5839C16.5208 14.849 17.9648 12.6126 17.9648 10.2927C17.9648 8.78836 17.3672 7.34564 16.3035 6.28192C15.2398 5.21819 13.797 4.6206 12.2927 4.6206ZM12.2927 21L11.8333 20.684L11.8308 20.6824L11.826 20.6783L11.8098 20.667L11.749 20.624C11.4135 20.3801 11.0854 20.1261 10.7653 19.8623C9.94475 19.1883 9.17228 18.4578 8.4535 17.6761C6.79725 15.8643 5 13.2398 5 10.2927C5 8.35855 5.76834 6.50363 7.13598 5.13598C8.50363 3.76834 10.3586 3 12.2927 3C14.2268 3 16.0818 3.76834 17.4494 5.13598C18.8171 6.50363 19.5854 8.35855 19.5854 10.2927C19.5854 13.2398 17.7882 15.8651 16.1319 17.6761C15.1935 18.6969 14.1639 19.6299 13.056 20.4636C12.9637 20.5326 12.8705 20.6004 12.7764 20.667L12.7594 20.6783L12.7546 20.6824L12.7529 20.6832L12.2927 21ZM12.2927 8.6721C11.8629 8.6721 11.4507 8.84284 11.1468 9.14676C10.8428 9.45068 10.6721 9.86289 10.6721 10.2927C10.6721 10.7225 10.8428 11.1347 11.1468 11.4386C11.4507 11.7426 11.8629 11.9133 12.2927 11.9133C12.7225 11.9133 13.1347 11.7426 13.4386 11.4386C13.7426 11.1347 13.9133 10.7225 13.9133 10.2927C13.9133 9.86289 13.7426 9.45068 13.4386 9.14676C13.1347 8.84284 12.7225 8.6721 12.2927 8.6721ZM9.0515 10.2927C9.0515 9.43308 9.39298 8.60867 10.0008 8.00082C10.6087 7.39298 11.4331 7.0515 12.2927 7.0515C13.1523 7.0515 13.9767 7.39298 14.5846 8.00082C15.1924 8.60867 15.5339 9.43308 15.5339 10.2927C15.5339 11.1523 15.1924 11.9767 14.5846 12.5846C13.9767 13.1924 13.1523 13.5339 12.2927 13.5339C11.4331 13.5339 10.6087 13.1924 10.0008 12.5846C9.39298 11.9767 9.0515 11.1523 9.0515 10.2927Z" fill="black"/>
</svg>
