<svg width="18" height="23" viewBox="0 0 18 23" fill="none" xmlns="http://www.w3.org/2000/svg">
<path d="M9 2C7.14348 2 5.36301 2.7375 4.05025 4.05025C2.7375 5.36301 2 7.14348 2 9C2 11.862 3.782 14.623 5.738 16.762C6.73868 17.8511 7.82992 18.8533 9 19.758C10.1701 18.854 11.2613 17.8525 12.262 16.764C14.218 14.623 16 11.863 16 9C16 7.14348 15.2625 5.36301 13.9497 4.05025C12.637 2.7375 10.8565 2 9 2ZM9 22.214L8.433 21.824L8.43 21.822L8.424 21.817L8.404 21.803L8.329 21.75C7.91493 21.449 7.51008 21.1355 7.115 20.81C6.10237 19.9782 5.14906 19.0766 4.262 18.112C2.218 15.876 0 12.637 0 9C3.55683e-08 6.61305 0.948211 4.32387 2.63604 2.63604C4.32387 0.948211 6.61305 0 9 0C11.3869 0 13.6761 0.948211 15.364 2.63604C17.0518 4.32387 18 6.61305 18 9C18 12.637 15.782 15.877 13.738 18.112C12.5799 19.3717 11.3093 20.5231 9.942 21.552C9.82807 21.6371 9.71306 21.7208 9.597 21.803L9.576 21.817L9.57 21.822L9.568 21.823L9 22.214ZM9 7C8.46957 7 7.96086 7.21071 7.58579 7.58579C7.21071 7.96086 7 8.46957 7 9C7 9.53043 7.21071 10.0391 7.58579 10.4142C7.96086 10.7893 8.46957 11 9 11C9.53043 11 10.0391 10.7893 10.4142 10.4142C10.7893 10.0391 11 9.53043 11 9C11 8.46957 10.7893 7.96086 10.4142 7.58579C10.0391 7.21071 9.53043 7 9 7ZM5 9C5 7.93913 5.42143 6.92172 6.17157 6.17157C6.92172 5.42143 7.93913 5 9 5C10.0609 5 11.0783 5.42143 11.8284 6.17157C12.5786 6.92172 13 7.93913 13 9C13 10.0609 12.5786 11.0783 11.8284 11.8284C11.0783 12.5786 10.0609 13 9 13C7.93913 13 6.92172 12.5786 6.17157 11.8284C5.42143 11.0783 5 10.0609 5 9Z" fill="black"/>
</svg>
