<svg width="25" height="24" viewBox="0 0 25 24" fill="none" xmlns="http://www.w3.org/2000/svg">
<path d="M10.0824 4H5.63791C5.40216 4 5.17607 4.09365 5.00937 4.26035C4.84267 4.42705 4.74902 4.65314 4.74902 4.88889V9.33333C4.74902 9.56908 4.84267 9.79517 5.00937 9.96187C5.17607 10.1286 5.40216 10.2222 5.63791 10.2222H10.0824C10.3181 10.2222 10.5442 10.1286 10.7109 9.96187C10.8776 9.79517 10.9712 9.56908 10.9712 9.33333V4.88889C10.9712 4.65314 10.8776 4.42705 10.7109 4.26035C10.5442 4.09365 10.3181 4 10.0824 4ZM10.0824 13.7778H5.63791C5.40216 13.7778 5.17607 13.8714 5.00937 14.0381C4.84267 14.2048 4.74902 14.4309 4.74902 14.6667V19.1111C4.74902 19.3469 4.84267 19.573 5.00937 19.7397C5.17607 19.9064 5.40216 20 5.63791 20H10.0824C10.3181 20 10.5442 19.9064 10.7109 19.7397C10.8776 19.573 10.9712 19.3469 10.9712 19.1111V14.6667C10.9712 14.4309 10.8776 14.2048 10.7109 14.0381C10.5442 13.8714 10.3181 13.7778 10.0824 13.7778ZM17.6379 10.2222C18.0465 10.2222 18.451 10.1418 18.8285 9.9854C19.2059 9.82906 19.5489 9.59989 19.8378 9.311C20.1267 9.02211 20.3559 8.67914 20.5122 8.30168C20.6686 7.92422 20.749 7.51967 20.749 7.11111C20.749 6.70255 20.6686 6.298 20.5122 5.92054C20.3559 5.54308 20.1267 5.20012 19.8378 4.91122C19.5489 4.62233 19.2059 4.39317 18.8285 4.23682C18.451 4.08047 18.0465 4 17.6379 4C16.8128 4 16.0215 4.32778 15.438 4.91122C14.8546 5.49467 14.5268 6.28599 14.5268 7.11111C14.5268 7.93623 14.8546 8.72755 15.438 9.311C16.0215 9.89445 16.8128 10.2222 17.6379 10.2222ZM19.8601 13.7778H15.4157C15.1799 13.7778 14.9538 13.8714 14.7872 14.0381C14.6205 14.2048 14.5268 14.4309 14.5268 14.6667V19.1111C14.5268 19.3469 14.6205 19.573 14.7872 19.7397C14.9538 19.9064 15.1799 20 15.4157 20H19.8601C20.0959 20 20.322 19.9064 20.4887 19.7397C20.6554 19.573 20.749 19.3469 20.749 19.1111V14.6667C20.749 14.4309 20.6554 14.2048 20.4887 14.0381C20.322 13.8714 20.0959 13.7778 19.8601 13.7778Z" fill="black" stroke="black" stroke-width="1.5" stroke-linejoin="round"/>
</svg>
