<svg width="45" height="45" viewBox="0 0 45 45" fill="none" xmlns="http://www.w3.org/2000/svg">
<rect width="45" height="45" rx="22.5" fill="#FFCEC7"/>
<path d="M28 27.08C27.24 27.08 26.56 27.38 26.04 27.85L18.91 23.7C18.96 23.47 19 23.24 19 23C19 22.76 18.96 22.53 18.91 22.3L25.96 18.19C26.5 18.69 27.21 19 28 19C29.66 19 31 17.66 31 16C31 14.34 29.66 13 28 13C26.34 13 25 14.34 25 16C25 16.24 25.04 16.47 25.09 16.7L18.04 20.81C17.5 20.31 16.79 20 16 20C14.34 20 13 21.34 13 23C13 24.66 14.34 26 16 26C16.79 26 17.5 25.69 18.04 25.19L25.16 29.35C25.11 29.56 25.08 29.78 25.08 30C25.08 31.61 26.39 32.92 28 32.92C29.61 32.92 30.92 31.61 30.92 30C30.92 28.39 29.61 27.08 28 27.08Z" fill="#E8505B"/>
</svg>
