<svg width="27" height="26" viewBox="0 0 27 26" fill="none" xmlns="http://www.w3.org/2000/svg">
<path d="M11.5135 1.88771C11.7636 1.60841 12.0697 1.38499 12.412 1.23202C12.7543 1.07906 13.125 1 13.4999 1C13.8748 1 14.2455 1.07906 14.5878 1.23202C14.93 1.38499 15.2362 1.60841 15.4863 1.88771L16.4195 2.93025C16.6862 3.2282 17.0165 3.46235 17.386 3.61535C17.7555 3.76836 18.1546 3.83629 18.5539 3.81414L19.9537 3.73681C20.3281 3.71617 20.7027 3.77474 21.0529 3.90869C21.4032 4.04263 21.7212 4.24895 21.9863 4.51417C22.2514 4.77938 22.4576 5.09753 22.5913 5.44783C22.7251 5.79813 22.7835 6.17272 22.7627 6.54712L22.6854 7.94561C22.6634 8.34467 22.7315 8.74356 22.8845 9.11277C23.0374 9.48199 23.2715 9.8121 23.5693 10.0787L24.6118 11.0119C24.8913 11.262 25.1149 11.5682 25.268 11.9106C25.4211 12.253 25.5003 12.6239 25.5003 12.999C25.5003 13.374 25.4211 13.7449 25.268 14.0873C25.1149 14.4297 24.8913 14.7359 24.6118 14.986L23.5693 15.9193C23.2713 16.186 23.0372 16.5163 22.8842 16.8858C22.7312 17.2552 22.6632 17.6544 22.6854 18.0536L22.7627 19.4535C22.7833 19.8279 22.7248 20.2024 22.5908 20.5527C22.4569 20.9029 22.2506 21.221 21.9853 21.4861C21.7201 21.7511 21.402 21.9573 21.0517 22.0911C20.7014 22.2249 20.3268 22.2833 19.9524 22.2624L18.5539 22.1851C18.1548 22.1632 17.756 22.2312 17.3867 22.3842C17.0175 22.5372 16.6874 22.7712 16.4208 23.069L15.4876 24.1115C15.2375 24.3911 14.9313 24.6147 14.5889 24.7678C14.2465 24.9209 13.8756 25 13.5005 25C13.1255 25 12.7546 24.9209 12.4122 24.7678C12.0698 24.6147 11.7636 24.3911 11.5135 24.1115L10.5803 23.069C10.3135 22.771 9.98322 22.5369 9.61376 22.3839C9.24429 22.2309 8.84514 22.163 8.44586 22.1851L7.04604 22.2624C6.67163 22.2831 6.29708 22.2245 5.94683 22.0906C5.59659 21.9566 5.27855 21.7503 5.01346 21.4851C4.74837 21.2199 4.5422 20.9017 4.40842 20.5514C4.27464 20.2011 4.21625 19.8265 4.23707 19.4521L4.31439 18.0536C4.33635 17.6546 4.26831 17.2557 4.11531 16.8865C3.96232 16.5173 3.72828 16.1872 3.4305 15.9206L2.38797 14.9874C2.10845 14.7373 1.88484 14.431 1.73174 14.0886C1.57864 13.7462 1.49951 13.3754 1.49951 13.0003C1.49951 12.6252 1.57864 12.2544 1.73174 11.912C1.88484 11.5696 2.10845 11.2633 2.38797 11.0132L3.4305 10.08C3.72846 9.81329 3.96261 9.48297 4.11561 9.1135C4.26861 8.74403 4.33655 8.34488 4.31439 7.94561L4.23707 6.54579C4.21662 6.17148 4.27533 5.79707 4.40937 5.44699C4.5434 5.09691 4.74975 4.77903 5.01494 4.51409C5.28014 4.24915 5.59821 4.0431 5.94842 3.9094C6.29863 3.7757 6.67309 3.71734 7.04738 3.73814L8.44586 3.81547C8.84492 3.83742 9.24381 3.76939 9.61303 3.61639C9.98225 3.4634 10.3124 3.22936 10.5789 2.93158L11.5135 1.88771Z" stroke="black" stroke-width="2"/>
<path d="M10.167 9.66699H10.1803V9.68032H10.167V9.66699ZM16.8328 16.3328H16.8461V16.3461H16.8328V16.3328Z" stroke="black" stroke-width="3" stroke-linejoin="round"/>
<path d="M17.4995 9.00049L9.50049 16.9995" stroke="black" stroke-width="2" stroke-linecap="round" stroke-linejoin="round"/>
</svg>
