<svg width="152" height="152" viewBox="0 0 152 152" fill="none" xmlns="http://www.w3.org/2000/svg">
<path d="M76.0002 129.978C108.553 129.978 134.943 128.438 134.943 126.537C134.943 124.636 108.553 123.096 76.0002 123.096C43.4471 123.096 17.0576 124.636 17.0576 126.537C17.0576 128.438 43.4471 129.978 76.0002 129.978Z" fill="#F5F5F5"/>
<path d="M78.2679 21.7298V109.282C78.2683 109.452 78.2349 109.62 78.1696 109.776C78.1043 109.933 78.0084 110.075 77.8875 110.194C77.7667 110.313 77.6233 110.407 77.4657 110.47C77.3081 110.533 77.1395 110.564 76.9698 110.562H36.2338C35.9299 110.565 35.637 110.448 35.4191 110.236C35.3077 110.125 35.2196 109.993 35.1601 109.847C35.1006 109.702 35.0708 109.546 35.0726 109.388V21.6234C35.0673 21.4877 35.0888 21.3522 35.1359 21.2248C35.183 21.0973 35.2548 20.9804 35.3471 20.8808C35.4394 20.7811 35.5505 20.7006 35.674 20.6439C35.7974 20.5872 35.9309 20.5554 36.0666 20.5503H47.6369C47.7987 20.5528 47.9561 20.6037 48.0888 20.6963C48.2215 20.7889 48.3235 20.9191 48.3817 21.0701L48.862 22.2497C48.921 22.3999 49.0233 22.5292 49.1559 22.6212C49.2885 22.7132 49.4454 22.7638 49.6068 22.7665H63.7641C63.9247 22.7657 64.0814 22.717 64.2141 22.6265C64.3468 22.5361 64.4495 22.408 64.5089 22.2588L64.9892 21.0732C65.0472 20.9218 65.1491 20.7912 65.2818 20.6981C65.4145 20.6049 65.5719 20.5535 65.734 20.5503H77.137C77.4426 20.559 77.7326 20.6877 77.9441 20.9083C78.1557 21.129 78.272 21.4241 78.2679 21.7298Z" fill="#E8505B"/>
<path opacity="0.6" d="M78.2677 27.5425H35.0693V101.05H78.2677V27.5425Z" fill="white"/>
<path opacity="0.6" d="M40.441 24.0767H41.043V23.2741H40.441V24.0767Z" fill="white"/>
<path opacity="0.6" d="M39.462 24.0767H40.064V23.0066H39.462V24.0767Z" fill="white"/>
<path opacity="0.6" d="M38.4772 24.0767H39.0791V22.7391H38.4772V24.0767Z" fill="white"/>
<path opacity="0.6" d="M37.4982 24.0767H38.1001V22.4715H37.4982V24.0767Z" fill="white"/>
<path opacity="0.6" d="M72.7531 22.9824H72.3975V23.785H72.7531V22.9824Z" fill="white"/>
<path opacity="0.6" d="M72.9965 24.0767H75.8389V22.6874H72.9965V24.0767Z" fill="white"/>
<g opacity="0.1">
<path d="M54.5041 22.7665L42.0674 69.3484L41.9306 69.8713L41.7057 70.7103L41.5628 71.2332L35.0693 95.5532V66.126L47.2293 20.5503H47.6245C47.7864 20.5528 47.9437 20.6037 48.0765 20.6963C48.2092 20.7889 48.3112 20.9191 48.3693 21.0701L48.8497 22.2497C48.9087 22.3999 49.0109 22.5292 49.1435 22.6212C49.2761 22.7132 49.4331 22.7638 49.5945 22.7665H54.5041Z" fill="white"/>
<path d="M78.2678 46.5547V75.994L70.5128 105.047L70.3243 105.753L69.0444 110.547H61.186L62.4659 105.756L62.6696 104.987L63.6971 101.138L63.9038 100.369L64.3142 98.8275L64.5209 98.0584L64.9313 96.5171L65.135 95.748L71.6011 71.5313V71.5283L71.899 70.4126V70.4096L78.2678 46.5547Z" fill="white"/>
<path d="M58.7632 22.7666L46.4056 69.0567L46.3296 69.3333L45.6547 71.8717L45.5787 72.1484L35.416 110.221C35.3045 110.11 35.2165 109.978 35.157 109.832C35.0974 109.687 35.0677 109.531 35.0694 109.373V104.895L43.8124 72.1484L43.8884 71.8717L44.5633 69.3333L44.6393 69.0567L56.9969 22.7666H58.7632Z" fill="white"/>
</g>
<path opacity="0.9" d="M75.5411 33.7863V33.3272L75.304 33.3059C75.2718 33.1554 75.212 33.0121 75.1277 32.8834L75.2797 32.701L74.9544 32.3757L74.772 32.5277C74.6446 32.4408 74.5008 32.3808 74.3494 32.3514L74.3281 32.1143H73.8721L73.8509 32.3514C73.6995 32.3808 73.5557 32.4408 73.4283 32.5277L73.2429 32.3757L72.9206 32.701L73.0726 32.8834C72.9857 33.0108 72.9257 33.1546 72.8963 33.3059L72.6592 33.3272V33.7863L72.8963 33.8075C72.9257 33.9589 72.9857 34.1027 73.0726 34.2301L72.9206 34.4125L73.2429 34.7378L73.4283 34.5858C73.5557 34.6727 73.6995 34.7327 73.8509 34.7621L73.8721 34.9992H74.3312L74.3525 34.7621C74.5038 34.7327 74.6476 34.6727 74.775 34.5858L74.9574 34.7378L75.2827 34.4125L75.1307 34.2301C75.2151 34.1013 75.2748 33.9581 75.307 33.8075L75.5411 33.7863ZM74.0971 34.1754C73.9769 34.1754 73.8593 34.1397 73.7593 34.0729C73.6593 34.0061 73.5814 33.9111 73.5354 33.8C73.4894 33.689 73.4773 33.5667 73.5008 33.4488C73.5242 33.3308 73.5822 33.2225 73.6672 33.1375C73.7522 33.0524 73.8605 32.9945 73.9785 32.9711C74.0964 32.9476 74.2187 32.9596 74.3298 33.0057C74.4409 33.0517 74.5358 33.1296 74.6026 33.2296C74.6694 33.3296 74.7051 33.4471 74.7051 33.5674C74.7051 33.7286 74.641 33.8833 74.527 33.9973C74.413 34.1113 74.2584 34.1754 74.0971 34.1754Z" fill="white"/>
<path d="M41.7878 33.4976L40.2374 32.2178C40.2261 32.2089 40.2122 32.2041 40.1978 32.2041C40.1835 32.2041 40.1696 32.2089 40.1583 32.2178L38.6079 33.4976C38.5975 33.5054 38.5898 33.5164 38.5861 33.5289C38.5823 33.5414 38.5827 33.5548 38.5871 33.567C38.5915 33.5793 38.5998 33.5898 38.6107 33.597C38.6215 33.6042 38.6344 33.6078 38.6474 33.6071H38.994C39.0104 33.6071 39.0262 33.6134 39.0381 33.6247C39.05 33.636 39.0571 33.6515 39.0578 33.6679V34.8474C39.0578 34.8638 39.0641 34.8796 39.0755 34.8915C39.0868 34.9034 39.1022 34.9105 39.1186 34.9112H41.274C41.2904 34.9105 41.3059 34.9034 41.3172 34.8915C41.3285 34.8796 41.3348 34.8638 41.3348 34.8474V33.6679C41.3348 33.6596 41.3365 33.6515 41.3397 33.6439C41.3429 33.6363 41.3477 33.6295 41.3537 33.6238C41.3596 33.6181 41.3667 33.6137 41.3744 33.6108C41.3822 33.6079 41.3904 33.6067 41.3986 33.6071H41.7452C41.7585 33.6085 41.7719 33.6055 41.7833 33.5986C41.7948 33.5917 41.8036 33.5811 41.8084 33.5687C41.8133 33.5562 41.8139 33.5425 41.8101 33.5297C41.8064 33.5168 41.7985 33.5056 41.7878 33.4976Z" fill="white"/>
<g opacity="0.6">
<path d="M73.2913 104.059H75.6595C75.7049 104.058 75.7482 104.039 75.7801 104.007C75.8119 103.975 75.8297 103.931 75.8297 103.886C75.8297 103.84 75.8118 103.797 75.7799 103.765C75.7479 103.733 75.7046 103.715 75.6595 103.715H73.2913C73.2462 103.715 73.2029 103.733 73.171 103.765C73.139 103.797 73.1211 103.84 73.1211 103.886C73.1211 103.931 73.1389 103.975 73.1708 104.007C73.2026 104.039 73.2459 104.058 73.2913 104.059Z" fill="white"/>
<path d="M75.6595 104.576H73.2913C73.2462 104.576 73.2029 104.594 73.171 104.626C73.139 104.657 73.1211 104.701 73.1211 104.746C73.1211 104.791 73.1389 104.835 73.1708 104.867C73.2026 104.9 73.2459 104.918 73.2913 104.919H75.6595C75.7049 104.918 75.7482 104.9 75.7801 104.867C75.8119 104.835 75.8297 104.791 75.8297 104.746C75.8297 104.701 75.8118 104.657 75.7799 104.626C75.7479 104.594 75.7046 104.576 75.6595 104.576Z" fill="white"/>
<path d="M75.6595 105.448H73.2913C73.2462 105.448 73.2029 105.466 73.171 105.498C73.139 105.53 73.1211 105.573 73.1211 105.618C73.1211 105.664 73.139 105.707 73.171 105.739C73.2029 105.771 73.2462 105.789 73.2913 105.789H75.6595C75.7046 105.789 75.7479 105.771 75.7799 105.739C75.8118 105.707 75.8297 105.664 75.8297 105.618C75.8297 105.573 75.8118 105.53 75.7799 105.498C75.7479 105.466 75.7046 105.448 75.6595 105.448Z" fill="white"/>
<path d="M57.7357 104.576H56.7233V103.563C56.7178 103.522 56.6973 103.484 56.6657 103.456C56.6341 103.428 56.5936 103.413 56.5516 103.413C56.5096 103.413 56.469 103.428 56.4374 103.456C56.4058 103.484 56.3854 103.522 56.3798 103.563V104.576H55.3675C55.3224 104.576 55.2791 104.594 55.2471 104.626C55.2152 104.658 55.1973 104.701 55.1973 104.746C55.1973 104.791 55.2151 104.835 55.2469 104.867C55.2788 104.9 55.3221 104.919 55.3675 104.919H56.3798V105.932C56.3854 105.973 56.4058 106.011 56.4374 106.039C56.469 106.067 56.5096 106.082 56.5516 106.082C56.5936 106.082 56.6341 106.067 56.6657 106.039C56.6973 106.011 56.7178 105.973 56.7233 105.932V104.919H57.7357C57.7811 104.919 57.8244 104.9 57.8562 104.867C57.8881 104.835 57.9059 104.791 57.9059 104.746C57.9059 104.701 57.888 104.658 57.856 104.626C57.8241 104.594 57.7808 104.576 57.7357 104.576Z" fill="white"/>
<path d="M39.5745 103.633H37.6957C37.65 103.634 37.6064 103.653 37.5741 103.685C37.5417 103.717 37.5232 103.761 37.5225 103.807V105.7C37.5233 105.746 37.5419 105.789 37.5743 105.821C37.6067 105.853 37.6503 105.871 37.6957 105.871H39.5897C39.6348 105.871 39.6781 105.853 39.71 105.821C39.742 105.789 39.7599 105.746 39.7599 105.7V103.807C39.76 103.783 39.7551 103.759 39.7456 103.737C39.7362 103.715 39.7223 103.696 39.7049 103.679C39.6875 103.663 39.667 103.651 39.6445 103.643C39.6221 103.635 39.5982 103.632 39.5745 103.633ZM39.4012 105.527H37.8508V103.968H39.4012V105.527Z" fill="white"/>
</g>
<g opacity="0.6">
<path d="M55.2735 99.007C55.2439 99.0068 55.2152 98.9972 55.1914 98.9797L53.9754 98.1862C53.9557 98.177 53.9382 98.1637 53.9241 98.1471C53.9099 98.1306 53.8995 98.1112 53.8936 98.0903C53.8876 98.0694 53.8861 98.0474 53.8894 98.0259C53.8926 98.0044 53.9004 97.9838 53.9123 97.9656C53.9241 97.9474 53.9398 97.9319 53.9581 97.9202C53.9765 97.9085 53.9972 97.9009 54.0187 97.8979C54.0403 97.8949 54.0622 97.8966 54.083 97.9028C54.1039 97.909 54.1232 97.9196 54.1396 97.9339L55.2765 98.6726L56.4135 97.9339C56.4475 97.9117 56.4888 97.9038 56.5286 97.9117C56.5684 97.9197 56.6034 97.9429 56.6263 97.9765C56.648 98.0103 56.6554 98.0515 56.6468 98.0908C56.6383 98.1301 56.6145 98.1644 56.5807 98.1862L55.3647 98.9797C55.3381 98.9985 55.3061 99.0081 55.2735 99.007Z" fill="#E8505B"/>
<path d="M55.2737 98.3866C55.2446 98.3861 55.2163 98.3777 55.1916 98.3623L53.9756 97.5689C53.9416 97.5465 53.9177 97.5116 53.9092 97.4718C53.9007 97.432 53.9081 97.3904 53.93 97.3561C53.9523 97.3227 53.9868 97.2996 54.0261 97.2916C54.0654 97.2836 54.1063 97.2915 54.1398 97.3135L55.2767 98.0522L56.4137 97.3135C56.4476 97.2913 56.4888 97.2835 56.5285 97.2918C56.5681 97.3001 56.6028 97.3237 56.625 97.3576C56.6471 97.3915 56.655 97.4327 56.6467 97.4724C56.6384 97.512 56.6148 97.5467 56.5809 97.5689L55.3649 98.3623C55.3373 98.3787 55.3058 98.3871 55.2737 98.3866Z" fill="#E8505B"/>
</g>
<path opacity="0.1" d="M75.6475 46.5547C75.3478 46.5555 75.0606 46.6749 74.8487 46.8868C74.6368 47.0987 74.5174 47.3859 74.5166 47.6856V94.6019C74.5166 94.9018 74.6357 95.1895 74.8478 95.4015C75.0599 95.6136 75.3476 95.7328 75.6475 95.7328C75.9474 95.7328 76.2351 95.6136 76.4471 95.4015C76.6592 95.1895 76.7784 94.9018 76.7784 94.6019V47.6856C76.7784 47.5371 76.7491 47.39 76.6923 47.2528C76.6354 47.1156 76.5522 46.9909 76.4471 46.8859C76.3421 46.7809 76.2175 46.6976 76.0803 46.6408C75.943 46.5839 75.796 46.5547 75.6475 46.5547Z" fill="black"/>
<path opacity="0.6" d="M75.6474 46.8706C75.4055 46.8706 75.1735 46.9667 75.0025 47.1377C74.8314 47.3088 74.7354 47.5407 74.7354 47.7826V54.1119C74.7663 54.3293 74.8747 54.5282 75.0406 54.6721C75.2064 54.816 75.4186 54.8952 75.6382 54.8952C75.8578 54.8952 76.07 54.816 76.2359 54.6721C76.4018 54.5282 76.5101 54.3293 76.5411 54.1119V47.7735C76.5388 47.5363 76.4442 47.3094 76.2773 47.1408C76.1104 46.9723 75.8845 46.8753 75.6474 46.8706Z" fill="white"/>
<path d="M53.3063 32.4673L52.525 34.8598H51.917L51.3911 33.2394L50.8469 34.8598H50.2389L49.4546 32.4673H50.0292L50.5672 34.1484L51.1327 32.4673H51.6799L52.2271 34.1606L52.7834 32.4673H53.3063Z" fill="white"/>
<path d="M53.5464 32.4669C53.5462 32.4246 53.5549 32.3827 53.5718 32.3439C53.5888 32.3051 53.6137 32.2703 53.6449 32.2417C53.6761 32.213 53.7129 32.1912 53.753 32.1777C53.7931 32.1641 53.8356 32.1591 53.8777 32.1629C53.9184 32.1592 53.9594 32.1637 53.9983 32.1761C54.0372 32.1886 54.0732 32.2087 54.1041 32.2354C54.135 32.2621 54.1603 32.2947 54.1783 32.3313C54.1964 32.368 54.2068 32.4079 54.2091 32.4487C54.1982 32.5288 54.1587 32.6023 54.0977 32.6555C54.0368 32.7087 53.9586 32.7381 53.8777 32.7381C53.7969 32.7381 53.7187 32.7087 53.6578 32.6555C53.5968 32.6023 53.5573 32.5288 53.5464 32.4487V32.4669ZM53.6102 33.0202H54.1453V34.8442H53.6102V33.0202Z" fill="white"/>
<path d="M54.4614 34.6893L54.6408 34.3063C54.8339 34.4212 55.0544 34.4821 55.2792 34.4826C55.5254 34.4826 55.6197 34.4187 55.6197 34.3154C55.6197 34.0114 54.507 34.3154 54.507 33.5858C54.507 33.2392 54.811 32.9778 55.3582 32.9778C55.6039 32.9734 55.8469 33.0287 56.0665 33.1389L55.8872 33.5189C55.7262 33.427 55.5436 33.3797 55.3582 33.3821C55.1181 33.3821 55.0177 33.4551 55.0177 33.5523C55.0177 33.8563 56.1273 33.5523 56.1273 34.288C56.1273 34.6285 55.8233 34.8717 55.2579 34.8717C54.9811 34.8812 54.7065 34.8183 54.4614 34.6893Z" fill="white"/>
<path d="M58.3373 33.8047V34.8596H57.8023V33.8868C57.8023 33.5828 57.6655 33.4551 57.4314 33.4551C57.1973 33.4551 56.9876 33.6101 56.9876 33.9506V34.8626H56.4556V32.3242H56.9876V33.2149C57.0662 33.1417 57.1585 33.0847 57.2591 33.0471C57.3598 33.0096 57.4669 32.9922 57.5743 32.9961C57.6803 32.989 57.7866 33.0054 57.8855 33.0442C57.9844 33.083 58.0736 33.1432 58.1465 33.2205C58.2194 33.2977 58.2743 33.3902 58.3073 33.4912C58.3403 33.5922 58.3506 33.6993 58.3373 33.8047Z" fill="white"/>
<path d="M58.8179 32.3213H59.3529V34.8597H58.8179V32.3213Z" fill="white"/>
<path d="M59.7817 32.4672C59.7816 32.4249 59.7902 32.383 59.8072 32.3442C59.8242 32.3054 59.849 32.2706 59.8802 32.2419C59.9114 32.2133 59.9482 32.1915 59.9883 32.178C60.0284 32.1644 60.0709 32.1594 60.1131 32.1632C60.154 32.159 60.1953 32.1632 60.2346 32.1754C60.2738 32.1877 60.3102 32.2078 60.3415 32.2345C60.3727 32.2612 60.3982 32.294 60.4165 32.3309C60.4347 32.3677 60.4452 32.4079 60.4475 32.4489C60.4477 32.4916 60.439 32.5337 60.4218 32.5728C60.4047 32.6118 60.3795 32.6468 60.348 32.6754C60.3165 32.7041 60.2793 32.7258 60.2388 32.7392C60.1983 32.7525 60.1555 32.7572 60.1131 32.7529C60.0724 32.7567 60.0314 32.7522 59.9925 32.7397C59.9536 32.7273 59.9177 32.7071 59.8867 32.6804C59.8558 32.6538 59.8306 32.6211 59.8125 32.5845C59.7945 32.5479 59.784 32.508 59.7817 32.4672ZM59.8486 33.0205H60.3806V34.8445H59.8486V33.0205Z" fill="white"/>
<path d="M60.6997 34.6894L60.876 34.3064C61.0692 34.4214 61.2897 34.4823 61.5144 34.4827C61.7607 34.4827 61.8549 34.4188 61.8549 34.3155C61.8549 34.0115 60.7423 34.3155 60.7423 33.5859C60.7423 33.2393 61.0463 32.9779 61.5935 32.9779C61.8392 32.9726 62.0825 33.0279 62.3018 33.139L62.1255 33.519C61.9633 33.4274 61.7798 33.3802 61.5935 33.3822C61.3563 33.3822 61.253 33.4552 61.253 33.5524C61.253 33.8564 62.3626 33.5524 62.3626 34.2881C62.3626 34.6286 62.0586 34.8718 61.4962 34.8718C61.2193 34.8821 60.9445 34.8192 60.6997 34.6894Z" fill="white"/>
<path d="M63.8797 34.7712C63.7492 34.8513 63.598 34.8915 63.445 34.8867C63.3542 34.899 63.2619 34.8907 63.1748 34.8623C63.0877 34.8339 63.0082 34.7862 62.9421 34.7228C62.8761 34.6594 62.8252 34.5818 62.7933 34.496C62.7614 34.4101 62.7493 34.3182 62.7579 34.227V33.4701H62.4722V33.0597H62.7579V32.6128H63.2899V33.0597H63.749V33.4701H63.2899V34.221C63.2857 34.2524 63.2887 34.2844 63.2984 34.3146C63.3082 34.3449 63.3247 34.3725 63.3465 34.3955C63.3684 34.4185 63.3951 34.4364 63.4248 34.4477C63.4545 34.4591 63.4863 34.4637 63.5179 34.4611C63.5953 34.4633 63.6712 34.4398 63.7338 34.3942L63.8797 34.7712Z" fill="white"/>
<path opacity="0.3" d="M38.1064 37.7446H75.234C75.4369 37.7442 75.6379 37.7839 75.8254 37.8614C76.013 37.9388 76.1834 38.0526 76.3269 38.1961C76.4703 38.3395 76.5841 38.5099 76.6615 38.6975C76.739 38.885 76.7787 39.086 76.7783 39.289C76.7787 39.492 76.739 39.6932 76.6616 39.8809C76.5842 40.0686 76.4705 40.2392 76.327 40.3829C76.1836 40.5266 76.0132 40.6407 75.8257 40.7185C75.6381 40.7963 75.437 40.8363 75.234 40.8363H38.1064C37.9032 40.8363 37.702 40.7963 37.5143 40.7185C37.3266 40.6408 37.156 40.5268 37.0123 40.3831C36.8686 40.2394 36.7546 40.0688 36.6769 39.8811C36.5991 39.6934 36.5591 39.4922 36.5591 39.289C36.5591 39.0859 36.5991 38.8848 36.6769 38.6973C36.7547 38.5097 36.8688 38.3393 37.0125 38.1959C37.1562 38.0524 37.3268 37.9387 37.5145 37.8613C37.7022 37.7839 37.9034 37.7442 38.1064 37.7446Z" fill="black"/>
<path d="M74.6472 39.6871C74.482 39.6865 74.3237 39.621 74.2064 39.5047C74.1478 39.4473 74.1015 39.3787 74.0701 39.3029C74.0388 39.2272 74.0231 39.1459 74.024 39.0639C74.0231 38.9819 74.0388 38.9006 74.0701 38.8249C74.1015 38.7491 74.1478 38.6805 74.2064 38.6231C74.2642 38.5652 74.333 38.5192 74.4086 38.4879C74.4842 38.4566 74.5653 38.4404 74.6472 38.4404C74.729 38.4404 74.8101 38.4566 74.8857 38.4879C74.9614 38.5192 75.0301 38.5652 75.088 38.6231C75.1465 38.6805 75.1929 38.7491 75.2242 38.8249C75.2555 38.9006 75.2712 38.9819 75.2704 39.0639C75.2733 39.1484 75.2587 39.2326 75.2273 39.3111C75.1958 39.3896 75.1484 39.4607 75.088 39.5199C74.9682 39.6306 74.8102 39.6906 74.6472 39.6871ZM74.6472 38.7447C74.6054 38.7436 74.5639 38.7512 74.5252 38.7669C74.4865 38.7826 74.4514 38.8061 74.4222 38.8359C74.3923 38.8658 74.3686 38.9014 74.3524 38.9405C74.3362 38.9796 74.3279 39.0216 74.328 39.0639C74.3273 39.1059 74.3353 39.1475 74.3515 39.1862C74.3677 39.225 74.3918 39.2599 74.4222 39.2889C74.4831 39.3461 74.5636 39.378 74.6472 39.378C74.7308 39.378 74.8112 39.3461 74.8721 39.2889C74.9025 39.2599 74.9266 39.225 74.9428 39.1862C74.959 39.1475 74.967 39.1059 74.9664 39.0639C74.9664 39.0216 74.9581 38.9796 74.9419 38.9405C74.9258 38.9014 74.902 38.8658 74.8721 38.8359C74.8429 38.8061 74.8078 38.7826 74.7691 38.7669C74.7304 38.7512 74.6889 38.7436 74.6472 38.7447Z" fill="white"/>
<path d="M75.5711 40.1281C75.531 40.1275 75.4928 40.1111 75.4647 40.0825L74.8567 39.4927C74.8287 39.4638 74.813 39.4251 74.813 39.3848C74.813 39.3445 74.8287 39.3058 74.8567 39.2769C74.8708 39.2626 74.8877 39.2513 74.9062 39.2436C74.9247 39.2359 74.9446 39.2319 74.9646 39.2319C74.9847 39.2319 75.0046 39.2359 75.0231 39.2436C75.0416 39.2513 75.0584 39.2626 75.0726 39.2769L75.6654 39.8697C75.6932 39.8981 75.7088 39.9363 75.7088 39.9761C75.7088 40.0159 75.6932 40.0541 75.6654 40.0825C75.6402 40.1082 75.6069 40.1243 75.5711 40.1281Z" fill="white"/>
<path opacity="0.6" d="M72.7168 63.2744H37.2218C36.8558 63.2744 36.5591 63.5711 36.5591 63.9371V78.3103C36.5591 78.6763 36.8558 78.973 37.2218 78.973H72.7168C73.0829 78.973 73.3796 78.6763 73.3796 78.3103V63.9371C73.3796 63.5711 73.0829 63.2744 72.7168 63.2744Z" fill="#E8505B"/>
<path d="M51.0446 64.8037H38.1763V76.6293H51.0446V64.8037Z" fill="#E8505B"/>
<path opacity="0.6" d="M51.0446 64.8037H38.1763V76.6293H51.0446V64.8037Z" fill="white"/>
<path opacity="0.3" d="M50.4215 65.4268H38.833V75.9725H50.4215V65.4268Z" fill="white"/>
<path opacity="0.3" d="M50.4215 73.7411V75.9725H38.836L38.833 70.8166L41.2255 68.7251L44.7732 72.1846L46.6519 70.8166L50.4215 73.7411Z" fill="white"/>
<g opacity="0.6">
<path d="M48.4911 68.7223C48.4911 68.9069 48.4363 69.0874 48.3338 69.2408C48.2312 69.3943 48.0855 69.5139 47.9149 69.5846C47.7444 69.6552 47.5568 69.6737 47.3757 69.6377C47.1947 69.6017 47.0284 69.5128 46.8979 69.3823C46.7673 69.2518 46.6785 69.0855 46.6424 68.9044C46.6064 68.7234 46.6249 68.5357 46.6956 68.3652C46.7662 68.1947 46.8858 68.0489 47.0393 67.9464C47.1928 67.8438 47.3732 67.7891 47.5578 67.7891C47.6805 67.7887 47.802 67.8125 47.9154 67.8593C48.0288 67.906 48.1319 67.9748 48.2186 68.0615C48.3054 68.1483 48.3741 68.2513 48.4209 68.3647C48.4676 68.4781 48.4915 68.5997 48.4911 68.7223Z" fill="white"/>
<path opacity="0.3" d="M48.4911 68.7223C48.4911 68.9069 48.4363 69.0874 48.3338 69.2408C48.2312 69.3943 48.0855 69.5139 47.9149 69.5846C47.7444 69.6552 47.5568 69.6737 47.3757 69.6377C47.1947 69.6017 47.0284 69.5128 46.8979 69.3823C46.7673 69.2518 46.6785 69.0855 46.6424 68.9044C46.6064 68.7234 46.6249 68.5357 46.6956 68.3652C46.7662 68.1947 46.8858 68.0489 47.0393 67.9464C47.1928 67.8438 47.3732 67.7891 47.5578 67.7891C47.6805 67.7887 47.802 67.8125 47.9154 67.8593C48.0288 67.906 48.1319 67.9748 48.2186 68.0615C48.3054 68.1483 48.3741 68.2513 48.4209 68.3647C48.4676 68.4781 48.4915 68.5997 48.4911 68.7223Z" fill="white"/>
</g>
<g opacity="0.3">
<path d="M65.986 65.816H53.37C53.2676 65.816 53.1694 65.7753 53.097 65.7029C53.0246 65.6305 52.9839 65.5323 52.9839 65.4299C52.9839 65.3794 52.9939 65.3293 53.0133 65.2826C53.0328 65.236 53.0613 65.1936 53.0971 65.158C53.133 65.1224 53.1756 65.0942 53.2225 65.0752C53.2693 65.0561 53.3194 65.0465 53.37 65.0469H65.986C66.0364 65.0465 66.0864 65.0561 66.133 65.0752C66.1797 65.0943 66.2221 65.1225 66.2577 65.1582C66.2934 65.1938 66.3216 65.2362 66.3407 65.2829C66.3598 65.3295 66.3694 65.3795 66.369 65.4299C66.3694 65.4805 66.3598 65.5306 66.3407 65.5774C66.3217 65.6243 66.2935 65.6669 66.2579 65.7027C66.2223 65.7386 66.1799 65.7671 66.1333 65.7866C66.0866 65.806 66.0365 65.816 65.986 65.816Z" fill="white"/>
<path d="M70.9138 68.1231H53.37C53.3194 68.1235 53.2693 68.1139 53.2225 68.0948C53.1756 68.0758 53.133 68.0476 53.0971 68.012C53.0613 67.9764 53.0328 67.934 53.0133 67.8874C52.9939 67.8407 52.9839 67.7906 52.9839 67.7401C52.9839 67.6377 53.0246 67.5395 53.097 67.4671C53.1694 67.3947 53.2676 67.354 53.37 67.354H70.9138C71.0162 67.354 71.1144 67.3947 71.1868 67.4671C71.2592 67.5395 71.2999 67.6377 71.2999 67.7401C71.2999 67.7906 71.2899 67.8407 71.2704 67.8874C71.251 67.934 71.2225 67.9764 71.1866 68.012C71.1507 68.0476 71.1081 68.0758 71.0613 68.0948C71.0145 68.1139 70.9644 68.1235 70.9138 68.1231Z" fill="white"/>
<path d="M60.4471 70.4337H53.37C53.2676 70.4337 53.1694 70.393 53.097 70.3206C53.0246 70.2482 52.9839 70.15 52.9839 70.0476C52.9839 69.997 52.9939 69.947 53.0133 69.9003C53.0328 69.8536 53.0613 69.8113 53.0971 69.7757C53.133 69.7401 53.1756 69.7119 53.2225 69.6928C53.2693 69.6738 53.3194 69.6642 53.37 69.6646H60.4471C60.4975 69.6642 60.5475 69.6738 60.5941 69.6929C60.6408 69.712 60.6832 69.7402 60.7188 69.7758C60.7545 69.8115 60.7827 69.8539 60.8018 69.9005C60.8209 69.9472 60.8305 69.9972 60.8301 70.0476C60.8305 70.0982 60.8209 70.1483 60.8018 70.1951C60.7828 70.2419 60.7546 70.2845 60.719 70.3204C60.6834 70.3563 60.6411 70.3848 60.5944 70.4042C60.5477 70.4237 60.4976 70.4337 60.4471 70.4337Z" fill="white"/>
</g>
<path d="M53.1359 74.3583C53.4764 73.805 54.13 74.0178 54.4644 74.4465C54.8018 74.0148 55.4524 73.802 55.7959 74.3553C56.3705 75.2885 55.1879 76.1549 54.6286 76.4833L54.4705 76.5806L54.3094 76.4833C53.75 76.158 52.5614 75.2946 53.1359 74.3583Z" fill="white"/>
<g opacity="0.6">
<path d="M58.4199 74.5073H60.3108L60.2226 76.5928H58.5111L58.4199 74.5073Z" fill="white"/>
<path d="M59.7209 74.0149L59.6327 73.8325H59.1007L59.0095 74.0149L58.2495 74.1031V74.3098H60.4839V74.1031L59.7209 74.0149Z" fill="white"/>
</g>
<g opacity="0.6">
<path d="M65.4696 73.9086H64.9832C64.9567 73.9081 64.9309 73.917 64.9103 73.9337C64.8898 73.9504 64.8757 73.9738 64.8707 73.9998L64.8373 74.1579H62.4904H62.4691H62.4509C62.4509 74.1579 62.4509 74.1579 62.4357 74.1731V74.1913V74.2096C62.4342 74.2176 62.4342 74.2259 62.4357 74.2339L62.685 75.6414C62.6899 75.6677 62.7038 75.6915 62.7243 75.7087C62.7448 75.7259 62.7707 75.7354 62.7974 75.7357H64.6701C64.6966 75.7361 64.7224 75.7272 64.743 75.7106C64.7635 75.6939 64.7776 75.6705 64.7826 75.6445L65.0653 74.2643C65.0681 74.2482 65.0681 74.2318 65.0653 74.2157L65.0896 74.0849H65.4848C65.5118 74.0805 65.5364 74.0666 65.5542 74.0457C65.5719 74.0248 65.5816 73.9983 65.5816 73.9709C65.5816 73.9435 65.5719 73.917 65.5542 73.8961C65.5364 73.8753 65.5118 73.8614 65.4848 73.8569L65.4696 73.9086ZM64.6944 74.8693H64.2019L64.2293 74.3859H64.7917L64.6944 74.8693ZM63.4784 74.8693L63.4571 74.3859H64.0043L63.977 74.8693H63.4784ZM63.9648 75.0973L63.9374 75.5654H63.5118L63.4906 75.0973H63.9648ZM62.6606 74.3859H63.2322L63.2534 74.8693H62.7488L62.6606 74.3859ZM62.7853 75.0973H63.2626L63.2838 75.5654H62.8674L62.7853 75.0973ZM64.5546 75.5654H64.1654L64.1928 75.0973H64.6488L64.5546 75.5654Z" fill="white"/>
<path d="M62.8767 76.0244C62.82 76.0238 62.7645 76.0401 62.7171 76.0711C62.6697 76.1021 62.6326 76.1465 62.6105 76.1987C62.5884 76.2509 62.5823 76.3084 62.593 76.3641C62.6037 76.4197 62.6307 76.4709 62.6705 76.5112C62.7104 76.5514 62.7613 76.5789 62.8168 76.5902C62.8723 76.6015 62.9299 76.596 62.9823 76.5745C63.0347 76.5529 63.0795 76.5163 63.111 76.4693C63.1426 76.4222 63.1594 76.3668 63.1594 76.3102C63.1594 76.2349 63.1297 76.1627 63.0768 76.1092C63.0239 76.0557 62.952 76.0252 62.8767 76.0244Z" fill="white"/>
<path d="M64.7702 76.0244C64.7136 76.0238 64.6581 76.0401 64.6107 76.0711C64.5633 76.1021 64.5262 76.1465 64.5041 76.1987C64.482 76.2509 64.4759 76.3084 64.4866 76.3641C64.4973 76.4197 64.5242 76.4709 64.5641 76.5112C64.6039 76.5514 64.6548 76.5789 64.7103 76.5902C64.7658 76.6015 64.8235 76.596 64.8758 76.5745C64.9282 76.5529 64.973 76.5163 65.0046 76.4693C65.0361 76.4222 65.053 76.3668 65.053 76.3102C65.053 76.2349 65.0233 76.1627 64.9703 76.1092C64.9174 76.0557 64.8455 76.0252 64.7702 76.0244Z" fill="white"/>
</g>
<path opacity="0.6" d="M72.7168 79.9946H37.2218C36.8558 79.9946 36.5591 80.2913 36.5591 80.6573V95.0305C36.5591 95.3965 36.8558 95.6932 37.2218 95.6932H72.7168C73.0829 95.6932 73.3796 95.3965 73.3796 95.0305V80.6573C73.3796 80.2913 73.0829 79.9946 72.7168 79.9946Z" fill="#E8505B"/>
<path d="M51.0446 81.5234H38.1763V93.349H51.0446V81.5234Z" fill="#E8505B"/>
<path opacity="0.6" d="M51.0446 81.5234H38.1763V93.349H51.0446V81.5234Z" fill="white"/>
<path opacity="0.3" d="M50.4215 82.147H38.833V92.6927H50.4215V82.147Z" fill="white"/>
<path opacity="0.3" d="M50.4215 90.4613V92.6927H38.836L38.833 87.5368L41.2255 85.4453L44.7732 88.9048L46.6519 87.5368L50.4215 90.4613Z" fill="white"/>
<g opacity="0.6">
<path d="M48.4911 85.4421C48.4911 85.6267 48.4363 85.8071 48.3338 85.9606C48.2312 86.1141 48.0855 86.2337 47.9149 86.3043C47.7444 86.375 47.5568 86.3934 47.3757 86.3574C47.1947 86.3214 47.0284 86.2325 46.8979 86.102C46.7673 85.9715 46.6785 85.8052 46.6424 85.6242C46.6064 85.4431 46.6249 85.2555 46.6956 85.0849C46.7662 84.9144 46.8858 84.7686 47.0393 84.6661C47.1928 84.5635 47.3732 84.5088 47.5578 84.5088C47.6805 84.5084 47.802 84.5323 47.9154 84.579C48.0288 84.6258 48.1319 84.6945 48.2186 84.7813C48.3054 84.868 48.3741 84.971 48.4209 85.0845C48.4676 85.1979 48.4915 85.3194 48.4911 85.4421Z" fill="white"/>
<path opacity="0.3" d="M48.4911 85.4421C48.4911 85.6267 48.4363 85.8071 48.3338 85.9606C48.2312 86.1141 48.0855 86.2337 47.9149 86.3043C47.7444 86.375 47.5568 86.3934 47.3757 86.3574C47.1947 86.3214 47.0284 86.2325 46.8979 86.102C46.7673 85.9715 46.6785 85.8052 46.6424 85.6242C46.6064 85.4431 46.6249 85.2555 46.6956 85.0849C46.7662 84.9144 46.8858 84.7686 47.0393 84.6661C47.1928 84.5635 47.3732 84.5088 47.5578 84.5088C47.6805 84.5084 47.802 84.5323 47.9154 84.579C48.0288 84.6258 48.1319 84.6945 48.2186 84.7813C48.3054 84.868 48.3741 84.971 48.4209 85.0845C48.4676 85.1979 48.4915 85.3194 48.4911 85.4421Z" fill="white"/>
</g>
<g opacity="0.3">
<path d="M65.986 82.5357H53.37C53.2676 82.5357 53.1694 82.4951 53.097 82.4227C53.0246 82.3502 52.9839 82.2521 52.9839 82.1497C52.9839 82.0991 52.9939 82.049 53.0133 82.0024C53.0328 81.9557 53.0613 81.9133 53.0971 81.8777C53.133 81.8421 53.1756 81.814 53.2225 81.7949C53.2693 81.7758 53.3194 81.7662 53.37 81.7666H65.986C66.0364 81.7662 66.0864 81.7758 66.133 81.7949C66.1797 81.8141 66.2221 81.8423 66.2577 81.8779C66.2934 81.9136 66.3216 81.9559 66.3407 82.0026C66.3598 82.0492 66.3694 82.0992 66.369 82.1497C66.3694 82.2002 66.3598 82.2503 66.3407 82.2972C66.3217 82.344 66.2935 82.3866 66.2579 82.4225C66.2223 82.4584 66.1799 82.4868 66.1333 82.5063C66.0866 82.5257 66.0365 82.5357 65.986 82.5357Z" fill="white"/>
<path d="M70.9138 84.8429H53.37C53.3194 84.8433 53.2693 84.8336 53.2225 84.8146C53.1756 84.7955 53.133 84.7674 53.0971 84.7317C53.0613 84.6961 53.0328 84.6538 53.0133 84.6071C52.9939 84.5604 52.9839 84.5104 52.9839 84.4598C52.9839 84.3574 53.0246 84.2592 53.097 84.1868C53.1694 84.1144 53.2676 84.0737 53.37 84.0737H70.9138C71.0162 84.0737 71.1144 84.1144 71.1868 84.1868C71.2592 84.2592 71.2999 84.3574 71.2999 84.4598C71.2999 84.5104 71.2899 84.5604 71.2704 84.6071C71.251 84.6538 71.2225 84.6961 71.1866 84.7317C71.1507 84.7674 71.1081 84.7955 71.0613 84.8146C71.0145 84.8336 70.9644 84.8433 70.9138 84.8429Z" fill="white"/>
<path d="M60.4471 87.1534H53.37C53.2676 87.1534 53.1694 87.1127 53.097 87.0403C53.0246 86.9679 52.9839 86.8697 52.9839 86.7673C52.9839 86.7168 52.9939 86.6667 53.0133 86.62C53.0328 86.5734 53.0613 86.531 53.0971 86.4954C53.133 86.4598 53.1756 86.4316 53.2225 86.4126C53.2693 86.3935 53.3194 86.3839 53.37 86.3843H60.4471C60.4975 86.3839 60.5475 86.3935 60.5941 86.4126C60.6408 86.4317 60.6832 86.4599 60.7188 86.4956C60.7545 86.5312 60.7827 86.5736 60.8018 86.6203C60.8209 86.6669 60.8305 86.7169 60.8301 86.7673C60.8305 86.8179 60.8209 86.868 60.8018 86.9148C60.7828 86.9617 60.7546 87.0043 60.719 87.0401C60.6834 87.076 60.6411 87.1045 60.5944 87.124C60.5477 87.1434 60.4976 87.1534 60.4471 87.1534Z" fill="white"/>
</g>
<path d="M53.1359 91.0785C53.4764 90.5252 54.13 90.738 54.4644 91.1667C54.8018 90.735 55.4524 90.5222 55.7959 91.0755C56.3705 92.0088 55.1879 92.8752 54.6286 93.2035L54.4705 93.3008L54.3094 93.2035C53.75 92.8782 52.5614 92.0148 53.1359 91.0785Z" fill="white"/>
<g opacity="0.6">
<path d="M58.4199 91.2241H60.3108L60.2226 93.3126H58.5111L58.4199 91.2241Z" fill="white"/>
<path d="M59.7209 90.7346L59.6327 90.5522H59.1007L59.0095 90.7346L58.2495 90.8228V91.0295H60.4839V90.8228L59.7209 90.7346Z" fill="white"/>
</g>
<g opacity="0.6">
<path d="M65.4696 90.6283H64.9832C64.9567 90.6279 64.9309 90.6367 64.9103 90.6534C64.8898 90.6701 64.8757 90.6935 64.8707 90.7195L64.8373 90.8776H62.4904H62.4691H62.4509L62.4357 90.8928V90.9111V90.9293C62.4342 90.9373 62.4342 90.9456 62.4357 90.9536L62.685 92.3611C62.6899 92.3874 62.7038 92.4112 62.7243 92.4284C62.7448 92.4456 62.7707 92.4551 62.7974 92.4554H64.6701C64.6966 92.4559 64.7224 92.447 64.743 92.4303C64.7635 92.4136 64.7776 92.3902 64.7826 92.3642L65.0653 90.984C65.0681 90.9679 65.0681 90.9515 65.0653 90.9354L65.0896 90.8047H65.4848C65.5118 90.8002 65.5364 90.7863 65.5542 90.7654C65.5719 90.7446 65.5816 90.7181 65.5816 90.6907C65.5816 90.6633 65.5719 90.6367 65.5542 90.6159C65.5364 90.595 65.5118 90.5811 65.4848 90.5767L65.4696 90.6283ZM64.6944 91.589H64.2019L64.2293 91.1056H64.7917L64.6944 91.589ZM63.4784 91.589L63.4571 91.1056H64.0043L63.977 91.589H63.4784ZM63.9648 91.817L63.9374 92.2851H63.5118L63.4906 91.817H63.9648ZM62.6606 91.1056H63.2322L63.2534 91.589H62.7488L62.6606 91.1056ZM62.7853 91.817H63.2626L63.2838 92.2851H62.8674L62.7853 91.817ZM64.5546 92.2851H64.1654L64.1928 91.817H64.6488L64.5546 92.2851Z" fill="white"/>
<path d="M62.8767 92.7442C62.82 92.7436 62.7645 92.7598 62.7171 92.7908C62.6697 92.8219 62.6326 92.8663 62.6105 92.9184C62.5884 92.9706 62.5823 93.0282 62.593 93.0838C62.6037 93.1394 62.6307 93.1906 62.6705 93.2309C62.7104 93.2712 62.7613 93.2987 62.8168 93.3099C62.8723 93.3212 62.9299 93.3157 62.9823 93.2942C63.0347 93.2727 63.0795 93.2361 63.111 93.189C63.1426 93.1419 63.1594 93.0866 63.1594 93.0299C63.1594 92.9547 63.1297 92.8824 63.0768 92.8289C63.0239 92.7754 62.952 92.745 62.8767 92.7442Z" fill="white"/>
<path d="M64.7702 92.7442C64.7136 92.7436 64.6581 92.7598 64.6107 92.7908C64.5633 92.8219 64.5262 92.8663 64.5041 92.9184C64.482 92.9706 64.4759 93.0282 64.4866 93.0838C64.4973 93.1394 64.5242 93.1906 64.5641 93.2309C64.6039 93.2712 64.6548 93.2987 64.7103 93.3099C64.7658 93.3212 64.8235 93.3157 64.8758 93.2942C64.9282 93.2727 64.973 93.2361 65.0046 93.189C65.0361 93.1419 65.053 93.0866 65.053 93.0299C65.053 92.9547 65.0233 92.8824 64.9703 92.8289C64.9174 92.7754 64.8455 92.745 64.7702 92.7442Z" fill="white"/>
</g>
<path opacity="0.6" d="M72.7168 46.5547H37.2218C36.8558 46.5547 36.5591 46.8514 36.5591 47.2174V61.5905C36.5591 61.9565 36.8558 62.2532 37.2218 62.2532H72.7168C73.0829 62.2532 73.3796 61.9565 73.3796 61.5905V47.2174C73.3796 46.8514 73.0829 46.5547 72.7168 46.5547Z" fill="#E8505B"/>
<path d="M51.0446 48.0835H38.1763V59.9091H51.0446V48.0835Z" fill="#E8505B"/>
<path opacity="0.6" d="M51.0446 48.0835H38.1763V59.9091H51.0446V48.0835Z" fill="white"/>
<path opacity="0.3" d="M50.4215 48.7065H38.833V59.2523H50.4215V48.7065Z" fill="white"/>
<path opacity="0.3" d="M50.4215 57.0214V59.2527H38.836L38.833 54.0969L41.2255 52.0054L44.7732 55.4649L46.6519 54.0969L50.4215 57.0214Z" fill="white"/>
<g opacity="0.6">
<path d="M48.4911 52.0021C48.4911 52.1867 48.4363 52.3672 48.3338 52.5206C48.2312 52.6741 48.0855 52.7937 47.9149 52.8644C47.7444 52.935 47.5568 52.9535 47.3757 52.9175C47.1947 52.8815 47.0284 52.7926 46.8979 52.6621C46.7673 52.5315 46.6785 52.3652 46.6424 52.1842C46.6064 52.0032 46.6249 51.8155 46.6956 51.645C46.7662 51.4744 46.8858 51.3287 47.0393 51.2261C47.1928 51.1236 47.3732 51.0689 47.5578 51.0689C47.6805 51.0685 47.802 51.0923 47.9154 51.1391C48.0288 51.1858 48.1319 51.2546 48.2186 51.3413C48.3054 51.428 48.3741 51.5311 48.4209 51.6445C48.4676 51.7579 48.4915 51.8795 48.4911 52.0021Z" fill="white"/>
<path opacity="0.3" d="M48.4911 52.0021C48.4911 52.1867 48.4363 52.3672 48.3338 52.5206C48.2312 52.6741 48.0855 52.7937 47.9149 52.8644C47.7444 52.935 47.5568 52.9535 47.3757 52.9175C47.1947 52.8815 47.0284 52.7926 46.8979 52.6621C46.7673 52.5315 46.6785 52.3652 46.6424 52.1842C46.6064 52.0032 46.6249 51.8155 46.6956 51.645C46.7662 51.4744 46.8858 51.3287 47.0393 51.2261C47.1928 51.1236 47.3732 51.0689 47.5578 51.0689C47.6805 51.0685 47.802 51.0923 47.9154 51.1391C48.0288 51.1858 48.1319 51.2546 48.2186 51.3413C48.3054 51.428 48.3741 51.5311 48.4209 51.6445C48.4676 51.7579 48.4915 51.8795 48.4911 52.0021Z" fill="white"/>
</g>
<g opacity="0.3">
<path d="M65.986 49.0958H53.37C53.3193 49.0958 53.2691 49.0858 53.2222 49.0664C53.1754 49.047 53.1328 49.0186 53.097 48.9827C53.0611 48.9469 53.0327 48.9043 53.0133 48.8575C52.9939 48.8106 52.9839 48.7604 52.9839 48.7097C52.9839 48.6592 52.9939 48.6091 53.0133 48.5624C53.0328 48.5158 53.0613 48.4734 53.0971 48.4378C53.133 48.4022 53.1756 48.374 53.2225 48.3549C53.2693 48.3359 53.3194 48.3263 53.37 48.3267H65.986C66.0364 48.3263 66.0864 48.3359 66.133 48.355C66.1797 48.3741 66.2221 48.4023 66.2577 48.438C66.2934 48.4736 66.3216 48.516 66.3407 48.5627C66.3598 48.6093 66.3694 48.6593 66.369 48.7097C66.3694 48.7603 66.3598 48.8104 66.3407 48.8572C66.3217 48.9041 66.2935 48.9466 66.2579 48.9825C66.2223 49.0184 66.1799 49.0469 66.1333 49.0663C66.0866 49.0858 66.0365 49.0958 65.986 49.0958Z" fill="white"/>
<path d="M70.9138 51.4034H53.37C53.3194 51.4038 53.2693 51.3942 53.2225 51.3751C53.1756 51.356 53.133 51.3279 53.0971 51.2923C53.0613 51.2567 53.0328 51.2143 53.0133 51.1676C52.9939 51.121 52.9839 51.0709 52.9839 51.0204C52.9839 50.918 53.0246 50.8198 53.097 50.7474C53.1694 50.675 53.2676 50.6343 53.37 50.6343H70.9138C71.0162 50.6343 71.1144 50.675 71.1868 50.7474C71.2592 50.8198 71.2999 50.918 71.2999 51.0204C71.2999 51.0709 71.2899 51.121 71.2704 51.1676C71.251 51.2143 71.2225 51.2567 71.1866 51.2923C71.1507 51.3279 71.1081 51.356 71.0613 51.3751C71.0145 51.3942 70.9644 51.4038 70.9138 51.4034Z" fill="white"/>
<path d="M60.4471 53.7135H53.37C53.2676 53.7135 53.1694 53.6728 53.097 53.6004C53.0246 53.528 52.9839 53.4298 52.9839 53.3274C52.9839 53.2768 52.9939 53.2268 53.0133 53.1801C53.0328 53.1334 53.0613 53.0911 53.0971 53.0555C53.133 53.0198 53.1756 52.9917 53.2225 52.9726C53.2693 52.9536 53.3194 52.9439 53.37 52.9443H60.4471C60.4975 52.9439 60.5475 52.9536 60.5941 52.9727C60.6408 52.9918 60.6832 53.02 60.7188 53.0556C60.7545 53.0913 60.7827 53.1337 60.8018 53.1803C60.8209 53.227 60.8305 53.277 60.8301 53.3274C60.8305 53.3779 60.8209 53.4281 60.8018 53.4749C60.7828 53.5217 60.7546 53.5643 60.719 53.6002C60.6834 53.6361 60.6411 53.6646 60.5944 53.684C60.5477 53.7035 60.4976 53.7135 60.4471 53.7135Z" fill="white"/>
</g>
<path d="M53.1359 57.6381C53.4764 57.0848 54.13 57.2976 54.4644 57.7263C54.8018 57.2946 55.4524 57.0818 55.7959 57.6351C56.3705 58.5683 55.1879 59.4347 54.6286 59.7631L54.4705 59.8603L54.3094 59.7631C53.75 59.4378 52.5614 58.5744 53.1359 57.6381Z" fill="white"/>
<g opacity="0.6">
<path d="M58.4199 57.7871H60.3108L60.2226 59.8725H58.5111L58.4199 57.7871Z" fill="white"/>
<path d="M59.7209 57.2947L59.6327 57.1123H59.1007L59.0095 57.2947L58.2495 57.3829V57.5896H60.4839V57.3829L59.7209 57.2947Z" fill="white"/>
</g>
<g opacity="0.6">
<path d="M65.4696 57.1884H64.9832C64.9567 57.1879 64.9309 57.1968 64.9103 57.2135C64.8898 57.2302 64.8757 57.2536 64.8707 57.2796L64.8373 57.4377H62.4904H62.4691H62.4509C62.4509 57.4377 62.4509 57.4377 62.4357 57.4529V57.4711V57.4894C62.4342 57.4974 62.4342 57.5056 62.4357 57.5137L62.685 58.9212C62.6899 58.9475 62.7038 58.9713 62.7243 58.9885C62.7448 59.0057 62.7707 59.0152 62.7974 59.0154H64.6701C64.6966 59.0159 64.7224 59.007 64.743 58.9903C64.7635 58.9737 64.7776 58.9503 64.7826 58.9242L65.0653 57.5441C65.0681 57.528 65.0681 57.5115 65.0653 57.4954L65.0896 57.3647H65.4848C65.5118 57.3603 65.5364 57.3464 65.5542 57.3255C65.5719 57.3046 65.5816 57.2781 65.5816 57.2507C65.5816 57.2233 65.5719 57.1968 65.5542 57.1759C65.5364 57.155 65.5118 57.1411 65.4848 57.1367L65.4696 57.1884ZM64.6944 58.149H64.2019L64.2293 57.6657H64.7917L64.6944 58.149ZM63.4784 58.149L63.4571 57.6657H64.0043L63.977 58.149H63.4784ZM63.9648 58.377L63.9374 58.8452H63.5118L63.4906 58.377H63.9648ZM62.6606 57.6657H63.2322L63.2534 58.149H62.7488L62.6606 57.6657ZM62.7853 58.377H63.2626L63.2838 58.8452H62.8674L62.7853 58.377ZM64.5546 58.8452H64.1654L64.1928 58.377H64.6488L64.5546 58.8452Z" fill="white"/>
<path d="M62.8767 59.3042C62.82 59.3036 62.7645 59.3199 62.7171 59.3509C62.6697 59.3819 62.6326 59.4263 62.6105 59.4785C62.5884 59.5307 62.5823 59.5882 62.593 59.6438C62.6037 59.6995 62.6307 59.7507 62.6705 59.7909C62.7104 59.8312 62.7613 59.8587 62.8168 59.87C62.8723 59.8813 62.9299 59.8758 62.9823 59.8543C63.0347 59.8327 63.0795 59.7961 63.111 59.749C63.1426 59.702 63.1594 59.6466 63.1594 59.59C63.1594 59.5147 63.1297 59.4425 63.0768 59.389C63.0239 59.3355 62.952 59.305 62.8767 59.3042Z" fill="white"/>
<path d="M64.7702 59.3042C64.7136 59.3036 64.6581 59.3199 64.6107 59.3509C64.5633 59.3819 64.5262 59.4263 64.5041 59.4785C64.482 59.5307 64.4759 59.5882 64.4866 59.6438C64.4973 59.6995 64.5242 59.7507 64.5641 59.7909C64.6039 59.8312 64.6548 59.8587 64.7103 59.87C64.7658 59.8813 64.8235 59.8758 64.8758 59.8543C64.9282 59.8327 64.973 59.7961 65.0046 59.749C65.0361 59.702 65.053 59.6466 65.053 59.59C65.053 59.5147 65.0233 59.4425 64.9703 59.389C64.9174 59.3355 64.8455 59.305 64.7702 59.3042Z" fill="white"/>
</g>
<path d="M100.977 71.7806L98.4537 74.0485C98.4537 74.0485 99.4295 74.8176 99.694 75.0882C99.9585 75.3587 98.5418 76.2494 98.1223 76.0002C97.7028 75.7509 97.0705 74.6382 96.8303 74.1762C96.5901 73.7141 97.7423 72.9754 97.7423 72.9754L99.7821 70.9902L100.977 71.7806Z" fill="#B97964"/>
<path d="M105.157 66.8801C105.069 68.7041 100.433 72.5497 100.433 72.5497L98.9735 71.5921C98.9735 71.5921 102.685 67.6675 102.202 66.4819C102.032 66.0654 101.442 65.5395 100.752 65.0379C99.8256 64.3873 98.86 63.7944 97.8608 63.2625L98.9279 60.639L99.77 58.5718C101.339 59.2132 105.248 65.0743 105.157 66.8801Z" fill="#E8505B"/>
<path opacity="0.2" d="M100.752 65.0561C99.8256 64.4056 98.86 63.8126 97.8608 63.2807L98.9279 60.6572C99.7973 61.554 101.138 63.2868 100.752 65.0561Z" fill="black"/>
<path d="M75.6535 60.0218L70.4187 57.8938C70.4187 57.8938 70.0113 57.2158 69.6617 57.1277C69.3121 57.0395 67.1537 57.1733 66.9895 57.4317C66.8254 57.6901 67.1628 59.3256 67.5975 59.4624C68.0323 59.5992 69.8867 59.2192 70.0478 59.1158L74.7263 61.5083L75.6535 60.0218Z" fill="#B97964"/>
<path d="M105.534 124.819L103.625 125.157L102.843 122.554L102.129 120.168L104.33 119.399L104.968 122.269L105.534 124.819Z" fill="#B97964"/>
<path opacity="0.2" d="M104.977 122.327L102.852 122.606L102.132 120.192L104.33 119.411L104.977 122.327Z" fill="black"/>
<path d="M92.793 124.868H90.8565L90.5373 122.269L90.2485 119.84L92.5498 119.49L92.6805 122.342L92.793 124.868Z" fill="#B97964"/>
<path opacity="0.2" d="M92.6805 122.515L90.5373 122.421L90.2485 119.916L92.5498 119.53L92.6805 122.515Z" fill="black"/>
<path d="M105.157 120.241L102.019 120.794C98.8546 112.89 96.602 106.321 95.0273 100.858C94.17 97.9093 93.4921 95.2888 92.9783 92.9541L93.1121 101.539V120.907H89.9322C82.1833 84.1229 87.6766 75.5714 87.6766 75.5714L96.9455 74.021C97.3128 75.739 97.5727 77.4782 97.7238 79.2285L98.1402 82.302L101.764 101.019L105.157 120.241Z" fill="#263238"/>
<path d="M101.53 120.405L105.421 119.116L105.366 120.77L102.15 121.797L101.53 120.405Z" fill="#E8505B"/>
<path opacity="0.6" d="M101.53 120.405L105.421 119.116L105.366 120.77L102.15 121.797L101.53 120.405Z" fill="white"/>
<path d="M89.5161 120.585L93.5745 119.992L93.234 121.612L89.887 122.065L89.5161 120.585Z" fill="#E8505B"/>
<path opacity="0.6" d="M89.5161 120.585L93.5745 119.992L93.234 121.612L89.887 122.065L89.5161 120.585Z" fill="white"/>
<path opacity="0.2" d="M95.4559 102.302C95.307 101.812 95.1519 101.332 95.0151 100.858C94.2399 98.1827 93.7201 95.775 93.1121 93.6166L92.8081 89.6403C92.8081 89.6403 94.7902 85.2718 94.0484 82.1953C94.1153 82.3716 95.4286 85.7217 94.9148 89.0657C94.7946 93.4849 94.9754 97.9072 95.4559 102.302Z" fill="#263238"/>
<path d="M95.0852 55.4706C95.0652 55.4942 95.0428 55.5156 95.0183 55.5344C94.6995 55.8498 94.3213 56.0988 93.9056 56.2671C92.6896 56.72 91.805 56.6562 91.1696 56.1607C90.2759 55.4098 89.8868 53.9232 89.7621 52.0871C89.689 51.3583 89.7321 50.6226 89.8898 49.9074C89.8883 49.8973 89.8883 49.8871 89.8898 49.877C89.8898 49.8527 89.8898 49.8192 89.9111 49.7949C90.0152 49.3899 90.2191 49.0174 90.5043 48.7115C90.7895 48.4056 91.1468 48.176 91.5436 48.0439C91.8868 47.9187 92.2425 47.831 92.6045 47.7824C96.1522 47.29 97.5476 53.0933 95.0852 55.4706Z" fill="#B97964"/>
<path opacity="0.2" d="M95.0184 55.5346C94.6934 55.8345 94.3121 56.067 93.8966 56.2186C92.6806 56.6685 91.793 56.5652 91.1606 56.0605C91.9353 56.151 92.7183 55.9844 93.389 55.5863C93.639 55.4552 93.9156 55.3824 94.1978 55.3735C94.48 55.3645 94.7605 55.4196 95.0184 55.5346Z" fill="black"/>
<path d="M96.0123 58.2797C96.5747 59.1583 95.4803 60.0064 95.4803 60.0064C93.1334 59.8939 92.3582 58.9546 92.3582 58.9546C93.7232 57.4346 92.3096 55.1363 92.3096 55.1363L92.7169 55.1759L95.304 54.7563C95.304 54.7563 95.1125 56.2763 95.1307 56.6138C95.2432 58.3223 96.0123 58.2797 96.0123 58.2797Z" fill="#B97964"/>
<path d="M89.8838 49.8864C89.8838 49.8864 90.0084 52.4005 92.5043 53.1696C92.5043 53.1696 93.851 55.6259 95.3467 55.4709C97.3895 55.2611 98.8092 52.1269 97.727 49.2784C96.3255 45.5726 90.4918 46.0043 89.8838 49.8864Z" fill="#263238"/>
<path d="M91.2183 52.6073C91.1696 52.2182 91.3976 51.5251 92.0147 51.5373C92.6319 51.5494 93.1943 53.0573 91.7107 53.5862C91.504 53.6653 91.3216 53.419 91.2183 52.6073Z" fill="#B97964"/>
<path d="M90.6499 124.5H92.8144C92.859 124.501 92.9021 124.516 92.9368 124.545C92.9715 124.573 92.9958 124.611 93.0059 124.655L93.4498 126.661C93.4586 126.704 93.459 126.748 93.4508 126.791C93.4426 126.834 93.426 126.875 93.402 126.911C93.378 126.948 93.347 126.979 93.3109 127.003C93.2747 127.028 93.2341 127.045 93.1914 127.053C93.1671 127.057 93.1426 127.057 93.1184 127.053C92.2338 127.038 92.1638 126.984 91.0512 126.984C90.3672 126.984 88.3 127.057 87.3546 127.057C86.4091 127.057 86.2875 126.123 86.6736 126.035C88.4094 125.658 89.7136 125.123 90.273 124.634C90.3769 124.543 90.5118 124.495 90.6499 124.5Z" fill="#263238"/>
<path d="M89.9052 124.895C89.7528 124.907 89.6007 124.868 89.4735 124.783C89.428 124.748 89.3933 124.701 89.3734 124.647C89.3535 124.593 89.3492 124.535 89.361 124.479C89.3607 124.448 89.369 124.418 89.3852 124.391C89.4013 124.365 89.4246 124.344 89.4522 124.33C89.7015 124.202 90.4311 124.649 90.5102 124.701C90.5195 124.705 90.527 124.713 90.5314 124.722C90.5358 124.732 90.5369 124.742 90.5345 124.753C90.5335 124.763 90.5292 124.774 90.5221 124.782C90.515 124.79 90.5055 124.796 90.495 124.798C90.3025 124.852 90.1047 124.885 89.9052 124.895ZM89.5708 124.43C89.5479 124.424 89.5238 124.424 89.5009 124.43C89.5009 124.43 89.4705 124.452 89.4674 124.494C89.4632 124.529 89.4673 124.565 89.4795 124.598C89.4916 124.632 89.5114 124.661 89.5374 124.686C89.7898 124.801 90.0767 124.816 90.3399 124.728C90.1052 124.58 89.844 124.479 89.5708 124.43Z" fill="#E8505B"/>
<path d="M90.4828 124.816H90.4555C90.2244 124.692 89.7745 124.193 89.8201 123.956C89.8279 123.917 89.8491 123.881 89.8801 123.856C89.9112 123.83 89.9502 123.816 89.9904 123.816C90.0311 123.812 90.0723 123.816 90.1115 123.828C90.1507 123.84 90.187 123.86 90.2184 123.886C90.4798 124.096 90.5224 124.743 90.5224 124.777C90.5229 124.786 90.5209 124.796 90.5167 124.804C90.5124 124.813 90.506 124.82 90.498 124.825C90.4924 124.823 90.4872 124.82 90.4828 124.816ZM90.0299 123.904H90.0025C89.9356 123.904 89.9296 123.947 89.9265 123.959C89.8961 124.105 90.1849 124.482 90.416 124.655C90.3999 124.399 90.3066 124.153 90.1484 123.95C90.1157 123.921 90.0738 123.903 90.0299 123.901V123.904Z" fill="#E8505B"/>
<path d="M103.552 124.5H105.713C105.758 124.5 105.802 124.515 105.837 124.543C105.871 124.572 105.895 124.611 105.905 124.655L106.348 126.661C106.358 126.704 106.359 126.748 106.351 126.791C106.343 126.834 106.327 126.874 106.303 126.911C106.279 126.947 106.248 126.979 106.212 127.003C106.176 127.028 106.136 127.045 106.093 127.054H106.02C105.135 127.038 105.063 126.984 103.953 126.984C103.266 126.984 101.202 127.057 100.256 127.057C99.3109 127.057 99.1862 126.123 99.5753 126.035C101.311 125.658 102.615 125.123 103.172 124.634C103.277 124.542 103.413 124.495 103.552 124.5Z" fill="#263238"/>
<path d="M102.807 124.895C102.653 124.908 102.5 124.868 102.372 124.783C102.329 124.746 102.296 124.699 102.276 124.646C102.257 124.592 102.252 124.535 102.263 124.479C102.262 124.448 102.27 124.417 102.286 124.391C102.302 124.365 102.326 124.343 102.354 124.33C102.603 124.202 103.33 124.649 103.412 124.701C103.421 124.706 103.428 124.713 103.432 124.723C103.437 124.732 103.438 124.742 103.436 124.753C103.435 124.763 103.43 124.773 103.423 124.781C103.416 124.789 103.407 124.795 103.396 124.798C103.204 124.852 103.006 124.884 102.807 124.895ZM102.469 124.43C102.447 124.424 102.424 124.424 102.402 124.43C102.387 124.43 102.369 124.452 102.369 124.494C102.364 124.529 102.368 124.565 102.38 124.599C102.392 124.632 102.412 124.662 102.439 124.686C102.691 124.801 102.978 124.816 103.241 124.728C103.006 124.579 102.744 124.478 102.469 124.43Z" fill="#E8505B"/>
<path d="M103.381 124.816H103.36C103.126 124.691 102.676 124.193 102.721 123.956C102.73 123.916 102.752 123.881 102.784 123.856C102.815 123.83 102.854 123.816 102.895 123.816C102.935 123.812 102.976 123.816 103.014 123.828C103.053 123.84 103.089 123.86 103.12 123.886C103.381 124.096 103.424 124.743 103.439 124.777C103.439 124.786 103.436 124.795 103.432 124.804C103.428 124.812 103.422 124.819 103.415 124.825C103.403 124.826 103.391 124.823 103.381 124.816ZM102.928 123.904H102.904C102.834 123.904 102.828 123.947 102.825 123.959C102.797 124.105 103.083 124.482 103.314 124.655C103.301 124.398 103.208 124.152 103.05 123.95C103.016 123.92 102.973 123.903 102.928 123.901V123.904Z" fill="#E8505B"/>
<path d="M87.6767 75.614C87.6767 75.614 86.4607 63.7823 89.5007 58.9518C89.5007 58.9518 93.7567 57.4743 99.7698 58.5839C99.7698 58.5839 97.5233 66.8923 97.2618 75.6079L87.6767 75.614Z" fill="#263238"/>
<path d="M98.955 73.4402L88.923 73.7047C88.2392 71.9962 87.816 70.1946 87.6675 68.3604C87.5497 66.9935 87.5324 65.6197 87.6158 64.2503C87.6951 62.7164 87.8985 61.1914 88.2238 59.6903C90.7865 56.8661 99.7515 58.5746 99.7515 58.5746C98.4047 64.992 98.955 73.4402 98.955 73.4402Z" fill="#E8505B"/>
<path d="M90.2883 48.1079C90.2245 47.9407 89.3125 48.795 89.2699 48.8588C89.0733 49.134 88.958 49.4589 88.9371 49.7964C88.9161 50.1339 88.9904 50.4705 89.1513 50.7679C89.507 51.3759 90.2457 51.7985 90.3096 52.5007C90.3369 52.823 90.2092 53.1391 90.2092 53.4644C90.2296 53.8932 90.4134 54.2979 90.723 54.5953C91.3158 55.2033 92.2886 55.4617 92.3494 56.4466C92.3407 56.8787 92.3092 57.3099 92.2552 57.7386C92.2303 57.9542 92.2567 58.1725 92.3323 58.3759C92.4078 58.5793 92.5304 58.762 92.6899 58.909C92.9602 59.0576 93.2497 59.1681 93.5502 59.2374C93.839 59.3438 94.1309 59.5809 94.1187 59.8879C94.0737 60.0825 94.0064 60.2712 93.9181 60.4503C93.8842 60.629 93.9033 60.8136 93.973 60.9816C94.0426 61.1496 94.1599 61.2935 94.3102 61.3958C94.8969 61.8457 95.8545 61.797 96.3257 62.4202C96.4072 62.5075 96.4685 62.6116 96.5054 62.7251C96.5424 62.8386 96.554 62.9589 96.5395 63.0774C96.525 63.1958 96.4848 63.3097 96.4216 63.411C96.3584 63.5123 96.2738 63.5985 96.1737 63.6636C96.1737 63.6636 97.3046 63.7426 97.5053 62.6604C97.5931 62.9318 97.5705 63.2268 97.4425 63.4816C97.3145 63.7365 97.0913 63.9307 96.8213 64.0223C96.8213 64.0223 97.8974 64.1834 98.1011 62.8215C98.1937 63.0096 98.3482 63.16 98.5387 63.2474C98.7291 63.3349 98.9439 63.3541 99.1469 63.3018C99.1469 63.3018 98.3139 63.0161 98.9523 62.1162C99.3171 61.6025 99.7974 61.0766 99.8643 60.423C99.9494 59.6934 99.3475 59.137 99.4509 58.4044C99.5451 57.7174 100.199 57.2218 100.363 56.547C100.45 56.1135 100.371 55.663 100.141 55.2854C99.7913 54.6774 99.0952 54.3734 99.0952 53.6012C99.0952 52.9932 99.3414 52.4034 99.4721 51.8046C99.5898 51.3878 99.5553 50.9427 99.3749 50.549C99.1806 50.2595 98.9379 50.0055 98.6574 49.7982C97.8397 49.0655 98.2622 47.9164 97.5265 47.1108C97.3563 46.9209 97.1447 46.7727 96.908 46.6778C96.6712 46.5829 96.4158 46.5438 96.1616 46.5636C95.8683 46.6214 95.5789 46.6975 95.2952 46.7916C94.6872 46.9406 94.3224 46.6366 93.8573 46.3204C93.1033 45.8097 92.015 45.5695 91.1669 45.9951C90.7909 46.1829 90.4952 46.4998 90.3338 46.8878C90.1725 47.2758 90.1563 47.709 90.2883 48.1079Z" fill="#263238"/>
<path d="M91.7471 55.55C91.5173 55.5641 91.287 55.5309 91.0705 55.4524C90.8541 55.374 90.656 55.252 90.4885 55.094C90.0933 54.6836 90.0447 54.1151 90.0477 53.574V53.4281C90.0477 52.8657 90.0477 52.3823 89.7437 51.9081C89.6464 51.7591 89.5309 51.6041 89.4215 51.4764C89.1972 51.2208 89.0128 50.9328 88.8743 50.6222C88.7987 50.4332 88.763 50.2306 88.7693 50.0271C88.7755 49.8236 88.8237 49.6236 88.9108 49.4396C89.3364 48.5276 90.5098 48.0807 90.8594 47.9652C90.8771 47.9588 90.8967 47.9596 90.9138 47.9676C90.9309 47.9756 90.9442 47.99 90.9506 48.0078C90.9571 48.0255 90.9562 48.0451 90.9482 48.0622C90.9402 48.0793 90.9258 48.0925 90.908 48.099C90.2119 48.3331 89.3576 48.8255 89.0415 49.5004C88.9616 49.6666 88.9174 49.8476 88.9116 50.0319C88.9059 50.2162 88.9387 50.3997 89.008 50.5705C89.1404 50.8675 89.3178 51.1423 89.534 51.3852C89.6464 51.5281 89.762 51.674 89.8623 51.8291C90.1967 52.3367 90.1906 52.8657 90.1845 53.4251V53.571C90.1845 54.0939 90.2271 54.6319 90.5858 55.0028C91.0874 55.5196 91.89 55.4497 92.5344 55.3311C92.5527 55.3291 92.571 55.334 92.5858 55.3449C92.6006 55.3558 92.6107 55.3719 92.6142 55.3899C92.6177 55.408 92.6142 55.4266 92.6045 55.4422C92.5948 55.4578 92.5795 55.4692 92.5618 55.474C92.2929 55.5226 92.0203 55.548 91.7471 55.55Z" fill="#263238"/>
<path d="M99.0067 62.6726C98.9954 62.6724 98.9843 62.6695 98.9743 62.6642C98.9642 62.659 98.9556 62.6514 98.949 62.6422C98.6875 62.2652 99.253 61.6238 99.6482 61.1982C99.7317 61.111 99.8109 61.0197 99.8853 60.9246C100.061 60.7174 100.164 60.4586 100.178 60.1875C100.193 59.9164 100.119 59.648 99.9674 59.4229L99.861 59.2739C99.6178 58.9334 99.3411 58.5443 99.557 58.0761C99.6514 57.8912 99.7711 57.7204 99.9126 57.5684C100.04 57.4357 100.148 57.2864 100.235 57.1246C100.377 56.8484 100.404 56.5275 100.312 56.2312C100.219 55.9348 100.013 55.6869 99.7394 55.5408C99.731 55.5363 99.7237 55.5303 99.7178 55.5229C99.7118 55.5155 99.7075 55.5071 99.7049 55.498C99.7023 55.4889 99.7017 55.4794 99.7029 55.47C99.7041 55.4606 99.7072 55.4516 99.712 55.4435C99.7226 55.4276 99.7386 55.416 99.757 55.411C99.7755 55.406 99.7951 55.4078 99.8123 55.4161C100.115 55.583 100.342 55.8609 100.445 56.1913C100.547 56.5218 100.518 56.8792 100.363 57.1884C100.269 57.3602 100.155 57.5196 100.022 57.6627C99.8889 57.8032 99.7764 57.9618 99.6877 58.1339C99.5114 58.5291 99.7424 58.8513 99.9917 59.1918L100.098 59.3438C100.267 59.5925 100.35 59.8894 100.335 60.1895C100.319 60.4897 100.206 60.7766 100.013 61.0067C99.9365 61.1076 99.8543 61.2041 99.7667 61.2955C99.4354 61.6603 98.8821 62.2774 99.0766 62.5601C99.0876 62.5756 99.0922 62.5946 99.0893 62.6134C99.0865 62.6321 99.0765 62.649 99.0614 62.6604C99.0454 62.6713 99.0258 62.6757 99.0067 62.6726Z" fill="#263238"/>
<path opacity="0.2" d="M87.6767 68.3603C87.5589 66.9933 87.5417 65.6196 87.6251 64.2502C88.7407 63.3199 89.6071 62.6572 89.6071 62.6572C89.6071 62.6572 89.9324 66.1502 87.6767 68.3603Z" fill="black"/>
<path d="M90.0659 58.6719C90.0659 58.6719 90.8746 62.7485 87.5974 64.7944C87.5974 64.7944 79.7573 64.7732 78.2677 64.2868C76.7781 63.8004 72.2363 60.812 72.2363 60.812L73.3824 58.8208C73.3824 58.8208 77.7661 60.3743 79.0885 60.812C80.4109 61.2498 90.0659 58.6719 90.0659 58.6719Z" fill="#E8505B"/>
<path d="M100.3 41.4512L109.675 41.4381C110.295 41.4372 110.796 40.9343 110.795 40.3148L110.782 30.9394C110.781 30.3199 110.278 29.8184 109.659 29.8192L100.284 29.8323C99.664 29.8332 99.1625 30.3361 99.1634 30.9556L99.1764 40.331C99.1773 40.9505 99.6802 41.452 100.3 41.4512Z" fill="#E8505B"/>
<path d="M106.233 40.8573C106.233 40.8573 104.713 44.3411 101.29 45.4173C101.29 45.4173 103.177 44.332 103.038 40.6992L106.233 40.8573Z" fill="#E8505B"/>
<g opacity="0.7">
<path d="M106.032 33.914C106.032 33.3394 105.558 32.9442 104.749 32.9442C104.444 32.9253 104.139 32.9798 103.859 33.103C103.579 33.2263 103.333 33.4147 103.141 33.6525L102.484 33.1874C102.98 32.549 103.761 32.1812 104.81 32.1812C106.105 32.1812 106.938 32.7892 106.938 33.7802C106.938 35.2789 105.348 35.3792 105.348 36.5557H104.436C104.451 35.1452 106.032 34.9597 106.032 33.914ZM104.327 38.021C104.328 37.9065 104.363 37.795 104.427 37.7004C104.492 37.6058 104.583 37.5323 104.689 37.4892C104.795 37.4461 104.911 37.4353 105.023 37.4581C105.135 37.481 105.238 37.5364 105.319 37.6176C105.4 37.6987 105.455 37.8019 105.477 37.9142C105.499 38.0264 105.488 38.1428 105.444 38.2486C105.4 38.3544 105.326 38.4449 105.231 38.5088C105.136 38.5727 105.025 38.6071 104.91 38.6077C104.833 38.6094 104.756 38.5953 104.684 38.5664C104.612 38.5375 104.547 38.4943 104.493 38.4394C104.438 38.3845 104.395 38.3192 104.367 38.2472C104.338 38.1753 104.325 38.0983 104.327 38.021Z" fill="white"/>
</g>
</svg>
