<svg width="227" height="200" viewBox="0 0 227 200" fill="none" xmlns="http://www.w3.org/2000/svg">
<g clip-path="url(#clip0_554_1214)">
<path d="M175.392 128.123C175.2 127.792 175.083 127.422 175.049 127.041C175.016 126.659 175.066 126.275 175.197 125.915C175.327 125.555 175.536 125.228 175.806 124.958C176.077 124.687 176.404 124.479 176.764 124.348L176.629 115.04L180.706 117.644L180.209 126.084C180.389 126.703 180.335 127.367 180.058 127.949C179.781 128.532 179.3 128.992 178.706 129.243C178.112 129.495 177.447 129.52 176.836 129.313C176.225 129.107 175.711 128.683 175.392 128.123Z" fill="#A0616A"/>
<path d="M170.479 77.5861C169.27 77.7996 168.173 78.4254 167.374 79.357C166.575 80.2885 166.124 81.4681 166.097 82.695C166.038 85.4192 166.947 86.435 168.232 86.8021C170.607 87.4807 174.389 101.204 174.389 101.204C174.389 101.204 174.791 114.003 175.438 113.371C176.086 112.739 175.353 114.214 175.55 114.664C175.746 115.114 174.617 115.788 175.691 116.3C176.764 116.811 176.086 120.882 176.086 120.882L180.836 120.543C180.836 120.543 180.047 117.226 181.12 117.018C182.193 116.811 181.705 115.867 181.27 115.151C180.836 114.436 182.04 113.416 181.438 113.078C180.836 112.739 182.532 99.5075 182.532 99.5075L175.899 79.9923C175.338 79.0972 174.522 78.39 173.557 77.9613C172.591 77.5326 171.519 77.402 170.479 77.5861Z" fill="#E8505B"/>
<path d="M156.068 78.3542L159.485 72.3652H164.101L167.564 78.6935L156.068 78.3542Z" fill="#E8505B"/>
<path d="M146.878 24.4977C144.148 15.3527 136.434 9.38253 127.114 8.07283C127.012 8.05838 126.914 8.07747 126.812 8.07088C126.68 8.03055 126.546 7.99954 126.409 7.97809C113.592 6.32156 99.6004 9.28836 88.4642 16.2561C77.7898 22.935 65.5246 26.7035 52.9331 26.6198C52.5421 26.6172 52.1495 26.6257 51.7554 26.6452C42.0653 27.1287 33.5136 34.1824 30.894 43.4601C30.5502 44.6773 31.1493 45.765 32.1126 46.4548C33.8054 47.6672 34.9617 48.5169 37.0444 48.9581C40.7607 49.7454 44.4896 50.4694 48.2313 51.13V36.2258C48.233 34.8148 48.7942 33.4621 49.7919 32.4644C50.7896 31.4667 52.1424 30.9054 53.5533 30.9038H126.657C128.068 30.9054 129.421 31.4667 130.419 32.4644C131.417 33.4621 131.978 34.8148 131.979 36.2258V54.7868C132.982 54.4733 133.961 54.0881 134.908 53.634C138.435 51.8921 141.448 49.2629 143.651 46.0046C147.883 39.8636 149.001 31.6102 146.878 24.4977Z" fill="#F2F2F2"/>
<path d="M116.098 111.721H51.4729C49.9816 111.72 48.5519 111.126 47.4974 110.072C46.4428 109.017 45.8497 107.588 45.8479 106.096V81.0201C37.9767 78.6105 29.6865 77.8839 21.5161 78.8874C21.3798 78.9089 21.2452 78.9399 21.1132 78.9802C21.0111 78.9868 20.9138 78.9677 20.8113 78.9822C11.4911 80.2919 3.77804 86.262 1.04788 95.4071C-1.07563 102.52 0.0422238 110.773 4.27459 116.914C6.47784 120.172 9.49071 122.801 13.0173 124.543C17.8647 126.878 22.9668 127.054 28.2574 127.219C44.1424 127.714 60.0427 127.113 75.845 125.42C83.6217 124.586 91.3662 123.496 99.0783 122.15C103.026 121.459 106.96 120.698 110.881 119.867C112.964 119.426 114.12 118.577 115.813 117.364C116.776 116.674 117.375 115.587 117.032 114.369C116.776 113.468 116.464 112.584 116.098 111.721Z" fill="#F2F2F2"/>
<path d="M121.817 104.282H58.3937C57.1696 104.281 55.996 103.794 55.1304 102.928C54.2648 102.062 53.7779 100.889 53.7765 99.6647V40.7242C53.7779 39.5 54.2648 38.3265 55.1304 37.4609C55.996 36.5953 57.1696 36.1084 58.3937 36.1069H121.817C123.041 36.1084 124.215 36.5953 125.08 37.4609C125.946 38.3265 126.433 39.5 126.434 40.7242V99.6647C126.433 100.889 125.946 102.062 125.08 102.928C124.215 103.794 123.041 104.281 121.817 104.282Z" fill="#E6E6E6"/>
<path d="M108.468 101.168H61.5088C60.2847 101.166 59.1111 100.679 58.2455 99.8139C57.3799 98.9483 56.893 97.7747 56.8916 96.5506V43.8414C56.893 42.6172 57.3799 41.4436 58.2455 40.578C59.1111 39.7125 60.2847 39.2255 61.5088 39.2241H118.703C119.927 39.2255 121.1 39.7125 121.966 40.578C122.831 41.4436 123.318 42.6172 123.32 43.8414V86.3162C123.315 90.2538 121.749 94.0287 118.965 96.813C116.181 99.5973 112.406 101.163 108.468 101.168Z" fill="white"/>
<path d="M90.1058 90.892C101.536 90.892 110.802 81.6261 110.802 70.196C110.802 58.7659 101.536 49.5 90.1058 49.5C78.6757 49.5 69.4098 58.7659 69.4098 70.196C69.4098 81.6261 78.6757 90.892 90.1058 90.892Z" fill="#E8505B"/>
<path d="M98.8241 69.1548L91.9177 60.7563C91.7303 60.5285 91.4957 60.3441 91.23 60.2159C90.9644 60.0878 90.674 60.0188 90.3791 60.014C90.0841 60.0091 89.7917 60.0683 89.5219 60.1876C89.2521 60.3069 89.0115 60.4835 88.8167 60.7049L81.4311 69.1034C81.0753 69.509 80.895 70.0392 80.9299 70.5775C80.9648 71.1159 81.2119 71.6184 81.6171 71.9747C82.0222 72.3309 82.5522 72.5118 83.0906 72.4776C83.629 72.4434 84.1318 72.1968 84.4885 71.7921L88.3098 67.4468V78.3428C88.3098 78.8827 88.5242 79.4005 88.906 79.7822C89.2878 80.164 89.8056 80.3785 90.3455 80.3785C90.8853 80.3785 91.4031 80.164 91.7849 79.7822C92.1666 79.4005 92.3811 78.8827 92.3811 78.3428V67.7298L95.6795 71.7408C96.0224 72.1578 96.5169 72.4215 97.0543 72.4739C97.5916 72.5263 98.1278 72.363 98.5448 72.0201C98.9618 71.6772 99.2255 71.1826 99.2779 70.6453C99.3303 70.1079 99.167 69.5718 98.8241 69.1548Z" fill="white"/>
<path d="M179.293 196.213L176.223 196.213L174.762 184.37L179.294 184.37L179.293 196.213Z" fill="#A0616A"/>
<path d="M179.401 199.416L169.959 199.416V199.296C169.959 198.322 170.347 197.387 171.036 196.698C171.725 196.009 172.66 195.621 173.634 195.621L175.359 194.313L178.577 195.622L179.401 195.622L179.401 199.416Z" fill="#2F2E41"/>
<path d="M156.222 196.213L153.152 196.213L151.691 184.37L156.223 184.37L156.222 196.213Z" fill="#A0616A"/>
<path d="M156.33 199.416L146.888 199.416V199.296C146.888 198.322 147.276 197.387 147.965 196.698C148.654 196.009 149.589 195.621 150.563 195.621L152.288 194.313L155.506 195.622L156.33 195.622L156.33 199.416Z" fill="#2F2E41"/>
<path d="M180.272 186.411C181.392 185.679 180.743 185.726 180.743 185.726C180.743 185.726 178.238 165.417 176.333 159.263L174.127 129.292C174.127 129.292 173.987 129.89 174.127 128.437C174.267 126.984 175.285 128.002 174.267 126.984C173.25 125.966 172.571 125.447 173.25 124.689C173.928 123.93 175.8 122.396 174.694 121.467C173.589 120.537 171.413 114.478 171.413 114.478L150.208 114.648L151.056 114.478C151.056 114.478 148.409 113.496 149.622 114.775C150.834 116.054 148.943 119.185 148.265 122.239C147.703 124.768 146.034 125.439 148.265 125.971C150.495 126.503 148.477 128.01 148.477 128.01C148.477 128.01 145.119 143.995 147.664 154.513C147.664 154.513 149.419 180.526 150.308 182.763C151.196 185 151.536 183.643 151.196 185C150.857 186.357 150.179 183.983 150.857 186.357C151.227 187.598 151.521 188.86 151.735 190.137L156.336 189.798C156.336 189.798 157.405 186.43 156.336 185.545C155.268 184.661 156.006 187.242 157.163 185.273C158.321 183.304 156.964 183.983 156.625 181.268C156.286 178.554 159.398 165.91 157.163 158.152L161.294 136.383L167.851 158.923C167.851 158.923 171.329 186.453 172.459 187.423C173.589 188.393 173.132 186.038 173.589 188.393C174.05 190.773 175.097 190.142 175.068 190.434C174.752 193.546 180.272 190.476 180.272 190.476C180.218 189.686 180.218 188.892 180.272 188.101C180.374 187.375 179.152 187.143 180.272 186.411Z" fill="#2F2E41"/>
<path d="M152.336 121.56C150.979 121.56 147.247 119.722 147.926 118.945C148.604 118.168 148.604 115.587 148.604 114.842C148.604 114.096 151.658 86.6147 151.658 86.6147L151.426 79.8859C151.412 79.4826 151.479 79.0806 151.624 78.7039C151.769 78.3272 151.988 77.9834 152.268 77.6932C152.549 77.4029 152.885 77.1721 153.256 77.0145C153.628 76.8568 154.027 76.7756 154.431 76.7756L157.425 75.7577L165.907 75.4185L170.137 76.7756C170.557 76.7756 170.969 76.8833 171.335 77.0884C171.701 77.2935 172.009 77.5891 172.228 77.947C172.447 78.3049 172.571 78.713 172.587 79.1324C172.603 79.5517 172.512 79.9682 172.321 80.342C174.565 84.0062 175.692 88.2456 175.562 92.5406C175.465 95.754 173.837 99.6783 173.444 103.309C173.41 103.627 173.385 103.944 173.371 104.257C173.368 104.345 172.673 104.78 173.362 104.519C174.05 104.257 172.993 105.18 173.352 105.736C173.711 106.293 174.407 105.952 173.38 106.631C172.354 107.311 174.613 113.873 174.389 114.096C173.711 114.775 172.354 115.114 173.371 116.132C174.389 117.15 175.407 116.471 174.05 117.828C172.693 119.185 168.627 121.56 168.627 121.56L152.336 121.56Z" fill="#3F3D56"/>
<path d="M161.406 71.4787C165.439 71.4787 168.709 68.2094 168.709 64.1764C168.709 60.1434 165.439 56.874 161.406 56.874C157.374 56.874 154.104 60.1434 154.104 64.1764C154.104 68.2094 157.374 71.4787 161.406 71.4787Z" fill="#A0616A"/>
<path d="M116.93 86.833C117.281 86.6782 117.661 86.602 118.043 86.6099C118.426 86.6178 118.803 86.7096 119.146 86.8787C119.49 87.0479 119.792 87.2903 120.032 87.5889C120.272 87.8876 120.443 88.2351 120.534 88.6072L129.802 89.4839L126.771 93.2537L118.434 91.8432C117.799 91.9545 117.145 91.829 116.597 91.4904C116.048 91.1518 115.642 90.6237 115.457 90.0061C115.272 89.3885 115.319 88.7244 115.591 88.1396C115.862 87.5548 116.339 87.0899 116.93 86.833Z" fill="#A0616A"/>
<path d="M160.874 81.3974C160.66 80.189 160.034 79.0919 159.103 78.293C158.171 77.4941 156.992 77.0428 155.765 77.0159C153.04 76.9569 152.025 77.866 151.658 79.1507C150.979 81.5256 140.055 89.874 140.055 89.874L130.674 88.8587C130.11 88.6755 130.377 88.1617 128.256 88.5971C127.211 87.9129 126.536 88.0288 125.954 88.348L122.48 87.9719L122.819 93.4004C122.819 93.4004 126.539 92.5156 127.23 94.079C127.92 95.6424 127.762 95.8669 129.265 94.7575C130.768 93.6481 130.622 94.7575 130.622 94.7575L141.479 97.4717L158.467 86.8182C159.363 86.2568 160.07 85.441 160.498 84.4753C160.927 83.5096 161.058 82.4379 160.874 81.3974Z" fill="#E8505B"/>
<path d="M164.241 70.6956L164.72 70.8483C163.224 70.9738 160.557 71.8084 160.818 71.347C161.079 70.8856 160.092 69.1451 160.574 68.9245C161.075 68.7488 161.521 68.446 161.87 68.0458C162.175 67.6183 162.168 66.9126 161.71 66.6514C161.266 66.3935 160.716 66.6717 160.275 66.933C159.831 67.1908 159.01 63.3977 159.22 62.2136C157.982 61.5351 156.482 62.8345 155.091 62.58C154.24 62.424 153.625 61.7251 153.239 60.9311C153.871 60.3318 154.341 59.5826 154.606 58.753C154.015 59.0505 153.384 59.2597 152.733 59.3739C152.616 58.7578 152.633 58.1239 152.781 57.5146C152.894 57.0282 153.126 56.5774 153.456 56.2022C153.786 55.8269 154.203 55.5389 154.67 55.3636C155.145 55.2062 155.659 55.2153 156.128 55.3892C156.596 55.5631 156.992 55.8915 157.249 56.3203C157.278 55.8585 157.159 55.3995 156.91 55.0093C156.662 54.6191 156.296 54.3178 155.865 54.149C156.179 53.9858 156.527 53.8976 156.881 53.891C157.235 53.8845 157.586 53.9598 157.906 54.1112C158.226 54.2626 158.507 54.486 158.727 54.7638C158.947 55.0417 159.099 55.3665 159.173 55.713C160.705 54.9452 162.463 54.7572 164.123 55.1838C165.765 55.6146 167.943 57.4366 167.943 57.4366C171.648 58.2543 171.472 72.3411 164.241 70.6956Z" fill="#2F2E41"/>
<path d="M202.928 196.504C203.013 196.508 203.096 196.486 203.168 196.441C203.239 196.396 203.295 196.329 203.328 196.251C203.361 196.173 203.368 196.087 203.35 196.004C203.332 195.922 203.289 195.846 203.227 195.789L203.199 195.677L203.21 195.65C203.295 195.449 203.438 195.277 203.62 195.157C203.803 195.036 204.016 194.973 204.235 194.973C204.453 194.974 204.667 195.04 204.848 195.161C205.029 195.283 205.171 195.455 205.255 195.657C205.589 196.463 206.015 197.269 206.119 198.121C206.166 198.497 206.146 198.879 206.062 199.248C206.847 197.535 207.255 195.673 207.258 193.789C207.258 193.316 207.232 192.843 207.179 192.373C207.135 191.988 207.075 191.606 206.998 191.226C206.577 189.165 205.673 187.234 204.361 185.59C203.726 185.243 203.212 184.711 202.889 184.063C202.772 183.83 202.69 183.582 202.644 183.325C202.783 182.958 202.856 182.569 202.86 182.177C202.96 182.025 203.138 181.95 203.248 181.802C203.79 181.067 204.537 181.195 204.927 182.194C205.761 182.615 205.769 183.312 205.257 183.983C204.932 184.41 204.887 184.987 204.602 185.444C204.631 185.482 204.662 185.518 204.691 185.556C205.228 186.246 205.696 186.987 206.088 187.769C205.993 186.893 206.106 186.008 206.42 185.185C206.738 184.418 207.334 183.772 207.859 183.109C207.998 182.931 208.186 182.798 208.4 182.727C208.615 182.656 208.845 182.65 209.063 182.71C209.281 182.77 209.476 182.893 209.623 183.064C209.771 183.235 209.865 183.446 209.893 183.67L209.896 183.699C209.818 183.743 209.742 183.79 209.667 183.839C209.573 183.902 209.5 183.991 209.458 184.096C209.416 184.2 209.407 184.315 209.431 184.426C209.456 184.536 209.513 184.636 209.595 184.713C209.677 184.79 209.781 184.841 209.893 184.858L209.904 184.859C209.876 185.14 209.827 185.419 209.757 185.692C210.43 188.296 208.977 189.244 206.902 189.287C206.856 189.31 206.811 189.334 206.765 189.356C207.16 190.473 207.407 191.636 207.501 192.816C207.554 193.513 207.551 194.212 207.491 194.908L207.495 194.883C207.645 194.11 208.058 193.411 208.664 192.907C209.563 192.168 210.834 191.896 211.804 191.302C211.907 191.236 212.027 191.2 212.15 191.2C212.272 191.2 212.392 191.234 212.496 191.3C212.599 191.366 212.682 191.46 212.733 191.571C212.785 191.682 212.804 191.805 212.788 191.927L212.784 191.953C212.639 192.012 212.499 192.08 212.362 192.156C212.284 192.2 212.208 192.247 212.134 192.296C212.04 192.359 211.967 192.448 211.925 192.553C211.883 192.658 211.874 192.773 211.898 192.883C211.922 192.993 211.979 193.093 212.062 193.17C212.144 193.247 212.248 193.298 212.359 193.315L212.371 193.317L212.394 193.32C212.147 193.91 211.8 194.453 211.369 194.926C210.948 197.198 209.14 197.414 207.206 196.752H207.205C206.993 197.674 206.685 198.572 206.287 199.43H203.01C202.999 199.394 202.988 199.356 202.977 199.32C203.281 199.339 203.585 199.321 203.884 199.266C203.641 198.968 203.398 198.667 203.155 198.369C203.149 198.363 203.144 198.357 203.139 198.351C203.016 198.198 202.892 198.047 202.768 197.894C202.762 197.426 202.815 196.959 202.928 196.504Z" fill="#F2F2F2"/>
<path d="M93.8204 199.896L226.046 200C226.153 200 226.256 199.958 226.332 199.882C226.407 199.806 226.45 199.703 226.45 199.596C226.45 199.489 226.407 199.386 226.332 199.31C226.256 199.235 226.153 199.192 226.046 199.192L93.8204 199.088C93.7132 199.088 93.6105 199.13 93.5347 199.206C93.4589 199.282 93.4164 199.385 93.4164 199.492C93.4164 199.599 93.4589 199.702 93.5347 199.778C93.6105 199.853 93.7132 199.896 93.8204 199.896Z" fill="#CACACA"/>
<path d="M87.065 143.274C86.1158 143.274 85.1879 142.993 84.3987 142.465C83.6095 141.938 82.9943 141.189 82.6311 140.312C82.2678 139.435 82.1728 138.47 82.358 137.539C82.5431 136.608 83.0002 135.753 83.6714 135.081C84.3426 134.41 85.1978 133.953 86.1287 133.768C87.0597 133.583 88.0247 133.678 88.9016 134.041C89.7786 134.404 90.5281 135.019 91.0555 135.809C91.5828 136.598 91.8643 137.526 91.8643 138.475C91.8628 139.747 91.3567 140.967 90.457 141.867C89.5573 142.767 88.3374 143.273 87.065 143.274ZM87.065 134.354C86.25 134.354 85.4533 134.596 84.7757 135.049C84.098 135.502 83.5699 136.145 83.258 136.898C82.9461 137.651 82.8645 138.48 83.0235 139.279C83.1825 140.078 83.5749 140.813 84.1512 141.389C84.7275 141.965 85.4618 142.358 86.2611 142.517C87.0604 142.676 87.889 142.594 88.642 142.282C89.3949 141.97 90.0385 141.442 90.4913 140.764C90.9441 140.087 91.1857 139.29 91.1857 138.475C91.1845 137.383 90.75 136.335 89.9775 135.563C89.2049 134.79 88.1575 134.356 87.065 134.354Z" fill="#F2F2F2"/>
<path d="M88.9439 138.251L87.4556 136.441C87.4152 136.392 87.3646 136.352 87.3074 136.324C87.2501 136.297 87.1875 136.282 87.124 136.281C87.0604 136.28 86.9974 136.293 86.9393 136.318C86.8811 136.344 86.8293 136.382 86.7873 136.43L85.1957 138.24C85.1196 138.327 85.0812 138.441 85.089 138.557C85.0967 138.672 85.15 138.78 85.237 138.857C85.3241 138.933 85.4379 138.972 85.5536 138.965C85.6693 138.958 85.7775 138.906 85.8545 138.819L86.678 137.883V140.231C86.678 140.347 86.7242 140.459 86.8065 140.541C86.8888 140.623 87.0004 140.669 87.1167 140.669C87.2331 140.669 87.3446 140.623 87.4269 140.541C87.5092 140.459 87.5554 140.347 87.5554 140.231V137.944L88.2662 138.808C88.3401 138.898 88.4467 138.955 88.5625 138.966C88.6783 138.977 88.7938 138.942 88.8837 138.868C88.9735 138.794 89.0304 138.688 89.0417 138.572C89.053 138.456 89.0178 138.341 88.9439 138.251Z" fill="#F2F2F2"/>
<path d="M141.689 72.3651C140.74 72.3651 139.812 72.0837 139.023 71.5563C138.233 71.029 137.618 70.2794 137.255 69.4025C136.892 68.5255 136.797 67.5605 136.982 66.6296C137.167 65.6986 137.624 64.8435 138.295 64.1723C138.967 63.5011 139.822 63.044 140.753 62.8588C141.684 62.6736 142.649 62.7687 143.526 63.1319C144.402 63.4952 145.152 64.1103 145.679 64.8995C146.207 65.6888 146.488 66.6167 146.488 67.5659C146.487 68.8383 145.981 70.0581 145.081 70.9579C144.181 71.8576 142.961 72.3637 141.689 72.3651ZM141.689 63.4452C140.874 63.4452 140.077 63.6868 139.4 64.1396C138.722 64.5924 138.194 65.236 137.882 65.9889C137.57 66.7419 137.488 67.5705 137.647 68.3698C137.806 69.1691 138.199 69.9034 138.775 70.4797C139.351 71.056 140.086 71.4484 140.885 71.6074C141.684 71.7664 142.513 71.6848 143.266 71.3729C144.019 71.061 144.662 70.5329 145.115 69.8552C145.568 69.1776 145.81 68.3809 145.81 67.5659C145.808 66.4734 145.374 65.426 144.601 64.6534C143.829 63.8809 142.781 63.4464 141.689 63.4452Z" fill="#F2F2F2"/>
<path d="M143.568 67.3415L142.079 65.5316C142.039 65.4825 141.989 65.4428 141.931 65.4152C141.874 65.3875 141.811 65.3727 141.748 65.3716C141.684 65.3706 141.621 65.3834 141.563 65.4091C141.505 65.4348 141.453 65.4728 141.411 65.5206L139.82 67.3304C139.743 67.4179 139.705 67.532 139.713 67.6476C139.721 67.7633 139.774 67.8712 139.861 67.9478C139.948 68.0243 140.062 68.0633 140.177 68.0562C140.293 68.0491 140.401 67.9965 140.478 67.9099L141.302 66.9735V69.3216C141.302 69.4379 141.348 69.5495 141.43 69.6318C141.513 69.714 141.624 69.7603 141.741 69.7603C141.857 69.7603 141.969 69.714 142.051 69.6318C142.133 69.5495 142.179 69.4379 142.179 69.3216V67.0344L142.89 67.8988C142.964 67.9887 143.071 68.0455 143.186 68.0568C143.302 68.0681 143.418 68.0329 143.508 67.959C143.597 67.8851 143.654 67.7785 143.666 67.6627C143.677 67.5469 143.642 67.4314 143.568 67.3415Z" fill="#F2F2F2"/>
<path d="M33.4591 68.2938C32.5099 68.2938 31.582 68.0124 30.7927 67.485C30.0035 66.9577 29.3884 66.2081 29.0251 65.3312C28.6619 64.4542 28.5668 63.4893 28.752 62.5583C28.9372 61.6273 29.3943 60.7722 30.0655 60.101C30.7367 59.4298 31.5918 58.9727 32.5228 58.7875C33.4537 58.6024 34.4187 58.6974 35.2957 59.0606C36.1726 59.4239 36.9222 60.039 37.4495 60.8282C37.9769 61.6175 38.2583 62.5454 38.2583 63.4946C38.2569 64.767 37.7508 65.9869 36.8511 66.8866C35.9513 67.7863 34.7315 68.2924 33.4591 68.2938ZM33.4591 59.3739C32.6441 59.3739 31.8474 59.6155 31.1697 60.0683C30.4921 60.5211 29.9639 61.1647 29.652 61.9177C29.3401 62.6706 29.2585 63.4992 29.4175 64.2985C29.5765 65.0978 29.969 65.8321 30.5453 66.4084C31.1216 66.9847 31.8558 67.3771 32.6552 67.5361C33.4545 67.6951 34.283 67.6135 35.036 67.3016C35.789 66.9897 36.4325 66.4616 36.8853 65.7839C37.3381 65.1063 37.5798 64.3096 37.5798 63.4946C37.5786 62.4021 37.144 61.3547 36.3715 60.5821C35.599 59.8096 34.5516 59.3751 33.4591 59.3739Z" fill="#F2F2F2"/>
<path d="M35.3378 63.2702L33.8495 61.4603C33.8091 61.4112 33.7585 61.3715 33.7013 61.3439C33.644 61.3163 33.5815 61.3014 33.5179 61.3004C33.4544 61.2993 33.3913 61.3121 33.3332 61.3378C33.2751 61.3635 33.2232 61.4015 33.1812 61.4493L31.5896 63.2592C31.5135 63.3466 31.4752 63.4607 31.4829 63.5763C31.4907 63.692 31.5439 63.7999 31.6309 63.8765C31.718 63.953 31.8318 63.992 31.9475 63.9849C32.0632 63.9778 32.1714 63.9252 32.2485 63.8386L33.0719 62.9022V65.2503C33.0719 65.3666 33.1182 65.4782 33.2004 65.5605C33.2827 65.6428 33.3943 65.689 33.5106 65.689C33.627 65.689 33.7386 65.6428 33.8208 65.5605C33.9031 65.4782 33.9493 65.3666 33.9493 65.2503V62.9632L34.6601 63.8275C34.734 63.9174 34.8406 63.9742 34.9564 63.9855C35.0722 63.9968 35.1877 63.9616 35.2776 63.8877C35.3675 63.8138 35.4243 63.7072 35.4356 63.5914C35.4469 63.4756 35.4117 63.3601 35.3378 63.2702Z" fill="#F2F2F2"/>
<path d="M71.7976 9.59854C70.8484 9.59854 69.9205 9.31707 69.1312 8.78972C68.342 8.26237 67.7269 7.51283 67.3636 6.63587C67.0004 5.75892 66.9053 4.79395 67.0905 3.86298C67.2757 2.93202 67.7328 2.07687 68.404 1.40568C69.0752 0.734487 69.9303 0.277401 70.8613 0.0922201C71.7922 -0.0929611 72.7572 0.00207613 73.6342 0.365321C74.5111 0.728567 75.2607 1.3437 75.788 2.13294C76.3154 2.92218 76.5968 3.85007 76.5968 4.79927C76.5954 6.07167 76.0893 7.29155 75.1896 8.19127C74.2898 9.091 73.07 9.5971 71.7976 9.59854ZM71.7976 0.678565C70.9826 0.678564 70.1859 0.920242 69.5082 1.37303C68.8306 1.82582 68.3024 2.46939 67.9905 3.22235C67.6786 3.97531 67.597 4.80385 67.756 5.60319C67.915 6.40253 68.3075 7.13677 68.8838 7.71306C69.4601 8.28936 70.1943 8.68182 70.9937 8.84081C71.793 8.99981 72.6215 8.91821 73.3745 8.60632C74.1275 8.29443 74.771 7.76627 75.2238 7.08862C75.6766 6.41097 75.9183 5.61427 75.9183 4.79927C75.9171 3.70676 75.4825 2.65935 74.71 1.88683C73.9375 1.11431 72.8901 0.679777 71.7976 0.678565Z" fill="#F2F2F2"/>
<path d="M73.6763 4.57491L72.188 2.76501C72.1476 2.71592 72.097 2.67619 72.0398 2.64856C71.9825 2.62094 71.92 2.60609 71.8564 2.60504C71.7929 2.60399 71.7298 2.61676 71.6717 2.64247C71.6136 2.66818 71.5617 2.70622 71.5197 2.75395L69.9281 4.56384C69.852 4.65132 69.8137 4.76536 69.8214 4.88103C69.8292 4.9967 69.8824 5.1046 69.9694 5.18115C70.0565 5.25771 70.1703 5.2967 70.286 5.2896C70.4017 5.2825 70.5099 5.22989 70.587 5.14327L71.4104 4.20686V6.55497C71.4104 6.67132 71.4567 6.78289 71.5389 6.86516C71.6212 6.94743 71.7328 6.99366 71.8491 6.99366C71.9655 6.99366 72.0771 6.94743 72.1593 6.86516C72.2416 6.78289 72.2878 6.67132 72.2878 6.55497V4.26785L72.9986 5.13222C73.0725 5.22208 73.1791 5.27891 73.2949 5.2902C73.4107 5.30148 73.5262 5.26631 73.6161 5.19241C73.706 5.11851 73.7628 5.01193 73.7741 4.89613C73.7854 4.78033 73.7502 4.66477 73.6763 4.57491Z" fill="#F2F2F2"/>
<path d="M20.5664 103.918C19.6172 103.918 18.6893 103.637 17.9 103.109C17.1107 102.582 16.4956 101.832 16.1323 100.955C15.769 100.078 15.674 99.1134 15.8592 98.1824C16.0444 97.2514 16.5015 96.3962 17.1727 95.725C17.8439 95.0538 18.699 94.5967 19.63 94.4116C20.561 94.2264 21.526 94.3214 22.403 94.6847C23.28 95.0479 24.0295 95.6631 24.5569 96.4524C25.0842 97.2416 25.3657 98.1695 25.3657 99.1188C25.3642 100.391 24.8581 101.611 23.9584 102.511C23.0587 103.41 21.8388 103.917 20.5664 103.918ZM20.5664 94.9979C19.7514 94.9979 18.9547 95.2395 18.277 95.6923C17.5993 96.1451 17.0711 96.7887 16.7592 97.5416C16.4473 98.2946 16.3657 99.1232 16.5247 99.9225C16.6837 100.722 17.0761 101.456 17.6524 102.032C18.2287 102.609 18.963 103.001 19.7623 103.16C20.5617 103.319 21.3902 103.238 22.1432 102.926C22.8962 102.614 23.5398 102.086 23.9926 101.408C24.4454 100.73 24.6871 99.9338 24.6871 99.1188C24.6859 98.0262 24.2514 96.9788 23.4789 96.2063C22.7063 95.4337 21.6589 94.9991 20.5664 94.9979Z" fill="white"/>
<path d="M22.4453 98.8942L20.9569 97.0844C20.9165 97.0353 20.866 96.9955 20.8087 96.9679C20.7515 96.9403 20.6889 96.9254 20.6253 96.9244C20.5618 96.9233 20.4987 96.9361 20.4406 96.9618C20.3825 96.9875 20.3306 97.0256 20.2886 97.0733L18.697 98.8832C18.6209 98.9707 18.5826 99.0847 18.5903 99.2004C18.5981 99.316 18.6513 99.4239 18.7384 99.5005C18.8254 99.5771 18.9392 99.616 19.0549 99.6089C19.1707 99.6018 19.2788 99.5492 19.3559 99.4626L20.1794 98.5262V100.874C20.1794 100.991 20.2256 101.102 20.3079 101.185C20.3901 101.267 20.5017 101.313 20.6181 101.313C20.7344 101.313 20.846 101.267 20.9283 101.185C21.0105 101.102 21.0567 100.991 21.0567 100.874V98.5872L21.7675 99.4516C21.8414 99.5414 21.948 99.5982 22.0638 99.6095C22.1796 99.6208 22.2952 99.5857 22.385 99.5117C22.4749 99.4378 22.5317 99.3313 22.543 99.2155C22.5543 99.0997 22.5192 98.9841 22.4453 98.8942Z" fill="white"/>
<path d="M124.386 23.5089C123.437 23.5089 122.509 23.2274 121.719 22.7001C120.93 22.1727 120.315 21.4232 119.952 20.5462C119.588 19.6692 119.493 18.7042 119.679 17.7732C119.864 16.8422 120.321 15.9871 120.992 15.3159C121.663 14.6447 122.518 14.1876 123.449 14.0024C124.38 13.8172 125.345 13.9122 126.222 14.2755C127.099 14.6388 127.849 15.2539 128.376 16.0432C128.904 16.8324 129.185 17.7604 129.185 18.7096C129.184 19.982 128.677 21.2019 127.778 22.1016C126.878 23.0013 125.658 23.5074 124.386 23.5089ZM124.386 14.5887C123.571 14.5887 122.774 14.8304 122.096 15.2831C121.419 15.7359 120.89 16.3795 120.579 17.1325C120.267 17.8854 120.185 18.714 120.344 19.5134C120.503 20.3127 120.895 21.047 121.472 21.6233C122.048 22.1996 122.782 22.5921 123.582 22.7511C124.381 22.9101 125.21 22.8285 125.963 22.5167C126.716 22.2048 127.359 21.6766 127.812 20.999C128.265 20.3213 128.506 19.5246 128.506 18.7096C128.505 17.6171 128.071 16.5696 127.298 15.7971C126.526 15.0245 125.478 14.59 124.386 14.5887Z" fill="white"/>
<path d="M126.265 18.4851L124.776 16.6752C124.736 16.6261 124.685 16.5863 124.628 16.5587C124.571 16.5311 124.508 16.5162 124.445 16.5152C124.381 16.5141 124.318 16.5269 124.26 16.5526C124.202 16.5783 124.15 16.6164 124.108 16.6641L122.516 18.474C122.44 18.5615 122.402 18.6755 122.41 18.7912C122.417 18.9069 122.471 19.0148 122.558 19.0913C122.645 19.1679 122.759 19.2069 122.874 19.1998C122.99 19.1927 123.098 19.14 123.175 19.0534L123.999 18.117V20.4651C123.999 20.5815 124.045 20.6931 124.127 20.7753C124.209 20.8576 124.321 20.9038 124.437 20.9038C124.554 20.9038 124.665 20.8576 124.748 20.7753C124.83 20.6931 124.876 20.5815 124.876 20.4651V18.178L125.587 19.0424C125.661 19.1322 125.767 19.1891 125.883 19.2004C125.999 19.2116 126.114 19.1765 126.204 19.1026C126.294 19.0287 126.351 18.9221 126.362 18.8063C126.374 18.6905 126.339 18.5749 126.265 18.4851Z" fill="white"/>
</g>
<defs>
<clipPath id="clip0_554_1214">
<rect width="226.45" height="200" fill="white"/>
</clipPath>
</defs>
</svg>
