<svg width="244" height="209" viewBox="0 0 244 209" fill="none" xmlns="http://www.w3.org/2000/svg">
<path fill-rule="evenodd" clip-rule="evenodd" d="M233.168 83.084C239.486 124.987 195.277 151.26 156.83 169.08C118.891 186.664 73.6239 199.925 43.3804 171.049C8.40368 137.653 -3.44261 81.8221 23.104 41.4005C46.0325 6.48793 94.9184 22.0609 135.888 30.1906C175.914 38.1332 227.084 42.7335 233.168 83.084Z" fill="#FFCEC7"/>
<path d="M147.788 208.608H84.2424C74.9995 208.608 67.4808 201.084 67.4808 191.834V25.7737C67.4808 16.5241 74.9995 9 84.2424 9H147.788C157.031 9 164.549 16.5241 164.549 25.7737V191.834C164.549 201.084 157.031 208.608 147.788 208.608Z" fill="#2C2A2A"/>
<path d="M147.834 204.067H84.1963C77.3554 204.067 71.788 198.496 71.788 191.65V25.6321C71.788 18.7863 77.3554 13.2148 84.1963 13.2148H147.834C154.675 13.2148 160.242 18.7863 160.242 25.6321V191.65C160.242 198.496 154.675 204.067 147.834 204.067Z" fill="white"/>
<path d="M125.011 24.2656H107.016C104.64 24.2656 102.708 22.3327 102.708 19.9553C102.708 17.5778 104.64 15.6449 107.016 15.6449H125.011C127.387 15.6449 129.318 17.5778 129.318 19.9553C129.318 22.3327 127.387 24.2656 125.011 24.2656Z" fill="#2C2A2A"/>
<path d="M120.207 100.91V112.747H86.0422C82.7814 112.747 80.126 110.093 80.126 106.827C80.126 103.56 82.7814 100.91 86.0422 100.91H120.207Z" fill="#E8505B"/>
<path d="M145.988 100.91H86.0422C82.7814 100.91 80.126 103.564 80.126 106.827C80.126 110.09 82.7814 112.747 86.0422 112.747H145.988C149.252 112.747 151.904 110.093 151.904 106.827C151.904 103.56 149.252 100.91 145.988 100.91ZM145.988 110.772H86.0422C83.8705 110.772 82.1003 109.003 82.1003 106.827C82.1003 104.65 83.8705 102.885 86.0422 102.885H145.988C148.163 102.885 149.93 104.653 149.93 106.827C149.93 109 148.163 110.772 145.988 110.772Z" fill="#2C2A2A"/>
<path d="M241 208.608C241 208.825 240.825 209 240.608 209H21.3913C21.1742 209 20.9998 208.825 20.9998 208.608C20.9998 208.391 21.1742 208.216 21.3913 208.216H240.608C240.825 208.216 241 208.391 241 208.608Z" fill="#2E2E43"/>
<path d="M193.773 186.549L188.129 190.16L193.247 198.172L198.892 194.561L193.773 186.549Z" fill="#F3A3A6"/>
<path d="M175.872 78.841L168.741 81.2776L168.629 70.9744L175.118 70.9019L175.872 78.841Z" fill="#F3A3A6"/>
<path d="M169.462 73.8194C173.4 73.8194 176.592 70.6247 176.592 66.6838C176.592 62.743 173.4 59.5483 169.462 59.5483C165.524 59.5483 162.331 62.743 162.331 66.6838C162.331 70.6247 165.524 73.8194 169.462 73.8194Z" fill="#F3A3A6"/>
<path d="M171.413 65.9561C170.222 65.9331 169.422 64.7378 168.945 63.6379C168.468 62.5447 167.978 61.2803 166.869 60.8358C165.961 60.4735 164.395 63.0024 163.671 62.3439C162.917 61.6557 163.605 58.0599 164.391 57.4112C165.178 56.7625 166.257 56.6242 167.27 56.5617C169.755 56.4201 172.252 56.5913 174.694 57.0753C176.201 57.3717 177.76 57.8294 178.856 58.9062C180.248 60.2727 180.623 62.3537 180.742 64.2998C180.867 66.292 180.771 68.3796 179.824 70.138C178.873 71.8931 176.862 73.2003 174.911 72.7789C174.704 71.7219 174.888 70.6385 174.954 69.5585C175.02 68.485 174.924 67.3259 174.259 66.4764C173.595 65.6268 172.193 65.3041 171.439 66.0714" fill="#2F2E43"/>
<path d="M180.212 68.3302C180.919 67.8001 181.765 67.3523 182.643 67.451C183.594 67.5531 184.404 68.3302 184.657 69.2522C184.911 70.1742 184.647 71.195 184.072 71.9589C183.496 72.7229 182.63 73.23 181.709 73.4901C181.176 73.6416 180.594 73.7041 180.08 73.4901C179.327 73.174 178.912 72.2224 179.198 71.4551" fill="#2F2E43"/>
<path d="M153.678 135.741C153.23 138.089 154.122 140.223 155.675 140.503C157.225 140.782 158.847 139.103 159.298 136.755C159.492 135.82 159.449 134.852 159.173 133.933L164.658 97.1326L157.267 95.8287L154.836 133.156C154.24 133.92 153.842 134.806 153.678 135.751V135.741Z" fill="#F3A3A6"/>
<path d="M168.61 76.5491L163.575 76.6051C160.022 77.1814 159.077 79.0945 158.311 82.6113C157.136 87.9753 155.635 95.124 155.951 95.2228C156.455 95.3874 165.066 99.3257 169.426 98.351L168.613 76.5491H168.61Z" fill="#E8505B"/>
<path d="M174.793 193.515L168.094 193.59L168.2 203.099L174.899 203.024L174.793 193.515Z" fill="#F3A3A6"/>
<path d="M161.723 208.931C161.015 208.941 160.393 208.931 159.92 208.891C158.136 208.75 156.428 207.452 155.563 206.695C155.175 206.356 155.046 205.803 155.241 205.328C155.379 204.989 155.662 204.729 156.017 204.621L160.706 203.224L168.264 197.999L168.35 198.15C168.383 198.206 169.146 199.546 169.406 200.455C169.505 200.801 169.485 201.087 169.34 201.311C169.241 201.466 169.103 201.558 168.991 201.614C169.13 201.756 169.564 202.046 170.9 202.243C172.841 202.533 173.233 200.511 173.246 200.425L173.259 200.356L173.315 200.317C174.233 199.708 174.796 199.434 174.993 199.49C175.118 199.523 175.319 199.586 175.931 205.065C175.987 205.236 176.388 206.494 176.138 207.706C175.868 209.023 170.127 208.631 168.982 208.542C168.949 208.546 164.658 208.901 161.716 208.931H161.726H161.723Z" fill="#2F2E43"/>
<path d="M186.457 207.35C185.671 207.36 184.947 207.271 184.43 207.186C183.923 207.1 183.522 206.702 183.437 206.194C183.371 205.829 183.479 205.463 183.719 205.187L186.957 201.519L190.603 193.082L190.758 193.165C190.814 193.194 192.169 193.929 192.874 194.561C193.14 194.801 193.275 195.055 193.275 195.325C193.275 195.509 193.206 195.661 193.137 195.763C193.331 195.809 193.851 195.822 195.088 195.285C196.888 194.502 196.151 192.579 196.118 192.503L196.092 192.437L196.121 192.378C196.579 191.377 196.914 190.843 197.108 190.784C197.233 190.751 197.434 190.689 200.853 195.015C200.991 195.131 201.998 195.983 202.426 197.143C202.89 198.404 197.819 201.11 196.792 201.641C196.763 201.667 191.462 205.608 189.284 206.738C188.418 207.186 187.388 207.334 186.451 207.34L186.46 207.35H186.457Z" fill="#2F2E43"/>
<path d="M178.83 113.916L160.074 114.124L158.567 131.602L166.731 196.036L176.306 195.927L172.065 158.709L187.971 192.18L196.414 186.121L183.937 154.846C183.937 154.846 187.967 127.437 184.486 120.66C181.008 113.883 178.833 113.906 178.833 113.906V113.916H178.83Z" fill="#2F2E43"/>
<path d="M188.168 114.878L158.38 115.21L166.889 76.5722L179.87 76.424L188.168 114.878Z" fill="#E8505B"/>
<path d="M191.077 135.326C191.577 137.667 190.731 139.818 189.188 140.13C187.642 140.447 185.983 138.803 185.486 136.462C185.273 135.53 185.292 134.562 185.546 133.637L179.241 96.9647L186.599 95.4961L189.859 132.764C190.471 133.515 190.889 134.394 191.077 135.333V135.326Z" fill="#F3A3A6"/>
<path d="M174.839 76.48L179.873 76.424C183.436 76.9245 184.424 78.8146 185.273 82.3149C186.566 87.6526 188.221 94.7618 187.912 94.8705C187.408 95.0417 178.892 99.1709 174.513 98.295L174.845 76.48H174.839Z" fill="#E8505B"/>
<path d="M35.0839 117.68L37.4447 117.656C37.4575 117.656 37.4701 117.659 37.4818 117.664C37.4936 117.669 37.5042 117.676 37.5131 117.686C37.7102 117.897 37.5163 117.997 37.3205 117.999C36.5461 118.008 35.8036 118.013 35.093 118.016C35.0809 118.016 35.0689 118.018 35.0577 118.023C35.0465 118.028 35.0363 118.034 35.0278 118.043C35.0192 118.052 35.0125 118.062 35.008 118.073C35.0034 118.085 35.0011 118.097 35.0013 118.109L35.013 120.44C35.013 120.462 35.0046 120.484 34.9896 120.501C34.8846 120.62 34.7818 120.615 34.6811 120.488C34.6681 120.471 34.661 120.451 34.6609 120.431L34.6512 118.105C34.6512 118.093 34.6489 118.081 34.6443 118.069C34.6396 118.058 34.6328 118.048 34.6242 118.039C34.6156 118.031 34.6054 118.024 34.5942 118.019C34.583 118.015 34.5709 118.012 34.5588 118.012L32.2416 118.031C32.226 118.031 32.2108 118.027 32.1971 118.02C32.1835 118.012 32.1719 118.002 32.1635 117.988C32.0372 117.789 32.0949 117.689 32.3366 117.686C33.0771 117.68 33.8178 117.675 34.5588 117.671C34.5829 117.671 34.6061 117.662 34.6233 117.645C34.6404 117.627 34.6502 117.604 34.6505 117.58C34.6562 116.835 34.6566 116.092 34.6518 115.35C34.6499 115.138 34.7748 114.936 34.9837 115.155C35 115.172 35.0093 115.195 35.0097 115.219L34.9909 117.587C34.9907 117.599 34.993 117.611 34.9977 117.623C35.0023 117.634 35.0091 117.644 35.0178 117.653C35.0265 117.662 35.0368 117.668 35.0481 117.673C35.0595 117.678 35.0717 117.68 35.0839 117.68Z" fill="#001133"/>
<path d="M24.0829 63.6799L26.4438 63.6565C26.4565 63.6565 26.4691 63.659 26.4809 63.6641C26.4926 63.6691 26.5032 63.6765 26.5121 63.6858C26.7093 63.8972 26.5153 63.9975 26.3195 63.9994C25.5451 64.0077 24.8026 64.0131 24.0921 64.0157C24.0799 64.0157 24.0679 64.0182 24.0567 64.0229C24.0455 64.0276 24.0353 64.0344 24.0268 64.0431C24.0183 64.0517 24.0115 64.062 24.007 64.0733C24.0024 64.0845 24.0002 64.0966 24.0003 64.1087L24.012 66.4396C24.012 66.4623 24.0036 66.4841 23.9886 66.5008C23.8836 66.6197 23.7808 66.6153 23.6801 66.4878C23.6671 66.4713 23.66 66.4514 23.66 66.4312L23.6502 64.1048C23.6503 64.0927 23.6479 64.0806 23.6433 64.0694C23.6387 64.0582 23.6318 64.048 23.6233 64.0394C23.6147 64.0308 23.6045 64.024 23.5932 64.0194C23.582 64.0147 23.57 64.0124 23.5578 64.0124L21.2406 64.0313C21.2251 64.0313 21.2098 64.0274 21.1961 64.0199C21.1825 64.0124 21.1709 64.0015 21.1625 63.9883C21.0363 63.7892 21.094 63.6886 21.3356 63.6864C22.0761 63.6799 22.8169 63.6749 23.5578 63.6714C23.582 63.6714 23.6051 63.6617 23.6223 63.6445C23.6395 63.6274 23.6493 63.6041 23.6496 63.5797C23.6552 62.8348 23.6556 62.0917 23.6509 61.3503C23.6489 61.1375 23.7738 60.9358 23.9827 61.1551C23.999 61.1723 24.0083 61.195 24.0088 61.2189L23.9899 63.5868C23.9898 63.5991 23.9921 63.6113 23.9967 63.6226C24.0013 63.634 24.0082 63.6443 24.0168 63.653C24.0255 63.6616 24.0358 63.6685 24.0472 63.6731C24.0585 63.6777 24.0707 63.68 24.0829 63.6799Z" fill="#001133"/>
<g filter="url(#filter0_d_3456_1503)">
<path d="M226.827 94.186C226.119 94.0004 223.356 93.7785 221.632 93.7778C219.787 93.7665 216.396 94.1271 215.429 94.4428C214.127 94.8678 213.72 95.514 214.257 96.3035C214.613 96.8087 215.295 97.1815 216.934 97.7526C217.598 97.9912 218.215 98.2351 218.283 98.2917C218.359 98.3553 217.001 98.5543 215.282 98.7372C213.547 98.9219 211.524 99.2107 210.794 99.3799C207.418 100.156 207.201 100.244 207.276 100.828C207.357 101.492 207.905 101.56 210.761 101.322C213.316 101.103 219.068 100.287 219.808 100.037C220.797 99.6947 221.315 99.0363 221.073 98.4464C220.827 97.8248 220.219 97.4837 217.282 96.2959C216.5 95.9742 215.847 95.6702 215.843 95.6225C215.832 95.4636 218.664 94.9968 220.49 94.858C222.681 94.6947 224.783 94.6214 225.921 94.6713C226.409 94.6891 227.017 94.7017 227.271 94.6895L227.733 94.6702L227.52 94.4936C227.409 94.3858 227.088 94.2533 226.827 94.186Z" fill="black" fill-opacity="0.85" shape-rendering="crispEdges"/>
</g>
<g filter="url(#filter1_d_3456_1503)">
<path d="M59.6666 158.67C59.5338 158.734 59.093 159.035 58.6961 159.341C57.8132 160.021 55.3329 162.948 55.2381 163.425C55.0749 164.195 55.9972 163.754 57.347 162.398C58.6734 161.069 60.0291 159.495 60.1694 159.135C60.2957 158.811 60.0012 158.535 59.6666 158.67Z" fill="#263238"/>
<path d="M54.9392 155.106C54.0932 155.341 53.2102 157.148 52.5242 160.057C52.2099 161.353 52.1682 161.747 52.3185 161.872C52.544 162.06 52.5675 162.032 53.2022 160.541C53.4719 159.892 54.0101 158.766 54.394 158.037C55.352 156.196 55.5096 155.835 55.5044 155.497C55.4961 155.124 55.3192 154.993 54.9392 155.106Z" fill="#263238"/>
<path d="M63.6654 166.092C62.6422 166.004 57.8945 165.982 57.7382 166.075C57.2348 166.356 57.7062 166.763 58.576 166.787C60.178 166.848 62.9733 166.772 63.4237 166.67C63.8991 166.556 64.2492 166.307 64.0988 166.182C64.0612 166.151 63.8578 166.109 63.6654 166.092Z" fill="#263238"/>
<path d="M46.389 153.878C46.2094 154.095 46.5548 156.24 47.0278 157.793C47.628 159.785 47.8398 160.295 48.2157 160.607C48.7888 161.084 48.846 160.575 48.3905 159.116C48.2569 158.703 47.8955 157.418 47.5733 156.277C47.1913 154.863 46.915 154.125 46.7458 153.984C46.5955 153.859 46.4359 153.822 46.389 153.878Z" fill="#263238"/>
<path d="M57.6562 170.264C56.4975 169.46 56.3802 169.41 56.2396 169.579C56.099 169.748 56.1586 169.83 56.7459 170.366C57.446 170.995 59.569 172.378 60.1512 172.576C60.411 172.665 60.461 172.643 60.4123 172.491C60.3275 172.23 59.2877 171.398 57.6562 170.264Z" fill="#263238"/>
<path d="M41.9406 159.24C41.7639 159.299 41.7346 159.64 41.8852 159.956C41.9903 160.155 42.7437 160.892 43.9794 161.967C45.8477 163.599 45.9229 163.661 46.3046 163.661C46.8239 163.648 46.7721 163.462 46.0233 162.68C45.3403 161.954 42.0751 159.193 41.9406 159.24Z" fill="#263238"/>
<path d="M53.6302 171.955C53.3268 172.052 53.4327 172.823 53.9034 173.881C54.4509 175.115 55.1247 175.929 55.525 175.849C55.7987 175.806 55.794 175.755 55.4099 175.165C55.2579 174.928 54.8956 174.198 54.6178 173.538C54.0121 172.145 53.8397 171.874 53.6302 171.955Z" fill="#263238"/>
<path d="M41.563 166.103C39.8199 165.734 37.6185 165.382 37.1163 165.394C36.6142 165.405 36.5566 165.628 36.9685 165.954C37.5479 166.404 42.0868 167.078 42.7748 166.824C43.3111 166.618 42.9353 166.401 41.563 166.103Z" fill="#263238"/>
<path d="M46.0791 169.38C45.3318 169.649 44.3563 170.172 42.5901 171.246C41.1771 172.105 40.8209 172.477 41.1684 172.67C41.4064 172.804 43.9156 171.697 45.2286 170.882C46.8854 169.844 47.4222 168.892 46.0791 169.38Z" fill="#263238"/>
<path d="M47.7904 169.887C47.5391 170.266 47.1709 170.977 46.9728 171.463C46.502 172.661 45.8952 175.111 46.0284 175.333C46.2887 175.804 46.4932 175.481 47.4379 173.025C48.6602 169.911 48.7427 169.582 48.4796 169.364C48.2823 169.2 48.2495 169.22 47.7904 169.887Z" fill="#263238"/>
</g>
<path d="M19.6998 96C19.6998 96.7161 19.4153 97.4028 18.9089 97.9092C18.4026 98.4155 17.7158 98.7 16.9997 98.7C16.2837 98.7 15.5969 98.4155 15.0906 97.9092C14.5842 97.4028 14.2998 96.7161 14.2998 96C14.2998 95.2839 14.5842 94.5972 15.0906 94.0908C15.5969 93.5845 16.2837 93.3 16.9997 93.3C17.7158 93.3 18.4026 93.5845 18.9089 94.0908C19.4153 94.5972 19.6998 95.2839 19.6998 96Z" stroke="black" stroke-width="0.6"/>
<path d="M214.7 61C214.7 61.7161 214.415 62.4028 213.909 62.9092C213.403 63.4155 212.716 63.7 212 63.7C211.284 63.7 210.597 63.4155 210.091 62.9092C209.584 62.4028 209.3 61.7161 209.3 61C209.3 60.2839 209.584 59.5972 210.091 59.0908C210.597 58.5845 211.284 58.3 212 58.3C212.716 58.3 213.403 58.5845 213.909 59.0908C214.415 59.5972 214.7 60.2839 214.7 61Z" stroke="black" stroke-width="0.6"/>
<g filter="url(#filter2_d_3456_1503)">
<path d="M61.2897 47.6742C61.08 47.64 60.1533 47.4301 59.2507 47.2092C57.4037 46.7638 57.2281 46.7423 57.0138 47.0001C56.7766 47.2855 57.0254 47.5234 57.9272 47.8526L58.7951 48.1692L58.0853 48.2175C57.6893 48.2464 56.2533 48.3449 54.892 48.4431C53.5306 48.5414 52.0487 48.6951 51.598 48.7719C50.7635 48.9345 50.5133 48.9133 50.7122 48.6739C50.7734 48.6003 50.9482 48.014 51.1184 47.3616C51.4488 46.0329 51.3895 45.6567 50.8144 45.6146C50.3633 45.5666 47.1022 46.2496 45.0763 46.8073C44.2135 47.0397 43.4713 47.2167 43.436 47.1874C43.402 47.1747 43.4574 46.6604 43.5652 46.0651C43.8822 44.3051 43.7712 43.9015 42.8797 43.7209C41.9047 43.5332 35.2268 43.4934 35.0661 43.6868C34.8901 43.8985 35.3765 43.9758 37.0026 43.9887C37.9649 43.9946 39.7273 44.0584 40.9268 44.137C42.6773 44.2687 43.1132 44.3352 43.1752 44.5113C43.2647 44.7258 43.0965 46.0024 42.8196 47.2666C42.6801 47.8822 42.7478 48.1409 43.0474 48.1564C43.1308 48.1634 43.8302 47.9664 44.6173 47.7177C46.119 47.2536 47.5312 46.933 49.491 46.6161C50.4254 46.4587 50.6415 46.4672 50.6201 46.6362C50.6029 46.7464 50.3998 47.4026 50.1738 48.0863C49.9389 48.7628 49.7687 49.4152 49.7844 49.5217C49.8415 49.8648 50.1839 49.9004 51.4003 49.7439C54.0534 49.3805 58.8583 49.0778 58.6976 49.2712C58.6594 49.3172 58.4141 49.487 58.1677 49.6402C57.1022 50.2956 56.9848 50.9919 57.9762 50.8196C58.5333 50.7223 60.3487 49.8807 61.399 49.2437C61.9564 48.9131 62.0964 48.7804 62.1702 48.5305C62.2766 48.1519 61.8947 47.7878 61.2897 47.6742Z" fill="black" fill-opacity="0.65" shape-rendering="crispEdges"/>
</g>
<defs>
<filter id="filter0_d_3456_1503" x="195.565" y="86.0773" width="43.868" height="31.0699" filterUnits="userSpaceOnUse" color-interpolation-filters="sRGB">
<feFlood flood-opacity="0" result="BackgroundImageFix"/>
<feColorMatrix in="SourceAlpha" type="matrix" values="0 0 0 0 0 0 0 0 0 0 0 0 0 0 0 0 0 0 127 0" result="hardAlpha"/>
<feOffset dy="4"/>
<feGaussianBlur stdDeviation="5.85"/>
<feComposite in2="hardAlpha" operator="out"/>
<feColorMatrix type="matrix" values="0 0 0 0 0 0 0 0 0 0 0 0 0 0 0 0 0 0 0.1 0"/>
<feBlend mode="normal" in2="BackgroundImageFix" result="effect1_dropShadow_3456_1503"/>
<feBlend mode="normal" in="SourceGraphic" in2="effect1_dropShadow_3456_1503" result="shape"/>
</filter>
<filter id="filter1_d_3456_1503" x="24.9953" y="146.153" width="50.8387" height="45.401" filterUnits="userSpaceOnUse" color-interpolation-filters="sRGB">
<feFlood flood-opacity="0" result="BackgroundImageFix"/>
<feColorMatrix in="SourceAlpha" type="matrix" values="0 0 0 0 0 0 0 0 0 0 0 0 0 0 0 0 0 0 127 0" result="hardAlpha"/>
<feOffset dy="4"/>
<feGaussianBlur stdDeviation="5.85"/>
<feComposite in2="hardAlpha" operator="out"/>
<feColorMatrix type="matrix" values="0 0 0 0 0 0 0 0 0 0 0 0 0 0 0 0 0 0 0.1 0"/>
<feBlend mode="normal" in2="BackgroundImageFix" result="effect1_dropShadow_3456_1503"/>
<feBlend mode="normal" in="SourceGraphic" in2="effect1_dropShadow_3456_1503" result="shape"/>
</filter>
<filter id="filter2_d_3456_1503" x="23.3321" y="35.8596" width="50.5559" height="30.6866" filterUnits="userSpaceOnUse" color-interpolation-filters="sRGB">
<feFlood flood-opacity="0" result="BackgroundImageFix"/>
<feColorMatrix in="SourceAlpha" type="matrix" values="0 0 0 0 0 0 0 0 0 0 0 0 0 0 0 0 0 0 127 0" result="hardAlpha"/>
<feOffset dy="4"/>
<feGaussianBlur stdDeviation="5.85"/>
<feComposite in2="hardAlpha" operator="out"/>
<feColorMatrix type="matrix" values="0 0 0 0 0 0 0 0 0 0 0 0 0 0 0 0 0 0 0.1 0"/>
<feBlend mode="normal" in2="BackgroundImageFix" result="effect1_dropShadow_3456_1503"/>
<feBlend mode="normal" in="SourceGraphic" in2="effect1_dropShadow_3456_1503" result="shape"/>
</filter>
</defs>
</svg>
