<svg width="247" height="211" viewBox="0 0 247 211" fill="none" xmlns="http://www.w3.org/2000/svg">
<path fill-rule="evenodd" clip-rule="evenodd" d="M11.6123 86.1576C16.3549 44.0469 65.8569 30.1114 107.607 22.8494C148.803 15.6837 195.961 14.5909 217.7 50.3107C242.841 91.6209 239.834 148.616 203.73 180.789C172.547 208.578 129.357 180.883 91.8876 162.427C55.281 144.395 7.04552 126.708 11.6123 86.1576Z" fill="#FFCEC7"/>
<g filter="url(#filter0_d_3456_1504)">
<path d="M210.056 154.362C210.744 154.614 213.473 155.096 215.19 155.261C217.026 155.447 220.435 155.409 221.427 155.187C222.764 154.887 223.231 154.282 222.771 153.445C222.464 152.909 221.821 152.473 220.243 151.749C219.605 151.449 219.014 151.147 218.952 151.085C218.881 151.014 220.253 150.945 221.981 150.926C223.726 150.906 225.767 150.81 226.51 150.711C229.944 150.259 230.169 150.192 230.149 149.603C230.132 148.934 229.593 148.815 226.727 148.781C224.163 148.757 218.359 149.023 217.599 149.203C216.582 149.449 216.003 150.056 216.189 150.666C216.374 151.308 216.947 151.705 219.759 153.166C220.507 153.561 221.128 153.925 221.127 153.973C221.124 154.132 218.26 154.328 216.429 154.293C214.232 154.248 212.132 154.122 211.005 153.964C210.52 153.9 209.917 153.83 209.662 153.818L209.201 153.794L209.396 153.99C209.497 154.108 209.804 154.27 210.056 154.362Z" fill="black" fill-opacity="0.85" shape-rendering="crispEdges"/>
</g>
<path d="M219.067 92.5845C219.252 91.8928 219.704 91.3031 220.325 90.945C220.945 90.587 221.682 90.49 222.373 90.6753C223.065 90.8606 223.655 91.3131 224.013 91.9333C224.371 92.5534 224.468 93.2904 224.283 93.9821C224.097 94.6738 223.645 95.2635 223.025 95.6216C222.404 95.9796 221.667 96.0766 220.976 95.8913C220.284 95.706 219.694 95.2534 219.336 94.6333C218.978 94.0131 218.881 93.2762 219.067 92.5845Z" stroke="black" stroke-width="0.6"/>
<path d="M24.0832 87.2888L26.444 87.2654C26.4567 87.2653 26.4694 87.2679 26.4811 87.273C26.4929 87.278 26.5035 87.2854 26.5123 87.2946C26.7095 87.5061 26.5156 87.6063 26.3197 87.6083C25.5454 87.6165 24.8029 87.622 24.0923 87.6246C24.0801 87.6246 24.0681 87.627 24.0569 87.6317C24.0457 87.6364 24.0356 87.6433 24.027 87.652C24.0185 87.6606 24.0118 87.6709 24.0072 87.6821C24.0027 87.6934 24.0004 87.7055 24.0005 87.7176L24.0123 90.0485C24.0122 90.0712 24.0039 90.0929 23.9888 90.1097C23.8838 90.2285 23.781 90.2242 23.6804 90.0967C23.6673 90.0802 23.6602 90.0603 23.6602 90.04L23.6505 87.7137C23.6505 87.7016 23.6481 87.6895 23.6435 87.6783C23.6389 87.6671 23.6321 87.6569 23.6235 87.6483C23.6149 87.6397 23.6047 87.6329 23.5935 87.6282C23.5822 87.6236 23.5702 87.6213 23.5581 87.6213L21.2408 87.6402C21.2253 87.6402 21.21 87.6363 21.1964 87.6288C21.1827 87.6213 21.1712 87.6104 21.1627 87.5972C21.0365 87.3981 21.0942 87.2975 21.3358 87.2953C22.0764 87.2888 22.8171 87.2838 23.5581 87.2803C23.5822 87.2803 23.6054 87.2706 23.6225 87.2534C23.6397 87.2363 23.6495 87.213 23.6498 87.1886C23.6554 86.4437 23.6559 85.7006 23.6511 84.9592C23.6492 84.7464 23.7741 84.5447 23.983 84.764C23.9993 84.7812 24.0086 84.8039 24.009 84.8278L23.9901 87.1957C23.99 87.208 23.9923 87.2202 23.9969 87.2315C24.0016 87.2429 24.0084 87.2532 24.0171 87.2618C24.0257 87.2705 24.0361 87.2774 24.0474 87.282C24.0588 87.2866 24.0709 87.2889 24.0832 87.2888Z" fill="#001133"/>
<path d="M200.083 125.289L202.444 125.265C202.457 125.265 202.469 125.268 202.481 125.273C202.493 125.278 202.503 125.285 202.512 125.295C202.71 125.506 202.516 125.606 202.32 125.608C201.545 125.617 200.803 125.622 200.092 125.625C200.08 125.625 200.068 125.627 200.057 125.632C200.046 125.636 200.036 125.643 200.027 125.652C200.019 125.661 200.012 125.671 200.007 125.682C200.003 125.693 200 125.705 200.001 125.718L200.012 128.049C200.012 128.071 200.004 128.093 199.989 128.11C199.884 128.229 199.781 128.224 199.68 128.097C199.667 128.08 199.66 128.06 199.66 128.04L199.65 125.714C199.651 125.702 199.648 125.69 199.644 125.678C199.639 125.667 199.632 125.657 199.624 125.648C199.615 125.64 199.605 125.633 199.593 125.628C199.582 125.624 199.57 125.621 199.558 125.621L197.241 125.64C197.225 125.64 197.21 125.636 197.196 125.629C197.183 125.621 197.171 125.61 197.163 125.597C197.037 125.398 197.094 125.297 197.336 125.295C198.076 125.289 198.817 125.284 199.558 125.28C199.582 125.28 199.605 125.271 199.623 125.253C199.64 125.236 199.649 125.213 199.65 125.189C199.655 124.444 199.656 123.701 199.651 122.959C199.649 122.746 199.774 122.545 199.983 122.764C199.999 122.781 200.009 122.804 200.009 122.828L199.99 125.196C199.99 125.208 199.992 125.22 199.997 125.232C200.002 125.243 200.008 125.253 200.017 125.262C200.026 125.271 200.036 125.277 200.047 125.282C200.059 125.287 200.071 125.289 200.083 125.289Z" fill="#001133"/>
<g clip-path="url(#clip0_3456_1504)">
<path d="M172.331 210.286H108.718C99.4652 210.286 91.9385 202.759 91.9385 193.507V27.3884C91.9385 18.1356 99.4652 10.6089 108.718 10.6089H172.331C181.584 10.6089 189.111 18.1356 189.111 27.3884V193.507C189.111 202.759 181.584 210.286 172.331 210.286Z" fill="#2C2A2A"/>
<path d="M172.377 205.744H108.672C101.824 205.744 96.2502 200.17 96.2502 193.322V27.2468C96.2502 20.3986 101.824 14.8252 108.672 14.8252H172.377C179.225 14.8252 184.799 20.3986 184.799 27.2468V193.322C184.799 200.17 179.225 205.744 172.377 205.744Z" fill="white"/>
<path d="M149.534 25.88H131.519C129.141 25.88 127.207 23.9464 127.207 21.5682C127.207 19.1899 129.141 17.2563 131.519 17.2563H149.534C151.912 17.2563 153.845 19.1899 153.845 21.5682C153.845 23.9464 151.912 25.88 149.534 25.88Z" fill="#2C2A2A"/>
<path d="M167.917 76.5939H115.204C114.16 76.5939 113.31 75.5134 113.31 74.1893C113.31 72.8651 114.16 71.7847 115.204 71.7847H167.917C168.961 71.7847 169.811 72.8651 169.811 74.1893C169.811 75.5134 168.961 76.5939 167.917 76.5939Z" fill="#2C2A2A"/>
<path d="M167.917 87.2496H115.204C114.16 87.2496 113.31 86.1692 113.31 84.845C113.31 83.5208 114.16 82.4404 115.204 82.4404H167.917C168.961 82.4404 169.811 83.5208 169.811 84.845C169.811 86.1692 168.961 87.2496 167.917 87.2496Z" fill="#2C2A2A"/>
<path d="M152.801 97.9059H115.204C114.16 97.9059 113.31 96.8255 113.31 95.5013C113.31 94.1771 114.16 93.0967 115.204 93.0967H152.801C153.845 93.0967 154.695 94.1771 154.695 95.5013C154.695 96.8255 153.845 97.9059 152.801 97.9059Z" fill="#2C2A2A"/>
<path d="M140.501 160.611C152.928 160.611 163.002 150.537 163.002 138.11C163.002 125.682 152.928 115.608 140.501 115.608C128.074 115.608 118 125.682 118 138.11C118 150.537 128.074 160.611 140.501 160.611Z" fill="#E8505B"/>
<path d="M79.8661 110.838L74.4113 112.699L74.3257 104.823L79.2897 104.767L79.8661 110.838Z" fill="#F3A3A6"/>
<path d="M74.9646 106.997C77.9772 106.997 80.4194 104.555 80.4194 101.542C80.4194 98.5296 77.9772 96.0874 74.9646 96.0874C71.952 96.0874 69.5098 98.5296 69.5098 101.542C69.5098 104.555 71.952 106.997 74.9646 106.997Z" fill="#F3A3A6"/>
<path d="M76.457 100.985C75.5445 100.969 74.9351 100.053 74.5695 99.2132C74.2039 98.3765 73.8284 97.4114 72.9818 97.0721C72.2868 96.7954 71.0878 98.729 70.5344 98.225C69.9579 97.6979 70.485 94.9508 71.0845 94.4534C71.684 93.956 72.5108 93.8506 73.2882 93.8045C75.1888 93.6958 77.0993 93.8275 78.967 94.1964C80.1198 94.4237 81.3123 94.7729 82.1522 95.5964C83.2162 96.6406 83.5028 98.2316 83.595 99.7204C83.6905 101.242 83.618 102.84 82.8934 104.184C82.1654 105.524 80.6271 106.526 79.1349 106.203C78.9768 105.396 79.1185 104.566 79.1679 103.742C79.2173 102.922 79.1448 102.036 78.6376 101.387C78.1303 100.738 77.0565 100.491 76.48 101.078" fill="#2F2E43"/>
<path d="M83.1865 102.801C83.7267 102.396 84.3757 102.053 85.0476 102.129C85.7756 102.208 86.3949 102.801 86.5892 103.506C86.7835 104.211 86.5826 104.991 86.1412 105.574C85.6998 106.157 85.0377 106.546 84.3328 106.744C83.9244 106.859 83.4797 106.908 83.0877 106.744C82.5113 106.503 82.195 105.775 82.4124 105.189" fill="#2F2E43"/>
<path d="M62.889 154.335C62.5465 156.13 63.2283 157.76 64.4174 157.975C65.6033 158.189 66.8451 156.904 67.1877 155.109C67.3359 154.394 67.303 153.653 67.0921 152.951L71.2887 124.817L65.6362 123.819L63.7751 152.355C63.3206 152.938 63.0142 153.617 62.889 154.338V154.335Z" fill="#F3A3A6"/>
<path d="M74.3124 109.085L70.4618 109.128C67.7442 109.57 67.0196 111.032 66.4332 113.72C65.534 117.821 64.3877 123.286 64.6281 123.362C65.0135 123.487 71.6015 126.497 74.935 125.753L74.3124 109.085Z" fill="#E8505B"/>
<path d="M79.0411 198.5L73.916 198.558L73.9972 205.827L79.1223 205.77L79.0411 198.5Z" fill="#F3A3A6"/>
<path d="M69.0422 210.286C68.502 210.293 68.0244 210.286 67.6621 210.256C66.2984 210.148 64.9907 209.156 64.3286 208.576C64.0321 208.316 63.9333 207.895 64.0815 207.532C64.1869 207.272 64.4043 207.074 64.6744 206.992L68.2616 205.925L74.0425 201.929L74.1084 202.044C74.1347 202.087 74.7178 203.112 74.9154 203.807C74.9912 204.07 74.9747 204.291 74.866 204.462C74.7902 204.581 74.6848 204.65 74.5992 204.693C74.7046 204.802 75.0373 205.022 76.0584 205.174C77.544 205.394 77.8437 203.85 77.8536 203.784L77.8635 203.731L77.9063 203.701C78.6079 203.237 79.0394 203.026 79.191 203.069C79.2865 203.095 79.4413 203.141 79.9091 207.331C79.9519 207.463 80.2582 208.425 80.0672 209.351C79.8596 210.358 75.4688 210.059 74.5926 209.99C74.5662 209.993 71.2854 210.263 69.0357 210.286H69.0422Z" fill="#2F2E43"/>
<path d="M93.5706 192.614L89.2522 195.375L93.1679 201.5L97.4863 198.739L93.5706 192.614Z" fill="#F3A3A6"/>
<path d="M87.9661 209.077C87.3633 209.084 86.8099 209.018 86.4147 208.952C86.026 208.886 85.7196 208.583 85.6537 208.194C85.6043 207.914 85.6867 207.634 85.8711 207.424L88.3482 204.62L91.1382 198.171L91.2568 198.233C91.2996 198.257 92.3372 198.816 92.8741 199.301C93.0784 199.485 93.1805 199.68 93.1805 199.884C93.1805 200.025 93.1278 200.141 93.0751 200.22C93.2233 200.256 93.6219 200.266 94.5672 199.854C95.9441 199.255 95.3808 197.785 95.3545 197.726L95.3347 197.677L95.3578 197.631C95.7069 196.866 95.9639 196.458 96.1121 196.412C96.2076 196.386 96.3624 196.339 98.9779 199.647C99.0833 199.736 99.8541 200.388 100.18 201.274C100.536 202.239 96.6556 204.308 95.8716 204.713C95.8486 204.732 91.7937 207.746 90.127 208.609C89.4649 208.952 88.6776 209.064 87.9595 209.071L87.9661 209.077Z" fill="#2F2E43"/>
<path d="M82.1291 137.651L67.7806 137.809L66.6277 151.169L72.8731 200.427L80.1988 200.345L76.9543 171.891L89.1222 197.479L95.5817 192.848L86.0358 168.94C86.0358 168.94 89.1189 147.987 86.4574 142.806C83.7959 137.624 82.1324 137.644 82.1324 137.644V137.651H82.1291Z" fill="#2F2E43"/>
<path d="M89.2738 138.385L66.4861 138.639L72.995 109.102L82.9263 108.99L89.2738 138.385Z" fill="#E8505B"/>
<path d="M91.5004 154.018C91.8825 155.807 91.2369 157.451 90.0544 157.691C88.8719 157.932 87.6037 156.677 87.2216 154.888C87.0569 154.176 87.0733 153.435 87.2677 152.727L82.4453 124.692L88.0747 123.569L90.5682 152.058C91.036 152.632 91.3555 153.304 91.5004 154.022V154.018Z" fill="#F3A3A6"/>
<path d="M79.0755 109.033L82.9262 108.99C85.6536 109.372 86.4079 110.818 87.0568 113.493C88.045 117.574 89.3132 123.009 89.076 123.091C88.6906 123.223 82.1752 126.379 78.8252 125.71L79.0788 109.033H79.0755Z" fill="#E8505B"/>
<path d="M113.847 210.286C113.847 210.464 113.702 210.609 113.524 210.609H43.3228C43.1449 210.609 43 210.464 43 210.286C43 210.108 43.1449 209.963 43.3228 209.963H113.524C113.702 209.963 113.847 210.108 113.847 210.286Z" fill="#3F3D58"/>
<path d="M132 139.009L137.6 144.609L148.8 132.609" stroke="white" stroke-width="2" stroke-linecap="round" stroke-linejoin="round"/>
</g>
<g filter="url(#filter1_d_3456_1504)">
<path d="M53.6669 138.279C53.534 138.343 53.0933 138.644 52.6963 138.95C51.8134 139.63 49.3331 142.557 49.2384 143.034C49.0751 143.804 49.9975 143.363 51.3473 142.007C52.6736 140.678 54.0293 139.104 54.1697 138.744C54.2959 138.42 54.0015 138.144 53.6669 138.279Z" fill="#263238"/>
<path d="M48.9396 134.715C48.0936 134.949 47.2106 136.757 46.5245 139.666C46.2103 140.962 46.1686 141.356 46.3189 141.481C46.5444 141.669 46.5678 141.64 47.2025 140.15C47.4723 139.501 48.0105 138.375 48.3944 137.646C49.3524 135.805 49.5099 135.443 49.5048 135.106C49.4965 134.733 49.3195 134.602 48.9396 134.715Z" fill="#263238"/>
<path d="M57.6656 145.701C56.6424 145.613 51.8947 145.591 51.7384 145.684C51.2351 145.964 51.7065 146.372 52.5763 146.396C54.1782 146.456 56.9735 146.381 57.4239 146.279C57.8993 146.165 58.2494 145.916 58.0991 145.791C58.0615 145.76 57.8581 145.718 57.6656 145.701Z" fill="#263238"/>
<path d="M40.3893 133.487C40.2097 133.703 40.5551 135.849 41.028 137.402C41.6282 139.394 41.8401 139.904 42.2159 140.216C42.7891 140.693 42.8463 140.184 42.3907 138.725C42.2572 138.312 41.8957 137.027 41.5735 135.885C41.1915 134.472 40.9152 133.734 40.7461 133.593C40.5957 133.468 40.4361 133.431 40.3893 133.487Z" fill="#263238"/>
<path d="M51.6566 149.873C50.4979 149.069 50.3805 149.019 50.24 149.188C50.0994 149.357 50.1589 149.439 50.7463 149.974C51.4464 150.604 53.5694 151.987 54.1516 152.185C54.4114 152.274 54.4614 152.252 54.4127 152.1C54.3279 151.839 53.2881 151.007 51.6566 149.873Z" fill="#263238"/>
<path d="M35.9408 138.849C35.7641 138.908 35.7349 139.249 35.8855 139.565C35.9905 139.764 36.7439 140.501 37.9796 141.576C39.848 143.208 39.9232 143.27 40.3049 143.27C40.8242 143.257 40.7723 143.07 40.0235 142.289C39.3405 141.563 36.0753 138.801 35.9408 138.849Z" fill="#263238"/>
<path d="M47.6304 151.563C47.3271 151.661 47.4329 152.432 47.9036 153.49C48.4512 154.724 49.1249 155.538 49.5253 155.458C49.799 155.415 49.7942 155.363 49.4102 154.774C49.2581 154.537 48.8958 153.807 48.618 153.147C48.0124 151.754 47.8399 151.483 47.6304 151.563Z" fill="#263238"/>
<path d="M35.5632 145.712C33.82 145.343 31.6186 144.991 31.1165 145.003C30.6143 145.014 30.5567 145.236 30.9686 145.563C31.548 146.013 36.0869 146.687 36.7749 146.433C37.3112 146.227 36.9355 146.01 35.5632 145.712Z" fill="#263238"/>
<path d="M40.0795 148.989C39.3321 149.258 38.3567 149.781 36.5904 150.855C35.1774 151.714 34.8213 152.086 35.1688 152.279C35.4067 152.413 37.916 151.306 39.2289 150.49C40.8857 149.453 41.4226 148.501 40.0795 148.989Z" fill="#263238"/>
<path d="M41.7906 149.496C41.5392 149.875 41.171 150.585 40.973 151.072C40.5021 152.27 39.8953 154.72 40.0285 154.942C40.2888 155.413 40.4933 155.09 41.4381 152.634C42.6604 149.52 42.7428 149.191 42.4797 148.972C42.2824 148.808 42.2496 148.829 41.7906 149.496Z" fill="#263238"/>
</g>
<g filter="url(#filter2_d_3456_1504)">
<path d="M179.028 47.6248C179.222 47.7121 180.063 48.1547 180.878 48.6017C182.546 49.51 182.71 49.5762 182.984 49.3826C183.287 49.1684 183.108 48.8742 182.322 48.3227L181.566 47.7924L182.264 47.9294C182.654 48.004 184.067 48.2805 185.407 48.538C186.748 48.7954 188.219 49.0305 188.674 49.0729C189.522 49.1319 189.758 49.2171 189.504 49.3968C189.426 49.4521 189.105 49.9732 188.772 50.5593C188.109 51.7572 188.069 52.1359 188.614 52.3254C189.037 52.4886 192.364 52.6728 194.465 52.6585C195.358 52.6573 196.121 52.6785 196.148 52.7159C196.177 52.737 195.991 53.2194 195.732 53.7665C194.971 55.3845 194.973 55.8031 195.788 56.2083C196.681 56.6419 203.121 58.4087 203.326 58.2636C203.551 58.1046 203.101 57.904 201.534 57.4707C200.606 57.216 198.92 56.6982 197.782 56.3118C196.125 55.7315 195.721 55.5545 195.707 55.3684C195.676 55.138 196.169 53.9484 196.764 52.7989C197.058 52.2404 197.059 51.9731 196.774 51.8805C196.695 51.8521 195.969 51.8614 195.144 51.8979C193.573 51.9575 192.126 51.9017 190.151 51.7006C189.208 51.6108 189.001 51.5467 189.066 51.389C189.111 51.287 189.477 50.7057 189.872 50.1037C190.274 49.5111 190.607 48.925 190.62 48.8181C190.653 48.4719 190.332 48.3489 189.116 48.1852C186.46 47.8495 181.74 46.8983 181.945 46.7531C181.994 46.7186 182.275 46.6181 182.553 46.5338C183.752 46.1765 184.045 45.5344 183.043 45.4442C182.48 45.394 180.508 45.7371 179.329 46.0806C178.705 46.2556 178.535 46.3475 178.399 46.5698C178.199 46.908 178.473 47.3585 179.028 47.6248Z" fill="black" fill-opacity="0.65" shape-rendering="crispEdges"/>
</g>
<path d="M49.0666 48.5845C49.2519 47.8928 49.7044 47.3031 50.3246 46.945C50.9447 46.587 51.6817 46.49 52.3734 46.6753C53.0651 46.8606 53.6548 47.3131 54.0129 47.9333C54.3709 48.5534 54.4679 49.2904 54.2826 49.9821C54.0972 50.6738 53.6447 51.2635 53.0246 51.6216C52.4044 51.9796 51.6675 52.0766 50.9758 51.8913C50.2841 51.706 49.6944 51.2534 49.3363 50.6333C48.9783 50.0131 48.8812 49.2762 49.0666 48.5845Z" stroke="black" stroke-width="0.6"/>
<defs>
<filter id="filter0_d_3456_1504" x="197.501" y="141.079" width="44.3497" height="30.0006" filterUnits="userSpaceOnUse" color-interpolation-filters="sRGB">
<feFlood flood-opacity="0" result="BackgroundImageFix"/>
<feColorMatrix in="SourceAlpha" type="matrix" values="0 0 0 0 0 0 0 0 0 0 0 0 0 0 0 0 0 0 127 0" result="hardAlpha"/>
<feOffset dy="4"/>
<feGaussianBlur stdDeviation="5.85"/>
<feComposite in2="hardAlpha" operator="out"/>
<feColorMatrix type="matrix" values="0 0 0 0 0 0 0 0 0 0 0 0 0 0 0 0 0 0 0.1 0"/>
<feBlend mode="normal" in2="BackgroundImageFix" result="effect1_dropShadow_3456_1504"/>
<feBlend mode="normal" in="SourceGraphic" in2="effect1_dropShadow_3456_1504" result="shape"/>
</filter>
<filter id="filter1_d_3456_1504" x="18.9956" y="125.762" width="50.8387" height="45.401" filterUnits="userSpaceOnUse" color-interpolation-filters="sRGB">
<feFlood flood-opacity="0" result="BackgroundImageFix"/>
<feColorMatrix in="SourceAlpha" type="matrix" values="0 0 0 0 0 0 0 0 0 0 0 0 0 0 0 0 0 0 127 0" result="hardAlpha"/>
<feOffset dy="4"/>
<feGaussianBlur stdDeviation="5.85"/>
<feComposite in2="hardAlpha" operator="out"/>
<feColorMatrix type="matrix" values="0 0 0 0 0 0 0 0 0 0 0 0 0 0 0 0 0 0 0.1 0"/>
<feBlend mode="normal" in2="BackgroundImageFix" result="effect1_dropShadow_3456_1504"/>
<feBlend mode="normal" in="SourceGraphic" in2="effect1_dropShadow_3456_1504" result="shape"/>
</filter>
<filter id="filter2_d_3456_1504" x="166.634" y="37.7395" width="48.4466" height="36.2325" filterUnits="userSpaceOnUse" color-interpolation-filters="sRGB">
<feFlood flood-opacity="0" result="BackgroundImageFix"/>
<feColorMatrix in="SourceAlpha" type="matrix" values="0 0 0 0 0 0 0 0 0 0 0 0 0 0 0 0 0 0 127 0" result="hardAlpha"/>
<feOffset dy="4"/>
<feGaussianBlur stdDeviation="5.85"/>
<feComposite in2="hardAlpha" operator="out"/>
<feColorMatrix type="matrix" values="0 0 0 0 0 0 0 0 0 0 0 0 0 0 0 0 0 0 0.1 0"/>
<feBlend mode="normal" in2="BackgroundImageFix" result="effect1_dropShadow_3456_1504"/>
<feBlend mode="normal" in="SourceGraphic" in2="effect1_dropShadow_3456_1504" result="shape"/>
</filter>
<clipPath id="clip0_3456_1504">
<rect width="146.111" height="200" fill="white" transform="translate(43 10.6089)"/>
</clipPath>
</defs>
</svg>
