<svg width="247" height="211" viewBox="0 0 247 211" fill="none" xmlns="http://www.w3.org/2000/svg">
<path fill-rule="evenodd" clip-rule="evenodd" d="M12.4893 86.1576C17.2319 44.0469 66.7339 30.1114 108.484 22.8494C149.68 15.6837 196.838 14.5909 218.577 50.3107C243.718 91.6209 240.711 148.616 204.607 180.789C173.424 208.578 130.234 180.883 92.7646 162.427C56.1579 144.395 7.92248 126.708 12.4893 86.1576Z" fill="#FFCEC7"/>
<path d="M208.066 94.9756C208.252 94.2839 208.704 93.6942 209.324 93.3361C209.944 92.9781 210.681 92.8811 211.373 93.0664C212.065 93.2517 212.655 93.7043 213.013 94.3244C213.371 94.9445 213.468 95.6815 213.282 96.3732C213.097 97.0649 212.644 97.6546 212.024 98.0127C211.404 98.3707 210.667 98.4677 209.976 98.2824C209.284 98.0971 208.694 97.6446 208.336 97.0244C207.978 96.4043 207.881 95.6673 208.066 94.9756Z" stroke="black" stroke-width="0.6"/>
<g clip-path="url(#clip0_3456_1505)">
<path d="M175.369 58.0123H174.274V27.9868C174.274 23.3779 172.443 18.9577 169.184 15.6987C165.925 12.4398 161.505 10.6089 156.896 10.6089H93.2817C90.9996 10.6088 88.7399 11.0583 86.6315 11.9316C84.5231 12.8049 82.6073 14.0849 80.9936 15.6985C79.3799 17.3122 78.0998 19.2279 77.2265 21.3363C76.3531 23.4446 75.9036 25.7044 75.9036 27.9865V192.709C75.9036 197.318 77.7344 201.738 80.9934 204.997C84.2524 208.256 88.6725 210.087 93.2814 210.087H156.895C161.504 210.087 165.924 208.256 169.183 204.997C172.442 201.738 174.273 197.318 174.273 192.709V79.385H175.368L175.369 58.0123Z" fill="#3F3D56"/>
<path d="M170.709 26.8229V193.872C170.709 197.367 169.321 200.718 166.85 203.189C164.379 205.66 161.029 207.049 157.534 207.051H92.6145C89.1187 207.051 85.7659 205.663 83.2935 203.192C80.821 200.72 79.4315 197.368 79.4304 193.872V26.8229C79.4315 23.3273 80.8209 19.9752 83.2933 17.5039C85.7656 15.0326 89.1183 13.6446 92.6139 13.645H100.489C100.102 14.5959 99.9552 15.6273 100.06 16.6484C100.166 17.6695 100.52 18.6492 101.093 19.5012C101.665 20.3532 102.438 21.0516 103.344 21.5349C104.25 22.0182 105.26 22.2716 106.287 22.2729H143.298C144.325 22.2716 145.335 22.0182 146.241 21.5349C147.147 21.0516 147.92 20.3532 148.492 19.5012C149.065 18.6492 149.419 17.6695 149.525 16.6484C149.63 15.6273 149.483 14.5959 149.096 13.645H157.532C161.026 13.6456 164.377 15.0338 166.848 17.5045C169.319 19.9752 170.708 23.326 170.709 26.8204V26.8229Z" fill="white"/>
<path d="M125.058 93.8826C140.027 93.8826 152.161 81.7481 152.161 66.7795C152.161 51.8108 140.027 39.6763 125.058 39.6763C110.089 39.6763 97.9548 51.8108 97.9548 66.7795C97.9548 81.7481 110.089 93.8826 125.058 93.8826Z" fill="#E8505B"/>
<path d="M154.618 123.045H96.9288C96.6456 123.045 96.3741 122.932 96.1738 122.732C95.9735 122.532 95.8609 122.26 95.8606 121.977V107.667C95.861 107.384 95.9736 107.113 96.1739 106.912C96.3741 106.712 96.6456 106.599 96.9288 106.599H154.618C154.901 106.599 155.172 106.712 155.372 106.912C155.573 107.113 155.685 107.384 155.686 107.667V121.977C155.685 122.261 155.573 122.532 155.372 122.732C155.172 122.933 154.901 123.045 154.618 123.046V123.045ZM96.9288 107.026C96.7589 107.026 96.5959 107.094 96.4757 107.214C96.3555 107.334 96.2879 107.497 96.2878 107.667V121.977C96.2879 122.147 96.3555 122.31 96.4757 122.431C96.5959 122.551 96.7589 122.618 96.9288 122.619H154.618C154.787 122.618 154.95 122.551 155.071 122.431C155.191 122.31 155.258 122.147 155.259 121.977V107.667C155.258 107.497 155.191 107.334 155.071 107.214C154.95 107.094 154.787 107.026 154.618 107.026H96.9288Z" fill="#2C2A2A"/>
<path d="M114.769 111.752C114.571 111.752 114.381 111.831 114.241 111.971C114.1 112.112 114.021 112.302 114.021 112.5C114.021 112.699 114.1 112.889 114.241 113.029C114.381 113.169 114.571 113.248 114.769 113.248H150.023C150.221 113.256 150.415 113.184 150.56 113.049C150.706 112.915 150.792 112.728 150.799 112.529C150.807 112.331 150.735 112.138 150.601 111.992C150.466 111.847 150.279 111.761 150.081 111.753C150.07 111.753 150.059 111.753 150.048 111.753L114.769 111.752Z" fill="#2C2A2A"/>
<path d="M114.769 116.239C114.571 116.239 114.381 116.318 114.241 116.458C114.1 116.598 114.021 116.788 114.021 116.987C114.021 117.185 114.1 117.375 114.241 117.515C114.381 117.656 114.571 117.734 114.769 117.734H150.023C150.221 117.742 150.415 117.671 150.56 117.536C150.706 117.401 150.792 117.214 150.799 117.016C150.807 116.817 150.735 116.624 150.601 116.479C150.466 116.333 150.279 116.247 150.081 116.24C150.07 116.239 150.059 116.239 150.048 116.239L114.769 116.239Z" fill="#2C2A2A"/>
<path d="M154.618 146.897H96.9288C96.6456 146.897 96.3741 146.784 96.1738 146.584C95.9735 146.384 95.8609 146.112 95.8606 145.829V131.519C95.861 131.236 95.9736 130.964 96.1739 130.764C96.3741 130.564 96.6456 130.451 96.9288 130.451H154.618C154.901 130.451 155.172 130.564 155.372 130.764C155.573 130.964 155.685 131.236 155.686 131.519V145.829C155.685 146.112 155.573 146.384 155.372 146.584C155.172 146.784 154.901 146.897 154.618 146.897ZM96.9288 130.878C96.7589 130.878 96.5959 130.946 96.4757 131.066C96.3555 131.186 96.2879 131.349 96.2878 131.519V145.829C96.2879 145.999 96.3555 146.162 96.4757 146.282C96.5959 146.402 96.7589 146.47 96.9288 146.47H154.618C154.787 146.47 154.95 146.402 155.071 146.282C155.191 146.162 155.258 145.999 155.259 145.829V131.519C155.258 131.349 155.191 131.186 155.071 131.066C154.95 130.946 154.787 130.878 154.618 130.878H96.9288Z" fill="#2C2A2A"/>
<path d="M114.769 135.682C114.571 135.682 114.381 135.76 114.241 135.901C114.1 136.041 114.021 136.231 114.021 136.43C114.021 136.628 114.1 136.818 114.241 136.958C114.381 137.099 114.571 137.177 114.769 137.177H150.023C150.219 137.176 150.406 137.099 150.545 136.961C150.684 136.824 150.764 136.637 150.767 136.442C150.77 136.246 150.697 136.057 150.562 135.915C150.428 135.773 150.243 135.689 150.048 135.682H114.769V135.682Z" fill="#2C2A2A"/>
<path d="M114.769 140.169C114.571 140.169 114.381 140.248 114.241 140.388C114.1 140.528 114.021 140.718 114.021 140.917C114.021 141.115 114.1 141.305 114.241 141.446C114.381 141.586 114.571 141.665 114.769 141.665H150.023C150.219 141.664 150.406 141.586 150.545 141.448C150.684 141.311 150.764 141.124 150.767 140.929C150.77 140.733 150.697 140.544 150.562 140.402C150.428 140.26 150.243 140.177 150.048 140.169H114.769V140.169Z" fill="#2C2A2A"/>
<path d="M154.618 170.827H96.9288C96.6456 170.826 96.3741 170.714 96.1738 170.513C95.9735 170.313 95.8609 170.042 95.8606 169.758V155.449C95.861 155.165 95.9736 154.894 96.1739 154.694C96.3741 154.493 96.6456 154.381 96.9288 154.38H154.618C154.901 154.381 155.172 154.493 155.372 154.694C155.573 154.894 155.685 155.165 155.686 155.449V169.759C155.685 170.042 155.573 170.313 155.372 170.514C155.172 170.714 154.901 170.827 154.618 170.827V170.827ZM96.9288 154.808C96.7589 154.808 96.5959 154.875 96.4757 154.995C96.3555 155.116 96.2879 155.279 96.2878 155.449V169.759C96.2879 169.929 96.3555 170.092 96.4757 170.212C96.5959 170.332 96.7589 170.4 96.9288 170.4H154.618C154.787 170.4 154.95 170.332 155.071 170.212C155.191 170.092 155.258 169.929 155.259 169.759V155.449C155.258 155.279 155.191 155.116 155.071 154.995C154.95 154.875 154.787 154.808 154.618 154.808H96.9288Z" fill="#2C2A2A"/>
<path d="M114.769 159.612C114.571 159.612 114.381 159.691 114.241 159.831C114.1 159.971 114.021 160.161 114.021 160.36C114.021 160.558 114.1 160.748 114.241 160.888C114.381 161.029 114.571 161.108 114.769 161.108H150.023C150.121 161.111 150.219 161.096 150.311 161.062C150.404 161.028 150.488 160.976 150.56 160.909C150.632 160.842 150.69 160.762 150.731 160.673C150.773 160.583 150.796 160.487 150.799 160.389C150.803 160.291 150.788 160.193 150.753 160.1C150.719 160.008 150.667 159.924 150.601 159.852C150.534 159.78 150.454 159.722 150.364 159.68C150.275 159.639 150.179 159.616 150.081 159.613C150.07 159.612 150.059 159.612 150.048 159.612L114.769 159.612Z" fill="#2C2A2A"/>
<path d="M114.769 164.099C114.571 164.099 114.381 164.178 114.241 164.318C114.1 164.458 114.021 164.649 114.021 164.847C114.021 165.045 114.1 165.236 114.241 165.376C114.381 165.516 114.571 165.595 114.769 165.595H150.023C150.121 165.599 150.219 165.583 150.311 165.549C150.404 165.515 150.488 165.463 150.56 165.396C150.632 165.329 150.69 165.249 150.731 165.16C150.773 165.071 150.796 164.974 150.799 164.876C150.803 164.778 150.788 164.68 150.753 164.588C150.719 164.496 150.667 164.411 150.601 164.339C150.534 164.267 150.454 164.209 150.364 164.168C150.275 164.127 150.179 164.104 150.081 164.1C150.07 164.1 150.059 164.099 150.048 164.099H114.769L114.769 164.099Z" fill="#2C2A2A"/>
<path d="M207.832 210.609H0.543941C0.24334 210.609 0 210.478 0 210.316C0 210.154 0.243621 210.022 0.543941 210.022H207.832C208.133 210.022 208.376 210.154 208.376 210.316C208.376 210.478 208.133 210.609 207.832 210.609Z" fill="#2C2A2A"/>
<path d="M199.054 199.167C198.168 199.478 197.217 199.556 196.293 199.394C195.368 199.231 194.501 198.832 193.775 198.237C191.927 196.686 191.347 194.129 190.875 191.762L189.48 184.761L192.401 186.772C194.501 188.218 196.649 189.71 198.103 191.805C199.557 193.9 200.192 196.759 199.024 199.026" fill="#2C2A2A"/>
<path d="M198.603 208.131C198.97 205.453 199.348 202.741 199.09 200.034C198.861 197.63 198.128 195.282 196.635 193.357C195.842 192.337 194.878 191.463 193.785 190.775C193.5 190.595 193.238 191.047 193.521 191.226C195.412 192.421 196.875 194.186 197.698 196.265C198.608 198.578 198.754 201.1 198.596 203.557C198.501 205.042 198.301 206.518 198.098 207.993C198.082 208.059 198.092 208.129 198.126 208.189C198.16 208.249 198.215 208.293 198.281 208.314C198.348 208.332 198.419 208.323 198.479 208.288C198.539 208.254 198.583 208.198 198.602 208.131H198.603Z" fill="#2C2A2A"/>
<path d="M195.957 203.834C195.577 204.411 195.055 204.881 194.441 205.198C193.827 205.515 193.141 205.668 192.451 205.644C190.676 205.559 189.196 204.321 187.865 203.146L183.925 199.667L186.532 199.542C188.407 199.452 190.331 199.369 192.118 199.947C193.905 200.525 195.551 201.917 195.877 203.764" fill="#2C2A2A"/>
<path d="M199.641 209.67C197.873 206.539 195.819 203.059 192.152 201.947C191.132 201.639 190.062 201.528 189.001 201.621C188.667 201.65 188.75 202.166 189.085 202.137C190.864 201.989 192.64 202.459 194.113 203.467C195.531 204.432 196.634 205.773 197.568 207.196C198.141 208.066 198.653 208.976 199.166 209.883C199.328 210.173 199.807 209.964 199.641 209.67Z" fill="#2C2A2A"/>
<path d="M104.126 119.221C106.604 119.221 108.613 117.212 108.613 114.734C108.613 112.256 106.604 110.248 104.126 110.248C101.648 110.248 99.6389 112.256 99.6389 114.734C99.6389 117.212 101.648 119.221 104.126 119.221Z" fill="#E8505B"/>
<path d="M101.978 113.896C101.926 113.896 101.884 114.231 101.884 114.644C101.884 115.057 101.926 115.392 101.978 115.392H106.39C106.441 115.399 106.484 115.07 106.485 114.657C106.513 114.4 106.482 114.14 106.393 113.897H101.978V113.896Z" fill="#2C2A2A"/>
<path d="M104.126 143.161C106.604 143.161 108.613 141.152 108.613 138.674C108.613 136.196 106.604 134.187 104.126 134.187C101.648 134.187 99.6389 136.196 99.6389 138.674C99.6389 141.152 101.648 143.161 104.126 143.161Z" fill="#E8505B"/>
<path d="M101.978 137.836C101.926 137.836 101.884 138.171 101.884 138.584C101.884 138.997 101.926 139.332 101.978 139.332H106.39C106.441 139.338 106.484 139.009 106.485 138.596C106.513 138.339 106.482 138.079 106.393 137.836L101.978 137.836Z" fill="#2C2A2A"/>
<path d="M104.126 167.09C106.604 167.09 108.613 165.082 108.613 162.604C108.613 160.126 106.604 158.117 104.126 158.117C101.648 158.117 99.6389 160.126 99.6389 162.604C99.6389 165.082 101.648 167.09 104.126 167.09Z" fill="#E8505B"/>
<path d="M101.978 161.766C101.926 161.766 101.884 162.1 101.884 162.513C101.884 162.926 101.926 163.261 101.978 163.261H106.39C106.441 163.268 106.484 162.939 106.485 162.526C106.513 162.269 106.482 162.009 106.393 161.766L101.978 161.766Z" fill="#2C2A2A"/>
<path d="M131.707 71.8404L119.997 60.1309C119.559 59.6925 118.848 59.6925 118.409 60.1309C117.971 60.5694 117.971 61.2802 118.409 61.7187L130.119 73.4281C130.557 73.8666 131.268 73.8666 131.707 73.4281C132.145 72.9897 132.145 72.2789 131.707 71.8404Z" fill="white"/>
<path d="M120.382 73.7L132.091 61.9905C132.529 61.552 132.529 60.8412 132.091 60.4027C131.653 59.9643 130.942 59.9643 130.503 60.4027L118.794 72.1122C118.355 72.5507 118.355 73.2615 118.794 73.7C119.232 74.1384 119.943 74.1384 120.382 73.7Z" fill="white"/>
<path d="M25.3333 138.634C25.7223 138.496 26.0763 138.275 26.3705 137.986C26.6647 137.696 26.8919 137.346 27.0361 136.959C27.1802 136.573 27.2379 136.159 27.205 135.748C27.172 135.337 27.0493 134.938 26.8455 134.579L33.4596 127.039L28.2965 126.327L22.8072 133.596C22.2272 133.978 21.8076 134.56 21.628 135.231C21.4484 135.902 21.5211 136.616 21.8325 137.237C22.1439 137.858 22.6722 138.343 23.3175 138.601C23.9627 138.858 24.6799 138.87 25.3333 138.634Z" fill="#F3A3A6"/>
<path d="M33.3099 205.456L28.697 205.456L26.5024 187.663L33.3107 187.663L33.3099 205.456Z" fill="#F3A3A6"/>
<path d="M34.4865 209.928L19.6123 209.927V209.739C19.6124 208.204 20.2224 206.731 21.3081 205.645C22.3938 204.56 23.8663 203.95 25.4017 203.95H25.4021L34.4868 203.95L34.4865 209.928Z" fill="#2F2E41"/>
<path d="M57.4575 201.596L53.0521 202.964L45.6799 186.622L52.182 184.603L57.4575 201.596Z" fill="#F3A3A6"/>
<path d="M59.9069 205.517L45.7016 209.928L45.6458 209.748C45.1906 208.282 45.3365 206.695 46.0514 205.336C46.7663 203.977 47.9917 202.958 49.458 202.502L49.4584 202.502L58.1345 199.809L59.9069 205.517Z" fill="#2F2E41"/>
<path d="M29.7775 123.423L22.9456 131.248L28.2941 131.729L29.7775 123.423Z" fill="#2C2A2A"/>
<path d="M27.108 133.509C27.108 133.509 24.7349 134.695 24.4382 140.035C24.1416 145.374 25.3283 159.317 25.3283 159.317C25.3283 159.317 24.1418 165.546 25.3283 171.182C26.5147 176.818 24.1418 197.285 25.6249 197.285C27.108 197.285 34.8203 198.175 35.117 197.285C35.4137 196.395 35.7103 183.046 35.7103 183.046C35.7103 183.046 38.0834 176.224 35.7103 172.072C35.7103 172.072 43.9961 186.54 49.3553 197.582C50.5282 199.999 59.4407 197.285 57.9576 194.616C56.4745 191.946 52.915 179.784 52.915 179.784C52.915 179.784 50.2453 170.885 45.4994 167.029L47.8725 148.044C47.8725 148.044 52.9153 135.289 49.9494 133.509C46.9836 131.73 27.108 133.509 27.108 133.509Z" fill="#2F2E43"/>
<path d="M36.0068 85.1576C40.2662 85.1576 43.7191 81.7046 43.7191 77.4452C43.7191 73.1858 40.2662 69.7329 36.0068 69.7329C31.7474 69.7329 28.2944 73.1858 28.2944 77.4452C28.2944 81.7046 31.7474 85.1576 36.0068 85.1576Z" fill="#F3A3A6"/>
<path d="M44.6091 85.751L35.0213 91.3869C35.0213 91.3869 31.3501 93.4543 29.9788 97.0228C28.517 100.826 29.3666 106.181 29.9788 107.405C31.1652 109.778 29.4811 115.711 29.4811 115.711L27.9981 129.355C27.9981 129.355 22.6588 134.398 26.8116 134.991C30.9645 135.585 38.3801 134.695 42.8297 134.991C47.2792 135.288 52.3217 135.881 50.8387 132.914C49.3556 129.947 47.5758 127.872 49.3556 121.94C50.7483 117.298 50.6879 99.9401 50.5959 92.6098C50.5832 91.6031 50.3132 90.6165 49.8116 89.7436C49.3099 88.8708 48.5933 88.1408 47.7299 87.6231L44.6091 85.751Z" fill="#E8505B"/>
<path opacity="0.1" d="M40.3091 95.0952L41.1989 113.19L32.5749 130.654L31.1123 130.097L40.0113 113.783L40.3091 95.0952Z" fill="black"/>
<path opacity="0.1" d="M50.0967 117.045V114.968L40.0125 131.58L50.0967 117.045Z" fill="black"/>
<path d="M30.533 70.3009L29.259 69.7912C29.259 69.7912 31.9254 66.8562 35.6339 67.1114L34.5907 65.9629C34.5907 65.9629 37.1406 64.9421 39.4589 67.6216C40.6776 69.0303 42.0874 70.6863 42.9674 72.5514H44.3328L43.7631 73.8063L45.7575 75.0612L43.7103 74.8366C43.9042 75.92 43.8378 77.0339 43.5166 78.0865L43.5728 79.0784C43.5728 79.0784 41.1986 75.4047 41.1986 74.895V76.1712C41.1986 76.1712 39.9235 75.0227 39.9235 74.257L39.228 75.1504L38.8802 73.7471L34.5915 75.1504L35.2865 74.0013L32.6201 74.3842L33.6633 72.9808C33.6633 72.9808 30.6497 74.6396 30.5338 76.0435C30.4179 77.4474 28.9113 79.2336 28.9113 79.2336L28.2158 77.9574C28.2158 77.9574 27.1728 72.2151 30.533 70.3009Z" fill="#2F2E41"/>
<path d="M35.5226 139.473C35.881 139.268 36.1901 138.988 36.4283 138.651C36.6665 138.314 36.8279 137.929 36.9012 137.523C36.9744 137.117 36.9578 136.699 36.8523 136.301C36.7469 135.902 36.5553 135.531 36.2911 135.214L41.4618 126.62L36.2542 126.835L32.1424 134.963C31.6395 135.443 31.3299 136.09 31.2722 136.782C31.2146 137.474 31.4129 138.164 31.8295 138.719C32.2462 139.275 32.8523 139.659 33.5329 139.798C34.2136 139.937 34.9215 139.821 35.5226 139.473Z" fill="#F3A3A6"/>
<path d="M47.279 89.6075L49.5036 89.1626C49.5036 89.1626 56.1777 94.057 54.1013 103.846C52.0249 113.634 42.8295 128.466 42.8295 128.466C42.8295 128.466 40.7525 131.136 40.1597 131.729C39.5669 132.322 38.3799 131.729 38.9733 132.619C39.5666 133.509 38.0833 134.102 38.0833 134.102C38.0833 134.102 31.5573 134.102 32.1507 131.729C32.744 129.356 42.8295 112.447 42.8295 112.447L41.3464 96.7253C41.3464 96.7253 40.1594 89.0141 47.279 89.6075Z" fill="#E8505B"/>
</g>
<g filter="url(#filter0_d_3456_1505)">
<path d="M213.667 166.279C213.534 166.343 213.093 166.644 212.696 166.95C211.813 167.63 209.333 170.557 209.238 171.034C209.075 171.804 209.997 171.363 211.347 170.007C212.674 168.678 214.029 167.104 214.17 166.744C214.296 166.42 214.001 166.144 213.667 166.279Z" fill="#263238"/>
<path d="M208.94 162.715C208.094 162.949 207.211 164.757 206.525 167.666C206.21 168.962 206.169 169.356 206.319 169.481C206.544 169.669 206.568 169.64 207.203 168.15C207.472 167.501 208.011 166.375 208.394 165.646C209.352 163.805 209.51 163.443 209.505 163.106C209.496 162.733 209.32 162.602 208.94 162.715Z" fill="#263238"/>
<path d="M217.666 173.701C216.642 173.613 211.895 173.591 211.738 173.684C211.235 173.964 211.706 174.372 212.576 174.396C214.178 174.456 216.974 174.381 217.424 174.279C217.899 174.165 218.249 173.916 218.099 173.791C218.061 173.76 217.858 173.718 217.666 173.701Z" fill="#263238"/>
<path d="M200.389 161.487C200.21 161.703 200.555 163.849 201.028 165.402C201.628 167.394 201.84 167.904 202.216 168.216C202.789 168.693 202.846 168.184 202.391 166.725C202.257 166.312 201.896 165.027 201.574 163.885C201.192 162.472 200.915 161.734 200.746 161.593C200.596 161.468 200.436 161.431 200.389 161.487Z" fill="#263238"/>
<path d="M211.657 177.873C210.498 177.069 210.381 177.019 210.24 177.188C210.099 177.357 210.159 177.439 210.746 177.974C211.446 178.604 213.569 179.987 214.152 180.185C214.411 180.274 214.461 180.252 214.413 180.1C214.328 179.839 213.288 179.007 211.657 177.873Z" fill="#263238"/>
<path d="M195.941 166.849C195.764 166.908 195.735 167.249 195.885 167.565C195.991 167.764 196.744 168.501 197.98 169.576C199.848 171.208 199.923 171.27 200.305 171.27C200.824 171.257 200.772 171.07 200.024 170.289C199.341 169.563 196.075 166.801 195.941 166.849Z" fill="#263238"/>
<path d="M207.63 179.563C207.327 179.661 207.433 180.432 207.904 181.49C208.451 182.724 209.125 183.538 209.525 183.458C209.799 183.415 209.794 183.363 209.41 182.774C209.258 182.537 208.896 181.807 208.618 181.147C208.012 179.754 207.84 179.483 207.63 179.563Z" fill="#263238"/>
<path d="M195.563 173.712C193.82 173.343 191.619 172.991 191.116 173.003C190.614 173.014 190.557 173.236 190.969 173.563C191.548 174.013 196.087 174.687 196.775 174.433C197.311 174.227 196.935 174.01 195.563 173.712Z" fill="#263238"/>
<path d="M200.08 176.989C199.332 177.258 198.357 177.781 196.59 178.855C195.177 179.714 194.821 180.086 195.169 180.279C195.407 180.413 197.916 179.306 199.229 178.49C200.886 177.453 201.423 176.501 200.08 176.989Z" fill="#263238"/>
<path d="M201.791 177.496C201.539 177.875 201.171 178.585 200.973 179.072C200.502 180.27 199.895 182.72 200.029 182.942C200.289 183.413 200.493 183.09 201.438 180.634C202.66 177.52 202.743 177.191 202.48 176.972C202.282 176.808 202.25 176.829 201.791 177.496Z" fill="#263238"/>
</g>
<path d="M56.0666 42.5845C56.2519 41.8928 56.7044 41.3031 57.3246 40.945C57.9447 40.587 58.6817 40.49 59.3734 40.6753C60.0651 40.8606 60.6548 41.3131 61.0129 41.9333C61.3709 42.5534 61.4679 43.2904 61.2826 43.9821C61.0972 44.6738 60.6447 45.2635 60.0246 45.6216C59.4044 45.9796 58.6675 46.0766 57.9758 45.8913C57.2841 45.706 56.6944 45.2534 56.3363 44.6333C55.9783 44.0131 55.8812 43.2762 56.0666 42.5845Z" stroke="black" stroke-width="0.6"/>
<g filter="url(#filter1_d_3456_1505)">
<path d="M185.905 47.6248C186.099 47.7121 186.94 48.1547 187.755 48.6017C189.423 49.51 189.587 49.5762 189.861 49.3826C190.164 49.1684 189.985 48.8742 189.199 48.3227L188.443 47.7924L189.141 47.9294C189.531 48.004 190.944 48.2805 192.284 48.538C193.624 48.7954 195.096 49.0305 195.551 49.0729C196.399 49.1319 196.635 49.2171 196.381 49.3968C196.303 49.4521 195.982 49.9732 195.649 50.5593C194.986 51.7572 194.946 52.1359 195.491 52.3254C195.914 52.4886 199.241 52.6728 201.342 52.6585C202.235 52.6573 202.998 52.6785 203.025 52.7159C203.054 52.737 202.868 53.2194 202.609 53.7665C201.848 55.3845 201.85 55.8031 202.665 56.2083C203.558 56.6419 209.998 58.4087 210.203 58.2636C210.428 58.1046 209.978 57.904 208.411 57.4707C207.483 57.216 205.797 56.6982 204.659 56.3118C203.002 55.7315 202.598 55.5545 202.584 55.3684C202.553 55.138 203.046 53.9484 203.641 52.7989C203.935 52.2404 203.936 51.9731 203.651 51.8805C203.572 51.8521 202.845 51.8614 202.021 51.8979C200.45 51.9575 199.003 51.9017 197.028 51.7006C196.085 51.6108 195.878 51.5467 195.943 51.389C195.988 51.287 196.354 50.7057 196.749 50.1037C197.151 49.5111 197.484 48.925 197.497 48.8181C197.53 48.4719 197.209 48.3489 195.993 48.1852C193.337 47.8495 188.617 46.8983 188.822 46.7531C188.871 46.7186 189.152 46.6181 189.43 46.5338C190.629 46.1765 190.922 45.5344 189.92 45.4442C189.357 45.394 187.385 45.7371 186.206 46.0806C185.582 46.2556 185.412 46.3475 185.276 46.5698C185.076 46.908 185.35 47.3585 185.905 47.6248Z" fill="black" fill-opacity="0.65" shape-rendering="crispEdges"/>
</g>
<g filter="url(#filter2_d_3456_1505)">
<path d="M52.7502 136.704C53.3863 137.067 55.9974 137.996 57.663 138.443C59.4423 138.931 62.8107 139.461 63.8262 139.406C65.1939 139.332 65.7549 138.814 65.4405 137.912C65.2269 137.332 64.6646 136.795 63.2295 135.82C62.6497 135.417 62.1172 135.022 62.0661 134.95C62.0086 134.868 63.3724 135.028 65.0803 135.296C66.8038 135.567 68.8323 135.811 69.5812 135.837C73.043 135.961 73.2755 135.932 73.3544 135.348C73.4483 134.686 72.9366 134.479 70.1158 133.969C67.5914 133.52 61.8241 132.819 61.0444 132.869C60.0007 132.944 59.3295 133.445 59.4115 134.078C59.4875 134.742 59.9864 135.229 62.5163 137.136C63.1885 137.65 63.7406 138.112 63.7317 138.159C63.7018 138.316 60.8456 138.034 59.0459 137.695C56.8867 137.286 54.8371 136.812 53.7514 136.47C53.2843 136.326 52.7006 136.157 52.4515 136.103L52.0006 136.002L52.1602 136.227C52.2402 136.36 52.5161 136.572 52.7502 136.704Z" fill="black" fill-opacity="0.85" shape-rendering="crispEdges"/>
</g>
<path d="M204.083 128.289L206.444 128.265C206.457 128.265 206.469 128.268 206.481 128.273C206.493 128.278 206.503 128.285 206.512 128.295C206.71 128.506 206.516 128.606 206.32 128.608C205.545 128.617 204.803 128.622 204.092 128.625C204.08 128.625 204.068 128.627 204.057 128.632C204.046 128.636 204.036 128.643 204.027 128.652C204.019 128.661 204.012 128.671 204.007 128.682C204.003 128.693 204 128.705 204.001 128.718L204.012 131.049C204.012 131.071 204.004 131.093 203.989 131.11C203.884 131.229 203.781 131.224 203.68 131.097C203.667 131.08 203.66 131.06 203.66 131.04L203.65 128.714C203.651 128.702 203.648 128.69 203.644 128.678C203.639 128.667 203.632 128.657 203.624 128.648C203.615 128.64 203.605 128.633 203.593 128.628C203.582 128.624 203.57 128.621 203.558 128.621L201.241 128.64C201.225 128.64 201.21 128.636 201.196 128.629C201.183 128.621 201.171 128.61 201.163 128.597C201.037 128.398 201.094 128.297 201.336 128.295C202.076 128.289 202.817 128.284 203.558 128.28C203.582 128.28 203.605 128.271 203.623 128.253C203.64 128.236 203.649 128.213 203.65 128.189C203.655 127.444 203.656 126.701 203.651 125.959C203.649 125.746 203.774 125.545 203.983 125.764C203.999 125.781 204.009 125.804 204.009 125.828L203.99 128.196C203.99 128.208 203.992 128.22 203.997 128.232C204.002 128.243 204.008 128.253 204.017 128.262C204.026 128.271 204.036 128.277 204.047 128.282C204.059 128.287 204.071 128.289 204.083 128.289Z" fill="#001133"/>
<path d="M62.0832 78.2888L64.444 78.2654C64.4567 78.2653 64.4694 78.2679 64.4811 78.273C64.4929 78.278 64.5035 78.2854 64.5123 78.2946C64.7095 78.5061 64.5156 78.6063 64.3197 78.6083C63.5454 78.6165 62.8029 78.622 62.0923 78.6246C62.0801 78.6246 62.0681 78.627 62.0569 78.6317C62.0457 78.6364 62.0356 78.6433 62.027 78.652C62.0185 78.6606 62.0118 78.6709 62.0072 78.6821C62.0027 78.6934 62.0004 78.7055 62.0005 78.7176L62.0123 81.0485C62.0122 81.0712 62.0039 81.0929 61.9888 81.1097C61.8838 81.2285 61.781 81.2242 61.6804 81.0967C61.6673 81.0802 61.6602 81.0603 61.6602 81.04L61.6505 78.7137C61.6505 78.7016 61.6481 78.6895 61.6435 78.6783C61.6389 78.6671 61.6321 78.6569 61.6235 78.6483C61.6149 78.6397 61.6047 78.6329 61.5935 78.6282C61.5822 78.6236 61.5702 78.6213 61.5581 78.6213L59.2408 78.6402C59.2253 78.6402 59.21 78.6363 59.1964 78.6288C59.1827 78.6213 59.1712 78.6104 59.1627 78.5972C59.0365 78.3981 59.0942 78.2975 59.3358 78.2953C60.0764 78.2888 60.8171 78.2838 61.5581 78.2803C61.5822 78.2803 61.6054 78.2706 61.6225 78.2534C61.6397 78.2363 61.6495 78.213 61.6498 78.1886C61.6554 77.4437 61.6559 76.7006 61.6511 75.9592C61.6492 75.7464 61.7741 75.5447 61.983 75.764C61.9993 75.7812 62.0086 75.8039 62.009 75.8278L61.9901 78.1957C61.99 78.208 61.9923 78.2202 61.9969 78.2315C62.0016 78.2429 62.0084 78.2532 62.0171 78.2618C62.0257 78.2705 62.0361 78.2774 62.0474 78.282C62.0588 78.2866 62.0709 78.2889 62.0832 78.2888Z" fill="#001133"/>
<defs>
<filter id="filter0_d_3456_1505" x="178.996" y="153.762" width="50.8387" height="45.401" filterUnits="userSpaceOnUse" color-interpolation-filters="sRGB">
<feFlood flood-opacity="0" result="BackgroundImageFix"/>
<feColorMatrix in="SourceAlpha" type="matrix" values="0 0 0 0 0 0 0 0 0 0 0 0 0 0 0 0 0 0 127 0" result="hardAlpha"/>
<feOffset dy="4"/>
<feGaussianBlur stdDeviation="5.85"/>
<feComposite in2="hardAlpha" operator="out"/>
<feColorMatrix type="matrix" values="0 0 0 0 0 0 0 0 0 0 0 0 0 0 0 0 0 0 0.1 0"/>
<feBlend mode="normal" in2="BackgroundImageFix" result="effect1_dropShadow_3456_1505"/>
<feBlend mode="normal" in="SourceGraphic" in2="effect1_dropShadow_3456_1505" result="shape"/>
</filter>
<filter id="filter1_d_3456_1505" x="173.511" y="37.7395" width="48.4466" height="36.2325" filterUnits="userSpaceOnUse" color-interpolation-filters="sRGB">
<feFlood flood-opacity="0" result="BackgroundImageFix"/>
<feColorMatrix in="SourceAlpha" type="matrix" values="0 0 0 0 0 0 0 0 0 0 0 0 0 0 0 0 0 0 127 0" result="hardAlpha"/>
<feOffset dy="4"/>
<feGaussianBlur stdDeviation="5.85"/>
<feComposite in2="hardAlpha" operator="out"/>
<feColorMatrix type="matrix" values="0 0 0 0 0 0 0 0 0 0 0 0 0 0 0 0 0 0 0.1 0"/>
<feBlend mode="normal" in2="BackgroundImageFix" result="effect1_dropShadow_3456_1505"/>
<feBlend mode="normal" in="SourceGraphic" in2="effect1_dropShadow_3456_1505" result="shape"/>
</filter>
<filter id="filter2_d_3456_1505" x="40.3007" y="125.167" width="44.764" height="29.943" filterUnits="userSpaceOnUse" color-interpolation-filters="sRGB">
<feFlood flood-opacity="0" result="BackgroundImageFix"/>
<feColorMatrix in="SourceAlpha" type="matrix" values="0 0 0 0 0 0 0 0 0 0 0 0 0 0 0 0 0 0 127 0" result="hardAlpha"/>
<feOffset dy="4"/>
<feGaussianBlur stdDeviation="5.85"/>
<feComposite in2="hardAlpha" operator="out"/>
<feColorMatrix type="matrix" values="0 0 0 0 0 0 0 0 0 0 0 0 0 0 0 0 0 0 0.1 0"/>
<feBlend mode="normal" in2="BackgroundImageFix" result="effect1_dropShadow_3456_1505"/>
<feBlend mode="normal" in="SourceGraphic" in2="effect1_dropShadow_3456_1505" result="shape"/>
</filter>
<clipPath id="clip0_3456_1505">
<rect width="208.376" height="200" fill="white" transform="translate(0 10.6089)"/>
</clipPath>
</defs>
</svg>
