<svg width="24" height="24" viewBox="0 0 24 24" fill="none" xmlns="http://www.w3.org/2000/svg">
<path d="M8.17 2.76C9.38508 2.25995 10.6861 2.00179 12 2C13.31 2 14.61 2.26 15.83 2.76C17.04 3.26 18.14 4 19.07 4.93C20 5.86 20.74 6.96 21.24 8.17C21.74 9.39 22 10.69 22 12C22 14.65 20.95 17.2 19.07 19.07C18.1425 19.9998 17.0405 20.7373 15.8272 21.2401C14.6139 21.7429 13.3133 22.0011 12 22C10.6861 21.9982 9.38508 21.7401 8.17 21.24C6.95776 20.7369 5.85672 19.9994 4.93 19.07C4.0002 18.1425 3.26273 17.0405 2.75992 15.8272C2.25711 14.6139 1.99887 13.3133 2 12C2 9.35 3.05 6.8 4.93 4.93C5.86 4 6.96 3.26 8.17 2.76ZM12 17L13.56 13.58L17 12L13.56 10.44L12 7L10.43 10.44L7 12L10.43 13.58L12 17Z" fill="black"/>
</svg>
