<svg width="24" height="24" viewBox="0 0 24 24" fill="none" xmlns="http://www.w3.org/2000/svg">
<path d="M17.7143 10.5714V5.21343C17.7143 5.14577 17.701 5.07876 17.6752 5.01625C17.6493 4.95374 17.6113 4.89695 17.5634 4.84914L14.8651 2.15086C14.7688 2.05438 14.6381 2.00012 14.5017 2H4.51429C4.37789 2 4.24708 2.05418 4.15063 2.15063C4.05418 2.24708 4 2.37789 4 2.51429V18.6286C4 18.765 4.05418 18.8958 4.15063 18.9922C4.24708 19.0887 4.37789 19.1429 4.51429 19.1429H11.7143M7.42857 8.85714H14.2857M7.42857 5.42857H10.8571M7.42857 12.2857H10" stroke="black" stroke-width="1.5" stroke-linecap="round" stroke-linejoin="round"/>
<path d="M14.2856 2V4.91429C14.2856 5.05068 14.3398 5.18149 14.4363 5.27794C14.5327 5.37439 14.6635 5.42857 14.7999 5.42857H17.7142M17.7074 13.25L19.8982 13.8063C20.1262 13.8646 20.2865 14.072 20.2796 14.3069C20.1322 19.2423 17.2856 20 17.2856 20C17.2856 20 14.4391 19.2423 14.2916 14.3069C14.289 14.1925 14.3253 14.0807 14.3946 13.9897C14.4639 13.8988 14.5621 13.8341 14.6731 13.8063L16.8639 13.25C17.1408 13.1797 17.4305 13.1797 17.7074 13.25Z" stroke="black" stroke-width="1.5" stroke-linecap="round" stroke-linejoin="round"/>
</svg>
