<svg width="25" height="24" viewBox="0 0 25 24" fill="none" xmlns="http://www.w3.org/2000/svg">
<path d="M17.499 9.00001L17.148 9.01501C16.7416 7.84097 15.9788 6.82307 14.9662 6.10332C13.9535 5.38357 12.7414 4.99786 11.499 5.00001C8.19002 5.00001 5.49902 7.69101 5.49902 11L5.50002 11.126C4.64164 11.3486 3.88136 11.8497 3.33829 12.5508C2.79523 13.2518 2.50006 14.1132 2.49902 15C2.49902 17.206 4.29302 19 6.49902 19H11.499V14.414L10.206 15.707C10.1134 15.8002 10.0032 15.8741 9.88188 15.9246C9.76054 15.9751 9.63043 16.001 9.49902 16.001C9.36762 16.001 9.2375 15.9751 9.11617 15.9246C8.99484 15.8741 8.88468 15.8002 8.79202 15.707C8.69908 15.6142 8.62534 15.504 8.57503 15.3827C8.52472 15.2614 8.49882 15.1313 8.49882 15C8.49882 14.8687 8.52472 14.7386 8.57503 14.6173C8.62534 14.496 8.69908 14.3858 8.79202 14.293L11.791 11.294C11.8839 11.2009 11.9943 11.127 12.1158 11.0766C12.2372 11.0262 12.3675 11.0002 12.499 11.0002C12.6306 11.0002 12.7608 11.0262 12.8823 11.0766C13.0038 11.127 13.1141 11.2009 13.207 11.294L16.206 14.293C16.3935 14.4805 16.4989 14.7348 16.4989 15C16.4989 15.2652 16.3935 15.5195 16.206 15.707C16.0185 15.8945 15.7642 15.9999 15.499 15.9999C15.2338 15.9999 14.9795 15.8945 14.792 15.707L13.499 14.414V19H17.499C20.256 19 22.499 16.757 22.499 14C22.499 11.243 20.256 9.00001 17.499 9.00001Z" fill="black"/>
</svg>
