<svg width="246" height="255" viewBox="0 0 246 255" fill="none" xmlns="http://www.w3.org/2000/svg">
<g clip-path="url(#clip0_3457_1614)">
<path d="M34.3148 203.855C39.5034 200.74 40.9266 193.586 37.4935 187.877C34.0604 182.169 27.0711 180.066 21.8824 183.181C16.6938 186.296 15.2706 193.449 18.7037 199.158C22.1368 204.867 29.1261 206.97 34.3148 203.855Z" fill="#455A64"/>
<path d="M39.9149 206.383C44.3974 203.324 43.8823 194.776 38.7644 187.292C33.6465 179.807 25.8639 176.22 21.3814 179.28C16.8989 182.339 17.414 190.887 22.5319 198.371C27.6497 205.855 35.4324 209.443 39.9149 206.383Z" fill="#E8B730"/>
<path d="M61.3418 194.259C66.5724 190.689 66.2692 181.151 60.6648 172.955C55.0603 164.759 46.2767 161.009 41.0462 164.579C35.8156 168.149 36.1188 177.687 41.7232 185.883C47.3277 194.079 56.1113 197.829 61.3418 194.259Z" fill="#C79816"/>
<path d="M66.1331 221.416C60.0706 214.415 57.8493 201.245 57.8493 201.245C57.8493 201.245 56.8912 198.976 56.9565 197.913C57.0218 196.849 61.3411 194.269 61.3411 194.269L41.3928 164.368L20.5748 179.95L35.9297 207.475C35.9297 207.475 40.1691 218.615 42.3788 223.6C44.5885 228.585 47.6882 235.596 49.4869 238.076C51.2856 240.556 56.2566 239.574 58.9484 239.199C61.641 238.827 70.2071 231.391 70.8264 229.656C71.4457 227.921 72.2018 228.415 66.1362 221.415L66.1331 221.416Z" fill="#E8B730"/>
<path opacity="0.3" d="M61.1716 194.377C66.4022 190.807 66.0991 181.269 60.4946 173.073C54.8901 164.877 46.1066 161.127 40.876 164.697C35.6455 168.267 35.9486 177.805 41.5531 186.001C47.1576 194.197 55.9411 197.947 61.1716 194.377Z" fill="#C79816"/>
<path d="M41.4021 166.644C41.4021 166.644 51.0607 156.787 55.1797 148.454C58.5301 141.673 62.6744 130.658 62.6744 130.658L110.256 186.373C110.256 186.373 92.7806 184.563 78.1307 188.342C64.1546 191.946 58.9404 193.44 58.9404 193.44L41.4021 166.644Z" fill="#E0E0E0"/>
<path d="M60.5033 192.641C64.6096 189.838 63.8489 181.586 58.8042 174.208C53.7596 166.831 46.3413 163.122 42.2351 165.925C38.1288 168.728 38.8895 176.98 43.9342 184.358C48.9788 191.735 56.3971 195.444 60.5033 192.641Z" fill="#E0E0E0"/>
<g opacity="0.3">
<path d="M45.9543 186.983C54.9832 177.614 65.1954 169.287 78.5538 167.424C73.362 160.896 69.2841 153.483 66.5491 145.604C61.365 158.963 53.5712 171.996 41.0614 179.006C41.0614 179.006 42.5068 182.246 43.4623 183.646C44.4187 185.049 45.9543 186.983 45.9543 186.983Z" fill="white"/>
</g>
<path opacity="0.2" d="M51.0838 236.952C51.22 236.825 51.3571 236.702 51.4942 236.578C51.669 236.422 51.847 236.264 52.0218 236.107C52.162 235.983 52.3053 235.858 52.4495 235.736C52.6251 235.582 52.8047 235.431 52.9812 235.28C53.1254 235.159 53.2695 235.037 53.4145 234.918C53.5972 234.766 53.7831 234.612 53.9666 234.463C54.1062 234.349 54.2458 234.235 54.3854 234.121C54.5859 233.961 54.7896 233.8 54.9941 233.642C55.1206 233.541 55.244 233.441 55.3714 233.344C55.6894 233.099 56.0073 232.854 56.3301 232.614C56.4273 232.541 56.5277 232.468 56.625 232.395C56.8644 232.218 57.1037 232.04 57.347 231.865C57.4868 231.764 57.6244 231.668 57.7642 231.567C57.9627 231.424 58.1589 231.285 58.3582 231.145C58.5096 231.037 58.6588 230.934 58.811 230.83C58.9996 230.699 59.1881 230.569 59.3775 230.442C59.5329 230.337 59.6851 230.233 59.8405 230.128C60.0299 230 60.217 229.877 60.4033 229.75C60.5563 229.649 60.7094 229.548 60.8625 229.447C61.0527 229.323 61.2461 229.198 61.4371 229.077C61.5848 228.981 61.7356 228.884 61.8841 228.791C62.0891 228.659 62.2926 228.535 62.4984 228.406C62.633 228.323 62.7668 228.238 62.9014 228.155C63.2248 227.955 63.549 227.758 63.8733 227.561C63.8764 227.56 63.8826 227.559 63.8849 227.555C63.4388 226.948 59.8544 222.821 55.387 216.433C50.5851 209.567 49.4466 198.359 48.696 198.01C47.9462 197.665 35.9234 207.476 35.9234 207.476C35.9234 207.476 40.1628 218.617 42.3725 223.601C44.5822 228.586 47.6819 235.598 49.4806 238.077C49.5382 238.155 49.5988 238.232 49.661 238.302C49.8271 238.138 49.9932 237.973 50.1632 237.811C50.2856 237.695 50.411 237.578 50.5365 237.461C50.7173 237.29 50.899 237.121 51.0838 236.952Z" fill="#F5F5F5"/>
<g opacity="0.3">
<path d="M63.8841 227.552C63.8841 227.552 63.8748 227.554 63.8725 227.558C63.5506 227.751 63.2272 227.951 62.9007 228.152C62.766 228.235 62.6322 228.32 62.4976 228.403C62.2918 228.532 62.0892 228.659 61.8834 228.788C61.7349 228.881 61.5872 228.977 61.4364 229.074C61.2461 229.198 61.052 229.32 60.8618 229.444C60.7087 229.545 60.5556 229.646 60.4025 229.747C60.2154 229.871 60.026 229.998 59.8397 230.125C59.6844 230.23 59.5321 230.334 59.3768 230.439C59.1874 230.566 58.9988 230.697 58.8103 230.827C58.658 230.931 58.5089 231.034 58.3575 231.142C58.1581 231.282 57.9619 231.421 57.7634 231.564C57.6236 231.665 57.4861 231.762 57.3463 231.862C57.1061 232.037 56.8667 232.214 56.6242 232.392C56.527 232.465 56.4266 232.538 56.3293 232.611C56.0097 232.85 55.6886 233.096 55.3706 233.341C55.2433 233.439 55.1199 233.538 54.9934 233.639C54.7897 233.8 54.5883 233.957 54.3846 234.118C54.245 234.232 54.1054 234.346 53.9659 234.46C53.7792 234.61 53.5965 234.763 53.4137 234.915C53.2688 235.034 53.1246 235.156 52.9805 235.278C52.8009 235.429 52.6244 235.579 52.4487 235.733C52.3054 235.858 52.1644 235.979 52.0211 236.104C51.8431 236.262 51.6683 236.419 51.4935 236.575C51.3564 236.699 51.2193 236.822 51.083 236.949C50.8983 237.118 50.7166 237.287 50.5358 237.458C50.4103 237.575 50.2879 237.691 50.1625 237.808C49.9924 237.97 49.8263 238.135 49.6602 238.299C51.5917 240.49 56.3361 239.559 58.9414 239.197C61.634 238.825 70.2001 231.39 70.8194 229.655C71.1511 228.726 71.5198 228.434 70.8593 227.289C68.5646 227.341 66.4599 227.391 63.9088 227.532C63.8995 227.535 63.8887 227.544 63.8802 227.55L63.8841 227.552Z" fill="black"/>
</g>
<path d="M52.9048 199.862C52.9048 199.862 52.006 200.193 51.8244 200.511C51.6398 200.83 54.4641 212.703 56.1492 214.31C56.2484 214.407 56.0876 214.417 56.8684 214.654C57.6492 214.891 61.1165 215.381 61.9055 214.504C62.6953 213.629 64.4178 211.019 64.0257 210.228C63.6336 209.437 62.6092 209.025 61.0912 207.356C59.7284 205.856 57.8931 200.401 57.8931 200.401C57.4998 200.34 53.4029 199.642 52.904 199.859L52.9048 199.862Z" fill="#F5F5F5"/>
<path opacity="0.3" d="M64.0348 210.261C64.0348 210.261 64.029 210.239 64.0257 210.227C63.6336 209.436 62.6092 209.024 61.0912 207.355C59.7283 205.855 57.8931 200.4 57.8931 200.4C57.5342 200.343 54.0769 199.754 53.1082 199.823C53.2317 200.11 54.8838 203.562 56.1881 206.064C57.36 208.309 58.9162 209.684 59.3108 210.011C59.3622 209.954 59.4 209.921 59.4195 209.919C59.6351 209.914 62.6838 209.9 64.0309 210.259L64.0348 210.261Z" fill="black"/>
<path opacity="0.5" d="M59.4265 209.92C59.4062 209.919 59.3661 209.956 59.3178 210.012C58.816 210.58 56.9848 213.706 56.503 214.534C56.5949 214.566 56.7151 214.604 56.8754 214.655C57.6562 214.892 61.1235 215.382 61.9125 214.504C62.5887 213.753 63.9504 211.726 64.0767 210.666C64.0967 210.504 64.0866 210.367 64.041 210.259C62.6939 209.901 59.6453 209.915 59.4296 209.919L59.4265 209.92Z" fill="black"/>
<path d="M70.0324 227.491C70.0324 227.491 69.9546 227.512 69.8042 227.535C69.6545 227.562 69.4306 227.585 69.1457 227.605C68.5712 227.652 67.7339 227.64 66.708 227.609C66.1951 227.6 65.6322 227.59 65.0327 227.631C64.4323 227.669 63.7976 227.766 63.1929 228.061C61.9649 228.62 60.8373 229.628 59.5197 230.488C56.9249 232.246 54.7088 234.022 53.1712 235.38C52.4024 236.059 51.7935 236.625 51.3756 237.021C51.1763 237.211 51.0162 237.36 50.8939 237.476C50.7846 237.579 50.7222 237.632 50.7174 237.627C50.7126 237.621 50.7671 237.563 50.8677 237.453C50.9714 237.342 51.1242 237.178 51.3272 236.977C51.7308 236.566 52.3261 235.986 53.0885 235.296C54.6093 233.912 56.8227 232.113 59.4237 230.353C60.7336 229.503 61.8643 228.493 63.1266 227.925C63.4384 227.782 63.7594 227.672 64.0827 227.609C64.4052 227.543 64.719 227.519 65.0203 227.498C65.6278 227.462 66.1923 227.477 66.7077 227.495C67.737 227.54 68.5659 227.571 69.1392 227.544C69.4266 227.533 69.6491 227.517 69.7989 227.503C69.9488 227.49 70.0276 227.485 70.0293 227.492L70.0324 227.491Z" fill="#263238"/>
<path d="M59.4786 209.953C59.4992 209.968 59.3267 210.22 59.0481 210.625C58.7695 211.029 58.3856 211.589 57.9802 212.217C57.5747 212.845 57.2232 213.426 56.9691 213.847C56.7151 214.268 56.5584 214.53 56.5386 214.519C56.5189 214.507 56.6409 214.228 56.8674 213.791C57.0939 213.354 57.4319 212.76 57.8396 212.128C58.2473 211.496 58.6493 210.942 58.9532 210.557C59.2594 210.168 59.4628 209.944 59.4795 209.956L59.4786 209.953Z" fill="#263238"/>
<path d="M58.5779 209.355C58.5779 209.355 58.4601 209.277 58.2697 209.102C58.0823 208.925 57.8239 208.658 57.5343 208.299C56.9496 207.586 56.3154 206.477 55.6915 205.232C55.052 203.99 54.5087 202.847 54.1587 202.001C53.9821 201.579 53.849 201.231 53.7645 200.991C53.68 200.75 53.6434 200.613 53.6519 200.608C53.6643 200.604 53.7219 200.732 53.8243 200.965C53.942 201.23 54.0904 201.56 54.2657 201.952C54.6452 202.784 55.2016 203.914 55.8402 205.152C56.4673 206.396 57.0732 207.5 57.6307 208.223C58.1757 208.95 58.6009 209.329 58.5771 209.352L58.5779 209.355Z" fill="#263238"/>
<path d="M63.7159 210.204C63.7057 210.254 62.7469 210.074 61.5507 210.005C60.3537 209.932 59.381 210 59.377 209.948C59.3743 209.925 59.6167 209.883 60.0108 209.848C60.4057 209.815 60.9557 209.801 61.5589 209.836C62.1621 209.871 62.7074 209.951 63.0947 210.027C63.4829 210.107 63.7185 210.177 63.715 210.201L63.7159 210.204Z" fill="#263238"/>
<g opacity="0.3">
<path d="M36.5876 178.382C36.7404 180.396 37.4349 182.365 38.587 184.026C38.587 184.026 27.8026 190.926 22.8182 194.934C21.4983 193.668 20.6351 191.941 20.416 190.127L36.5876 178.382Z" fill="white"/>
</g>
<path d="M41.0468 164.584C41.0468 164.584 41.0176 164.612 40.9543 164.662C40.8857 164.717 40.7915 164.789 40.6758 164.88C40.4344 165.074 40.0893 165.38 39.6963 165.818C38.9175 166.697 38.0062 168.214 37.6272 170.297C37.2244 172.367 37.3121 174.936 38.0085 177.634C38.6901 180.34 39.9795 183.173 41.7906 185.836C43.6133 188.492 45.7885 190.721 48.0638 192.34C50.326 193.973 52.6898 194.988 54.7657 195.365C56.845 195.767 58.594 195.472 59.6933 195.067C60.2456 194.863 60.6564 194.653 60.925 194.497C61.0542 194.42 61.1557 194.362 61.2299 194.316C61.2997 194.277 61.3345 194.258 61.3385 194.26C61.3424 194.262 61.3053 194.286 61.2412 194.333C61.1677 194.382 61.068 194.446 60.9435 194.529C60.6774 194.694 60.2699 194.916 59.717 195.131C58.6134 195.557 56.8507 195.876 54.7442 195.484C52.6443 195.117 50.2579 194.104 47.9713 192.468C45.678 190.844 43.4831 188.604 41.6492 185.93C39.8269 183.25 38.5355 180.398 37.8551 177.672C37.1592 174.95 37.082 172.359 37.5041 170.274C37.9055 168.174 38.844 166.647 39.6417 165.776C40.0448 165.339 40.3986 165.041 40.6488 164.854C40.7724 164.767 40.8674 164.698 40.9408 164.649C41.0058 164.605 41.0429 164.581 41.0437 164.585L41.0468 164.584Z" fill="#263238"/>
<path d="M57.0722 198.008C57.0722 198.008 56.9657 198.047 56.7671 198.09C56.5686 198.133 56.2809 198.18 55.9238 198.229C55.2064 198.328 54.209 198.416 53.1054 198.418C52.001 198.417 51.0016 198.335 50.2849 198.238C49.9253 198.191 49.6385 198.141 49.4408 198.101C49.2432 198.06 49.1326 198.033 49.1363 198.022C49.1398 197.998 49.5815 198.053 50.3001 198.12C51.0156 198.188 52.01 198.252 53.1073 198.251C54.2047 198.25 55.1969 198.181 55.9125 198.112C56.628 198.044 57.0726 197.985 57.0761 198.01L57.0722 198.008Z" fill="#263238"/>
<path d="M47.8361 198.188C47.8656 198.223 45.2157 200.336 41.9208 202.904C38.6227 205.474 35.9305 207.528 35.901 207.492C35.8715 207.457 38.5213 205.344 41.8194 202.775C45.1143 200.206 47.8097 198.152 47.84 198.19L47.8361 198.188Z" fill="#263238"/>
<path d="M62.6777 130.657C62.6777 130.657 62.6704 130.692 62.6458 130.762C62.6197 130.839 62.5831 130.939 62.5398 131.064C62.4396 131.337 62.2967 131.725 62.1149 132.217C61.739 133.217 61.1884 134.661 60.483 136.436C59.7776 138.21 58.9214 140.319 57.928 142.637C57.4282 143.797 56.8964 145.012 56.3199 146.259C56.034 146.886 55.7325 147.516 55.4234 148.155C55.1143 148.795 54.7628 149.425 54.4257 150.072C52.985 152.613 51.3766 154.89 49.8514 156.904C48.3222 158.916 46.863 160.667 45.6112 162.108C44.3603 163.553 43.3059 164.685 42.5731 165.461C42.2067 165.849 41.9161 166.147 41.7193 166.346C41.6248 166.441 41.5509 166.514 41.4925 166.57C41.4394 166.621 41.4124 166.645 41.4116 166.642C41.4116 166.642 41.4338 166.612 41.4821 166.556C41.5358 166.495 41.6088 166.419 41.6986 166.318C41.8943 166.102 42.1738 165.801 42.5301 165.412C43.2494 164.623 44.2872 163.479 45.5254 162.025C46.7645 160.573 48.2127 158.819 49.7309 156.803C51.2459 154.788 52.845 152.514 54.282 149.984C54.616 149.338 54.9692 148.714 55.2752 148.075C55.5851 147.439 55.8866 146.809 56.1733 146.185C56.7506 144.941 57.2863 143.728 57.7901 142.571C58.7906 140.254 59.6586 138.152 60.379 136.383C61.0869 134.618 61.6612 133.188 62.0596 132.185C62.2556 131.696 62.4063 131.313 62.5144 131.044C62.5648 130.921 62.6054 130.823 62.6354 130.748C62.664 130.681 62.6791 130.65 62.6822 130.649L62.6777 130.657Z" fill="#263238"/>
<path d="M58.9436 193.439C58.9436 193.439 58.9731 193.425 59.0376 193.404C59.1092 193.385 59.2018 193.357 59.3161 193.323C59.5744 193.254 59.9338 193.151 60.3928 193.021C61.3413 192.763 62.6936 192.394 64.3594 191.938C67.7241 191.037 72.3493 189.797 77.464 188.43C82.5935 187.056 87.3905 186.52 90.846 186.244C92.5781 186.109 93.9823 186.046 94.9517 186.016C95.4376 185.999 95.8126 185.992 96.069 185.99C96.1885 185.988 96.2854 185.989 96.3589 185.989C96.4253 185.988 96.4598 185.992 96.4575 185.996C96.4575 185.996 96.4233 186.005 96.3577 186.009C96.2819 186.013 96.1875 186.022 96.0688 186.027C95.8025 186.041 95.4277 186.062 94.9537 186.086C93.9838 186.139 92.5829 186.215 90.8558 186.368C87.4056 186.676 82.622 187.225 77.5059 188.599C72.3901 189.95 67.7568 191.171 64.3911 192.056C62.7186 192.488 61.3621 192.841 60.4103 193.086C59.948 193.203 59.5853 193.294 59.3253 193.357C59.2093 193.385 59.1151 193.407 59.0426 193.423C58.9804 193.439 58.9445 193.442 58.9436 193.439Z" fill="#263238"/>
<path opacity="0.3" d="M108.426 140.896L62.3076 131.442L60.77 135.552C61.9235 144.214 65.8667 154.498 72.3652 164.433C78.6377 174.023 86.1606 181.568 93.3995 186.162L102.058 185.957L108.422 140.896L108.426 140.896Z" fill="black"/>
<path d="M115.648 188.099C125.606 181.599 122.955 159.932 109.728 139.705C96.5 119.479 77.7045 108.351 67.7467 114.852C57.7889 121.352 60.4396 143.019 73.6672 163.246C86.8948 183.473 105.69 194.6 115.648 188.099Z" fill="#E8B730"/>
<path d="M112.071 181.597C118.732 177.248 115.301 160.217 104.406 143.558C93.5116 126.898 79.2792 116.918 72.6173 121.267C65.9555 125.616 69.3869 142.647 80.2816 159.306C91.1763 175.966 105.409 185.946 112.071 181.597Z" fill="#E0E0E0"/>
<path opacity="0.3" d="M107.818 141.851C96.6102 124.712 81.5686 114.704 74.2236 119.501C73.366 120.06 72.656 120.797 72.0806 121.687C72.2602 121.536 72.4463 121.396 72.6427 121.27C79.3034 116.92 93.5372 126.902 104.433 143.561C115.325 160.221 118.758 177.251 112.093 181.599C111.094 182.253 109.921 182.581 108.615 182.611C110.995 182.993 113.109 182.676 114.81 181.567C122.155 176.771 119.025 158.99 107.818 141.851Z" fill="black"/>
<path d="M76.2521 152.918L94.1763 143.705L100.445 153.292L85.6135 167.064C85.6135 167.064 77.8368 157.587 76.2489 152.919L76.2521 152.918Z" fill="#E8B730"/>
<path opacity="0.2" d="M81.2546 150.349C80.9883 150.55 79.1302 157.684 82.502 160.582C85.8739 163.479 88.8473 164.068 88.8473 164.068L85.8337 166.915L79.5453 158.162L76.2559 152.921L81.2586 150.351L81.2546 150.349Z" fill="black"/>
<path d="M99.7401 146.915C101.47 149.563 101.789 152.419 100.448 153.291C99.1078 154.167 96.6175 152.729 94.8871 150.081C93.1568 147.433 92.8385 144.576 94.1793 143.704C95.5194 142.829 98.0097 144.267 99.7401 146.915Z" fill="#E8B730"/>
<path d="M99.7402 146.914C99.7402 146.914 99.6741 146.842 99.5669 146.691C99.4596 146.54 99.2951 146.324 99.0748 146.05C98.8492 145.78 98.5656 145.457 98.2044 145.117C97.8486 144.773 97.4018 144.412 96.869 144.092C96.3386 143.781 95.6827 143.487 94.9628 143.527C94.6083 143.549 94.2465 143.692 93.9852 143.962C93.7208 144.233 93.5574 144.606 93.4904 145.004C93.349 145.808 93.49 146.683 93.7558 147.538C94.0309 148.391 94.4434 149.233 94.9615 150.034C95.4881 150.829 96.094 151.546 96.7665 152.138C97.4405 152.724 98.1893 153.203 98.9819 153.397C99.3751 153.495 99.7854 153.495 100.137 153.364C100.492 153.232 100.766 152.959 100.929 152.646C101.254 152.002 101.251 151.283 101.178 150.673C101.099 150.055 100.948 149.505 100.773 149.039C100.605 148.571 100.423 148.18 100.266 147.869C100.106 147.559 99.975 147.318 99.8763 147.161C99.783 146.999 99.737 146.915 99.7424 146.91C99.7487 146.909 99.8031 146.987 99.9049 147.143C100.012 147.294 100.152 147.53 100.322 147.841C100.489 148.153 100.68 148.541 100.859 149.01C101.041 149.477 101.202 150.03 101.291 150.66C101.371 151.281 101.391 152.019 101.046 152.711C100.874 153.05 100.573 153.357 100.185 153.505C99.7982 153.655 99.3566 153.65 98.943 153.551C98.1089 153.351 97.3435 152.86 96.6537 152.265C95.9677 151.66 95.3531 150.935 94.8169 150.129C94.2924 149.317 93.8734 148.463 93.5964 147.591C93.3296 146.72 93.1858 145.822 93.3368 144.979C93.412 144.562 93.5866 144.155 93.878 143.861C94.1685 143.563 94.5708 143.409 94.9527 143.39C95.7243 143.356 96.3946 143.666 96.9322 143.992C97.4723 144.327 97.9176 144.694 98.2706 145.053C98.6312 145.402 98.9071 145.735 99.1282 146.012C99.3438 146.294 99.4999 146.515 99.5994 146.675C99.7013 146.831 99.7503 146.915 99.7472 146.916L99.7402 146.914Z" fill="#263238"/>
<path d="M99.1528 151.216C99.9216 150.714 99.7405 149.077 98.7482 147.56C97.7559 146.042 96.3282 145.219 95.5594 145.721C94.7905 146.223 94.9716 147.86 95.9639 149.377C96.9562 150.895 98.3839 151.718 99.1528 151.216Z" fill="#455A64"/>
<path d="M72.619 121.27C72.619 121.27 72.5651 121.318 72.4517 121.405C72.343 121.498 72.1667 121.611 71.9626 121.796C71.5584 122.168 70.9962 122.771 70.5074 123.698C69.507 125.542 68.9947 128.648 69.4211 132.368C69.6167 134.231 70.001 136.25 70.5738 138.376C71.1497 140.5 71.9079 142.732 72.8305 145.03C74.6759 149.626 77.2279 154.469 80.3465 159.26C83.4852 164.04 86.9002 168.318 90.3732 171.855C92.1086 173.626 93.8519 175.214 95.5668 176.597C97.2872 177.975 98.9836 179.139 100.61 180.066C103.847 181.95 106.898 182.729 108.993 182.554C110.037 182.481 110.819 182.211 111.319 181.987C111.57 181.877 111.749 181.759 111.875 181.695C112 181.628 112.066 181.597 112.066 181.597C112.066 181.597 111.826 181.761 111.334 182.016C110.833 182.251 110.05 182.53 108.996 182.616C107.945 182.705 106.643 182.577 105.203 182.17C103.762 181.77 102.186 181.093 100.55 180.165C98.9111 179.242 97.2053 178.08 95.4779 176.701C93.7536 175.32 92.0032 173.73 90.2608 171.959C86.7736 168.419 83.3508 164.136 80.2056 159.345C77.0814 154.545 74.53 149.692 72.6876 145.082C71.7633 142.778 71.0096 140.538 70.4382 138.405C69.87 136.272 69.4926 134.241 69.3023 132.373C69.1081 130.503 69.1198 128.791 69.3337 127.311C69.5375 125.831 69.9453 124.589 70.4474 123.661C70.9487 122.731 71.521 122.128 71.937 121.763C72.3682 121.418 72.6165 121.261 72.6165 121.261L72.619 121.27Z" fill="#263238"/>
<path opacity="0.2" d="M82.757 162.902L96.5988 152.111C96.5988 152.111 98.3609 153.844 99.9287 153.507L85.833 166.912L82.7562 162.899L82.757 162.902Z" fill="black"/>
<path opacity="0.3" d="M65.3192 139.27C65.3192 139.27 65.4713 143.137 66.6701 144.312L69.571 143.534L68.2201 138.493L65.3192 139.27Z" fill="white"/>
<g opacity="0.3">
<path d="M72.2704 113.158C70.0252 114.216 68.1103 115.872 66.6805 118.081C62.9747 123.411 62.9054 131.009 64.601 137.188C65.4951 136.715 66.7972 136.046 67.7665 136.339C67.1724 133.164 66.6165 129.931 66.9527 126.716C67.2889 123.501 68.6352 120.259 71.215 118.308C73.3147 116.72 76.0358 116.131 78.6696 116.174C84.594 116.273 89.9433 119.267 94.9232 122.613C86.8683 115.747 78.6241 112.182 72.2735 113.158L72.2704 113.158Z" fill="white"/>
</g>
<path d="M119.653 175.872C119.653 175.872 119.648 175.957 119.623 176.11C119.594 176.264 119.57 176.498 119.498 176.79C119.375 177.376 119.136 178.216 118.703 179.202C118.273 180.186 117.623 181.307 116.678 182.376C116.198 182.901 115.663 183.431 115.034 183.886C114.406 184.344 113.707 184.748 112.944 185.062C111.401 185.676 109.768 185.71 108.373 185.468C106.964 185.242 105.752 184.801 104.76 184.4C103.77 183.989 102.99 183.605 102.459 183.331C102.193 183.196 101.989 183.084 101.849 183.008C101.712 182.932 101.64 182.891 101.642 182.884C101.644 182.88 101.723 182.912 101.864 182.977C102.021 183.052 102.227 183.15 102.487 183.274C103.026 183.529 103.812 183.898 104.805 184.292C105.796 184.679 107.004 185.105 108.396 185.318C109.775 185.548 111.376 185.509 112.883 184.909C113.631 184.602 114.319 184.204 114.939 183.755C115.56 183.309 116.092 182.79 116.565 182.277C117.501 181.226 118.157 180.128 118.598 179.157C119.038 178.186 119.297 177.36 119.435 176.78C119.518 176.491 119.55 176.263 119.59 176.112C119.626 175.959 119.647 175.877 119.651 175.879L119.653 175.872Z" fill="white"/>
<g opacity="0.3">
<path d="M92.33 170.791C84.7977 161.915 78.6991 151.829 74.3396 141.037C72.8924 137.454 71.6255 133.759 71.187 129.919C70.8819 127.249 70.9997 124.489 71.7058 121.908C66.0977 127.048 69.6769 143.369 80.1277 159.352C91.0203 176.012 105.253 185.991 111.918 181.643C112.151 181.491 112.369 181.322 112.575 181.144C108.823 181.959 104.802 180.958 101.463 179.031C97.896 176.972 94.9978 173.937 92.3317 170.797L92.33 170.791Z" fill="black"/>
</g>
<path d="M111.644 141.702L129.85 133.14L125.787 129.744L135.085 122.522L118.916 129.013L123.174 132.79L111.644 141.702Z" fill="#E8B730"/>
<path d="M106.582 129.869L116.126 116.918L110.862 116.15L113.029 107.354L105.371 118.291L109.981 119.124L106.582 129.869Z" fill="#E8B730"/>
<path d="M118.996 150.789L133.778 157.199L133.125 153.48L142.116 154.628L129.363 149.001L130.065 152.944L118.996 150.789Z" fill="#E8B730"/>
</g>
<circle cx="214" cy="201" r="32" fill="#D9D9D9"/>
<g clip-path="url(#clip1_3457_1614)">
<path d="M230.449 202.635C230.501 202.635 230.505 205.203 230.453 208.366C230.401 211.532 230.32 214.097 230.264 214.097C230.212 214.097 230.209 211.528 230.26 208.366C230.312 205.2 230.394 202.635 230.449 202.638V202.635Z" fill="#263238"/>
<path d="M219.695 189.064C219.695 189.064 219.695 189.129 219.684 189.252C219.672 189.375 219.643 189.556 219.591 189.788C219.487 190.248 219.262 190.911 218.814 191.639C218.359 192.36 217.664 193.146 216.68 193.744C215.703 194.346 214.434 194.701 213.102 194.664C211.77 194.624 210.524 194.201 209.584 193.545C208.637 192.896 207.99 192.071 207.575 191.324C207.168 190.571 206.983 189.901 206.906 189.433C206.869 189.198 206.846 189.017 206.843 188.893C206.835 188.77 206.835 188.705 206.843 188.705C206.865 188.705 206.88 188.966 206.98 189.422C207.079 189.879 207.283 190.535 207.694 191.263C208.112 191.984 208.759 192.781 209.684 193.404C210.601 194.034 211.811 194.436 213.106 194.476C214.401 194.509 215.633 194.172 216.583 193.596C217.545 193.023 218.233 192.266 218.696 191.567C219.151 190.861 219.391 190.219 219.517 189.77C219.643 189.317 219.672 189.06 219.695 189.06V189.064Z" fill="#263238"/>
<path d="M197.11 203.406C197.161 203.406 197.206 205.91 197.209 208.996C197.209 212.083 197.169 214.586 197.117 214.586C197.065 214.586 197.021 212.083 197.017 208.996C197.017 205.91 197.058 203.406 197.11 203.406Z" fill="#263238"/>
<path d="M208.034 188.061H219.021C219.021 188.061 228.955 191.52 232.184 193.947C235.414 196.371 240.367 213.452 240.367 213.452L230.445 213.166L229.702 227.834C219.539 234.92 207.342 234.402 197.923 228.2L197.187 214.314C197.187 214.314 191.716 214.158 188.923 214.075C186.129 213.992 186 213.242 186 213.242C186 213.242 192.352 196.9 194.291 193.737C195.981 190.98 205.8 188.521 208.034 188.061Z" fill="#263238"/>
<path d="M234.467 197.86C234.467 197.86 234.341 197.954 234.075 198.085C233.808 198.215 233.386 198.367 232.82 198.425C232.254 198.487 231.548 198.451 230.763 198.262C229.976 198.085 229.121 197.733 228.211 197.309C227.297 196.893 226.313 196.389 225.174 196.092C224.038 195.792 222.75 195.81 221.47 196.136C220.187 196.454 218.914 197.041 217.645 197.719C216.376 198.403 215.089 199.179 213.676 199.798C212.266 200.414 210.76 200.823 209.284 200.751C207.808 200.689 206.443 200.247 205.219 199.733C203.987 199.215 202.877 198.606 201.819 198.085C200.765 197.559 199.758 197.107 198.804 196.802C196.891 196.179 195.204 196.219 194.124 196.498C193.58 196.632 193.177 196.802 192.911 196.929C192.777 196.991 192.681 197.052 192.615 197.085C192.548 197.121 192.511 197.136 192.511 197.136C192.511 197.136 192.541 197.11 192.603 197.07C192.67 197.03 192.763 196.965 192.892 196.9C193.151 196.759 193.554 196.578 194.105 196.429C195.193 196.125 196.906 196.063 198.844 196.679C199.814 196.98 200.827 197.425 201.889 197.947C202.955 198.465 204.064 199.066 205.289 199.574C206.506 200.081 207.853 200.512 209.295 200.566C210.735 200.635 212.207 200.237 213.602 199.628C215 199.016 216.284 198.244 217.56 197.559C218.836 196.878 220.124 196.288 221.433 195.969C222.736 195.639 224.064 195.629 225.222 195.94C226.383 196.248 227.367 196.762 228.277 197.186C229.184 197.621 230.02 197.972 230.797 198.157C231.57 198.353 232.262 198.4 232.82 198.349C233.379 198.302 233.797 198.164 234.067 198.048C234.337 197.933 234.47 197.849 234.478 197.86H234.467Z" fill="#FAFAFA"/>
<path d="M238.074 206.044C238.074 206.044 237.918 205.949 237.6 205.812C237.286 205.674 236.805 205.497 236.15 205.424C235.503 205.344 234.689 205.377 233.786 205.594C232.883 205.808 231.907 206.239 230.889 206.815C229.868 207.384 228.81 208.108 227.593 208.775C226.384 209.423 224.974 210.047 223.38 210.083C221.789 210.141 220.183 209.597 218.641 208.927C217.087 208.264 215.522 207.456 213.779 207.061C212.037 206.677 210.261 206.779 208.6 207.054C206.932 207.326 205.363 207.772 203.854 208.163C202.348 208.554 200.902 208.895 199.518 209.054C198.138 209.213 196.825 209.206 195.656 208.982C193.31 208.532 191.671 207.344 190.858 206.333C190.432 205.833 190.218 205.366 190.066 205.062C190.01 204.91 189.962 204.79 189.929 204.7C189.899 204.616 189.885 204.576 189.888 204.573C189.925 204.551 190.077 205.29 190.913 206.286C191.731 207.272 193.362 208.427 195.678 208.851C196.828 209.061 198.127 209.065 199.492 208.898C200.861 208.732 202.3 208.391 203.802 207.996C205.304 207.605 206.88 207.152 208.559 206.873C210.232 206.591 212.033 206.489 213.813 206.877C215.588 207.279 217.161 208.094 218.707 208.757C220.242 209.427 221.818 209.96 223.365 209.909C224.911 209.88 226.302 209.275 227.504 208.637C228.714 207.985 229.78 207.264 230.808 206.699C231.837 206.127 232.824 205.699 233.745 205.493C234.663 205.283 235.488 205.261 236.146 205.352C236.805 205.435 237.29 205.627 237.604 205.775C237.918 205.928 238.059 206.04 238.059 206.04L238.074 206.044Z" fill="#FAFAFA"/>
<path d="M230.12 219.472C230.12 219.472 230.02 219.541 229.805 219.621C229.591 219.701 229.258 219.777 228.818 219.773C228.381 219.769 227.848 219.675 227.268 219.458C226.687 219.244 226.073 218.907 225.388 218.563C224.708 218.215 223.923 217.904 223.032 217.784C222.144 217.65 221.171 217.672 220.172 217.828C218.156 218.121 216.095 219.03 213.89 219.845C212.784 220.251 211.674 220.585 210.576 220.787C209.481 220.997 208.404 221.103 207.379 221.135C205.326 221.189 203.484 220.918 201.985 220.541C200.483 220.168 199.322 219.686 198.545 219.317C198.149 219.143 197.864 218.972 197.661 218.867C197.572 218.817 197.498 218.777 197.435 218.741C197.383 218.712 197.361 218.693 197.361 218.693C197.361 218.693 197.391 218.701 197.442 218.726C197.505 218.755 197.583 218.791 197.676 218.835C197.883 218.929 198.175 219.088 198.571 219.251C199.355 219.599 200.517 220.063 202.011 220.414C203.506 220.769 205.333 221.026 207.368 220.961C208.382 220.925 209.447 220.816 210.531 220.606C211.619 220.4 212.714 220.07 213.816 219.668C216.01 218.86 218.089 217.947 220.139 217.657C221.156 217.505 222.144 217.491 223.05 217.632C223.96 217.762 224.767 218.092 225.447 218.447C226.132 218.802 226.735 219.143 227.301 219.36C227.867 219.581 228.385 219.682 228.814 219.697C229.68 219.726 230.109 219.44 230.112 219.469L230.12 219.472Z" fill="#FAFAFA"/>
<path d="M229.802 227.069C229.783 227.087 229.506 226.681 228.825 226.142C228.148 225.62 227.001 224.968 225.436 224.827C224.663 224.751 223.797 224.827 222.932 225.116C222.07 225.421 221.23 225.935 220.424 226.565C219.613 227.196 218.822 227.935 217.941 228.638C217.064 229.337 216.062 230.003 214.889 230.351C213.716 230.692 212.507 230.71 211.378 230.569C210.246 230.427 209.181 230.145 208.186 229.848C206.192 229.25 204.457 228.54 202.947 228.123C201.442 227.696 200.154 227.609 199.288 227.75C198.423 227.88 197.983 228.109 197.971 228.08C197.971 228.08 197.997 228.062 198.053 228.04C198.119 228.015 198.197 227.978 198.297 227.938C198.404 227.891 198.537 227.844 198.704 227.804C198.867 227.757 199.059 227.707 199.277 227.678C200.15 227.511 201.46 227.583 202.984 227.996C204.512 228.399 206.247 229.098 208.237 229.685C209.229 229.978 210.287 230.253 211.401 230.387C212.514 230.525 213.698 230.507 214.834 230.174C215.973 229.837 216.953 229.192 217.823 228.5C218.696 227.804 219.495 227.069 220.316 226.435C221.134 225.801 221.996 225.279 222.884 224.971C223.775 224.682 224.663 224.606 225.455 224.696C227.049 224.859 228.203 225.54 228.877 226.087C229.55 226.652 229.805 227.073 229.805 227.073L229.802 227.069Z" fill="#FAFAFA"/>
<g opacity="0.2">
<path d="M196.843 225.638C199.074 225.809 201.061 224.341 202.714 222.867C204.372 221.393 206.099 219.752 208.315 219.44C210.635 219.114 212.995 220.346 215.293 219.893C216.328 219.69 217.294 219.154 218.348 219.114C220.087 219.049 221.545 220.313 222.795 221.498C224.423 223.037 226.047 224.577 227.675 226.117C228.174 226.587 229.121 227.294 229.746 227L229.868 224.62C229.088 220.335 228.241 215.93 224.87 213.093C222.37 210.988 218.966 210.264 215.688 209.898C211.719 209.456 207.42 209.507 204.087 211.666C201.863 213.104 200.295 215.361 199.266 217.77C198.238 220.179 197.705 222.755 197.18 225.312" fill="black"/>
</g>
<path d="M239.557 213.426C239.654 213.991 241.255 223.04 240.967 224.83C240.678 226.619 240.197 228.974 238.081 229.818C235.965 230.666 232.891 229.536 231.16 226.616C229.428 223.696 221.929 213.437 221.929 213.437L216.354 212.777V203.645L227.027 210.296L231.929 214.654L231.555 213.194L239.561 213.426H239.557Z" fill="#FFBE9D"/>
<path d="M218.759 198.794H210.339C209.648 198.794 209.088 199.342 209.088 200.018V214.893C209.088 215.569 209.648 216.117 210.339 216.117H218.759C219.449 216.117 220.009 215.569 220.009 214.893V200.018C220.009 199.342 219.449 198.794 218.759 198.794Z" fill="#455A64"/>
<path d="M226.557 210.068C226.594 210.028 228.914 211.992 231.737 214.451C234.563 216.911 236.823 218.94 236.79 218.98C236.753 219.02 234.437 217.056 231.607 214.593C228.781 212.133 226.52 210.104 226.554 210.068H226.557Z" fill="#E07646"/>
<path d="M187.45 213.94C187.45 213.94 186.122 225.188 186.122 226.471C186.122 227.753 187.299 230.829 190.573 231.086C193.843 231.343 198.034 224.167 198.034 224.167L204.841 214.041L201.83 208.531L195.944 214.277L187.454 213.94H187.45Z" fill="#FFBE9D"/>
<path d="M217.838 205.564L209.026 205.325L201.826 208.528L204.838 214.038L210.106 213.288C210.106 213.288 213.187 212.795 213.376 212.61C213.731 212.263 214.038 211.194 214.253 210.267C214.468 209.321 214.36 208.332 213.942 207.455L213.742 207.289C213.742 207.289 216.643 206.695 217.124 206.488C218.278 205.988 217.838 205.564 217.838 205.564Z" fill="#FFBE9D"/>
<path d="M201.826 208.528C201.826 208.528 201.712 208.683 201.482 208.937C201.253 209.194 200.913 209.553 200.487 209.995C199.636 210.879 198.43 212.074 197.084 213.378C195.752 214.672 194.546 215.842 193.639 216.722C193.221 217.131 192.87 217.476 192.6 217.74C192.352 217.979 192.211 218.106 192.204 218.099C192.193 218.091 192.319 217.943 192.548 217.689C192.777 217.432 193.118 217.073 193.543 216.632C194.394 215.748 195.6 214.552 196.95 213.248C198.282 211.955 199.488 210.785 200.395 209.904C200.813 209.495 201.164 209.151 201.434 208.886C201.682 208.647 201.823 208.52 201.83 208.528H201.826Z" fill="#E07646"/>
<path d="M210.509 208.125C210.476 208.093 211.138 207.557 212.155 207.365C213.169 207.162 213.994 207.412 213.975 207.452C213.968 207.51 213.162 207.354 212.196 207.549C211.227 207.73 210.542 208.176 210.513 208.125H210.509Z" fill="#E07646"/>
<path d="M214.475 209.09C214.456 209.144 213.768 208.876 212.888 208.963C212.007 209.035 211.378 209.419 211.352 209.368C211.315 209.336 211.933 208.854 212.873 208.778C213.809 208.691 214.504 209.057 214.475 209.093V209.09Z" fill="#E07646"/>
<path d="M213.92 210.676C213.901 210.697 213.802 210.636 213.635 210.574C213.469 210.513 213.228 210.473 212.962 210.505C212.695 210.542 212.473 210.647 212.333 210.748C212.189 210.85 212.111 210.933 212.089 210.918C212.07 210.908 212.107 210.788 212.248 210.647C212.385 210.505 212.636 210.361 212.94 210.321C213.247 210.281 213.524 210.353 213.698 210.455C213.872 210.556 213.938 210.661 213.924 210.676H213.92Z" fill="#E07646"/>
<path d="M213.853 193.48C216.776 193.313 219.047 190.933 219.022 188.068C219.007 186.347 218.985 184.873 218.985 184.873C218.985 184.873 223.442 184.195 223.498 179.83C223.553 175.468 222.78 165.448 222.78 165.448C217.623 163.278 211.667 164.01 207.22 167.364L206.562 167.861L208.067 188.502C208.282 191.433 210.861 193.65 213.853 193.484V193.48Z" fill="#FFBE9D"/>
<path d="M218.996 184.807C218.996 184.807 216.18 185.032 213.188 183.191C213.188 183.191 214.56 186.332 219.007 185.937L218.996 184.807Z" fill="#E07646"/>
<path d="M207.109 172.378C207.032 172.345 204.046 171.49 204.146 174.476C204.242 177.457 207.283 176.747 207.283 176.664C207.283 176.577 207.109 172.382 207.109 172.382V172.378Z" fill="#EB996E"/>
<path d="M206.314 175.559C206.314 175.559 206.262 175.595 206.173 175.639C206.088 175.682 205.936 175.711 205.777 175.66C205.452 175.555 205.163 175.062 205.134 174.526C205.115 174.255 205.167 173.994 205.259 173.776C205.345 173.555 205.485 173.4 205.644 173.363C205.803 173.324 205.922 173.414 205.962 173.498C206.007 173.581 205.988 173.639 206.003 173.646C206.01 173.653 206.066 173.595 206.04 173.472C206.025 173.414 205.988 173.345 205.914 173.287C205.84 173.233 205.729 173.204 205.618 173.222C205.385 173.244 205.178 173.465 205.078 173.7C204.963 173.939 204.904 174.233 204.923 174.537C204.963 175.139 205.293 175.689 205.74 175.802C205.955 175.849 206.133 175.78 206.225 175.707C206.317 175.631 206.332 175.562 206.321 175.559H206.314Z" fill="#E07646"/>
<path d="M221.319 172.802C221.33 173.131 221.056 173.41 220.705 173.432C220.353 173.45 220.061 173.2 220.05 172.871C220.039 172.541 220.313 172.258 220.664 172.24C221.015 172.222 221.308 172.472 221.319 172.802Z" fill="#263238"/>
<path d="M221.937 171.584C221.859 171.664 221.374 171.316 220.69 171.316C220.005 171.309 219.502 171.653 219.428 171.57C219.391 171.533 219.473 171.385 219.691 171.229C219.906 171.073 220.275 170.921 220.701 170.925C221.126 170.925 221.485 171.081 221.692 171.24C221.903 171.399 221.974 171.544 221.937 171.581V171.584Z" fill="#263238"/>
<path d="M214.456 172.881C214.467 173.21 214.194 173.489 213.842 173.511C213.491 173.529 213.198 173.279 213.187 172.95C213.176 172.62 213.45 172.337 213.801 172.319C214.153 172.301 214.445 172.551 214.456 172.881Z" fill="#263238"/>
<path d="M215.207 171.707C215.13 171.787 214.645 171.439 213.961 171.439C213.276 171.432 212.773 171.776 212.699 171.693C212.662 171.657 212.743 171.508 212.962 171.352C213.176 171.196 213.543 171.044 213.972 171.048C214.397 171.048 214.756 171.204 214.963 171.363C215.174 171.522 215.244 171.667 215.207 171.704V171.707Z" fill="#263238"/>
<path d="M217.693 176.681C217.693 176.641 218.115 176.573 218.807 176.486C218.981 176.468 219.147 176.435 219.177 176.315C219.217 176.192 219.143 176.007 219.058 175.808C218.896 175.395 218.722 174.961 218.54 174.504C217.823 172.649 217.301 171.121 217.379 171.095C217.456 171.066 218.1 172.551 218.818 174.406C218.992 174.863 219.155 175.301 219.314 175.718C219.38 175.913 219.495 176.134 219.406 176.388C219.358 176.515 219.232 176.609 219.118 176.638C219.007 176.67 218.907 176.674 218.822 176.678C218.126 176.714 217.697 176.718 217.693 176.678V176.681Z" fill="#263238"/>
<path d="M215.677 177.145C215.788 177.138 215.788 177.866 216.424 178.384C217.061 178.902 217.852 178.819 217.856 178.924C217.867 178.971 217.679 179.065 217.346 179.073C217.016 179.083 216.539 178.982 216.151 178.663C215.762 178.348 215.596 177.924 215.57 177.623C215.54 177.319 215.625 177.138 215.673 177.142L215.677 177.145Z" fill="#263238"/>
<path d="M215.385 169.081C215.318 169.262 214.634 169.175 213.831 169.273C213.025 169.353 212.377 169.581 212.27 169.418C212.222 169.338 212.337 169.168 212.596 168.99C212.855 168.813 213.269 168.646 213.753 168.596C214.234 168.545 214.678 168.617 214.971 168.737C215.267 168.853 215.415 168.998 215.385 169.085V169.081Z" fill="#263238"/>
<path d="M221.685 169.643C221.563 169.795 221.093 169.635 220.527 169.628C219.961 169.603 219.48 169.729 219.369 169.57C219.321 169.494 219.395 169.342 219.606 169.197C219.813 169.052 220.157 168.936 220.549 168.947C220.938 168.958 221.278 169.096 221.474 169.255C221.674 169.411 221.741 169.57 221.689 169.643H221.685Z" fill="#263238"/>
<path d="M224.952 162.691C225 162.151 224.793 161.568 224.345 161.253C223.894 160.934 223.198 160.956 222.832 161.365C223.043 160.637 222.432 159.796 221.663 159.749C220.938 159.706 220.316 160.242 219.614 160.43C218.929 160.615 218.193 160.456 217.534 160.195C216.876 159.934 216.258 159.575 215.592 159.336C214.201 158.84 212.607 158.902 211.26 159.507C209.913 160.112 208.826 161.253 208.304 162.611C207.331 162.314 206.221 162.796 205.622 163.607C205.023 164.415 204.867 165.477 204.986 166.469C205.067 167.14 205.263 167.788 205.496 168.426C205.496 168.48 205.489 168.538 205.493 168.592C205.537 170.99 205.814 173.809 206.861 173.823C208.682 173.852 208.249 170.49 208.249 170.49C210.483 169.643 209.651 166.364 210.209 165.868C210.768 165.372 211.937 164.212 216.621 166.556C218.437 167.466 220.857 167.437 222.174 167.143C222.211 167.136 222.251 167.129 222.288 167.121C222.296 167.121 222.307 167.121 222.314 167.114C222.329 167.114 222.34 167.103 222.351 167.1C222.773 166.991 223.176 166.832 223.553 166.6C223.979 166.335 224.364 165.98 224.541 165.524C224.722 165.064 224.652 164.491 224.286 164.158C224.63 163.734 224.904 163.231 224.948 162.691H224.952Z" fill="#263238"/>
</g>
<circle cx="172" cy="109" r="32" fill="#D9D9D9"/>
<circle cx="93" cy="49" r="32" fill="#D9D9D9"/>
<path d="M102.092 17.8176C102.02 16.8001 102.927 15.4011 103.762 14.5938C104.602 13.7864 105.122 12.6971 104.685 11.0714C104.348 9.81612 103.552 9.91012 103.237 9.16914C103.004 8.6217 103.104 7.99685 103.054 7.40517C102.888 5.37024 100.654 3.77769 98.6745 4.28643C98.116 2.35103 96.3133 0.841425 94.3116 0.636827C92.3098 0.426698 90.2362 1.53264 89.2906 3.3132C88.146 2.72152 86.7083 2.73811 85.5858 3.3685C84.4632 3.99888 83.6835 5.20436 83.5895 6.49277C82.478 5.69097 80.7694 6.00063 79.8846 7.05127C78.9999 8.10191 78.9501 9.71659 79.6192 10.9165C80.2883 12.1165 81.5822 12.8962 82.9425 13.1063C84.3028 13.3164 85.7019 12.9957 86.935 12.3819C88.1626 11.7681 89.2353 10.8778 90.2086 9.91012" fill="#263238"/>
<path d="M93.0507 81.3655C79.8301 81.3655 69.1127 70.8982 69.1127 57.986C69.1127 45.0738 79.8301 34.6064 93.0507 34.6064C106.271 34.6064 116.989 45.0738 116.989 57.986C116.989 70.8982 106.271 81.3655 93.0507 81.3655Z" fill="#E0E0E0"/>
<path d="M69.0189 58.0021L71.6676 51.2061L81.1621 57.1726L72.7017 70.2227C72.7017 70.2227 69.2622 65.7492 69.0189 58.0021Z" fill="#EB996E"/>
<path d="M95.23 43.2921C91.8182 43.2921 89.0036 40.6489 88.8322 37.2703C88.6939 34.4556 88.5722 31.7461 88.5722 31.7461C88.5722 31.7461 83.3467 31.3701 82.8656 26.2606C82.3845 21.1512 82.3182 9.34531 82.3182 9.34531C88.0801 6.32057 95.042 6.6247 100.516 10.1361L101.014 10.4568L101.617 36.8832C101.656 40.4056 98.7856 43.2866 95.23 43.2921Z" fill="#FFBE9D"/>
<path d="M92.2336 17.198C91.8409 17.3252 91.6253 17.7509 91.758 18.138C91.8907 18.5306 92.3165 18.7408 92.7091 18.6081C93.1017 18.4809 93.3174 18.0551 93.1847 17.668C93.052 17.2754 92.6262 17.0653 92.2336 17.198Z" fill="#263238"/>
<path d="M90.8009 17.4684C90.8894 17.5514 91.3705 17.1367 92.0838 17.0924C92.7971 17.0371 93.3335 17.38 93.4054 17.286C93.4441 17.2417 93.3501 17.0869 93.1178 16.9321C92.8856 16.7772 92.4985 16.639 92.0561 16.6666C91.6137 16.6998 91.2488 16.8934 91.0442 17.0814C90.8341 17.2694 90.7677 17.4353 90.8064 17.474L90.8009 17.4684Z" fill="#263238"/>
<path d="M84.4357 17.198C84.0431 17.3252 83.8275 17.7509 83.9602 18.138C84.0929 18.5306 84.5187 18.7408 84.9113 18.6081C85.3039 18.4809 85.5195 18.0551 85.3868 17.668C85.2541 17.2754 84.8283 17.0653 84.4357 17.198Z" fill="#263238"/>
<path d="M82.9102 17.4792C82.9987 17.5621 83.4798 17.1474 84.1931 17.1032C84.9065 17.0479 85.4429 17.3907 85.5147 17.2967C85.5535 17.2525 85.4594 17.0976 85.2272 16.9428C84.9949 16.788 84.6079 16.6497 84.1655 16.6774C83.7231 16.7106 83.3582 16.9041 83.1536 17.0921C82.9434 17.2801 82.8771 17.446 82.9158 17.4847L82.9102 17.4792Z" fill="#263238"/>
<path d="M88.2795 23.0046C88.2795 22.9493 87.8316 22.894 87.1128 22.8553C86.9247 22.8553 86.7755 22.8222 86.7533 22.7226C86.7091 22.612 86.7644 22.413 86.8418 22.1862C86.9856 21.7052 87.1349 21.2186 87.2842 20.7098C87.8924 18.6085 88.3016 16.8833 88.191 16.8501C88.086 16.8169 87.4998 18.4979 86.8916 20.5992C86.7478 21.1135 86.6096 21.6001 86.4769 22.0812C86.4271 22.3024 86.3165 22.5567 86.4381 22.8553C86.5045 23.0046 86.6593 23.1042 86.781 23.1208C86.9082 23.1484 87.0132 23.1374 87.1017 23.1374C87.8261 23.1042 88.274 23.0599 88.274 22.9991L88.2795 23.0046Z" fill="#263238"/>
<path d="M88.5616 31.6749C88.5616 31.6749 91.8407 31.6749 95.1309 29.2363C95.1309 29.2363 93.8425 33.0463 88.6556 32.9965L88.5616 31.6694V31.6749Z" fill="#EB996E"/>
<path d="M101.141 17.9553C101.141 17.5406 101.456 17.1867 101.871 17.1646C102.833 17.1204 104.42 17.4687 104.619 20.1009C104.901 23.861 101.23 22.9929 101.219 22.8878C101.207 22.8049 101.163 19.4207 101.147 17.9553H101.141Z" fill="#FFBE9D"/>
<path d="M102.026 21.3901C102.026 21.3901 102.098 21.4288 102.209 21.473C102.319 21.5117 102.513 21.5338 102.701 21.4454C103.088 21.2684 103.381 20.6159 103.348 19.9358C103.331 19.5929 103.237 19.2722 103.094 19.0123C102.955 18.7469 102.762 18.5644 102.557 18.5478C102.353 18.5146 102.22 18.6473 102.181 18.7579C102.137 18.8685 102.17 18.9404 102.148 18.9459C102.137 18.957 102.059 18.8906 102.082 18.7303C102.093 18.6529 102.131 18.5644 102.214 18.4814C102.297 18.404 102.43 18.3543 102.574 18.3598C102.867 18.3598 103.149 18.6031 103.309 18.8906C103.481 19.1782 103.597 19.5376 103.619 19.9192C103.652 20.6767 103.315 21.4177 102.778 21.6168C102.518 21.7053 102.286 21.6444 102.165 21.5615C102.037 21.4785 102.015 21.3956 102.026 21.3845V21.3901Z" fill="#EB996E"/>
<path d="M94.1687 15.4618C93.9807 15.7051 93.3282 15.589 92.4766 15.5558C91.6306 15.4895 90.967 15.5227 90.8122 15.2572C90.6352 14.9863 91.4592 14.3559 92.5485 14.4499C93.6434 14.4941 94.3788 15.2185 94.1687 15.4674V15.4618Z" fill="#263238"/>
<path d="M85.8904 15.2121C85.7853 15.5383 85.166 15.6379 84.4748 15.6323C83.7836 15.6157 83.1642 15.5051 83.0702 15.1734C82.9707 14.8526 83.6011 14.3881 84.4914 14.4047C85.3817 14.4158 85.9955 14.8913 85.8904 15.2121Z" fill="#263238"/>
<path d="M81.5992 10.9613C81.5992 10.9613 84.6959 12.4599 88.7325 10.4471C91.3813 9.12549 94.4613 8.47852 95.1414 9.0149C95.8216 9.54575 95.9654 12.2719 98.5864 13.0682C98.5864 13.0682 98.404 18.2716 100.483 18.0836C102.557 17.8956 101.263 9.83882 101.263 9.83882L96.1866 7.36152L90.6513 6.31641L85.4313 7.05185L81.3946 8.15779L81.5992 10.9613Z" fill="#263238"/>
<path d="M116.325 41.0706C110.901 35.4911 101.357 36.1049 101.357 36.1049L93.4436 41.7673L88.959 36.5418C88.959 36.5418 84.2421 37.0616 79.8239 39.3674L79.5198 39.4614V39.5223C76.0527 41.4079 71.1368 45.9257 66.4587 50.3107L72.0602 55.5086L78.259 61.0107C78.259 61.0107 78.2369 61.0494 78.248 61.1213C78.3143 61.453 77.3853 69.0287 76.4342 74.7796C82.08 80.1711 89.2797 82.4769 97.2701 81.0724C99.8083 80.63 101.036 80.0107 103.38 79.3914C106.853 78.479 109.369 75.4708 109.679 71.8931C110.099 67.0712 110.425 61.0991 110.425 61.0991" fill="#455A64"/>
<path d="M83.999 37.515C83.999 37.515 83.8608 37.8246 83.6562 38.4052C83.4516 38.9859 83.1751 39.8264 82.8488 40.8715C82.1963 42.9617 81.3614 45.8759 80.5761 49.1273C79.7909 52.3788 79.2048 55.3538 78.8287 57.5103C78.6407 58.5886 78.5025 59.4678 78.4195 60.0706C78.3366 60.6789 78.2979 61.0162 78.3145 61.0162C78.3311 61.0162 78.4085 60.6899 78.5301 60.0872C78.6573 59.4402 78.8232 58.5831 79.0278 57.5435C79.4536 55.398 80.0729 52.4341 80.8526 49.1882C81.6378 45.9422 82.4341 43.0281 83.0368 40.9213C83.3299 39.9038 83.5732 39.0633 83.7557 38.4274C83.9216 37.8412 84.0101 37.5094 83.988 37.5039L83.999 37.515Z" fill="#263238"/>
<path d="M78.9069 57.4499C78.9567 57.3891 76.59 55.3763 73.6261 52.9598C70.6566 50.5433 68.2125 48.63 68.1628 48.6909C68.113 48.7517 70.4797 50.7645 73.4436 53.181C76.413 55.5975 78.8572 57.5107 78.9069 57.4499Z" fill="#263238"/>
<path opacity="0.2" d="M109.171 48.7243L114.026 64.6885L112.217 65.6286L110.437 61.1108C110.437 61.1108 108.607 51.6274 109.171 48.7188V48.7243Z" fill="black"/>
<g opacity="0.2">
<path d="M84.5247 37.5256C81.9092 38.9025 88.4674 42.2258 91.4258 42.1373L89.2747 36.4639C89.2747 36.4639 85.3984 37.0666 84.5247 37.5311V37.5256Z" fill="black"/>
</g>
<path d="M102.142 36.4587V32.2285C102.142 32.2285 93.886 34.3519 93.5819 39.2955C93.5819 39.2955 92.5312 33.8321 88.2789 33.5722L87.6761 41.253L92.6252 45.5606H97.6462L101.622 42.1322L102.142 36.796" fill="#455A64"/>
<path d="M91.7239 62.9961C91.7239 62.9961 91.746 62.6698 91.7405 62.0892C91.7294 61.5031 91.7183 60.657 91.7128 59.6174C91.7073 57.5272 91.7736 54.6462 92.0335 51.4722C92.299 48.2982 92.7082 45.4393 93.0621 43.3823C93.239 42.3924 93.3828 41.5685 93.4934 40.9492C93.5985 40.3741 93.6482 40.0534 93.6316 40.0479C93.615 40.0479 93.5266 40.3575 93.3883 40.9215C93.2446 41.4911 93.0676 42.315 92.863 43.3435C92.4593 45.3951 92.0114 48.2594 91.746 51.4445C91.4806 54.6297 91.4474 57.5272 91.5082 59.6174C91.5359 60.6625 91.5801 61.5086 91.6244 62.0947C91.6686 62.6809 91.7018 63.0016 91.7239 63.0016V62.9961Z" fill="#263238"/>
<path d="M93.9631 37.8738C93.9631 37.8738 94.1511 37.8019 94.4552 37.918C94.7704 38.0175 95.0524 38.4101 95.2847 38.9742C95.7934 40.0746 96.4183 41.6561 96.8551 43.5417L96.8993 43.7297L97.0652 43.6302C97.5574 43.3316 98.0661 43.0108 98.5748 42.6625C99.5591 41.9934 100.466 41.3077 101.251 40.6275C101.649 40.2847 101.976 39.8755 102.164 39.4331C102.352 38.9908 102.424 38.5539 102.44 38.1558C102.473 37.3595 102.341 36.7346 102.258 36.3089C102.164 35.8831 102.097 35.6508 102.075 35.6563C102.053 35.6563 102.086 35.8997 102.147 36.331C102.197 36.7623 102.296 37.3871 102.236 38.1502C102.202 38.5263 102.125 38.941 101.942 39.3391C101.76 39.7373 101.461 40.1078 101.074 40.4285C100.295 41.081 99.3877 41.7611 98.409 42.4247C97.9058 42.7675 97.4026 43.0883 96.9159 43.3869L97.1261 43.4753C96.6726 41.5676 96.0035 39.9806 95.445 38.8912C95.3068 38.6203 95.1741 38.3714 95.0082 38.1779C94.8478 37.9843 94.6487 37.8682 94.4829 37.8185C94.1345 37.7189 93.9465 37.8627 93.9631 37.8682V37.8738Z" fill="#263238"/>
<path d="M88.2788 33.5726C88.2788 33.5726 88.2345 33.8048 88.2013 34.2306C88.1682 34.7172 88.1239 35.32 88.0686 36.0278C88.0078 36.7853 87.9138 37.6867 87.759 38.6765C87.6981 39.1686 87.5267 39.6995 87.6594 40.2967C87.8309 40.8884 88.2732 41.3307 88.7432 41.6846C89.4068 42.1768 90.098 42.5417 90.5625 43.0671L90.7837 43.3159L90.8058 42.9841C90.922 41.2367 91.5026 39.799 92.0279 38.8645C92.5532 37.9245 92.9845 37.4378 92.9513 37.4102C92.9403 37.3991 92.8242 37.5097 92.6251 37.7364C92.4316 37.9632 92.1606 38.306 91.8786 38.776C91.3035 39.705 90.6676 41.1649 90.5349 42.962L90.7782 42.8791C90.275 42.304 89.5561 41.9224 88.9257 41.4524C88.4778 41.1151 88.0797 40.7004 87.9414 40.2248C87.8253 39.7382 87.9691 39.2129 88.0299 38.7097C88.1737 37.7088 88.2456 36.7964 88.2788 36.0333C88.3175 35.2702 88.323 34.6509 88.3175 34.2251C88.3175 33.7993 88.3009 33.5615 88.2843 33.5615L88.2788 33.5726Z" fill="#263238"/>
<path d="M61.6976 34.6338C62.035 35.0319 74.1892 51.2837 74.1892 51.2837L72.475 52.2514L60 36.2042L61.6921 34.6338H61.6976Z" fill="#263238"/>
<path d="M110.535 47.4842C110.535 47.4842 97.7449 65.8925 96.9762 66.2575C95.4556 66.9708 77.9596 51.8471 76.2897 50.4039C76.0574 50.0942 75.5874 49.4472 74.6529 48.1588C74.6529 48.1588 73.2704 41.8439 71.7995 42.325C70.3286 42.8116 72.6069 45.5377 71.6447 47.9376C70.6825 50.3375 66.292 44.6143 66.115 44.1L64.9814 42.6181C64.9814 42.6181 63.7926 45.9856 63.8755 47.3957C64.1354 51.9024 68.3988 57.2607 68.3988 57.2607C68.3988 57.2607 87.5481 80.9831 100.665 81.7185C104.441 81.9286 111.154 71.2121 115.644 63.1719C118.354 58.3169 117.005 52.201 112.509 48.9274L110.535 47.4842Z" fill="#FFBE9D"/>
<path d="M66.0324 48.1921C66.0766 48.1644 65.6674 47.4401 65.214 46.5221C64.7605 45.6042 64.4343 44.8411 64.3845 44.8577C64.3403 44.8743 64.6002 45.6705 65.0592 46.5995C65.5181 47.5285 65.9937 48.2142 66.0324 48.1921Z" fill="#EB996E"/>
<path d="M112.703 38.499C112.703 38.499 126.433 43.3817 116.225 66.4627L100.377 56.8963L102.633 51.4993L112.703 38.499Z" fill="#455A64"/>
<path d="M113.754 38.9035C113.754 38.9035 113.156 38.8039 112.1 39.0417C111.58 39.1744 110.955 39.4067 110.297 39.7993C109.639 40.1919 108.959 40.7449 108.296 41.4416C106.963 42.8296 105.719 44.7705 104.569 47.01C103.407 49.2551 102.324 51.8098 101.212 54.4972C100.88 55.299 100.549 56.0953 100.239 56.8473L100.189 56.969L100.3 57.0298C104.884 59.5292 108.876 61.8683 111.702 63.6212C113.112 64.4949 114.24 65.2138 115.009 65.7114C115.379 65.9492 115.672 66.1372 115.899 66.281C116.104 66.4082 116.214 66.4745 116.22 66.4635C116.22 66.4579 116.126 66.375 115.932 66.2368C115.739 66.093 115.451 65.8829 115.07 65.623C114.318 65.0976 113.206 64.3511 111.807 63.4553C109.009 61.6582 105.028 59.2859 100.444 56.7755L100.504 56.9579C100.814 56.2059 101.146 55.4151 101.478 54.6078C102.589 51.9204 103.662 49.3712 104.806 47.1317C105.94 44.8921 107.157 42.9623 108.445 41.5799C109.086 40.8886 109.744 40.3357 110.38 39.9375C111.016 39.5394 111.619 39.2961 112.122 39.1468C113.145 38.8814 113.748 38.9422 113.748 38.898L113.754 38.9035Z" fill="#263238"/>
<path d="M84.2193 4.67383C84.2193 4.67383 84.1861 4.75677 84.153 4.91713C84.1253 5.07749 84.0921 5.3208 84.1142 5.63599C84.1474 6.24979 84.3686 7.2009 85.1594 8.03035C85.928 8.85981 87.3823 9.38512 88.8532 8.96487C89.5721 8.75474 90.302 8.31789 90.7443 7.59351C90.96 7.23408 91.0872 6.7917 91.0264 6.34379C90.9655 5.90695 90.7444 5.46457 90.3462 5.20468C89.9481 4.93372 89.4228 4.93925 89.0191 5.12173C88.6099 5.29315 88.2726 5.63046 88.1122 6.03413C87.786 6.847 88.0293 7.72069 88.4772 8.33448C89.4283 9.59525 91.148 9.69479 92.1047 9.12523C92.6079 8.89298 93.0502 8.67732 93.4705 8.59991C93.8852 8.51696 94.2557 8.58885 94.5267 8.7105C95.0686 8.9704 95.2898 9.25794 95.3119 9.23029C95.3174 9.22476 95.2621 9.15841 95.1515 9.04229C95.0962 8.98146 95.0243 8.90957 94.9248 8.83769C94.8308 8.7658 94.7202 8.67732 94.5709 8.61097C94.2944 8.46166 93.8907 8.36766 93.4373 8.44508C92.9839 8.51143 92.5194 8.72709 92.0162 8.94275C91.7618 9.04229 91.5019 9.15841 91.2199 9.20817C90.9434 9.25794 90.6338 9.25241 90.3296 9.19159C89.7214 9.08099 89.0965 8.74921 88.6873 8.18518C88.2892 7.63774 88.0901 6.83594 88.3721 6.15026C88.621 5.48116 89.5499 5.03326 90.1914 5.45351C90.501 5.65811 90.6946 6.02307 90.7443 6.39356C90.7996 6.76405 90.6946 7.14007 90.501 7.46079C90.114 8.10224 89.4449 8.52249 88.7758 8.72156C87.4099 9.13076 86.0386 8.66074 85.2976 7.89764C84.529 7.13454 84.2801 6.2332 84.2193 5.63599C84.153 5.02773 84.247 4.69042 84.2193 4.68489V4.67383Z" fill="#455A64"/>
<path d="M87.2108 25.5262C87.2053 25.5594 87.3822 25.6313 87.6864 25.6479C87.9905 25.6645 88.4163 25.5926 88.8366 25.3825C89.2513 25.1723 89.561 24.8682 89.7324 24.6138C89.9038 24.3595 89.948 24.177 89.9148 24.1604C89.8429 24.1162 89.4725 24.7466 88.7038 25.1226C87.9463 25.5152 87.2219 25.4378 87.2108 25.5207V25.5262Z" fill="#263238"/>
<path d="M101.71 23.0819C101.71 23.0819 101.528 23.3252 101.733 23.7067C101.832 23.8837 102.015 24.0772 102.297 24.1546C102.579 24.232 102.916 24.1436 103.154 23.9279C103.397 23.7178 103.53 23.4081 103.519 23.1261C103.508 22.8441 103.391 22.6174 103.264 22.4625C102.999 22.1529 102.728 22.1197 102.722 22.1529C102.7 22.1971 102.916 22.2911 103.098 22.5842C103.286 22.8551 103.358 23.386 102.966 23.7122C102.783 23.8671 102.551 23.939 102.357 23.8947C102.158 23.856 102.003 23.7288 101.904 23.5961C101.705 23.3252 101.755 23.0874 101.71 23.0819Z" fill="#263238"/>
<path d="M83.313 6.53711C83.313 6.53711 83.0807 6.89101 83.0475 7.55458C83.0088 8.20155 83.1968 9.16925 83.8659 9.94893C84.5461 10.7286 85.4696 11.0493 86.1221 11.0991C86.7801 11.1599 87.1727 11.0051 87.1672 10.9775C87.1616 10.9277 86.7635 10.9996 86.1497 10.8945C85.547 10.795 84.7065 10.4632 84.0871 9.75539C83.4733 9.04206 83.2632 8.16284 83.2521 7.55458C83.2356 6.92972 83.3627 6.54817 83.313 6.53711Z" fill="#455A64"/>
<path d="M102.008 52.8046C101.975 52.8764 105.619 54.751 110.153 56.9905C114.688 59.2301 118.387 60.9885 118.426 60.9221C118.459 60.8503 114.815 58.9757 110.281 56.7362C105.746 54.4966 102.047 52.7382 102.008 52.8046Z" fill="#E0E0E0"/>
<path d="M105.332 46.5334C105.293 46.6053 108.539 48.4191 112.581 50.5867C116.623 52.7544 119.93 54.4575 119.969 54.3856C120.008 54.3137 116.762 52.5 112.719 50.3323C108.677 48.1647 105.37 46.4616 105.337 46.5334H105.332Z" fill="#E0E0E0"/>
<path d="M108.545 41.4625C108.529 41.5012 109.154 41.8551 110.171 42.4247C111.26 43.0329 112.626 43.796 114.141 44.6421C115.645 45.4992 117.011 46.2789 118.09 46.8927C119.102 47.4677 119.732 47.8216 119.754 47.7829C119.776 47.7498 119.184 47.3406 118.195 46.7157C117.21 46.0909 115.828 45.2614 114.28 44.3877C112.731 43.514 111.305 42.762 110.265 42.2422C109.22 41.7224 108.562 41.4293 108.545 41.4625Z" fill="#E0E0E0"/>
<path d="M96.4014 40.2636C96.4069 40.2968 96.8327 40.2415 97.4686 39.976C98.1045 39.7161 98.9284 39.2185 99.7026 38.5217C100.482 37.825 101.085 37.1006 101.505 36.5697C101.926 36.0334 102.158 35.6905 102.13 35.6629C102.097 35.6352 101.809 35.9394 101.35 36.437C100.891 36.9347 100.272 37.6259 99.509 38.3061C98.7515 38.9862 97.9718 39.4949 97.3801 39.7935C96.7884 40.0977 96.3848 40.2193 96.3958 40.2636H96.4014Z" fill="#E0E0E0"/>
<path d="M88.3333 37.2656C88.2614 37.2877 88.5987 38.1836 89.4835 38.9245C90.3627 39.671 91.3027 39.848 91.3138 39.7761C91.3414 39.6932 90.4899 39.4056 89.6715 38.7089C88.842 38.0177 88.4162 37.2324 88.3388 37.2712L88.3333 37.2656Z" fill="#E0E0E0"/>
<path d="M73.9559 45.5874C73.9559 45.5874 74.061 45.615 74.2656 45.6427C74.5034 45.6703 74.7965 45.709 75.1559 45.7533C75.93 45.8362 77.0526 45.9468 78.435 46.0519C81.2109 46.2731 85.0485 46.4887 89.2898 46.6436C93.5311 46.7929 97.3742 46.8482 100.161 46.826C101.555 46.815 102.677 46.7873 103.457 46.7597C103.822 46.7431 104.115 46.7265 104.353 46.7155C104.557 46.7044 104.662 46.6878 104.662 46.6823C104.662 46.6712 104.552 46.6657 104.347 46.6601C104.109 46.6601 103.816 46.6602 103.451 46.6546C102.633 46.6491 101.521 46.638 100.161 46.627C97.3797 46.5993 93.5421 46.5109 89.3008 46.3615C85.0651 46.2067 81.2275 46.0242 78.4516 45.8528C77.0968 45.7643 75.9798 45.698 75.167 45.6427C74.8075 45.6206 74.5089 45.604 74.2711 45.5874C74.0665 45.5763 73.9559 45.5763 73.9559 45.5874Z" fill="#E0E0E0"/>
<path d="M78.325 52.1461C78.325 52.1461 78.6457 52.218 79.2318 52.2899C79.818 52.3618 80.6696 52.4558 81.7257 52.5498C83.8326 52.7433 86.7467 52.9424 89.9705 53.0751C93.1944 53.2023 96.1196 53.241 98.2319 53.2189C99.2881 53.2078 100.145 53.1857 100.737 53.1636C101.329 53.136 101.655 53.1138 101.655 53.0917C101.655 53.0696 101.329 53.0585 100.737 53.0475C100.095 53.0364 99.2549 53.0254 98.2319 53.0143C96.1196 52.9867 93.1999 52.9203 89.9816 52.7876C86.7633 52.6549 83.8492 52.489 81.7368 52.3452C80.7194 52.2788 79.8788 52.218 79.2374 52.1793C78.6457 52.1406 78.3195 52.1295 78.3195 52.1461H78.325Z" fill="#E0E0E0"/>
<path d="M88.2343 60.2299C88.2343 60.2686 88.9311 60.3737 90.0646 60.4898C91.2038 60.606 92.7742 60.7331 94.516 60.8216C96.2579 60.9101 97.8339 60.9377 98.9785 60.9377C100.123 60.9377 100.825 60.899 100.825 60.8603C100.825 60.8216 100.118 60.7829 98.9785 60.7331C97.7564 60.6778 96.2247 60.6115 94.5271 60.5341C92.8295 60.4401 91.2978 60.3571 90.0757 60.2908C88.9366 60.2244 88.2288 60.1968 88.2288 60.2355L88.2343 60.2299Z" fill="#E0E0E0"/>
<path d="M100.908 41.0414C100.908 41.1244 102.606 41.141 104.696 41.2294C106.786 41.3124 108.478 41.434 108.484 41.3511C108.495 41.2737 106.808 41.0248 104.707 40.9419C102.611 40.8534 100.908 40.964 100.908 41.0414Z" fill="#E0E0E0"/>
<path d="M77.5778 40.7437C77.5778 40.8211 79.7786 40.8819 82.4937 40.8709C85.2088 40.8598 87.4096 40.7879 87.404 40.7105C87.404 40.6331 85.2032 40.5723 82.4881 40.5833C79.7731 40.5944 77.5778 40.6663 77.5778 40.7437Z" fill="#E0E0E0"/>
<path d="M76.7265 74.3921C76.7265 74.3921 76.8979 74.5137 77.2297 74.6796C77.5615 74.851 78.0537 75.0777 78.6675 75.3321C79.9006 75.8519 81.648 76.4602 83.6331 76.9191C85.6238 77.3781 87.4597 77.5938 88.7979 77.6656C89.467 77.7043 90.0033 77.7154 90.3793 77.7043C90.7498 77.6988 90.96 77.6822 90.96 77.6656C90.96 77.6214 90.136 77.5882 88.8144 77.461C87.4928 77.3339 85.6736 77.0905 83.6995 76.6371C81.7254 76.1781 79.9835 75.6086 78.7449 75.1386C77.5007 74.6741 76.7487 74.3423 76.7265 74.381V74.3921Z" fill="#E0E0E0"/>
<g clip-path="url(#clip2_3457_1614)">
<path d="M166.6 67.7008C171.101 61.7698 175.845 62.6049 179.137 64.0387C182.429 65.4726 184.638 69.0816 184.418 72.6703C184.361 73.6194 184.158 74.6134 184.545 75.481C185.163 76.8782 186.966 77.2692 188.007 78.3813C189.431 79.9047 189.118 82.3162 188.634 84.3448C188.154 86.3774 187.645 88.6952 188.837 90.406C189.932 91.9743 192.015 92.3939 193.732 93.2289C196.003 94.3328 197.826 96.3899 198.485 98.8299C199.144 101.27 198.562 104.044 196.857 105.905C195.189 107.726 192.678 108.533 190.237 108.895C183.129 109.942 175.597 107.649 170.279 102.81C164.96 97.9704 161.958 90.6871 162.324 83.5016" fill="#263238"/>
<path d="M194.29 106.516C194.29 106.516 194.444 106.369 194.697 106.06C194.949 105.754 195.291 105.257 195.498 104.528C195.706 103.803 195.751 102.854 195.523 101.803C195.311 100.752 194.77 99.6115 193.85 98.6176C193.39 98.1247 192.849 97.6644 192.223 97.2734C191.6 96.8782 190.892 96.5768 190.152 96.2713C189.411 95.9658 188.626 95.6562 187.885 95.1959C187.141 94.7356 186.473 94.1124 185.924 93.3751C184.813 91.8964 184.231 89.9656 184.186 87.9778C184.162 86.9839 184.256 85.9655 184.443 84.9594C184.626 83.9533 184.882 82.9512 185.078 81.9328C185.212 81.2119 185.334 80.4827 185.326 79.7821C185.309 79.0733 185.114 78.393 184.854 77.7413C184.593 77.0855 184.284 76.45 184.04 75.7901C183.8 75.1139 183.694 74.4255 183.617 73.7493C183.535 73.0691 183.535 72.397 183.458 71.7615C183.393 71.1179 183.263 70.4947 183.096 69.8918C182.762 68.6942 182.258 67.574 181.586 66.6738L181.578 66.6616C180.455 64.8774 178.6 63.8917 176.931 63.6595C175.239 63.4069 173.741 63.9161 172.708 64.5434C171.654 65.1789 171.015 65.9324 170.641 66.4661C170.266 67.0078 170.128 67.3337 170.108 67.3256C170.108 67.3256 170.218 66.9875 170.576 66.4253C170.938 65.8713 171.568 65.0892 172.63 64.4212C173.672 63.7613 175.206 63.2155 176.96 63.4599C178.685 63.6839 180.61 64.6819 181.794 66.5312L181.786 66.519C182.498 67.4722 183.01 68.6005 183.36 69.8266C183.531 70.4417 183.67 71.0772 183.739 71.7371C183.82 72.401 183.82 73.0609 183.906 73.7249C183.983 74.3889 184.093 75.0651 184.321 75.7005C184.561 76.34 184.866 76.9755 185.134 77.6435C185.403 78.3075 185.611 79.0326 185.631 79.7862C185.639 80.5397 185.513 81.2689 185.379 82.0021C185.183 83.0327 184.927 84.0347 184.744 85.0287C184.557 86.0185 184.463 87.0124 184.488 87.986C184.528 89.929 185.09 91.7987 186.156 93.2285C186.681 93.9454 187.324 94.5442 188.036 94.9923C188.748 95.4403 189.521 95.7499 190.261 96.0595C191.002 96.3691 191.726 96.6827 192.361 97.0982C193 97.5015 193.553 97.9821 194.021 98.4954C194.957 99.5219 195.502 100.707 195.702 101.787C195.917 102.866 195.856 103.84 195.624 104.581C195.397 105.327 195.03 105.823 194.758 106.121C194.485 106.422 194.306 106.54 194.306 106.54L194.29 106.516Z" fill="#455A64"/>
<path d="M177.835 99.555C177.798 99.5102 178.258 99.0459 178.868 98.5122C179.479 97.9827 180 97.5876 180.04 97.6324C180.077 97.6772 179.617 98.1416 179.007 98.6752C178.396 99.2047 177.875 99.5998 177.835 99.555Z" fill="#FAFAFA"/>
<path d="M176.358 96.0359L162.792 97.6897C162.792 97.6897 151.879 99.6776 149.681 107.861C148.168 113.511 145.03 124.041 143.236 130.012C142.463 132.591 143.627 135.353 146.011 136.595C148.888 138.094 152.428 136.835 153.722 133.858L159.654 120.191C159.654 120.191 161.746 124.965 161.624 127.222C161.502 129.479 156.794 137.776 156.794 137.776C166.812 143.528 176.997 142.803 184.915 139.206L184.536 117.609C184.536 117.609 188.264 136.88 195.816 135.414C202.147 134.184 197.976 121.833 195.816 117.108C193.057 111.083 189.46 102.488 187.198 100.415C181.127 94.8587 176.358 96.0359 176.358 96.0359Z" fill="#E8505B"/>
<g opacity="0.2">
<path d="M163.833 98.7776C163.011 100.061 161.884 101.108 160.741 102.114C159.972 102.79 159.17 103.47 158.214 103.837C157.258 104.207 156.106 104.22 155.272 103.621C154.442 103.022 154.113 101.719 154.759 100.92C155.187 100.395 155.895 100.203 156.55 100.04C158.747 99.4986 160.944 98.9568 163.142 98.415" fill="black"/>
</g>
<path d="M146.536 123.951C146.499 123.914 147.244 123.267 148.404 122.977C149.559 122.676 150.528 122.884 150.507 122.933C150.503 122.998 149.559 122.892 148.457 123.181C147.346 123.458 146.573 124.008 146.536 123.951Z" fill="#263238"/>
<path d="M148.326 122.078C148.298 122.033 148.929 121.711 149.771 121.797C150.613 121.874 151.175 122.31 151.134 122.351C151.101 122.408 150.532 122.078 149.751 122.008C148.969 121.927 148.347 122.139 148.326 122.078Z" fill="#263238"/>
<g opacity="0.2">
<path d="M151.024 123.083C149.844 122.497 148.355 122.599 147.268 123.344C147.04 123.499 146.756 123.686 146.516 123.548C146.288 123.413 146.3 123.071 146.426 122.839C146.727 122.285 147.415 122.077 148.037 122.012C149.164 121.894 150.324 122.081 151.358 122.546" fill="black"/>
</g>
<g opacity="0.2">
<path d="M173.07 113.955C172.354 115.397 170.303 116.297 169.339 117.87C168.525 119.198 168.224 120.762 167.735 122.236C166.389 126.306 163.491 129.837 159.768 131.956C160.509 130.546 161.115 129.072 161.571 127.536C161.77 126.126 161.172 124.799 161.172 124.799C161.636 123.365 163.675 121.389 164.61 120.208C165.729 118.79 166.857 117.365 168.236 116.2C169.615 115.035 171.275 114.134 173.07 113.955Z" fill="black"/>
</g>
<path d="M178.844 129.067C178.795 129.039 179.287 128.081 179.951 126.933C180.614 125.784 181.192 124.875 181.241 124.904C181.289 124.932 180.797 125.89 180.134 127.038C179.471 128.187 178.893 129.096 178.844 129.067Z" fill="#FAFAFA"/>
<path d="M189.842 123.312C189.871 123.312 189.859 123.76 189.818 124.477C189.781 125.193 189.7 126.179 189.745 127.267C189.822 129.454 190.668 131.071 190.587 131.096C190.575 131.104 190.518 131.006 190.424 130.827C190.331 130.648 190.213 130.379 190.082 130.045C189.826 129.369 189.578 128.387 189.533 127.279C189.488 126.175 189.594 125.181 189.667 124.468C189.749 123.756 189.814 123.316 189.842 123.316V123.312Z" fill="#263238"/>
<path d="M171.446 132.489C171.487 132.449 172.187 133.125 172.891 134.09C173.599 135.056 174.026 135.927 173.977 135.952C173.924 135.98 173.416 135.166 172.72 134.212C172.024 133.259 171.402 132.526 171.446 132.485V132.489Z" fill="#FAFAFA"/>
<path d="M178.356 134.066C178.38 134.013 179.056 134.298 179.861 134.697C180.667 135.096 181.298 135.467 181.273 135.52C181.249 135.573 180.573 135.292 179.768 134.889C178.962 134.49 178.331 134.119 178.356 134.066Z" fill="#FAFAFA"/>
<path d="M173.811 127.528C173.774 127.573 173.188 127.133 172.598 126.452C172.008 125.772 171.658 125.128 171.703 125.1C171.756 125.067 172.179 125.65 172.757 126.314C173.334 126.982 173.847 127.483 173.811 127.528Z" fill="#FAFAFA"/>
<path d="M165.388 133.112C165.351 133.064 165.961 132.571 166.633 131.886C167.308 131.206 167.788 130.587 167.841 130.624C167.886 130.652 167.475 131.336 166.783 132.037C166.096 132.738 165.42 133.161 165.388 133.112Z" fill="#FAFAFA"/>
<path d="M160.944 135.389C160.985 135.344 161.526 135.776 162.161 136.35C162.792 136.925 163.272 137.426 163.235 137.47C163.195 137.515 162.653 137.083 162.019 136.509C161.388 135.935 160.908 135.434 160.944 135.389Z" fill="#FAFAFA"/>
<path d="M169.367 119.768C169.335 119.719 170.018 119.243 170.889 118.705C171.76 118.167 172.492 117.772 172.521 117.825C172.553 117.874 171.87 118.351 170.999 118.888C170.128 119.426 169.396 119.821 169.367 119.768Z" fill="#FAFAFA"/>
<path d="M176.586 117.23C176.638 117.206 177.029 117.906 177.46 118.798C177.892 119.69 178.197 120.436 178.144 120.46C178.091 120.485 177.7 119.784 177.269 118.892C176.838 118 176.533 117.255 176.586 117.23Z" fill="#FAFAFA"/>
<path d="M181.529 116.158C181.481 116.13 181.827 115.453 182.303 114.655C182.779 113.853 183.206 113.229 183.259 113.262C183.308 113.29 182.962 113.967 182.486 114.765C182.01 115.563 181.582 116.191 181.529 116.158Z" fill="#FAFAFA"/>
<path d="M175.759 111.153C175.788 111.096 176.472 111.397 177.359 111.605C178.246 111.817 178.99 111.853 178.99 111.918C178.99 111.971 178.225 112.032 177.31 111.812C176.394 111.601 175.731 111.201 175.759 111.157V111.153Z" fill="#FAFAFA"/>
<path d="M179.161 105.495C179.104 105.499 179.007 104.814 178.95 103.963C178.889 103.112 178.889 102.419 178.95 102.415C179.007 102.411 179.104 103.095 179.161 103.947C179.222 104.798 179.222 105.49 179.161 105.495Z" fill="#FAFAFA"/>
<path d="M186.746 116.83C186.693 116.81 186.937 116.032 187.295 115.091C187.653 114.15 187.987 113.409 188.044 113.429C188.097 113.449 187.853 114.228 187.495 115.168C187.137 116.109 186.803 116.851 186.746 116.83Z" fill="#FAFAFA"/>
<path d="M187.832 120.957C187.877 120.928 188.308 121.548 188.618 122.419C188.931 123.291 188.988 124.045 188.935 124.049C188.874 124.057 188.723 123.34 188.418 122.489C188.117 121.637 187.775 120.986 187.832 120.957Z" fill="#FAFAFA"/>
<path d="M162.775 105.951C162.808 105.902 163.434 106.232 164.179 106.692C164.924 107.153 165.501 107.564 165.469 107.613C165.436 107.662 164.81 107.332 164.065 106.872C163.32 106.411 162.743 106 162.775 105.951Z" fill="#FAFAFA"/>
<path d="M158.841 112.623C158.8 112.578 159.362 112.032 159.915 111.25C160.472 110.472 160.806 109.763 160.863 109.788C160.916 109.804 160.664 110.574 160.086 111.376C159.516 112.183 158.869 112.668 158.837 112.627L158.841 112.623Z" fill="#FAFAFA"/>
<path d="M152.985 112.908C153.018 112.863 153.698 113.336 154.434 114.045C155.17 114.749 155.667 115.413 155.626 115.446C155.581 115.487 155.016 114.892 154.288 114.195C153.563 113.495 152.949 112.953 152.985 112.908Z" fill="#FAFAFA"/>
<path d="M154.389 107.197C154.348 107.157 154.987 106.472 155.817 105.67C156.647 104.867 157.351 104.252 157.392 104.293C157.433 104.334 156.794 105.018 155.964 105.825C155.134 106.627 154.43 107.242 154.389 107.201V107.197Z" fill="#FAFAFA"/>
<path d="M150.764 118.049C150.707 118.065 150.426 117.32 150.133 116.383C149.84 115.446 149.649 114.668 149.702 114.652C149.759 114.635 150.039 115.381 150.332 116.318C150.625 117.255 150.817 118.033 150.764 118.049Z" fill="#FAFAFA"/>
<path d="M153.567 121.536C153.51 121.532 153.539 120.672 153.636 119.626C153.734 118.575 153.86 117.727 153.917 117.731C153.974 117.736 153.946 118.591 153.848 119.642C153.75 120.693 153.624 121.54 153.567 121.536Z" fill="#FAFAFA"/>
<path d="M173.839 105.49C172.972 104.875 171.89 104.643 170.844 104.846C169.86 105.038 168.989 105.604 168.411 106.423L164.871 111.458L145.682 126.778C142.699 129.157 142.984 133.78 146.231 135.78C148.509 137.181 151.46 136.741 153.234 134.737L168.899 117.022L170.922 115.462L173.302 113.735L173.843 108.549C173.843 108.549 175.271 109.185 176.39 109.694C178.152 110.504 178.738 109.034 178.738 109.034L173.839 105.486V105.49Z" fill="#FFBE9D"/>
<path d="M173.868 108.822C173.843 108.838 173.729 108.704 173.538 108.496C173.351 108.292 173.074 108.015 172.692 107.881C172.317 107.755 171.927 107.861 171.723 108.015C171.508 108.17 171.463 108.349 171.426 108.337C171.406 108.337 171.398 108.121 171.626 107.901C171.845 107.689 172.297 107.527 172.761 107.681C173.208 107.84 173.489 108.17 173.652 108.402C173.819 108.643 173.884 108.806 173.864 108.822H173.868Z" fill="#AA6550"/>
<path d="M171.349 110.203C171.349 110.203 171.398 110.048 171.589 109.897C171.776 109.747 172.102 109.592 172.484 109.592C172.867 109.592 173.188 109.751 173.375 109.905C173.566 110.06 173.632 110.199 173.611 110.215C173.587 110.235 173.481 110.138 173.29 110.032C173.099 109.922 172.81 109.808 172.484 109.808C172.155 109.808 171.866 109.918 171.674 110.024C171.483 110.129 171.373 110.227 171.349 110.207V110.203Z" fill="#AA6550"/>
<path d="M187.739 104.464L189.085 105.922C189.085 105.922 189.533 126.578 190.318 129.385C191.104 132.191 195.702 136.904 198.167 133.088C200.633 129.271 194.469 104.912 194.469 104.912C194.469 104.912 192.788 99.2985 192.674 97.9502L187.739 104.46V104.464Z" fill="#FFBE9D"/>
<path d="M190.827 92.4999L190.298 106.769C190.261 107.787 189.704 108.716 188.821 109.225L184.528 111.71C183.344 112.394 181.859 111.539 181.859 110.17V96.9603C181.859 96.2108 182.266 95.5183 182.921 95.1557L189.346 91.5874C190.025 91.2086 190.855 91.7218 190.827 92.4999Z" fill="#455A64"/>
<path d="M185.891 96.2592C185.659 96.7317 185.855 97.302 186.327 97.5342C186.799 97.7664 187.368 97.5709 187.6 97.0984C187.832 96.6258 187.637 96.0556 187.165 95.8234C186.693 95.5912 186.123 95.7867 185.891 96.2592Z" fill="#FAFAFA"/>
<path d="M192.674 97.9501C192.674 97.9501 189.496 93.5427 188.788 93.5793C188.084 93.616 184.667 95.6608 184.817 96.1049C184.968 96.5489 185.672 96.8096 186.302 96.5122C186.933 96.2148 188.048 95.1354 188.308 95.3594C188.569 95.5835 189.309 96.3615 189.309 96.3615C189.309 96.3615 186.172 97.9664 185.932 98.5896C185.688 99.2292 185.114 100.337 185.859 100.744C186.343 101.009 187.12 100.708 187.417 99.4451C187.417 99.4451 186.823 101.266 187.743 101.71C188.731 102.191 189.033 101.18 189.83 100.186C190.501 99.3514 190.803 100.415 190.803 100.415L192.674 97.946V97.9501Z" fill="#FFBE9D"/>
<path d="M190.269 97.9908C190.265 98.0234 190.042 98.003 189.688 98.0478C189.338 98.0885 188.858 98.2148 188.406 98.5081C187.958 98.8014 187.649 99.1924 187.47 99.4939C187.287 99.7994 187.218 100.015 187.185 100.003C187.161 99.999 187.185 99.7627 187.34 99.4246C187.494 99.0865 187.808 98.6466 188.292 98.3289C188.776 98.0111 189.305 97.9012 189.675 97.8971C190.05 97.8889 190.274 97.9663 190.269 97.9908Z" fill="#AA6550"/>
<path d="M163.495 69.0002V70.8373L163.377 98.3574C163.365 101.551 166.096 104.109 169.514 104.097C172.964 104.085 175.816 101.461 175.882 98.2352C175.951 94.8461 176.089 91.2818 176.089 91.2818C176.089 91.2818 180.459 90.6341 181.464 84.9558C181.965 82.1329 181.904 77.4892 181.733 73.6887C181.578 70.2711 178.616 67.6682 175.206 67.9655L163.491 68.9961L163.495 69.0002Z" fill="#FFBE9D"/>
<path d="M180.398 77.1552C180.406 77.5421 180.085 77.8639 179.682 77.8802C179.279 77.8965 178.95 77.5951 178.942 77.2081C178.933 76.8211 179.255 76.4993 179.658 76.4831C180.061 76.4668 180.39 76.7682 180.398 77.1552Z" fill="#263238"/>
<path d="M180.687 76.0876C180.593 76.1813 180.048 75.7617 179.263 75.7495C178.478 75.725 177.896 76.1202 177.814 76.0224C177.774 75.9776 177.867 75.8106 178.124 75.6313C178.372 75.4521 178.799 75.2851 179.287 75.2933C179.776 75.3055 180.182 75.4929 180.418 75.6802C180.659 75.8717 180.736 76.0428 180.691 76.0835L180.687 76.0876Z" fill="#263238"/>
<path d="M172.964 77.0253C172.972 77.4123 172.651 77.7341 172.248 77.7504C171.845 77.7666 171.516 77.4652 171.507 77.0782C171.499 76.6913 171.821 76.3695 172.224 76.3532C172.626 76.3369 172.956 76.6383 172.964 77.0253Z" fill="#263238"/>
<path d="M172.968 76.1003C172.875 76.194 172.329 75.7744 171.544 75.7622C170.759 75.7377 170.177 76.1329 170.091 76.0351C170.051 75.9903 170.144 75.8233 170.401 75.644C170.649 75.4648 171.076 75.2978 171.564 75.306C172.053 75.3182 172.46 75.5055 172.696 75.6929C172.932 75.8844 173.013 76.0555 172.968 76.0962V76.1003Z" fill="#263238"/>
<path d="M175.715 81.9786C175.715 81.9338 176.203 81.8564 176.992 81.7708C177.192 81.7545 177.383 81.7179 177.42 81.5794C177.468 81.4368 177.391 81.2169 177.297 80.9806C177.118 80.4918 176.931 79.9785 176.732 79.4408C175.947 77.2493 175.385 75.453 175.471 75.4204C175.56 75.3878 176.268 77.1394 177.049 79.3309C177.236 79.8726 177.42 80.3859 177.59 80.8788C177.664 81.1069 177.79 81.3676 177.68 81.669C177.623 81.8197 177.472 81.9256 177.346 81.9582C177.216 81.9949 177.106 81.9949 177.005 81.9989C176.207 82.0275 175.715 82.0234 175.711 81.9786H175.715Z" fill="#263238"/>
<path d="M176.093 91.2864C176.093 91.2864 172.264 91.4656 168.512 89.1152C168.512 89.1152 170.291 93.0583 175.991 92.6265L176.093 91.2823V91.2864Z" fill="#AA6550"/>
<path d="M175.348 83.8645C175.072 83.4856 174.583 83.2738 174.091 83.3145C173.749 83.3471 173.403 83.5019 173.192 83.7789C172.98 84.0518 172.931 84.447 173.115 84.7158C173.322 85.0172 173.762 85.0946 174.14 84.9928C174.518 84.891 174.844 84.6506 175.153 84.4103C175.239 84.3451 175.328 84.2759 175.381 84.1822C175.434 84.0885 175.45 83.9663 175.381 83.8889" fill="#EB996E"/>
<path d="M173.395 82.4796C173.521 82.4755 173.509 83.3268 174.229 83.946C174.946 84.5651 175.857 84.4877 175.861 84.6059C175.873 84.6588 175.658 84.7688 175.271 84.7729C174.897 84.781 174.347 84.6466 173.908 84.2719C173.469 83.893 173.285 83.392 173.265 83.0417C173.241 82.6832 173.338 82.4755 173.395 82.4796Z" fill="#263238"/>
<path d="M156.643 101.091C161.331 101.461 165.457 98.1131 166.157 93.4613C166.23 92.9765 166.311 92.5814 166.417 92.3207C167.076 90.6669 167.088 88.7972 166.633 87.0741C166.421 86.2758 166.12 85.404 166.482 84.6668C166.747 84.1291 167.296 83.8073 167.744 83.4162C168.757 82.5323 169.31 81.1962 169.42 79.856C169.534 78.5159 169.237 77.1676 168.769 75.9048C168.513 75.2123 168.199 74.4506 168.46 73.7581C168.643 73.2693 169.082 72.9271 169.469 72.5768C170.291 71.8355 170.978 70.9475 171.491 69.9658C172.012 68.9678 172.35 67.6683 170.991 66.874C170.706 66.707 170.388 66.6093 170.063 66.5563C167.658 66.1815 164.794 66.54 163.182 68.4342C161.868 69.978 161.685 72.1573 161.555 74.1777C161.156 80.5526 150.617 92.39 154.69 101.119L156.639 101.091H156.643Z" fill="#263238"/>
<path d="M173.229 73.0251C173.147 73.237 172.366 73.1229 171.442 73.2166C170.519 73.294 169.77 73.5506 169.652 73.3551C169.599 73.2614 169.733 73.0659 170.034 72.8622C170.335 72.6626 170.816 72.4752 171.369 72.4223C171.922 72.3734 172.427 72.4671 172.761 72.6096C173.094 72.7522 173.265 72.9233 173.229 73.0251Z" fill="#263238"/>
<path d="M180.439 73.8108C180.296 73.9859 179.759 73.7904 179.108 73.7701C178.457 73.7252 177.904 73.8678 177.782 73.6804C177.729 73.5867 177.818 73.4116 178.063 73.2487C178.303 73.0857 178.701 72.9554 179.149 72.9757C179.597 72.9961 179.979 73.1672 180.203 73.3546C180.431 73.5419 180.5 73.7252 180.439 73.8149V73.8108Z" fill="#263238"/>
</g>
<defs>
<clipPath id="clip0_3457_1614">
<rect width="132.77" height="128" fill="white" transform="translate(0 131.363) rotate(-15)"/>
</clipPath>
<clipPath id="clip1_3457_1614">
<rect width="55" height="74" fill="white" transform="translate(186 159)"/>
</clipPath>
<clipPath id="clip2_3457_1614">
<rect width="71" height="79" fill="white" transform="translate(143 63)"/>
</clipPath>
</defs>
</svg>
