<svg width="7" height="7" viewBox="0 0 7 7" fill="none" xmlns="http://www.w3.org/2000/svg">
<path d="M5.8584 1.40974C5.90857 1.36133 5.94859 1.30342 5.97613 1.23939C6.00367 1.17535 6.01819 1.10648 6.01882 1.03677C6.01946 0.967068 6.00621 0.897935 5.97985 0.833407C5.95348 0.768878 5.91453 0.710247 5.86526 0.660933C5.816 0.61162 5.7574 0.572612 5.6929 0.546186C5.62839 0.51976 5.55927 0.506445 5.48957 0.507017C5.41986 0.50759 5.35097 0.522039 5.28691 0.549521C5.22285 0.577003 5.1649 0.616969 5.11645 0.667085L3.01239 2.77044L0.909035 0.667085C0.860975 0.615507 0.803019 0.574139 0.738623 0.545446C0.674228 0.516754 0.604713 0.501325 0.534226 0.500082C0.463739 0.498838 0.393723 0.511805 0.328356 0.538208C0.262988 0.56461 0.203609 0.603909 0.153759 0.653759C0.103909 0.703609 0.0646105 0.762988 0.0382075 0.828355C0.0118046 0.893723 -0.00116197 0.963739 8.16984e-05 1.03423C0.00132536 1.10471 0.0167537 1.17423 0.0454462 1.23862C0.0741387 1.30302 0.115507 1.36098 0.167085 1.40904L2.26904 3.51309L0.165685 5.61645C0.0729551 5.71597 0.0224721 5.84759 0.0248717 5.9836C0.0272713 6.1196 0.0823661 6.24936 0.178549 6.34554C0.274732 6.44172 0.404492 6.49682 0.540494 6.49922C0.676496 6.50162 0.808119 6.45114 0.907635 6.35841L3.01239 4.25505L5.11575 6.35911C5.21527 6.45184 5.34689 6.50232 5.4829 6.49992C5.6189 6.49752 5.74866 6.44242 5.84484 6.34624C5.94102 6.25006 5.99612 6.1203 5.99852 5.9843C6.00092 5.84829 5.95043 5.71667 5.8577 5.61715L3.75575 3.51309L5.8584 1.40974Z" fill="#E8505B"/>
</svg>
