<svg width="132" height="132" viewBox="0 0 132 132" fill="none" xmlns="http://www.w3.org/2000/svg">
<path d="M111.675 111.566V81.7739" stroke="#263238" stroke-linecap="round" stroke-linejoin="round"/>
<path d="M109.259 111.566V96.793" stroke="#263238" stroke-linecap="round" stroke-linejoin="round"/>
<path d="M112.43 86.658C112.43 86.658 109.996 86.3808 108.998 84.4536C108 82.5264 107.905 77.5553 111.696 72.0456C115.487 66.5359 117.475 66.4778 118.135 70.9738C118.795 75.4697 118.7 81.9984 117.147 84.4721C115.595 86.9458 112.43 86.658 112.43 86.658Z" fill="white" stroke="#263238" stroke-linecap="round" stroke-linejoin="round"/>
<path d="M113.293 76.2804C113.742 74.7492 114.278 73.3764 114.901 72.4365" stroke="#263238" stroke-linecap="round" stroke-linejoin="round"/>
<path d="M111.408 86.3282C111.742 83.2982 112.271 80.2929 112.992 77.3311" stroke="#263238" stroke-linecap="round" stroke-linejoin="round"/>
<path d="M113.879 96.3283C113.879 96.3283 112.316 95.1165 112.443 93.3741C112.57 91.6317 114.576 88.1601 119.489 85.9584C124.402 83.7566 125.804 84.5381 124.378 87.912C122.953 91.2859 120.154 95.7501 118.042 96.8061C115.93 97.8621 113.879 96.3283 113.879 96.3283Z" fill="white" stroke="#263238" stroke-linecap="round" stroke-linejoin="round"/>
<path d="M118.818 89.5328C119.769 88.6669 120.714 87.9488 121.535 87.5581" stroke="#263238" stroke-linecap="round" stroke-linejoin="round"/>
<path d="M118.188 90.1294C116.449 91.8706 114.825 93.7225 113.325 95.6734C113.325 95.6734 112.066 97.3683 111.693 100.734" stroke="#263238" stroke-linecap="round" stroke-linejoin="round"/>
<path d="M112.992 106.392C112.992 106.392 112.087 105.69 112.161 104.681C112.234 103.673 113.396 101.661 116.245 100.383C119.093 99.1055 119.901 99.5622 119.075 101.518C118.248 103.475 116.627 106.059 115.408 106.669C114.188 107.279 112.992 106.392 112.992 106.392Z" fill="white" stroke="#263238" stroke-linecap="round" stroke-linejoin="round"/>
<path d="M115.846 102.466C116.317 102.012 116.85 101.627 117.43 101.323" stroke="#263238" stroke-linecap="round" stroke-linejoin="round"/>
<path d="M115.481 102.812C114.474 103.819 113.533 104.891 112.665 106.02C112.665 106.02 111.933 107.002 111.717 108.953" stroke="#263238" stroke-linecap="round" stroke-linejoin="round"/>
<path d="M109.468 92.2995C109.468 92.2995 111.028 91.0877 110.904 89.3453C110.78 87.6029 108.771 84.1313 103.855 81.9296C98.9393 79.7278 97.5427 80.5093 98.9683 83.8832C100.394 87.2571 103.192 91.7213 105.304 92.7773C107.416 93.8333 109.468 92.2995 109.468 92.2995Z" fill="white" stroke="#263238" stroke-linecap="round" stroke-linejoin="round"/>
<path d="M104.528 85.5045C103.719 84.7218 102.804 84.057 101.809 83.5298" stroke="#263238" stroke-linecap="round" stroke-linejoin="round"/>
<path d="M105.159 86.1011C106.897 87.8426 108.52 89.6945 110.019 91.6451C110.019 91.6451 111.279 93.3399 111.654 96.7059" stroke="#263238" stroke-linecap="round" stroke-linejoin="round"/>
<path d="M108.699 105.756C108.699 105.756 110.283 105.806 111.075 104.853C111.867 103.9 112.343 101.239 110.363 97.9889C108.383 94.7391 107.118 94.512 106.326 96.888C105.534 99.264 105.072 102.746 105.864 104.201C106.656 105.655 108.699 105.756 108.699 105.756Z" fill="white" stroke="#263238" stroke-linecap="round" stroke-linejoin="round"/>
<path d="M108.948 103.332C108.972 103.657 108.987 103.981 108.995 104.304" stroke="#263238" stroke-linecap="round" stroke-linejoin="round"/>
<path d="M107.733 96.7324C108.271 98.6459 108.654 100.6 108.879 102.575" stroke="#263238" stroke-linecap="round" stroke-linejoin="round"/>
<path d="M6.5708 86.5126H43.111V11.9326" stroke="#263238" stroke-linecap="round" stroke-linejoin="round"/>
<path d="M81.8874 86.5126H45.3472V11.9326" stroke="#263238" stroke-linecap="round" stroke-linejoin="round"/>
<path d="M60.2603 86.5126H96.8005V11.9326" stroke="#263238" stroke-linecap="round" stroke-linejoin="round"/>
<path d="M89.3456 29.4438L76.5732 43.5573" stroke="#263238" stroke-linecap="round" stroke-linejoin="round"/>
<path d="M82.2597 40.3628L78.7168 44.2779" stroke="#263238" stroke-linecap="round" stroke-linejoin="round"/>
<path d="M54.1093 25.7373L47.2109 33.359" stroke="#263238" stroke-linecap="round" stroke-linejoin="round"/>
<path d="M55.9731 23.8811L60.6354 18.7305" stroke="#263238" stroke-linecap="round" stroke-linejoin="round"/>
<path d="M41.6193 71.0605L37.1445 76.0053" stroke="#263238" stroke-linecap="round" stroke-linejoin="round"/>
<path d="M40.1276 64.4688L31.8301 73.6375" stroke="#263238" stroke-linecap="round" stroke-linejoin="round"/>
<path d="M124.292 35.6098C127.004 28.827 123.703 21.1303 116.921 18.4187C110.138 15.7072 102.441 19.0076 99.7295 25.7904C97.018 32.5732 100.318 40.2699 107.101 42.9815C113.884 45.6931 121.581 42.3927 124.292 35.6098Z" stroke="#263238" stroke-linecap="round" stroke-linejoin="round"/>
<path d="M112.015 42.2481C118.391 42.2481 123.56 37.0794 123.56 30.7034C123.56 24.3274 118.391 19.1587 112.015 19.1587C105.639 19.1587 100.471 24.3274 100.471 30.7034C100.471 37.0794 105.639 42.2481 112.015 42.2481Z" stroke="#263238" stroke-linecap="round" stroke-linejoin="round"/>
<path d="M112.015 31.4928C112.451 31.4928 112.805 31.1394 112.805 30.7034C112.805 30.2675 112.451 29.9141 112.015 29.9141C111.579 29.9141 111.226 30.2675 111.226 30.7034C111.226 31.1394 111.579 31.4928 112.015 31.4928Z" stroke="#263238" stroke-linecap="round" stroke-linejoin="round"/>
<path d="M112.016 31.4927V35.3708" stroke="#263238" stroke-linecap="round" stroke-linejoin="round"/>
<path d="M111.226 30.7031H101.812" stroke="#263238" stroke-linecap="round" stroke-linejoin="round"/>
<path d="M51.9473 62.6263L47.5966 55.8732C50.2477 51.5875 51.1464 46.4454 50.1061 41.5146C49.0658 36.5838 46.1664 32.243 42.01 29.3935C37.8536 26.5441 32.7594 25.4048 27.7851 26.2124C22.8109 27.0199 18.3387 29.7122 15.2972 33.7302C12.2556 37.7482 10.8784 42.7833 11.4514 47.79C12.0244 52.7967 14.5037 57.3903 18.3744 60.6172C22.2451 63.8441 27.2099 65.4563 32.238 65.1191C37.2661 64.7819 41.9712 62.5211 45.3763 58.8062L51.9473 62.6263Z" fill="#263238" stroke="#263238" stroke-linecap="round" stroke-linejoin="round"/>
<path d="M52.3619 60.9841L48.0086 54.231C50.6549 49.9472 51.5497 44.8088 50.5074 39.8826C49.465 34.9565 46.5654 30.621 42.4107 27.7763C38.256 24.9316 33.1654 23.7963 28.1956 24.6061C23.2259 25.4159 18.759 28.1085 15.7222 32.1249C12.6855 36.1414 11.3123 41.1731 11.8876 46.1754C12.463 51.1777 14.9428 55.7662 18.8121 58.9883C22.6815 62.2104 27.6431 63.8185 32.6669 63.4788C37.6906 63.1391 42.3906 60.8777 45.791 57.164L52.3619 60.9841Z" fill="white" stroke="#263238" stroke-linecap="round" stroke-linejoin="round"/>
<path d="M17.5927 46.7279V44.8984L20.5918 40.2889C20.8188 39.9484 21.0326 39.6158 21.2359 39.2963C21.4315 38.9869 21.5976 38.6599 21.7322 38.3195C21.8615 37.9881 21.9269 37.6351 21.925 37.2794C21.9472 36.9941 21.8708 36.7098 21.7085 36.4742C21.6373 36.3877 21.5472 36.319 21.4451 36.2732C21.3429 36.2274 21.2316 36.2058 21.1198 36.2102C21.0011 36.2033 20.8822 36.2204 20.7702 36.2603C20.6582 36.3002 20.5553 36.3621 20.4677 36.4425C20.3036 36.6138 20.1935 36.8295 20.1509 37.0629C20.0901 37.3483 20.0609 37.6396 20.0638 37.9314V38.5439H17.561V37.8786C17.5518 37.2036 17.6728 36.5331 17.9174 35.9039C18.1406 35.3361 18.5368 34.853 19.05 34.5232C19.6635 34.1617 20.3689 33.9865 21.0802 34.0189C22.2083 34.0189 23.0584 34.3111 23.6304 34.8954C24.2024 35.4797 24.4893 36.2937 24.491 37.3374C24.4958 37.8188 24.4145 38.2971 24.2508 38.7498C24.0857 39.1926 23.8724 39.6158 23.6146 40.0117C23.3506 40.4209 23.0707 40.846 22.7698 41.2922L20.4756 44.7242H24.1505V46.7279H17.5927Z" fill="#263238" stroke="#263238" stroke-linecap="round" stroke-linejoin="round"/>
<path d="M28.9263 46.7281V43.9165H25.064V42.0104L28.3376 34.1802H31.3445V41.9946H32.5061V43.9165H31.3445V46.7281H28.9263ZM27.0334 41.9761H28.9263V36.77L27.0334 41.9761Z" fill="#263238" stroke="#263238" stroke-linecap="round" stroke-linejoin="round"/>
<path d="M33.4697 46.7279L37.3136 34.1694H38.6784L34.8188 46.7279H33.4697Z" fill="#263238" stroke="#263238" stroke-linecap="round" stroke-linejoin="round"/>
<path d="M40.3526 46.7279L43.0824 36.1389H39.6504V34.1694H45.6036V35.9514L42.8817 46.7279H40.3526Z" fill="#263238" stroke="#263238" stroke-linecap="round" stroke-linejoin="round"/>
<path d="M20.0323 54.7746C19.7244 54.7861 19.4196 54.7101 19.1532 54.5555C18.9187 54.4077 18.7346 54.1923 18.6252 53.9378C18.5 53.6428 18.4268 53.3284 18.4087 53.0085L18.9367 52.8501C18.9598 53.0965 19.0085 53.3398 19.0819 53.5761C19.1392 53.7755 19.254 53.9537 19.4119 54.0882C19.588 54.2243 19.8075 54.2919 20.0297 54.2783C20.2745 54.2924 20.5154 54.2121 20.7029 54.0539C20.7903 53.9578 20.8568 53.8446 20.8982 53.7215C20.9395 53.5983 20.9548 53.4679 20.9431 53.3385C20.9481 53.0757 20.8746 52.8174 20.7319 52.5966C20.5625 52.3548 20.3669 52.1326 20.1485 51.934L19.008 50.8358C18.8214 50.6598 18.6684 50.4514 18.5565 50.2206C18.4598 50.0021 18.4111 49.7653 18.414 49.5263C18.4017 49.335 18.4313 49.1434 18.5005 48.9647C18.5698 48.7859 18.6772 48.6245 18.8152 48.4914C19.1095 48.2428 19.4864 48.1137 19.8712 48.1298C20.0814 48.1276 20.2907 48.1579 20.4917 48.2195C20.671 48.2743 20.8341 48.3722 20.9669 48.5046C21.1055 48.6501 21.2109 48.8239 21.2757 49.0142C21.357 49.2606 21.4084 49.5158 21.4288 49.7745L20.9009 49.9118C20.8858 49.6732 20.8415 49.4373 20.7689 49.2095C20.7139 49.032 20.6039 48.8767 20.4547 48.766C20.2796 48.6539 20.0735 48.6003 19.866 48.6129C19.6291 48.6023 19.3961 48.6762 19.2086 48.8214C19.1177 48.9022 19.0466 49.0027 19.0008 49.1154C18.9551 49.228 18.9358 49.3496 18.9446 49.4709C18.9425 49.6364 18.9768 49.8005 19.0449 49.9514C19.1435 50.1311 19.2741 50.2912 19.4304 50.4239L20.5761 51.5063C20.8312 51.7412 21.0556 52.0073 21.2441 52.2983C21.4311 52.5963 21.5282 52.9418 21.5239 53.2936C21.5337 53.5784 21.4681 53.8607 21.3338 54.112C21.2134 54.3274 21.0288 54.5 20.8058 54.6057C20.5641 54.7198 20.2996 54.7776 20.0323 54.7746Z" fill="#263238" stroke="#263238" stroke-linecap="round" stroke-linejoin="round"/>
<path d="M22.3345 54.6955V48.1958H24.6841V48.6684H22.9522V51.1077H24.3646V51.5565H22.9522V54.2361H24.7026V54.6955H22.3345Z" fill="#263238" stroke="#263238" stroke-linecap="round" stroke-linejoin="round"/>
<path d="M25.5366 54.6959V48.1962H27.0045C27.3352 48.1801 27.6647 48.2473 27.9628 48.3915C28.1909 48.5179 28.3682 48.7194 28.4644 48.9618C28.5731 49.2446 28.6251 49.546 28.6175 49.8488C28.6192 50.0784 28.5917 50.3073 28.5357 50.5299C28.492 50.7304 28.4015 50.9176 28.2717 51.0764C28.1288 51.2348 27.9359 51.3392 27.7252 51.3721L28.7205 54.6959H28.1265L27.1734 51.5015H26.1359V54.6959H25.5366ZM26.1359 51.0527H26.9622C27.182 51.0652 27.401 51.0177 27.5958 50.9154C27.7468 50.824 27.8601 50.6817 27.9153 50.5141C27.9866 50.2998 28.0197 50.0746 28.0129 49.8488C28.0354 49.5346 27.9627 49.2209 27.8044 48.9486C27.6645 48.7506 27.3899 48.6529 26.9781 48.6529H26.1359V51.0527Z" fill="#263238" stroke="#263238" stroke-linecap="round" stroke-linejoin="round"/>
<path d="M29.6602 54.6955V48.1958H30.27V54.6955H29.6602Z" fill="#263238" stroke="#263238" stroke-linecap="round" stroke-linejoin="round"/>
<path d="M32.5721 54.6955L31.0488 48.1958H31.6349L32.8625 53.592L34.0162 48.209H34.5838L33.1159 54.7087L32.5721 54.6955Z" fill="#263238" stroke="#263238" stroke-linecap="round" stroke-linejoin="round"/>
<path d="M35.376 54.6955V48.1958H35.9858V54.6955H35.376Z" fill="#263238" stroke="#263238" stroke-linecap="round" stroke-linejoin="round"/>
<path d="M38.6392 54.7748C38.2815 54.8003 37.9254 54.7075 37.6255 54.5108C37.3849 54.327 37.2114 54.0691 37.1318 53.7769C37.0365 53.444 36.9902 53.0989 36.9945 52.7526V50.1601C36.9894 49.8032 37.0365 49.4474 37.1344 49.1041C37.2172 48.8171 37.3938 48.5662 37.636 48.3913C37.9348 48.2011 38.2855 48.1088 38.6392 48.1273C38.9609 48.1104 39.2803 48.1884 39.558 48.3517C39.7825 48.507 39.9503 48.7313 40.0358 48.9906C40.1378 49.3078 40.1869 49.6396 40.181 49.9727V50.366H39.6002V49.9912C39.6035 49.7456 39.5805 49.5005 39.5316 49.2599C39.4983 49.0744 39.4 48.9068 39.2544 48.7873C39.0737 48.6622 38.8558 48.6026 38.6366 48.6184C38.4043 48.6025 38.1735 48.6657 37.9819 48.7979C37.8293 48.93 37.7252 49.1094 37.6862 49.3074C37.6324 49.5581 37.6067 49.814 37.6096 50.0704V52.8397C37.605 53.1067 37.6361 53.373 37.702 53.6317C37.7464 53.8263 37.8576 53.9991 38.0162 54.1201C38.2006 54.2362 38.4164 54.2925 38.634 54.2812C38.8542 54.2959 39.0727 54.2334 39.2517 54.1043C39.3975 53.976 39.4952 53.8019 39.5289 53.6106C39.5774 53.3664 39.6004 53.1177 39.5976 52.8688V52.4437H40.1757V52.8292C40.1807 53.171 40.1353 53.5117 40.0411 53.8403C39.9674 54.1139 39.8037 54.3548 39.5764 54.524C39.2985 54.7048 38.9703 54.7926 38.6392 54.7748Z" fill="#263238" stroke="#263238" stroke-linecap="round" stroke-linejoin="round"/>
<path d="M41.126 54.6955V48.1958H43.4782V48.6684H41.7437V51.1077H43.1561V51.5565H41.7437V54.2361H43.4941V54.6955H41.126Z" fill="#263238" stroke="#263238" stroke-linecap="round" stroke-linejoin="round"/>
<path d="M87.2995 84.5249H101.442C101.442 84.5249 93.7859 103.351 95.23 111.759H80.8975C80.8975 111.759 83.5718 90.259 87.2995 84.5249Z" fill="#263238" stroke="#263238" stroke-linecap="round" stroke-linejoin="round"/>
<path d="M75.063 57.5018C75.063 57.5018 75.203 60.0494 79.947 61.5357C84.6911 63.0221 89.5065 61.5357 92.1966 63.6477C94.8868 65.7597 94.8155 69.0281 93.8942 70.6569C92.9728 72.2858 91.4865 73.9121 95.8768 75.8234C100.267 77.7348 97.6456 83.3289 95.8055 85.3829C93.9654 87.4368 90.7895 88.4268 87.2387 87.7193C83.6879 87.0117 79.522 78.4449 74.9918 73.9121C70.4615 69.3792 69.9071 61.0183 72.7979 58.6212C75.6887 56.2241 75.063 57.5018 75.063 57.5018Z" fill="#263238" stroke="#263238" stroke-linecap="round" stroke-linejoin="round"/>
<path d="M74.3344 48.3387C74.3344 48.3387 76.288 47.4859 76.7896 49.1307C77.2912 50.7754 77.4391 55.2951 77.4391 55.2951L76.3831 55.0443C76.3831 55.0443 76.6339 49.9332 75.4802 49.1307C74.3265 48.3281 73.4263 50.1339 73.4263 50.1339L74.3344 48.3387Z" fill="#A6A6A6" stroke="#263238" stroke-linecap="round" stroke-linejoin="round"/>
<path d="M52.4038 103.324L59.0777 99.7552C59.0777 99.7552 58.6157 92.7513 58.6817 92.4873C58.7477 92.2233 60.4188 78.519 60.4188 78.519L55.8411 92.0913L52.4038 103.324Z" fill="#263238" stroke="#263238" stroke-linecap="round" stroke-linejoin="round"/>
<path d="M81.9084 71.4806C81.9084 71.4806 88.5084 75.0762 89.3955 75.4406C90.2825 75.8049 89.7598 80.3906 89.7598 83.387C89.7598 86.3834 85.2718 111.688 85.2718 111.688H52.0342C52.0342 111.688 57.6495 103.079 57.7999 100.832C57.9504 98.5854 56.9763 96.7876 56.8258 94.6175C56.6753 92.4474 59.8961 79.192 60.4188 78.5135C60.9415 77.835 63.1908 76.119 63.1908 76.119L71.1267 69.1679L74.7963 68.3442L81.9084 71.4806Z" fill="#E8505B" stroke="#263238" stroke-linecap="round" stroke-linejoin="round"/>
<path d="M59.8803 103.266L58.7715 105.547" stroke="#263238" stroke-linecap="round" stroke-linejoin="round"/>
<path d="M60.9444 96.7139C60.9444 96.7139 59.2971 97.8359 60.1208 98.4351C60.9444 99.0344 61.3193 100.307 61.3193 100.307L60.2633 102.363" stroke="#263238" stroke-linecap="round" stroke-linejoin="round"/>
<path d="M68.7031 102.168C69.1493 102.202 69.6192 102.229 70.1102 102.242" stroke="#263238" stroke-linecap="round" stroke-linejoin="round"/>
<path d="M61.6147 100.32C61.6147 100.32 63.4073 101.518 67.3119 102.031" stroke="#263238" stroke-linecap="round" stroke-linejoin="round"/>
<path d="M57.1482 52.4465C56.8326 52.6006 56.5693 52.8443 56.3914 53.1472C56.2134 53.45 56.1286 53.7986 56.1476 54.1493C56.1476 55.4535 57.2036 58.0064 57.2036 58.0064L57.8056 57.8084C57.8056 57.8084 56.7047 55.1525 56.8552 54.1995C56.9039 53.9216 57.0283 53.6625 57.2145 53.4506C57.4008 53.2388 57.6418 53.0822 57.9112 52.9983L57.7105 52.3462L57.1482 52.4465Z" fill="#A6A6A6" stroke="#263238" stroke-linecap="round" stroke-linejoin="round"/>
<path d="M59.7273 59.1546C59.9913 60.4746 59.5399 61.6652 58.7373 61.821C57.9347 61.9768 57.0794 61.029 56.8259 59.709C56.5725 58.389 57.0134 57.1957 57.8159 57.0426C58.6185 56.8895 59.4739 57.8372 59.7273 59.1546Z" fill="white" stroke="#263238" stroke-linecap="round" stroke-linejoin="round"/>
<path d="M62.1643 58.7296C62.6633 60.4139 62.0798 62.0745 60.8601 62.4256C59.6405 62.7767 58.2465 61.7155 57.7449 60.0311C57.2433 58.3468 57.8294 56.6863 59.0491 56.3351C60.2688 55.984 61.6653 57.0453 62.1643 58.7296Z" fill="#263238" stroke="#263238" stroke-linecap="round" stroke-linejoin="round"/>
<path d="M66.6866 67.9115L67.8719 71.7659L63.9753 76.6763L63.3258 80.4699C63.3258 80.4699 62.679 91.2939 63.0486 92.9624C63.4182 94.6309 63.4182 95.0903 63.4182 95.0903C63.4182 95.0903 71.4702 85.7447 75.4487 80.0079C79.4272 74.2712 80.3512 70.7521 80.3512 70.7521L76.4651 68.6401L74.6171 60.0337L66.6866 67.9115Z" fill="white" stroke="#263238" stroke-linecap="round" stroke-linejoin="round"/>
<path d="M72.8322 64.1812L67.8716 71.7659L66.4883 67.3016L72.8322 64.1812Z" fill="#263238" stroke="#263238" stroke-linecap="round" stroke-linejoin="round"/>
<path d="M63.3599 80.2561L63.3229 80.47C63.3229 80.47 62.6761 91.294 63.0457 92.9625C63.4153 94.6309 63.4153 95.0903 63.4153 95.0903C63.4153 95.0903 71.4673 85.7447 75.4458 80.008C75.7573 79.5592 76.0477 79.1236 76.3249 78.7012C71.3432 80.4066 66.2639 80.4357 63.3599 80.2561Z" fill="white" stroke="#263238" stroke-linecap="round" stroke-linejoin="round"/>
<path d="M61.4091 44.2808C61.4091 44.2808 57.6999 46.5353 57.2986 49.9409C56.8973 53.3465 58.3018 57.0056 58.8536 58.4576C59.4053 59.9096 61.3088 65.5724 62.3093 66.6759C63.3099 67.7794 66.5676 69.4294 67.1194 69.7304C67.6712 70.0313 68.6717 69.931 69.5244 69.3291C70.3772 68.7272 73.8831 64.4715 74.4348 63.4683C74.9866 62.4651 75.0843 60.2607 75.0843 60.2607C75.0843 60.2607 74.984 55.8519 74.786 52.9981C74.588 50.1442 74.7358 47.3854 72.3809 44.9804C70.026 42.5753 63.7138 42.5252 61.4091 44.2808Z" fill="white" stroke="#263238" stroke-linecap="round" stroke-linejoin="round"/>
<path d="M74.7859 52.9981C74.5853 50.1416 74.7358 47.3854 72.3809 44.9804C70.026 42.5753 63.7138 42.5252 61.4091 44.2808C61.4091 44.2808 57.6999 46.5353 57.2986 49.9409C57.0663 51.9209 57.4438 53.9801 57.9058 55.6486C58.7585 55.1206 61.6361 53.3571 64.8648 51.0946C68.7219 48.3886 69.9759 44.1805 69.9759 44.1805C69.9759 44.1805 70.4247 43.9297 70.327 44.4814C70.2293 45.0332 68.7219 48.2883 68.1727 48.7899L67.621 49.2889C67.621 49.2889 68.0724 49.1885 70.1263 51.6437C72.1803 54.0989 73.3313 55.1021 73.9332 55.4031C74.253 55.5186 74.5887 55.5836 74.9285 55.5958C74.8889 54.6956 74.8414 53.7874 74.7859 52.9981Z" fill="#263238" stroke="#263238" stroke-linecap="round" stroke-linejoin="round"/>
<path d="M68.6164 58.3098C68.6798 58.6768 68.5451 59.0094 68.3128 59.049C68.0805 59.0886 67.8429 58.8246 67.7848 58.4576C67.7267 58.0907 67.8561 57.758 68.0884 57.7158C68.3207 57.6736 68.5504 57.9428 68.6164 58.3098Z" fill="#263238" stroke="#263238" stroke-linecap="round" stroke-linejoin="round"/>
<path d="M63.0037 59.1094C63.0697 59.479 62.9351 59.809 62.7027 59.8513C62.4704 59.8935 62.2302 59.6269 62.1747 59.2573C62.1193 58.8877 62.2434 58.5603 62.4757 58.5181C62.708 58.4758 62.9403 58.7425 63.0037 59.1094Z" fill="#263238" stroke="#263238" stroke-linecap="round" stroke-linejoin="round"/>
<path d="M66.3169 56.0527C66.3169 56.0527 67.9722 54.7512 69.4849 55.8019" stroke="#263238" stroke-linecap="round" stroke-linejoin="round"/>
<path d="M62.9612 56.7601C62.9612 56.7601 61.0076 55.8071 59.6533 57.5125" stroke="#263238" stroke-linecap="round" stroke-linejoin="round"/>
<path d="M63.3125 56.8052C63.3125 56.8052 64.6642 57.4573 64.7645 58.7086" stroke="#263238" stroke-linecap="round" stroke-linejoin="round"/>
<path d="M64.8145 62.167C64.8145 62.167 65.3662 62.5656 66.3166 62.2673" stroke="#263238" stroke-linecap="round" stroke-linejoin="round"/>
<path d="M64.416 64.2709C65.539 64.2224 66.6433 63.9674 67.6738 63.5185C69.4267 62.7661 70.129 61.7153 70.129 61.7153" stroke="#263238" stroke-linecap="round" stroke-linejoin="round"/>
<path d="M65.2661 64.2208C65.6668 64.5751 66.1833 64.7705 66.7181 64.77C67.621 64.77 68.4209 63.1675 68.4209 63.1675C68.4209 63.1675 66.1162 64.1707 65.2661 64.2208Z" stroke="#263238" stroke-linecap="round" stroke-linejoin="round"/>
<path d="M75.6861 60.5113C76.9589 60.5113 77.9908 59.0871 77.9908 57.3301C77.9908 55.5732 76.9589 54.1489 75.6861 54.1489C74.4132 54.1489 73.3813 55.5732 73.3813 57.3301C73.3813 59.0871 74.4132 60.5113 75.6861 60.5113Z" fill="#263238" stroke="#263238" stroke-linecap="round" stroke-linejoin="round"/>
<path d="M76.663 59.2101C77.4795 59.2101 78.1414 58.1227 78.1414 56.7813C78.1414 55.4399 77.4795 54.3525 76.663 54.3525C75.8465 54.3525 75.1846 55.4399 75.1846 56.7813C75.1846 58.1227 75.8465 59.2101 76.663 59.2101Z" fill="white" stroke="#263238" stroke-linecap="round" stroke-linejoin="round"/>
<path d="M58.7373 60.7202C58.7373 60.7202 58.7531 65.9263 60.1048 66.3777C61.4565 66.8292 65.1657 65.9263 65.1657 65.9263" stroke="#263238" stroke-width="2" stroke-linecap="round" stroke-linejoin="round"/>
<path d="M67.0691 65.9052C67.0691 66.3065 66.5755 66.6312 65.9656 66.6312C65.3558 66.6312 64.8647 66.3065 64.8647 65.9052C64.8647 65.5039 65.3584 65.1792 65.9656 65.1792C66.5728 65.1792 67.0691 65.5039 67.0691 65.9052Z" fill="#263238" stroke="#263238" stroke-linecap="round" stroke-linejoin="round"/>
<path d="M67.3832 72.0059C67.3832 72.0059 65.7992 74.7752 64.6878 83.012C63.5764 91.2488 64.3129 92.8935 64.3129 92.8935L62.7289 93.8677C62.7289 93.8677 59.4368 93.4928 60.5588 85.7075C61.6808 77.9221 62.3039 76.647 62.3039 76.647L67.3832 72.0059Z" fill="#E8505B" stroke="#263238" stroke-linecap="round" stroke-linejoin="round"/>
<path d="M77.4154 69.168C77.4154 69.168 73.8224 77.7031 70.0788 83.02C66.3353 88.337 61.248 95.964 61.248 95.964C61.248 95.964 63.9435 94.6915 69.6353 90.42C75.3272 86.1484 81.0903 76.3435 81.6896 75.372C82.2888 74.4004 83.1864 72.1538 83.1864 72.1538L77.4154 69.168Z" fill="#E8505B" stroke="#263238" stroke-linecap="round" stroke-linejoin="round"/>
<path d="M46.3135 107.089C45.4353 107.623 44.5143 108.084 43.56 108.467C41.8757 109.156 41.712 109.035 42.2585 109.615C42.805 110.196 45.6271 109.156 46.3927 108.85C47.1583 108.544 48.613 108.084 48.613 108.084C48.613 108.084 50.3738 109.079 51.4457 109.386C52.5175 109.692 53.8217 109.233 53.8217 109.233C53.8217 109.233 53.8982 108.008 52.9795 107.319C52.0608 106.63 50.0755 105.022 49.3812 105.098C48.6869 105.175 46.3135 107.089 46.3135 107.089Z" fill="white" stroke="#263238" stroke-linecap="round" stroke-linejoin="round"/>
<path d="M45.8542 105.252C45.8542 105.252 44.9355 105.022 44.323 105.481C43.7105 105.941 43.0215 107.395 42.9449 107.778C42.8684 108.161 43.0215 108.391 43.634 107.855C44.2465 107.319 45.3183 106.553 45.3183 106.553L46.237 106.247L45.8542 105.252Z" fill="white" stroke="#263238" stroke-linecap="round" stroke-linejoin="round"/>
<path d="M48.2277 104.563C48.2277 104.563 46.3797 103.95 46.0075 104.486C45.6352 105.022 44.3232 108.084 44.706 108.314C45.0888 108.544 45.6247 108.084 46.3137 107.089C47.0028 106.094 47.3856 105.558 47.3856 105.558L48.3043 105.405L48.2277 104.563Z" fill="white" stroke="#263238" stroke-linecap="round" stroke-linejoin="round"/>
<path d="M51.5092 105.249C51.5092 105.249 49.1148 103.377 48.5155 103.826C47.9162 104.275 45.9705 107.194 45.7461 107.786C45.5217 108.377 46.5698 108.087 47.3908 107.337C48.2119 106.587 49.1887 105.753 49.1887 105.753L51.0605 106.727L51.5092 105.249Z" fill="white" stroke="#263238" stroke-linecap="round" stroke-linejoin="round"/>
<path d="M60.1208 106.672C60.1208 106.672 56.9765 106.522 55.7041 106.073C54.4316 105.624 51.884 104.65 51.1369 104.724C50.3897 104.798 47.5412 107.57 46.9419 108.169C46.3426 108.768 46.4139 108.929 47.0026 109.003C47.5913 109.077 49.0381 108.095 49.7139 107.57C50.132 107.248 50.5834 106.972 51.0603 106.746C51.5977 107.519 52.1991 108.246 52.8581 108.919C53.6053 109.592 55.4031 110.115 56.0763 110.041C56.5046 109.992 56.9296 109.917 57.3488 109.816L59.8964 109.742L60.1208 106.672Z" fill="white" stroke="#263238" stroke-linecap="round" stroke-linejoin="round"/>
<path d="M81.9827 85.0316C81.9827 85.0316 79.2134 88.2498 79.3638 89.3744C79.5143 90.4991 79.5882 91.6184 79.5882 91.6184L77.566 103.823C77.566 103.823 75.8447 102.999 75.8447 103.673V104.349L59.6642 105.996L59.5137 111.685L85.2695 111.759C85.2695 111.759 86.542 110.339 86.6925 109.813C86.843 109.288 89.6862 100.23 90.436 90.7208C91.1858 81.2116 90.8109 76.9453 90.436 76.2008C90.0611 75.4564 85.6444 74.0308 85.6444 74.0308" fill="#E8505B"/>
<path d="M81.9827 85.0316C81.9827 85.0316 79.2134 88.2498 79.3638 89.3744C79.5143 90.4991 79.5882 91.6184 79.5882 91.6184L77.566 103.823C77.566 103.823 75.8447 102.999 75.8447 103.673V104.349L59.6642 105.996L59.5137 111.685L85.2695 111.759C85.2695 111.759 86.542 110.339 86.6925 109.813C86.843 109.288 89.6862 100.23 90.436 90.7208C91.1858 81.2116 90.8109 76.9453 90.436 76.2008C90.0611 75.4564 85.6444 74.0308 85.6444 74.0308" stroke="#263238" stroke-linecap="round" stroke-linejoin="round"/>
<path d="M78.165 103.752C78.165 103.752 80.5595 105.323 81.9825 105.698L78.165 103.752Z" fill="white"/>
<path d="M78.165 103.752C78.165 103.752 80.5595 105.323 81.9825 105.698" stroke="#263238" stroke-linecap="round" stroke-linejoin="round"/>
<path d="M55.7038 88.5643L57.5518 82.6322C58.3011 81.8979 58.9573 81.0742 59.5054 80.1796C60.2974 78.8412 60.2974 76.3305 60.1733 75.8844C60.0492 75.4382 61.7916 73.4318 62.2853 72.7164C62.779 72.0009 63.0641 70.7073 62.3962 69.7596C61.7283 68.8118 61.393 70.3747 60.9468 71.098C60.5007 71.8214 58.9378 72.5474 58.9378 72.5474L57.2878 73.8885C57.2878 73.8885 54.5554 76.2856 54.3838 76.6209C54.2122 76.9562 53.8822 78.0148 53.8822 78.0148L54.1066 81.2488L52.6572 86.88L55.7038 88.5643Z" fill="white" stroke="#263238" stroke-linecap="round" stroke-linejoin="round"/>
<path d="M56.1606 71.9374C56.1606 71.9374 57.4991 69.8254 57.8898 69.1495C58.2806 68.4737 58.893 65.8047 59.2838 65.9815C59.6745 66.1584 60.0758 67.0375 59.9543 68.2123C59.8329 69.3871 58.4469 72.0588 58.4469 72.0588L56.1606 71.9374Z" stroke="#263238" stroke-linecap="round" stroke-linejoin="round"/>
<path d="M52.9268 85.2085L54.0989 81.2485L53.592 74.8913L55.1523 71.8817L59.4449 71.3247C59.4449 71.3247 62.0664 72.7186 62.2908 72.7186C62.5152 72.7186 62.2908 73.3311 61.7892 73.442C61.2876 73.5529 60.3372 73.2757 60.3372 73.2757L61.9556 74.3317C61.9556 74.3317 61.8447 74.8333 61.454 74.9441C61.0681 75.022 60.6754 75.06 60.2818 75.0577C60.2818 75.0577 61.6757 75.95 61.3378 76.1137C61.0068 76.2656 60.6459 76.3413 60.2818 76.3354H59.2258L58.3889 76.2245L57.1059 76.7261C57.1059 76.7261 57.9982 79.0124 57.9428 80.1291C57.8873 81.2458 56.4934 81.9771 56.4934 81.9771" fill="white"/>
<path d="M52.9268 85.2085L54.0989 81.2485L53.592 74.8913L55.1523 71.8817L59.4449 71.3247C59.4449 71.3247 62.0664 72.7186 62.2908 72.7186C62.5152 72.7186 62.2908 73.3311 61.7892 73.442C61.2876 73.5529 60.3372 73.2757 60.3372 73.2757L61.9556 74.3317C61.9556 74.3317 61.8447 74.8333 61.454 74.9441C61.0681 75.022 60.6754 75.06 60.2818 75.0577C60.2818 75.0577 61.6757 75.95 61.3378 76.1137C61.0068 76.2656 60.6459 76.3413 60.2818 76.3354H59.2258L58.3889 76.2245L57.1059 76.7261C57.1059 76.7261 57.9982 79.0124 57.9428 80.1291C57.8873 81.2458 56.4934 81.9771 56.4934 81.9771" stroke="#263238" stroke-linecap="round" stroke-linejoin="round"/>
<path d="M60.3424 73.2758C60.3424 73.2758 59.4501 72.5498 58.9485 72.5498C58.4469 72.5498 55.3818 73.1068 55.3818 73.1068" stroke="#263238" stroke-linecap="round" stroke-linejoin="round"/>
<path d="M60.2872 75.0606C60.2872 75.0606 58.8378 74.2686 58.3916 74.2686C57.9455 74.2686 54.4316 75.1609 54.4316 75.1609" stroke="#263238" stroke-linecap="round" stroke-linejoin="round"/>
<path d="M52.9978 83.9653L57.5254 87.0145C57.5254 87.0145 55.5084 97.8385 55.3104 98.7652C55.1124 99.6918 53.6604 102.134 52.9344 102.862C52.2084 103.591 51.3504 103.456 49.3678 102.928C47.3852 102.4 45.6718 100.816 45.7325 98.7652C45.7932 96.7139 52.9978 83.9653 52.9978 83.9653Z" fill="#E8505B" stroke="#263238" stroke-linecap="round" stroke-linejoin="round"/>
<path d="M29.5969 110.199H28.2822V110.603H29.5969V110.199Z" fill="white" stroke="#263238" stroke-linecap="round" stroke-linejoin="round"/>
<path d="M31.4187 110.199H30.104V110.603H31.4187V110.199Z" fill="white" stroke="#263238" stroke-linecap="round" stroke-linejoin="round"/>
<path d="M33.2405 110.199H31.9258V110.603H33.2405V110.199Z" fill="white" stroke="#263238" stroke-linecap="round" stroke-linejoin="round"/>
<path d="M35.0647 110.199H33.75V110.603H35.0647V110.199Z" fill="white" stroke="#263238" stroke-linecap="round" stroke-linejoin="round"/>
<path d="M36.886 110.199H35.5713V110.603H36.886V110.199Z" fill="white" stroke="#263238" stroke-linecap="round" stroke-linejoin="round"/>
<path d="M38.7078 110.199H37.3931V110.603H38.7078V110.199Z" fill="white" stroke="#263238" stroke-linecap="round" stroke-linejoin="round"/>
<path d="M40.5296 110.199H39.2148V110.603H40.5296V110.199Z" fill="white" stroke="#263238" stroke-linecap="round" stroke-linejoin="round"/>
<path d="M42.3509 110.199H41.0361V110.603H42.3509V110.199Z" fill="white" stroke="#263238" stroke-linecap="round" stroke-linejoin="round"/>
<path d="M44.1726 110.199H42.8579V110.603H44.1726V110.199Z" fill="white" stroke="#263238" stroke-linecap="round" stroke-linejoin="round"/>
<path d="M45.9939 110.199H44.6792V110.603H45.9939V110.199Z" fill="white" stroke="#263238" stroke-linecap="round" stroke-linejoin="round"/>
<path d="M47.8186 110.199H46.5039V110.603H47.8186V110.199Z" fill="white" stroke="#263238" stroke-linecap="round" stroke-linejoin="round"/>
<path d="M49.6399 110.199H48.3252V110.603H49.6399V110.199Z" fill="white" stroke="#263238" stroke-linecap="round" stroke-linejoin="round"/>
<path d="M51.4617 110.199H50.147V110.603H51.4617V110.199Z" fill="white" stroke="#263238" stroke-linecap="round" stroke-linejoin="round"/>
<path d="M53.283 110.199H51.9683V110.603H53.283V110.199Z" fill="white" stroke="#263238" stroke-linecap="round" stroke-linejoin="round"/>
<path d="M55.1048 110.199H53.79V110.603H55.1048V110.199Z" fill="white" stroke="#263238" stroke-linecap="round" stroke-linejoin="round"/>
<path d="M56.9265 110.199H55.6118V110.603H56.9265V110.199Z" fill="white" stroke="#263238" stroke-linecap="round" stroke-linejoin="round"/>
<path d="M60.1023 110.519H27.5273V111.664H60.1023V110.519Z" fill="white" stroke="#263238" stroke-linecap="round" stroke-linejoin="round"/>
<path d="M60.0995 110.519H47.6123V111.664H60.0995V110.519Z" fill="white" stroke="#263238" stroke-linecap="round" stroke-linejoin="round"/>
<path d="M37.6913 100.484H12.0807L6.93799 73.2495H32.5486L37.6913 100.484Z" fill="#263238" stroke="white" stroke-linecap="round" stroke-linejoin="round"/>
<path d="M36.9124 99.7946H12.0674L7.18604 73.9385H32.0284L36.9124 99.7946Z" fill="#263238" stroke="white" stroke-linecap="round" stroke-linejoin="round"/>
<path d="M32.1289 97.7355H13.6569L10.0269 78.5137H28.4989L32.1289 97.7355Z" fill="#263238" stroke="white" stroke-linecap="round" stroke-linejoin="round"/>
<path d="M10.0267 78.5136L7.18604 73.9385" stroke="#263238" stroke-linecap="round" stroke-linejoin="round"/>
<path d="M28.499 78.5136L32.0287 73.9385" stroke="white" stroke-linecap="round" stroke-linejoin="round"/>
<path d="M32.1289 97.7354L36.9126 99.7946" stroke="white" stroke-linecap="round" stroke-linejoin="round"/>
<path d="M13.6567 97.7354L12.0674 99.7946" stroke="#263238" stroke-linecap="round" stroke-linejoin="round"/>
<path d="M21.1674 91.9779H16.9619L19.6389 89.5913H23.8444L21.1674 91.9779Z" fill="#263238" stroke="white" stroke-linecap="round" stroke-linejoin="round"/>
<path d="M35.1198 110.23H19.7339V111.759H35.1198V110.23Z" fill="#263238" stroke="white" stroke-linecap="round" stroke-linejoin="round"/>
<path d="M26.3286 111.759H22.1231L16.9619 105.896H21.1674L26.3286 111.759Z" fill="#263238" stroke="white" stroke-linecap="round" stroke-linejoin="round"/>
<path d="M21.1674 92.0752H16.9619V105.835H21.1674V92.0752Z" fill="#263238" stroke="white" stroke-linecap="round" stroke-linejoin="round"/>
<path d="M82.7402 109.143C83.341 110.234 84.2539 111.12 85.3618 111.688L82.7402 109.143Z" fill="white"/>
<path d="M82.7402 109.143C83.341 110.234 84.2539 111.12 85.3618 111.688" stroke="#263238" stroke-linecap="round" stroke-linejoin="round"/>
<path d="M3.71191 111.759H124.151" stroke="#263238" stroke-linecap="round" stroke-linejoin="round"/>
</svg>
