<svg width="24" height="25" viewBox="0 0 24 25" fill="none" xmlns="http://www.w3.org/2000/svg">
<path d="M18 16.913C17.24 16.913 16.56 17.213 16.04 17.683L8.91 13.533C8.96 13.303 9 13.073 9 12.833C9 12.593 8.96 12.363 8.91 12.133L15.96 8.02301C16.5 8.52301 17.21 8.83301 18 8.83301C19.66 8.83301 21 7.49301 21 5.83301C21 4.17301 19.66 2.83301 18 2.83301C16.34 2.83301 15 4.17301 15 5.83301C15 6.07301 15.04 6.30301 15.09 6.53301L8.04 10.643C7.5 10.143 6.79 9.83301 6 9.83301C4.34 9.83301 3 11.173 3 12.833C3 14.493 4.34 15.833 6 15.833C6.79 15.833 7.5 15.523 8.04 15.023L15.16 19.183C15.11 19.393 15.08 19.613 15.08 19.833C15.08 21.443 16.39 22.753 18 22.753C19.61 22.753 20.92 21.443 20.92 19.833C20.92 18.223 19.61 16.913 18 16.913Z" fill="black"/>
</svg>
