<svg width="18" height="18" viewBox="0 0 18 18" fill="none" xmlns="http://www.w3.org/2000/svg">
<path d="M0.5 1.08301C0.5 0.884095 0.579018 0.69333 0.71967 0.552678C0.860322 0.412025 1.05109 0.333008 1.25 0.333008H1.808C2.758 0.333008 3.328 0.972008 3.653 1.56601C3.87 1.96201 4.027 2.42101 4.15 2.83701C4.18327 2.83438 4.21663 2.83305 4.25 2.83301H16.748C17.578 2.83301 18.178 3.62701 17.95 4.42601L16.122 10.835C15.9581 11.4099 15.6114 11.9157 15.1343 12.2758C14.6572 12.636 14.0758 12.8309 13.478 12.831H7.53C6.92749 12.831 6.34165 12.6332 5.86252 12.2679C5.3834 11.9026 5.0375 11.39 4.878 10.809L4.118 8.03701L2.858 3.78901L2.857 3.78101C2.701 3.21401 2.555 2.68301 2.337 2.28701C2.128 1.90201 1.96 1.83301 1.809 1.83301H1.25C1.05109 1.83301 0.860322 1.75399 0.71967 1.61334C0.579018 1.47269 0.5 1.28192 0.5 1.08301ZM7 17.833C7.53043 17.833 8.03914 17.6223 8.41421 17.2472C8.78929 16.8721 9 16.3634 9 15.833C9 15.3026 8.78929 14.7939 8.41421 14.4188C8.03914 14.0437 7.53043 13.833 7 13.833C6.46957 13.833 5.96086 14.0437 5.58579 14.4188C5.21071 14.7939 5 15.3026 5 15.833C5 16.3634 5.21071 16.8721 5.58579 17.2472C5.96086 17.6223 6.46957 17.833 7 17.833ZM14 17.833C14.5304 17.833 15.0391 17.6223 15.4142 17.2472C15.7893 16.8721 16 16.3634 16 15.833C16 15.3026 15.7893 14.7939 15.4142 14.4188C15.0391 14.0437 14.5304 13.833 14 13.833C13.4696 13.833 12.9609 14.0437 12.5858 14.4188C12.2107 14.7939 12 15.3026 12 15.833C12 16.3634 12.2107 16.8721 12.5858 17.2472C12.9609 17.6223 13.4696 17.833 14 17.833Z" fill="black"/>
</svg>
