<svg width="24" height="24" viewBox="0 0 24 24" fill="none" xmlns="http://www.w3.org/2000/svg">
<path d="M12.0033 0C13.8155 0.00104731 15.6039 0.412506 17.2343 1.2035C18.8647 1.99449 20.2948 3.14448 21.4172 4.56715C22.5397 5.98983 23.3254 7.64825 23.7153 9.41796C24.1052 11.1877 24.0892 13.0227 23.6686 14.7854C23.2479 16.548 22.4336 18.1925 21.2865 19.5955C20.1395 20.9984 18.6896 22.1233 17.0457 22.8858C15.4018 23.6483 13.6065 24.0286 11.7946 23.9982C9.98269 23.9677 8.20123 23.5272 6.58388 22.7099L6.40238 22.6124L0.934913 23.9774C0.82969 24.0038 0.719979 24.0071 0.613351 23.9871C0.506723 23.967 0.405717 23.9241 0.317304 23.8612C0.22889 23.7983 0.155173 23.717 0.101241 23.6228C0.047309 23.5287 0.0144451 23.4239 0.00491785 23.3159V23.1929L0.025918 23.0684L1.39091 17.6024L1.29641 17.4224C0.609991 16.0711 0.187452 14.6014 0.0514178 13.0919L0.0139179 12.5189L0.00341797 11.9999C0.00341797 8.81735 1.26769 5.76512 3.51812 3.5147C5.76854 1.26427 8.82077 0 12.0033 0ZM12.0033 1.49999C10.1711 1.49969 8.37057 1.97888 6.78083 2.88994C5.19109 3.801 3.86743 5.11221 2.9414 6.69327C2.01536 8.27433 1.51917 10.0702 1.50216 11.9024C1.48514 13.7346 1.94789 15.5394 2.8444 17.1374C2.914 17.2617 2.94678 17.4032 2.9389 17.5454L2.9179 17.6864L1.78391 22.2179L6.31988 21.0869C6.41209 21.0641 6.50777 21.059 6.60188 21.0719L6.73838 21.1034L6.86888 21.1619C8.26889 21.9456 9.82989 22.3981 11.432 22.4846C13.0341 22.5711 14.6348 22.2892 16.111 21.6607C17.5873 21.0322 18.8998 20.0738 19.9479 18.859C20.996 17.6442 21.7518 16.2053 22.1572 14.6529C22.5626 13.1005 22.6068 11.4758 22.2865 9.90367C21.9662 8.33151 21.2898 6.85367 20.3094 5.58362C19.3289 4.31358 18.0704 3.28512 16.6306 2.57723C15.1907 1.86933 13.6078 1.50082 12.0033 1.49999ZM12.7533 13.4999C12.9408 13.4996 13.1215 13.5694 13.26 13.6957C13.3985 13.8219 13.4847 13.9955 13.5017 14.1821C13.5186 14.3688 13.465 14.555 13.3515 14.7042C13.238 14.8533 13.0728 14.9545 12.8883 14.9879L12.7533 14.9999H8.25337C8.06595 15.0003 7.8852 14.9304 7.7467 14.8041C7.6082 14.6779 7.52199 14.5043 7.50506 14.3177C7.48813 14.131 7.54169 13.9448 7.6552 13.7957C7.76871 13.6465 7.93395 13.5453 8.11837 13.5119L8.25337 13.4999H12.7533ZM15.7533 8.99995C15.9407 8.9996 16.1215 9.06944 16.26 9.19571C16.3985 9.32198 16.4847 9.49552 16.5016 9.68217C16.5186 9.86883 16.465 10.0551 16.3515 10.2042C16.238 10.3533 16.0727 10.4545 15.8883 10.4879L15.7533 10.4999H8.25337C8.06595 10.5003 7.8852 10.4304 7.7467 10.3042C7.6082 10.1779 7.52199 10.0044 7.50506 9.81771C7.48813 9.63106 7.54169 9.44483 7.6552 9.2957C7.76871 9.14656 7.93395 9.04534 8.11837 9.01195L8.25337 8.99995H15.7533Z" fill="black"/>
</svg>
