<svg width="27" height="24" viewBox="0 0 27 24" fill="none" xmlns="http://www.w3.org/2000/svg">
<path d="M2.4225 24C1.7325 24 1.1565 23.769 0.6945 23.307C0.2315 22.844 0 22.2675 0 21.5775V6.9225C0 6.2325 0.2315 5.6565 0.6945 5.1945C1.1565 4.7315 1.7325 4.5 2.4225 4.5H9V2.4225C9 1.7325 9.2315 1.1565 9.6945 0.6945C10.1565 0.2315 10.7325 0 11.4225 0H15.5775C16.2675 0 16.844 0.2315 17.307 0.6945C17.769 1.1565 18 1.7325 18 2.4225V4.5H24.5775C25.2675 4.5 25.8435 4.7315 26.3055 5.1945C26.7685 5.6565 27 6.2325 27 6.9225V21.5775C27 22.2675 26.769 22.8435 26.307 23.3055C25.844 23.7685 25.2675 24 24.5775 24H2.4225ZM2.4225 22.5H24.5775C24.8075 22.5 25.019 22.404 25.212 22.212C25.404 22.019 25.5 21.8075 25.5 21.5775V6.9225C25.5 6.6925 25.404 6.481 25.212 6.288C25.019 6.096 24.8075 6 24.5775 6H2.4225C2.1925 6 1.981 6.096 1.788 6.288C1.596 6.481 1.5 6.6925 1.5 6.9225V21.5775C1.5 21.8075 1.596 22.019 1.788 22.212C1.981 22.404 2.1925 22.5 2.4225 22.5ZM10.5 4.5H16.5V2.4225C16.5 2.1925 16.404 1.981 16.212 1.788C16.019 1.596 15.8075 1.5 15.5775 1.5H11.4225C11.1925 1.5 10.981 1.596 10.788 1.788C10.596 1.981 10.5 2.1925 10.5 2.4225V4.5Z" fill="black"/>
</svg>
